<svg xmlns="http://www.w3.org/2000/svg" xmlns:xlink="http://www.w3.org/1999/xlink" width="48.998" height="48.998" viewBox="0 0 48.998 48.998">
  <defs>
    <linearGradient id="linear-gradient" x1="1.017" x2="0" y2="1" gradientUnits="objectBoundingBox">
      <stop offset="0" stop-color="#545ecb"/>
      <stop offset="1" stop-color="#23b6d9"/>
    </linearGradient>
  </defs>
  <g id="iterator" transform="translate(-3115.615 -2377.036)">
    <g id="base" transform="translate(3115.615 2377.036)">
      <path id="Path_1" data-name="Path 1" d="M37.244,51.242h-19a14,14,0,0,1-14-14v-19a14,14,0,0,1,14-14h19a14,14,0,0,1,14,14v19a14,14,0,0,1-14,14Z" transform="translate(-3.245 -3.245)" fill="url(#linear-gradient)"/>
      <path id="Path_2" data-name="Path 2" d="M15,2A13,13,0,0,0,2,15V34A13,13,0,0,0,15,47H34A13,13,0,0,0,47,34V15A13,13,0,0,0,34,2H15m0-2H34A15,15,0,0,1,49,15V34A15,15,0,0,1,34,49H15A15,15,0,0,1,0,34V15A15,15,0,0,1,15,0Z" fill="#c7e7ff"/>
    </g>
    <path id="security-on" d="M41.012,4.38c-4.783,0-8.448-1.367-11.546-4.38C26.367,3.013,22.7,4.38,17.92,4.38c0,7.847-1.624,19.087,11.545,23.652C42.635,23.467,41.012,12.226,41.012,4.38Zm-12.5,13.808L24.663,14.34l1.722-1.722,2.124,2.125,4.038-4.038,1.722,1.722Z" transform="translate(3110.681 2387.637)" fill="#fff"/>
  </g>
</svg>
