<svg id="SvgjsSvg1001" width="288" height="288" xmlns="http://www.w3.org/2000/svg" version="1.1" xmlns:xlink="http://www.w3.org/1999/xlink" xmlns:svgjs="http://svgjs.com/svgjs"><defs id="SvgjsDefs1002"></defs><g id="SvgjsG1008" transform="matrix(0.9167,0,0,0.9167,11.993843782043456,11.992733185946946)"><svg xmlns="http://www.w3.org/2000/svg" width="288" height="288" version="1.0" viewBox="0 0 472 539"><path d="M2223 5376 c-34 -8 -82 -23 -107 -34 -24 -11 -47 -18 -50 -14 -3 3-6 1 -6 -5 0 -9 -35 -30 -54 -31 -5 0 -12 -4 -15 -9 -7 -11 -261 -164 -261
-158 0 3 -8 -2 -17 -10 -10 -8 -22 -15 -27 -14 -5 0 -12 -4 -15 -9 -7 -11
-211 -134 -211 -127 0 3 -8 -2 -17 -10 -10 -8 -22 -15 -27 -14 -5 0 -12 -4
-15 -9 -7 -11 -261 -163 -261 -156 0 2 -8 -3 -17 -11 -10 -8 -22 -15 -27 -14
-5 0 -12 -4 -15 -9 -7 -11 -261 -163 -261 -156 0 2 -9 -4 -20 -14 -12 -9 -23
-15 -27 -14 -3 2 -9 -1 -12 -6 -7 -11 -211 -134 -211 -127 0 3 -8 -2 -17 -10
-10 -8 -22 -16 -28 -17 -5 -2 -18 -9 -28 -18 -10 -8 -20 -13 -24 -12 -3 2 -9
-1 -12 -6 -8 -13 -141 -93 -141 -85 0 4 -42 -36 -93 -88 -68 -70 -102 -113
-130 -169 -77 -153 -71 -54 -74 -1315 l-2 -1130 28 -87 c42 -125 83 -191 183
-292 48 -49 88 -86 88 -83 0 8 133 -72 141 -85 3 -5 9 -8 12 -6 4 1 15 -5 27
-14 11 -10 20 -16 20 -14 0 7 254 -145 261 -156 3 -5 9 -8 12 -6 4 1 15 -5 27
-14 11 -10 20 -16 20 -14 0 7 254 -145 261 -156 3 -5 9 -8 12 -6 4 1 15 -5 27
-14 11 -10 20 -16 20 -13 0 7 204 -116 211 -127 3 -5 10 -9 15 -9 5 1 16 -5
24 -12 8 -7 20 -14 25 -15 19 -4 300 -174 307 -186 4 -6 8 -8 8 -4 0 8 252
-141 261 -155 3 -5 9 -8 13 -8 3 1 34 -13 69 -31 34 -18 64 -32 67 -33 3 0 30
-7 60 -15 33 -9 99 -15 165 -14 157 1 215 23 479 179 118 70 218 126 222 125
4 -1 10 3 13 8 8 14 311 192 311 184 0 -4 4 -2 8 4 8 12 262 166 262 159 0 -3
9 3 20 13 12 9 23 15 27 14 3 -2 9 1 12 6 9 13 261 162 261 154 0 -4 4 -2 8 4
8 13 262 166 262 158 0 -3 10 4 22 15 11 11 25 18 30 15 4 -3 8 -1 8 4 0 9 76
55 84 50 3 -2 12 6 20 17 9 11 16 17 16 12 0 -14 188 182 189 199 1 2 13 28
28 57 15 28 28 58 29 65 1 8 6 21 10 30 32 74 35 204 31 1272 -2 586 -7 1076
-10 1090 -4 14 -8 32 -10 40 -2 8 -7 23 -11 32 -4 9 -9 22 -10 30 -1 7 -14 37
-29 65 -15 29 -27 56 -26 59 0 3 -8 12 -18 20 -10 7 -14 14 -10 14 12 0 -160
170 -172 170 -6 0 -11 5 -11 12 0 6 -3 9 -6 5 -7 -6 -135 69 -146 87 -4 6 -8
8 -8 4 0 -9 -303 171 -312 186 -4 6 -8 8 -8 4 0 -8 -252 141 -261 154 -3 5 -9
8 -12 6 -4 -1 -15 5 -27 14 -11 10 -20 16 -20 13 0 -6 -254 146 -261 157 -3 5
-9 8 -12 6 -4 -1 -15 5 -27 14 -11 10 -20 16 -20 13 0 -6 -254 146 -261 157
-3 5 -9 8 -12 6 -4 -1 -15 5 -27 14 -11 10 -20 16 -20 14 0 -7 -254 145 -261
156 -3 5 -9 10 -12 9 -4 0 -36 13 -72 30 -35 16 -71 29 -78 29 -8 0 -17 3 -21
7 -19 19 -230 25 -303 9z m255 -121 c34 -8 82 -24 105 -36 23 -12 434 -254
912 -537 781 -463 877 -523 935 -582 69 -69 118 -149 144 -240 l16 -54 -34 37
c-61 67 -142 84 -235 48 -27 -10 -444 -263 -927 -562 -947 -586 -978 -608
-1038 -726 -58 -115 -56 -75 -56 -1210 0 -697 4 -1058 11 -1092 14 -65 58
-133 100 -153 28 -14 31 -18 16 -24 -35 -13 -180 3 -247 28 -73 28 -1798 1049
-1867 1105 -60 49 -127 145 -160 229 l-28 69 0 1135 0 1135 24 65 c31 85 100
189 159 238 46 39 1775 1071 1840 1099 103 43 221 53 330 28z m592 -2922 c0
-68 2 -74 18 -68 9 5 45 10 79 13 51 3 64 1 69 -12 7 -18 -23 -154 -39 -173
-5 -8 -33 -13 -67 -13 -113 0 -216 -83 -227 -182 -3 -25 0 -55 6 -66 13 -25
68 -42 137 -42 168 0 247 -93 230 -271 -11 -125 -66 -245 -155 -337 l-50 -52
-3 -88 -3 -87 -55 -32 c-30 -18 -58 -33 -62 -33 -4 0 -8 37 -8 81 0 80 0 81
-22 74 -40 -12 -162 -16 -177 -6 -12 8 -12 19 -1 73 7 34 19 77 26 95 l12 31
61 -5 c140 -13 270 96 271 225 0 82 -24 98 -167 111 -157 14 -203 62 -203 211
0 132 47 244 146 350 l43 46 3 90 3 89 55 37 c71 47 80 40 80 -59z m890 -908
l0 -64 -42 -29 c-87 -58 -396 -242 -407 -242 -8 0 -11 21 -9 68 l3 67 220 132
c121 73 223 132 228 133 4 0 7 -29 7 -65z" transform="matrix(.1 0 0 -.1 0 539)" fill="#ffffff" class="color000 svgShape"></path></svg></g></svg>