<svg xmlns="http://www.w3.org/2000/svg" xmlns:xlink="http://www.w3.org/1999/xlink" width="34" height="34" viewBox="0 0 34 34"><defs><clipPath id="a"><rect width="18" height="18" transform="translate(3217 542)" fill="#60edff" stroke="#707070" stroke-width="1"/></clipPath></defs><g transform="translate(-3209 -534)"><circle cx="17" cy="17" r="17" transform="translate(3209 534)" fill="rgba(0,0,0,0.25)"/><g clip-path="url(#a)"><g transform="translate(3217 542)"><path d="M.049,14.257.029,6.076A.56.56,0,0,1,.81,5.56L8.257,8.743a.56.56,0,0,1,.34.514l.019,8.181a.56.56,0,0,1-.78.516L.389,14.771A.56.56,0,0,1,.049,14.257Zm17.063-7.8L10.239,9.438l.018,7.571,6.872-2.976-.018-7.571m.278-.987a.561.561,0,0,1,.561.559l.019,8.181a.56.56,0,0,1-.338.515L10.2,17.949a.559.559,0,0,1-.783-.513L9.4,9.255a.56.56,0,0,1,.338-.515l7.432-3.219a.559.559,0,0,1,.222-.047ZM8.946.867,1.817,4.05,8.961,7.2,16.09,4.016,8.946.867m0-.867a.56.56,0,0,1,.227.048L17.006,3.5a.56.56,0,0,1,0,1.024L9.19,8.017a.56.56,0,0,1-.454,0L.9,4.564A.56.56,0,0,1,.9,3.54L8.716.049A.56.56,0,0,1,8.944,0Z" fill="#60edff"/></g></g></g></svg>