<svg xmlns="http://www.w3.org/2000/svg" width="155.837" height="128" viewBox="0 0 155.837 128"><defs><style>.a{opacity:0.05;}.b{opacity:0.098;}.c{fill:#ce9d94;}.d{fill:#345c29;}.e{fill:#a8c47e;}.f{fill:#528f41;}.g{fill:#27451f;}.h{fill:#477d38;}.i{fill:#bad98b;}.j,.p,.r,.u,.x{fill:#f3f6eb;}.j{font-size:5px;font-family:Montserrat-Black, Montserrat;font-weight:800;}.k{fill:#ffe7de;}.l{fill:none;stroke:#db6e44;stroke-linecap:round;stroke-linejoin:round;stroke-dasharray:5 5;}.m{fill:#f5bd28;}.n,.o{fill:#1f1f1f;}.n,.p{opacity:0.2;}.o,.r{opacity:0.1;}.q{fill:#e87e00;}.s{fill:#140b00;opacity:0.3;}.t{fill:#cf7000;}.v{fill:#b36100;}.w{fill:#fa8800;}.x{opacity:0.5;}.y{fill:#fff5cf;}</style></defs><g transform="translate(-907.163 -220)"><path class="a" d="M2226.949-624.364c-24.676-7.052-46.156-22.333-59.738-44.938-15.255-25.389-17.673-55.241-9.255-83.062H2299a10,10,0,0,1,10,10v108a9.959,9.959,0,0,1-1.217,4.785,131.41,131.41,0,0,1-15.359,5.215Z" transform="translate(-1246 972.364)"/><path class="b" d="M2189.5-716.656c-12.772-21.257-13.888-46.59-5.328-69.672H2299a10,10,0,0,1,10,10v85.7a102.021,102.021,0,0,1-47.938,12.215C2231.746-678.407,2204.428-691.807,2189.5-716.656Z" transform="translate(-1246 1006.327)"/><g transform="translate(561.149 67.618)"><g transform="translate(408.851 167.456)"><path class="c" d="M446.821,231.978,411.23,249.532a1.649,1.649,0,0,1-2.208-.75h0a1.649,1.649,0,0,1,.749-2.208l33.27-16.408a2.589,2.589,0,0,1,3.467,1.177Z" transform="translate(-408.851 -216.339)"/><path class="d" d="M448.066,250.722l-15.9,10.534-17.293-26.391,15.9-10.534Z" transform="translate(-413.199 -212.321)"/><g transform="translate(8.45 0)"><rect class="d" width="19.071" height="29.573" transform="translate(0 4.809) rotate(-14.606)"/><path class="e" d="M469.527,212.937l-5.158-19.793a2.9,2.9,0,0,1-3.538-2.075l-9.63,2.509a2.9,2.9,0,0,1-2.075,3.538l5.158,19.793a2.9,2.9,0,0,1,3.538,2.075l9.63-2.509A2.9,2.9,0,0,1,469.527,212.937Z" transform="translate(-446.371 -188.313)"/><circle class="f" cx="4.871" cy="4.871" r="4.871" transform="matrix(0.506, -0.863, 0.863, 0.506, 6.289, 18.45)"/><g transform="translate(9.557 14.54)"><path class="g" d="M474.359,235.666l.983,3.771a.4.4,0,0,1-.775.2l-.983-3.771a.4.4,0,1,1,.775-.2Z" transform="translate(-473.571 -234.826)"/><path class="g" d="M479.822,234.242l.983,3.771a.4.4,0,0,1-.776.2l-.983-3.771a.4.4,0,0,1,.776-.2Z" transform="translate(-477.513 -233.798)"/><path class="g" d="M482.537,233.724a.4.4,0,0,1-.042.3l-2.074,3.535a.4.4,0,0,1-.733-.1c-.354-1.357-1.181-2.152-1.7-2.016s-.855,1.233-.5,2.591a.4.4,0,0,1-.775.2c-.45-1.726.022-3.294,1.075-3.568.869-.226,1.823.509,2.382,1.744l1.638-2.792a.4.4,0,0,1,.733.1Z" transform="translate(-475.713 -233.424)"/></g></g><g transform="translate(11.9 28.192)"><rect class="d" width="19.071" height="29.573" transform="translate(0 4.809) rotate(-14.606)"/><path class="e" d="M481.928,314.265l-5.158-19.793a2.9,2.9,0,0,1-3.538-2.075l-9.629,2.509a2.9,2.9,0,0,1-2.075,3.538l5.158,19.793a2.9,2.9,0,0,1,3.538,2.075l9.63-2.509A2.9,2.9,0,0,1,481.928,314.265Z" transform="translate(-458.772 -289.642)"/><path class="f" d="M490.262,328.7a4.871,4.871,0,1,1-5.942-3.486A4.871,4.871,0,0,1,490.262,328.7Z" transform="translate(-472.593 -313.21)"/><g transform="translate(9.557 14.54)"><path class="g" d="M486.76,336.994l.983,3.771a.4.4,0,0,1-.776.2l-.983-3.771a.4.4,0,0,1,.776-.2Z" transform="translate(-485.971 -336.154)"/><path class="g" d="M492.223,335.571l.983,3.771a.4.4,0,0,1-.775.2l-.983-3.771a.4.4,0,1,1,.775-.2Z" transform="translate(-489.914 -335.127)"/><path class="g" d="M494.937,335.052a.4.4,0,0,1-.042.3l-2.074,3.535a.4.4,0,0,1-.733-.1c-.354-1.357-1.181-2.152-1.7-2.016s-.855,1.233-.5,2.59a.4.4,0,1,1-.776.2c-.45-1.726.022-3.294,1.075-3.568.869-.226,1.823.509,2.382,1.744l1.637-2.792a.4.4,0,0,1,.733.1Z" transform="translate(-488.113 -334.752)"/></g></g><g transform="translate(23.086 13.187)"><rect class="h" width="19.071" height="29.573" transform="translate(0 0.908) rotate(-2.73)"/><path class="e" d="M515.273,258.489l-.974-20.431a2.9,2.9,0,0,1-3.035-2.759l-9.94.474a2.9,2.9,0,0,1-2.759,3.035l.974,20.431A2.9,2.9,0,0,1,502.575,262l9.94-.474A2.9,2.9,0,0,1,515.273,258.489Z" transform="translate(-496.69 -233.424)"/><path class="f" d="M520.82,270.409a4.871,4.871,0,1,1-5.1-4.634A4.871,4.871,0,0,1,520.82,270.409Z" transform="translate(-505.725 -255.417)"/><g transform="translate(7.147 12.925)"><path class="g" d="M518.317,275.668l.186,3.893a.4.4,0,0,1-.8.038l-.186-3.893a.4.4,0,1,1,.8-.038Z" transform="translate(-517.516 -275.212)"/><path class="g" d="M523.956,275.4l.186,3.893a.4.4,0,1,1-.8.038l-.186-3.893a.4.4,0,0,1,.8-.038Z" transform="translate(-521.586 -275.017)"/><path class="g" d="M524.8,278.231a.4.4,0,0,1-.1.289l-2.757,3.033a.4.4,0,0,1-.7-.251c-.067-1.4-.713-2.349-1.25-2.323s-1.091,1.031-1.024,2.432a.4.4,0,0,1-.8.038c-.085-1.782.7-3.219,1.786-3.27.9-.043,1.679.874,1.972,2.2l2.177-2.395a.4.4,0,0,1,.7.25Z" transform="translate(-517.983 -277.062)"/></g></g><g transform="translate(15.274 25.242)"><rect class="h" width="19.071" height="29.573" transform="translate(0 9.795) rotate(-30.903)"/><path class="e" d="M501.3,303.974,490.8,286.424a2.9,2.9,0,0,1-3.978-1l-8.539,5.111a2.9,2.9,0,0,1-1,3.978l10.505,17.55a2.9,2.9,0,0,1,3.978,1l8.539-5.111A2.9,2.9,0,0,1,501.3,303.974Z" transform="translate(-473.518 -281.659)"/><circle class="f" cx="4.871" cy="4.871" r="4.871" transform="translate(9.498 20.421) rotate(-69.31)"/><g transform="translate(12.151 14.63)"><path class="g" d="M508.169,332.621l2,3.344a.4.4,0,0,1-.687.411l-2-3.344a.4.4,0,1,1,.688-.412Z" transform="translate(-507.424 -330.213)"/><path class="g" d="M513.012,329.722l2,3.344a.4.4,0,0,1-.688.411l-2-3.344a.4.4,0,0,1,.688-.412Z" transform="translate(-510.92 -328.121)"/><path class="g" d="M517.389,324.669a.4.4,0,0,1,.045.3l-1,3.975a.4.4,0,0,1-.732.108c-.721-1.2-1.737-1.734-2.2-1.458s-.475,1.423.246,2.627a.4.4,0,1,1-.687.411c-.916-1.531-.9-3.168.03-3.726.77-.461,1.893-.023,2.776,1.006l.788-3.139a.4.4,0,0,1,.732-.108Z" transform="translate(-511.004 -324.474)"/></g></g><g transform="translate(2.387 7.073)"><rect class="f" width="19.071" height="29.573" transform="translate(0 8.874) rotate(-27.732)"/><path class="i" d="M453.8,238.814l-9.518-18.1a2.9,2.9,0,0,1-3.917-1.218l-8.808,4.631a2.9,2.9,0,0,1-1.218,3.917l9.518,18.1a2.9,2.9,0,0,1,3.917,1.218l8.808-4.631A2.9,2.9,0,0,1,453.8,238.814Z" transform="translate(-426.745 -215.901)"/><circle class="f" cx="4.871" cy="4.871" r="4.871" transform="translate(9.223 20.731) rotate(-72.732)"/><text class="j" transform="translate(17.754 18.136) rotate(-118.816)"><tspan x="0" y="0">$</tspan></text></g><path class="k" d="M409.464,254.7l14.169,28.73a1.649,1.649,0,0,0,2.208.749L460.48,267.1a2.589,2.589,0,0,0,1.177-3.467l-11.879-24.086a2.589,2.589,0,0,0-3.467-1.177l-34.639,17.084A1.649,1.649,0,0,1,409.464,254.7Z" transform="translate(-409.293 -222.259)"/><path class="l" d="M429.531,286.184a.707.707,0,0,0,.946.321l33.9-16.72a2.469,2.469,0,0,0,1.122-3.307l-11.152-22.611a2.469,2.469,0,0,0-3.306-1.122l-33.9,16.72a2.585,2.585,0,0,1-.677.225" transform="translate(-414.346 -225.427)"/><rect class="m" width="10.599" height="3.298" transform="translate(37.293 43.812) rotate(-26.252)"/></g><path class="n" d="M586.589,279.773a8.317,8.317,0,0,0-.925-3.808,9.352,9.352,0,0,0-.611-1.017,10.031,10.031,0,0,0-3.673-3.17,11.441,11.441,0,0,0-5.236-1.244c-4.7,0-8.672,2.746-9.985,6.52a40.732,40.732,0,0,0-.46,4.531,8.156,8.156,0,0,0,.2,1.814,8.011,8.011,0,0,0,.332,1.112c.062.163.127.322.2.481a8.365,8.365,0,0,0,.39.765c.048.084.1.169.149.252a9.638,9.638,0,0,0,2.608,2.763c.127.092.257.181.39.265.05.034.1.065.149.1a9.976,9.976,0,0,0,.925.517,10.889,10.889,0,0,0,1.683.668c.127.041.257.077.388.112.05.014.1.028.149.039a11.671,11.671,0,0,0,2.61.352c.09,0,.179,0,.269,0,.04,0,.08,0,.119,0s.1,0,.149,0a11.671,11.671,0,0,0,2.61-.352q.2-.05.388-.106c.05-.014.1-.029.149-.045a10.732,10.732,0,0,0,2.608-1.187c.131-.08.263-.165.39-.255.052-.033.1-.067.149-.1a9.623,9.623,0,0,0,2.608-2.765c.141-.228.272-.462.39-.7q.081-.156.149-.318c.084-.181.159-.363.227-.55a36.571,36.571,0,0,0,.507-4.663Z" transform="translate(-113.208 -78.214)"/><path class="n" d="M618.469,302.979a7.132,7.132,0,0,0-1.018-3.643,8.789,8.789,0,0,0-.672-.973,10.745,10.745,0,0,0-4.042-3.032,14.147,14.147,0,0,0-5.762-1.19c-5.169,0-9.543,2.626-10.988,6.237a6.979,6.979,0,0,0-.506,2.6,6.815,6.815,0,0,0,.056.873,6.9,6.9,0,0,0-.056.861,6.826,6.826,0,0,0,.223,1.735,6.923,6.923,0,0,0,.366,1.064c.068.156.14.308.219.46a7.693,7.693,0,0,0,.429.731c.052.081.107.162.164.241a9.91,9.91,0,0,0,2.87,2.643c.14.088.282.173.429.254.055.032.109.062.164.092q.49.268,1.018.494a13.127,13.127,0,0,0,1.852.639c.14.039.282.073.427.107.055.013.109.026.164.038a14.688,14.688,0,0,0,2.872.336c.1,0,.2,0,.3,0,.044,0,.088,0,.131,0s.109,0,.164,0a14.691,14.691,0,0,0,2.872-.336q.217-.048.427-.1c.055-.013.11-.028.164-.043a12.727,12.727,0,0,0,2.87-1.135c.145-.077.289-.158.429-.245.057-.032.109-.064.164-.1a9.891,9.891,0,0,0,2.87-2.645,7.4,7.4,0,0,0,.429-.671q.089-.149.164-.3c.092-.173.175-.348.25-.526a30.453,30.453,0,0,0,.558-4.461Z" transform="translate(-134.704 -95.252)"/><path class="n" d="M536.375,191.184a9.411,9.411,0,0,0-4.6-.23,8.809,8.809,0,0,0-1.128.3,9.374,9.374,0,1,0,6.83,17.434,9.81,9.81,0,0,0,1.032-.548,9.427,9.427,0,0,0,3.215-3.3,9.376,9.376,0,0,0-5.352-13.658Z" transform="translate(-83.288 -20.644)"/><path class="o" d="M517.666,179.57l.431-.463-2.385-2.222-.587.63-.073.079-.088.094h0l-1.676,1.8-.086.092-.088.094h0l-1.77,1.9-.079.085h0l-1.534,1.647h0l-.228.245-.088.094h0l-1.534,1.647h0l-.228.245-.088.094h0l-1.533,1.646h0l-.229.246-.088.094h0l-1.533,1.646h0l-.229.246-.088.094h0l-.431.463,2.385,2.222,4.186-4.494.033-.035.106-.114,1.928-2.069.044-.047h0l1.613-1.732.009-.009.228-.245h0l3.383-3.631h0l.053-.057.108-.116Z" transform="translate(-68.267 -10.62)"/><g transform="translate(441.886 166.494)"><path class="m" d="M546.328,187.082a9.319,9.319,0,0,1-1.262,4.7,9.426,9.426,0,0,1-3.215,3.3,9.814,9.814,0,0,1-1.032.548,9.374,9.374,0,1,1-6.83-17.434,8.813,8.813,0,0,1,1.128-.3,9.367,9.367,0,0,1,11.211,9.19Z" transform="translate(-527.584 -177.71)"/><path class="p" d="M543.913,196.87a9.409,9.409,0,0,1-6.755.375l-5.288-13.492a9.393,9.393,0,0,1,5.213-4.316Z" transform="translate(-530.677 -178.956)"/><path class="p" d="M564.609,191.781a9.425,9.425,0,0,1-3.215,3.3l-6.734-17.184a9.412,9.412,0,0,1,4.6.23Z" transform="translate(-547.127 -177.71)"/><circle class="q" cx="7.825" cy="7.825" r="7.825" transform="translate(1.547 1.547)"/><ellipse class="r" cx="5.239" cy="4.373" rx="5.239" ry="4.373" transform="translate(4.641 2.824)"/><path class="s" d="M534.1,191.1a7.825,7.825,0,0,1,7.349-7.809c-.157-.009-.316-.016-.476-.016a7.825,7.825,0,1,0,0,15.65c.16,0,.319-.006.476-.016A7.825,7.825,0,0,1,534.1,191.1Z" transform="translate(-531.597 -181.723)"/><path class="p" d="M565.157,192.671c-.174.834-1.333,1.3-2.587,1.034s-2.13-1.151-1.956-1.984,1.333-1.3,2.587-1.034S565.331,191.837,565.157,192.671Z" transform="translate(-551.408 -187.023)"/></g><g transform="translate(435.666 162.171)"><rect class="t" width="18.013" height="3.259" transform="matrix(0.682, -0.732, 0.732, 0.682, 0, 13.18)"/><rect class="u" width="0.633" height="3.259" transform="translate(11.847 0.463) rotate(-47.029)"/><g transform="translate(11.53 0.463)"><rect class="v" width="0.336" height="3.259" transform="translate(0.088 0.246) rotate(-47.029)"/><rect class="w" width="0.129" height="3.259" transform="translate(0 0.34) rotate(-47.024)"/></g><g transform="translate(9.68 2.449)"><rect class="v" width="0.336" height="3.259" transform="matrix(0.682, -0.732, 0.732, 0.682, 0.088, 0.246)"/><rect class="w" width="0.129" height="3.259" transform="translate(0 0.34) rotate(-47.033)"/></g><g transform="translate(7.831 4.435)"><rect class="v" width="0.335" height="3.259" transform="translate(0.088 0.245) rotate(-47.029)"/><rect class="w" width="0.129" height="3.259" transform="translate(0 0.339) rotate(-47.024)"/></g><g transform="translate(5.981 6.42)"><rect class="v" width="0.335" height="3.259" transform="translate(0.088 0.245) rotate(-47.029)"/><rect class="w" width="0.129" height="3.259" transform="translate(0 0.339) rotate(-47.024)"/></g><g transform="translate(4.131 8.406)"><rect class="v" width="0.335" height="3.259" transform="translate(0.088 0.245) rotate(-47.029)"/><rect class="w" width="0.129" height="3.259" transform="translate(0 0.339) rotate(-47.033)"/></g><g transform="translate(2.281 10.391)"><rect class="v" width="0.336" height="3.259" transform="translate(0.088 0.246) rotate(-47.029)"/><rect class="w" width="0.129" height="3.259" transform="translate(0 0.34) rotate(-47.033)"/></g><g transform="translate(0.432 12.376)"><rect class="v" width="0.336" height="3.259" transform="translate(0.088 0.246) rotate(-47.032)"/><rect class="x" width="0.129" height="3.259" transform="translate(0 0.34) rotate(-47.024)"/></g></g><g transform="translate(462.139 192.956)"><path class="t" d="M612.048,280.189c.045,0,.089,0,.134,0s.111,0,.167,0a12.909,12.909,0,0,1,2.917.4q.22.053.433.12c.055.016.111.031.167.049a12.338,12.338,0,0,1,2.034.836q.453.237.88.507c.149.093.294.189.436.291.055.038.111.078.167.118a10.9,10.9,0,0,1,2.621,2.67c.1.149.2.3.293.456.138.227.269.458.389.7.016.033.033.065.047.1q.086.174.167.353a9.465,9.465,0,0,1,.253,7.08c-.076.211-.16.418-.253.622q-.077.184-.167.36c-.131.271-.278.536-.436.793a10.825,10.825,0,0,1-2.914,3.128c-.056.042-.109.08-.167.118-.142.1-.289.2-.436.289a11.932,11.932,0,0,1-2.914,1.343c-.056.018-.111.036-.167.051q-.214.063-.433.12a12.911,12.911,0,0,1-2.917.4c-.056,0-.111,0-.167,0s-.089,0-.134,0c-.1,0-.2,0-.3,0a12.908,12.908,0,0,1-2.917-.4c-.056-.013-.111-.029-.167-.044-.147-.04-.291-.08-.433-.127a12.1,12.1,0,0,1-1.881-.756,11.147,11.147,0,0,1-1.034-.585c-.056-.036-.111-.071-.167-.109-.149-.1-.294-.2-.436-.3a10.85,10.85,0,0,1-2.914-3.126c-.058-.094-.114-.189-.167-.285a9.41,9.41,0,0,1-.436-.865c-.08-.18-.154-.36-.222-.544a9.071,9.071,0,0,1-.371-1.258,9.336,9.336,0,0,1-.227-2.052,9.447,9.447,0,0,1,.514-3.074c.091-.265.193-.527.307-.783.131-.293.275-.58.436-.86.053-.1.109-.191.167-.284a10.879,10.879,0,0,1,2.914-3.126c.142-.1.287-.2.436-.3l.167-.109a12.249,12.249,0,0,1,2.914-1.343c.142-.044.287-.085.433-.125.055-.016.111-.031.167-.044a12.906,12.906,0,0,1,2.917-.4C611.848,280.191,611.948,280.189,612.048,280.189Z" transform="translate(-600.377 -278.138)"/><path class="u" d="M601.2,303.886V311.6c-.08-.18-.154-.36-.222-.544a9.07,9.07,0,0,1-.371-1.258,9.336,9.336,0,0,1-.227-2.052,9.448,9.448,0,0,1,.514-3.074C600.982,304.4,601.084,304.142,601.2,303.886Z" transform="translate(-600.377 -295.242)"/><g transform="translate(0.82 7.5)"><path class="v" d="M603.762,300.794v9.437a9.41,9.41,0,0,1-.436-.865v-7.712C603.457,301.361,603.6,301.074,603.762,300.794Z" transform="translate(-603.326 -300.51)"/><path class="w" d="M605.059,299.772v10.006c-.058-.093-.114-.189-.167-.285v-9.437C604.945,299.961,605,299.865,605.059,299.772Z" transform="translate(-604.456 -299.772)"/></g><g transform="translate(4.337 3.965)"><path class="v" d="M616.4,287.459v16.857c-.149-.1-.294-.2-.436-.3V287.759C616.108,287.655,616.253,287.555,616.4,287.459Z" transform="translate(-615.966 -287.35)"/><path class="w" d="M617.7,287.068v17.075c-.056-.036-.111-.071-.167-.109V287.177Z" transform="translate(-617.096 -287.068)"/></g><g transform="translate(7.854 2.453)"><path class="v" d="M629.039,281.794V301.8c-.147-.04-.291-.08-.433-.127V281.919C628.748,281.874,628.893,281.834,629.039,281.794Z" transform="translate(-628.606 -281.75)"/><path class="w" d="M630.331,281.635v20.1c-.056-.013-.111-.029-.167-.044V281.679C630.219,281.664,630.275,281.648,630.331,281.635Z" transform="translate(-629.731 -281.635)"/></g><g transform="translate(11.371 2.051)"><path class="v" d="M641.546,280.189c.044,0,.089,0,.134,0v20.9c-.044,0-.089,0-.134,0-.1,0-.2,0-.3,0V280.193C641.346,280.191,641.446,280.189,641.546,280.189Z" transform="translate(-641.246 -280.189)"/><path class="w" d="M642.8,280.2c.055,0,.111,0,.167,0v20.894c-.056,0-.111,0-.167,0Z" transform="translate(-642.371 -280.194)"/></g><g transform="translate(14.888 2.453)"><path class="v" d="M653.886,281.635q.22.053.433.12v19.858q-.214.063-.433.12Z" transform="translate(-653.886 -281.635)"/><path class="w" d="M655.444,282.066c.055.016.111.031.167.049v19.758c-.056.018-.111.036-.167.051Z" transform="translate(-655.01 -281.946)"/></g><g transform="translate(18.402 3.965)"><path class="v" d="M666.517,287.068c.149.093.294.189.436.291v16.493c-.142.1-.289.2-.436.289Z" transform="translate(-666.517 -287.068)"/><path class="w" d="M668.084,288.114c.055.038.111.078.167.118v16.257c-.056.042-.109.08-.167.118Z" transform="translate(-667.648 -287.823)"/></g><g transform="translate(21.919 7.5)"><path class="v" d="M679.157,299.772c.138.227.269.458.389.7.016.033.033.065.047.1v8.416c-.131.271-.278.536-.436.794Z" transform="translate(-679.157 -299.772)"/><path class="w" d="M680.724,302.624q.086.174.167.353v7.7q-.077.184-.167.36Z" transform="translate(-680.288 -301.83)"/></g><path class="m" d="M612.048,272.817a12.657,12.657,0,0,1,5.851,1.408,11.248,11.248,0,0,1,4.1,3.586,10.6,10.6,0,0,1,.683,1.15,9.48,9.48,0,0,1,.467,7.533c-1.518,4.193-5.916,7.227-11.1,7.227a12.659,12.659,0,0,1-5.7-1.33,10.837,10.837,0,0,1-5.375-5.813,9.011,9.011,0,0,1-.371-1.258,9.344,9.344,0,0,1-.227-2.051,9.447,9.447,0,0,1,.514-3.076C602.358,275.923,606.8,272.817,612.048,272.817Z" transform="translate(-600.377 -272.817)"/><path class="p" d="M624.237,294.9a9.48,9.48,0,0,1,.467,7.533l-16.8,5.9a10.837,10.837,0,0,1-5.375-5.813Z" transform="translate(-601.929 -288.754)"/><path class="p" d="M617.9,277.876a11.248,11.248,0,0,1,4.1,3.586l-21.4,7.509a9.344,9.344,0,0,1-.227-2.051,9.447,9.447,0,0,1,.514-3.076Z" transform="translate(-600.377 -276.468)"/><ellipse class="q" cx="9.744" cy="8.726" rx="9.744" ry="8.726" transform="translate(1.927 1.725)"/><ellipse class="r" cx="5.445" cy="5.842" rx="5.445" ry="5.842" transform="translate(3.517 4.044)"/><path class="s" d="M617.046,316.671c-5.182,0-9.418-3.624-9.725-8.2-.012.176-.02.353-.02.531,0,4.819,4.363,8.726,9.744,8.726s9.744-3.907,9.744-8.726c0-.178-.008-.355-.019-.531C626.464,313.047,622.228,316.671,617.046,316.671Z" transform="translate(-605.375 -298.554)"/><path class="p" d="M619.008,292.776c1.038.194,1.614,1.486,1.287,2.885s-1.433,2.375-2.471,2.181-1.614-1.486-1.288-2.885S617.97,292.582,619.008,292.776Z" transform="translate(-611.975 -287.205)"/></g><g transform="translate(457.814 188.247)"><path class="t" d="M596.5,263.264c.045,0,.089,0,.133,0s.111,0,.167,0a12.908,12.908,0,0,1,2.916.4q.22.053.434.12c.056.016.111.031.167.049a12.334,12.334,0,0,1,2.034.836q.454.237.88.507c.149.093.294.189.436.291.056.038.111.078.167.118a10.9,10.9,0,0,1,2.621,2.67c.1.149.2.3.293.456.138.227.269.458.389.7.016.033.033.064.047.1q.087.174.167.354a9.461,9.461,0,0,1,.253,7.08c-.075.211-.16.418-.253.623q-.076.183-.167.36c-.131.271-.278.536-.436.794a10.823,10.823,0,0,1-2.914,3.128c-.055.042-.109.08-.167.118-.142.1-.289.2-.436.289a11.911,11.911,0,0,1-2.914,1.343c-.055.018-.111.036-.167.051q-.213.063-.434.12a12.908,12.908,0,0,1-2.916.4c-.056,0-.111,0-.167,0s-.089,0-.133,0c-.1,0-.2,0-.3,0a12.906,12.906,0,0,1-2.916-.4c-.056-.013-.111-.029-.167-.044-.147-.04-.291-.08-.433-.127a12.129,12.129,0,0,1-1.881-.756,11.2,11.2,0,0,1-1.034-.585c-.055-.036-.111-.071-.167-.109-.149-.1-.293-.2-.436-.3a10.849,10.849,0,0,1-2.914-3.126c-.058-.093-.114-.189-.167-.284a9.635,9.635,0,0,1-.436-.865c-.08-.18-.153-.36-.222-.545a9.111,9.111,0,0,1-.371-1.258,9.341,9.341,0,0,1-.227-2.052,9.447,9.447,0,0,1,.514-3.074c.091-.265.193-.527.307-.782.131-.294.276-.58.436-.86.053-.1.109-.191.167-.285a10.877,10.877,0,0,1,2.914-3.126c.142-.1.287-.2.436-.3.056-.035.111-.073.167-.109a12.269,12.269,0,0,1,2.914-1.343c.142-.044.287-.084.433-.124.056-.016.111-.031.167-.045a12.906,12.906,0,0,1,2.916-.4C596.3,263.266,596.4,263.264,596.5,263.264Z" transform="translate(-584.833 -261.213)"/><path class="u" d="M585.653,286.962v7.712c-.08-.18-.153-.36-.222-.545a9.111,9.111,0,0,1-.371-1.258,9.34,9.34,0,0,1-.227-2.052,9.447,9.447,0,0,1,.514-3.074C585.438,287.48,585.54,287.217,585.653,286.962Z" transform="translate(-584.833 -278.317)"/><g transform="translate(0.82 7.5)"><path class="v" d="M588.217,283.87v9.437a9.631,9.631,0,0,1-.436-.865V284.73C587.912,284.437,588.057,284.15,588.217,283.87Z" transform="translate(-587.781 -283.585)"/><path class="w" d="M589.514,282.847v10.006c-.058-.093-.114-.189-.167-.284v-9.437C589.4,283.036,589.456,282.94,589.514,282.847Z" transform="translate(-588.911 -282.847)"/></g><g transform="translate(4.337 3.965)"><path class="v" d="M600.857,270.534v16.857c-.149-.1-.293-.2-.436-.3V270.834C600.563,270.73,600.708,270.63,600.857,270.534Z" transform="translate(-600.421 -270.425)"/><path class="w" d="M602.154,270.143v17.075c-.055-.036-.111-.071-.167-.109V270.252Z" transform="translate(-601.551 -270.143)"/></g><g transform="translate(7.854 2.453)"><path class="v" d="M613.495,264.87v20.009c-.147-.04-.291-.08-.434-.127V264.994C613.2,264.95,613.348,264.91,613.495,264.87Z" transform="translate(-613.061 -264.825)"/><path class="w" d="M614.786,264.71v20.1c-.056-.013-.111-.029-.167-.044V264.755C614.675,264.739,614.73,264.723,614.786,264.71Z" transform="translate(-614.186 -264.71)"/></g><g transform="translate(11.371 2.051)"><path class="v" d="M626,263.264c.044,0,.089,0,.133,0v20.9c-.044,0-.089,0-.133,0-.1,0-.2,0-.3,0V263.268C625.8,263.266,625.9,263.264,626,263.264Z" transform="translate(-625.701 -263.264)"/><path class="w" d="M627.259,263.272c.056,0,.111,0,.167,0v20.894c-.056,0-.111,0-.167,0Z" transform="translate(-626.826 -263.27)"/></g><g transform="translate(14.887 2.453)"><path class="v" d="M638.341,264.71q.22.053.434.12v19.858q-.213.063-.434.12Z" transform="translate(-638.341 -264.71)"/><path class="w" d="M639.9,265.141c.056.016.111.031.167.049v19.758c-.055.018-.111.036-.167.051Z" transform="translate(-639.466 -265.021)"/></g><g transform="translate(18.402 3.965)"><path class="v" d="M650.973,270.143c.149.094.294.189.436.291v16.493c-.142.1-.289.2-.436.289Z" transform="translate(-650.973 -270.143)"/><path class="w" d="M652.539,271.19c.056.038.111.078.167.118v16.257c-.055.042-.109.08-.167.118Z" transform="translate(-652.103 -270.899)"/></g><g transform="translate(21.919 7.5)"><path class="v" d="M663.613,282.847c.138.227.269.458.389.7.016.033.033.064.047.1v8.416c-.131.271-.278.536-.436.793Z" transform="translate(-663.613 -282.847)"/><path class="w" d="M665.179,285.7q.087.174.167.354v7.7q-.076.183-.167.36Z" transform="translate(-664.743 -284.905)"/></g><path class="m" d="M596.5,255.892a12.655,12.655,0,0,1,5.851,1.408,11.247,11.247,0,0,1,4.1,3.586,10.6,10.6,0,0,1,.682,1.151,9.477,9.477,0,0,1,.467,7.533c-1.518,4.193-5.915,7.227-11.1,7.227a12.658,12.658,0,0,1-5.7-1.33,10.837,10.837,0,0,1-5.375-5.813,9.033,9.033,0,0,1-.371-1.258,9.345,9.345,0,0,1-.227-2.051,9.447,9.447,0,0,1,.514-3.076C586.814,259,591.255,255.892,596.5,255.892Z" transform="translate(-584.833 -255.892)"/><path class="p" d="M608.692,277.974a9.477,9.477,0,0,1,.467,7.533l-16.8,5.9a10.837,10.837,0,0,1-5.375-5.813Z" transform="translate(-586.384 -271.83)"/><path class="p" d="M602.355,260.951a11.247,11.247,0,0,1,4.1,3.586l-21.4,7.509a9.345,9.345,0,0,1-.227-2.051,9.447,9.447,0,0,1,.514-3.076Z" transform="translate(-584.833 -259.543)"/><ellipse class="q" cx="9.744" cy="8.726" rx="9.744" ry="8.726" transform="translate(1.927 1.725)"/><ellipse class="r" cx="5.445" cy="5.842" rx="5.445" ry="5.842" transform="translate(3.517 4.044)"/><path class="s" d="M601.5,299.745c-5.182,0-9.418-3.623-9.725-8.2-.012.176-.02.353-.02.531,0,4.819,4.363,8.726,9.744,8.726s9.744-3.907,9.744-8.726c0-.178-.008-.355-.019-.531C610.919,296.122,606.684,299.745,601.5,299.745Z" transform="translate(-589.831 -281.629)"/><path class="p" d="M603.464,275.851c1.038.194,1.614,1.486,1.287,2.885s-1.433,2.376-2.471,2.181-1.614-1.486-1.287-2.885S602.426,275.657,603.464,275.851Z" transform="translate(-596.43 -270.28)"/></g><g transform="translate(463.934 180.735)"><path class="t" d="M618.5,236.264c.044,0,.089,0,.134,0s.111,0,.167,0a12.91,12.91,0,0,1,2.917.4q.22.053.433.12c.055.016.111.031.167.049a12.3,12.3,0,0,1,2.034.836q.453.237.88.507c.149.093.293.189.436.291.055.038.111.078.167.118a10.9,10.9,0,0,1,2.621,2.67c.1.149.2.3.294.455.138.227.269.458.389.7.016.033.033.065.047.1q.086.173.167.353a9.464,9.464,0,0,1,.253,7.08c-.076.211-.16.418-.253.622q-.077.184-.167.36c-.131.271-.278.536-.436.794a10.836,10.836,0,0,1-2.914,3.128c-.056.042-.109.08-.167.118-.142.1-.289.2-.436.289a11.936,11.936,0,0,1-2.914,1.343c-.056.018-.111.036-.167.051q-.214.063-.433.12a12.908,12.908,0,0,1-2.917.4c-.056,0-.111,0-.167,0s-.089,0-.134,0c-.1,0-.2,0-.3,0a12.9,12.9,0,0,1-2.917-.4c-.056-.013-.111-.029-.167-.044-.147-.04-.291-.08-.433-.127a12.117,12.117,0,0,1-1.881-.756,11.166,11.166,0,0,1-1.034-.585c-.056-.036-.111-.071-.167-.109-.149-.1-.294-.2-.436-.3a10.854,10.854,0,0,1-2.914-3.126c-.058-.093-.114-.189-.167-.285a9.436,9.436,0,0,1-.436-.865c-.08-.18-.154-.36-.222-.545a9.069,9.069,0,0,1-.371-1.258,9.338,9.338,0,0,1-.227-2.052,9.454,9.454,0,0,1,.514-3.074c.091-.265.193-.527.307-.783.131-.293.275-.58.436-.86.053-.1.109-.191.167-.285a10.881,10.881,0,0,1,2.914-3.125c.142-.1.287-.2.436-.3l.167-.109a12.252,12.252,0,0,1,2.914-1.343c.142-.044.287-.085.433-.125.055-.016.111-.031.167-.044a12.906,12.906,0,0,1,2.917-.4C618.3,236.266,618.4,236.264,618.5,236.264Z" transform="translate(-606.827 -234.213)"/><path class="u" d="M607.648,259.962v7.712c-.08-.18-.154-.36-.222-.544a9.07,9.07,0,0,1-.371-1.258,9.338,9.338,0,0,1-.227-2.052,9.454,9.454,0,0,1,.514-3.074C607.432,260.48,607.534,260.218,607.648,259.962Z" transform="translate(-606.827 -251.318)"/><g transform="translate(0.82 7.499)"><path class="v" d="M610.212,256.87v9.437a9.4,9.4,0,0,1-.436-.865V257.73C609.907,257.437,610.051,257.15,610.212,256.87Z" transform="translate(-609.776 -256.585)"/><path class="w" d="M611.509,255.847v10.006c-.058-.093-.114-.189-.167-.285v-9.437C611.4,256.036,611.451,255.941,611.509,255.847Z" transform="translate(-610.906 -255.847)"/></g><g transform="translate(4.337 3.965)"><path class="v" d="M622.852,243.535v16.857c-.149-.1-.294-.2-.436-.3V243.835C622.558,243.731,622.7,243.631,622.852,243.535Z" transform="translate(-622.416 -243.426)"/><path class="w" d="M624.149,243.144v17.075c-.056-.036-.111-.071-.167-.109V243.253Z" transform="translate(-623.546 -243.144)"/></g><g transform="translate(7.854 2.453)"><path class="v" d="M635.49,237.87v20.009c-.147-.04-.291-.08-.434-.127V237.995C635.2,237.95,635.343,237.91,635.49,237.87Z" transform="translate(-635.056 -237.826)"/><path class="w" d="M636.781,237.711v20.1c-.056-.013-.111-.029-.167-.044V237.755C636.669,237.74,636.725,237.724,636.781,237.711Z" transform="translate(-636.181 -237.711)"/></g><g transform="translate(11.371 2.051)"><path class="v" d="M648,236.264c.044,0,.089,0,.134,0v20.9c-.045,0-.089,0-.134,0-.1,0-.2,0-.3,0V236.268C647.8,236.266,647.9,236.264,648,236.264Z" transform="translate(-647.696 -236.264)"/><path class="w" d="M649.254,236.272c.055,0,.111,0,.167,0v20.894c-.056,0-.111,0-.167,0Z" transform="translate(-648.821 -236.27)"/></g><g transform="translate(14.888 2.453)"><path class="v" d="M660.336,237.711q.22.053.433.12v19.858q-.214.063-.433.12Z" transform="translate(-660.336 -237.711)"/><path class="w" d="M661.894,238.142c.055.016.111.031.167.049v19.758c-.056.018-.111.036-.167.051Z" transform="translate(-661.461 -238.022)"/></g><g transform="translate(18.402 3.965)"><path class="v" d="M672.968,243.144c.149.093.293.189.436.291v16.493c-.143.1-.289.2-.436.289Z" transform="translate(-672.968 -243.144)"/><path class="w" d="M674.534,244.19c.055.038.111.078.167.118v16.257c-.056.042-.109.08-.167.118Z" transform="translate(-674.098 -243.899)"/></g><g transform="translate(21.919 7.499)"><path class="v" d="M685.608,255.847c.138.227.269.458.389.7.016.033.033.065.047.1v8.416c-.131.271-.278.536-.436.794Z" transform="translate(-685.608 -255.847)"/><path class="w" d="M687.174,258.7q.086.173.167.353v7.7q-.077.184-.167.36Z" transform="translate(-686.738 -257.906)"/></g><path class="m" d="M618.5,228.893a12.655,12.655,0,0,1,5.851,1.408,11.247,11.247,0,0,1,4.1,3.586,10.57,10.57,0,0,1,.682,1.15,9.479,9.479,0,0,1,.467,7.533c-1.518,4.193-5.915,7.227-11.1,7.227a12.659,12.659,0,0,1-5.7-1.33,10.837,10.837,0,0,1-5.375-5.813,9.01,9.01,0,0,1-.371-1.258,9.345,9.345,0,0,1-.227-2.051,9.454,9.454,0,0,1,.514-3.076C608.808,232,613.249,228.893,618.5,228.893Z" transform="translate(-606.827 -228.893)"/><path class="p" d="M630.687,250.974a9.48,9.48,0,0,1,.467,7.533l-16.8,5.9a10.837,10.837,0,0,1-5.375-5.813Z" transform="translate(-608.379 -244.83)"/><path class="p" d="M624.349,233.952a11.247,11.247,0,0,1,4.1,3.586l-21.4,7.509a9.344,9.344,0,0,1-.227-2.051,9.453,9.453,0,0,1,.514-3.076Z" transform="translate(-606.827 -232.544)"/><ellipse class="q" cx="9.744" cy="8.726" rx="9.744" ry="8.726" transform="translate(1.927 1.725)"/><ellipse class="r" cx="5.445" cy="5.842" rx="5.445" ry="5.842" transform="translate(3.517 4.044)"/><path class="s" d="M623.5,272.746c-5.182,0-9.418-3.624-9.724-8.2-.012.176-.02.353-.02.531,0,4.819,4.363,8.726,9.744,8.726s9.744-3.907,9.744-8.726c0-.179-.008-.355-.02-.531C632.914,269.122,628.679,272.746,623.5,272.746Z" transform="translate(-611.825 -254.629)"/><path class="p" d="M625.458,248.852c1.038.194,1.614,1.486,1.287,2.885s-1.433,2.376-2.471,2.181-1.614-1.486-1.288-2.885S624.42,248.658,625.458,248.852Z" transform="translate(-618.425 -243.281)"/></g><path class="y" d="M578,173.346a3.355,3.355,0,0,1-1.074,1.374.254.254,0,0,0,0,.421A3.354,3.354,0,0,1,578,176.515a.257.257,0,0,0,.469,0,3.353,3.353,0,0,1,1.075-1.374.254.254,0,0,0,0-.421,3.354,3.354,0,0,1-1.075-1.374A.257.257,0,0,0,578,173.346Z" transform="translate(-121.231 -7.956)"/><path class="y" d="M686.8,232.383a3.358,3.358,0,0,1-1.075,1.374.254.254,0,0,0,0,.421,3.359,3.359,0,0,1,1.075,1.374.256.256,0,0,0,.469,0,3.356,3.356,0,0,1,1.074-1.374.254.254,0,0,0,0-.421,3.355,3.355,0,0,1-1.074-1.374A.256.256,0,0,0,686.8,232.383Z" transform="translate(-199.76 -50.567)"/><path class="y" d="M591.034,250.78a3.357,3.357,0,0,1-1.075,1.374.254.254,0,0,0,0,.421,3.358,3.358,0,0,1,1.075,1.374.256.256,0,0,0,.469,0,3.354,3.354,0,0,1,1.075-1.374.254.254,0,0,0,0-.421,3.353,3.353,0,0,1-1.075-1.374A.256.256,0,0,0,591.034,250.78Z" transform="translate(-130.638 -63.846)"/><path class="y" d="M680.83,216.663a1.956,1.956,0,0,1-.626.8.148.148,0,0,0,0,.245,1.952,1.952,0,0,1,.626.8.15.15,0,0,0,.273,0,1.951,1.951,0,0,1,.626-.8.149.149,0,0,0,0-.245,1.955,1.955,0,0,1-.626-.8A.149.149,0,0,0,680.83,216.663Z" transform="translate(-195.808 -39.267)"/></g></g></svg>