<svg xmlns="http://www.w3.org/2000/svg" xmlns:xlink="http://www.w3.org/1999/xlink" width="84" height="84" viewBox="0 0 84 84"><defs><linearGradient id="a" x1="1" x2="0" y2="1" gradientUnits="objectBoundingBox"><stop offset="0" stop-color="#6d15b9"/><stop offset="1" stop-color="#1039a6"/></linearGradient><linearGradient id="b" x1="0.842" y1="0.152" x2="0.163" y2="0.89" gradientUnits="objectBoundingBox"><stop offset="0" stop-color="#1039a6"/><stop offset="1" stop-color="#6d15b9"/></linearGradient><clipPath id="c"><rect width="38.012" height="38.012" fill="#fff" stroke="#707070" stroke-width="1"/></clipPath></defs><g transform="translate(-837 -106)"><circle cx="42" cy="42" r="42" transform="translate(837 106)" opacity="0.249" fill="url(#a)"/><circle cx="36.061" cy="36.061" r="36.061" transform="translate(842.939 111.939)" fill="url(#b)"/><g transform="translate(859.994 128.994)" clip-path="url(#c)"><g transform="translate(0 7.196)"><g transform="translate(0 0)"><path d="M37.864,21.861a1.228,1.228,0,0,0,0-1.171,21.453,21.453,0,0,0-37.715,0,1.228,1.228,0,0,0,0,1.171,21.452,21.452,0,0,0,37.715,0ZM19.006,30.335a9.059,9.059,0,1,1,9.059-9.059A9.059,9.059,0,0,1,19.006,30.335Z" transform="translate(0 -9.465)" fill="#fff"/><path d="M23.544,18.927a4.628,4.628,0,0,0-1.105.134,2.395,2.395,0,0,1-3.378,3.378,4.617,4.617,0,1,0,4.483-3.511Z" transform="translate(-4.538 -11.734)" fill="#fff"/></g></g></g></g></svg>