<svg xmlns="http://www.w3.org/2000/svg" xmlns:xlink="http://www.w3.org/1999/xlink" width="34" height="34" viewBox="0 0 34 34"><defs><clipPath id="a"><rect width="18" height="18" transform="translate(3217 542)" fill="#ff6b6b" stroke="#707070" stroke-width="1"/></clipPath></defs><g transform="translate(-3209 -534)"><circle cx="17" cy="17" r="17" transform="translate(3209 534)" fill="rgba(0,0,0,0.25)"/><g clip-path="url(#a)"><g transform="translate(3217 542)"><path d="M17.785,9.754a.691.691,0,0,0-.506-.214h-2.52V6.232l1.946-1.946a.716.716,0,1,0-1.012-1.013L13.747,5.22H4.252L2.306,3.274a.706.706,0,0,0-1.013,0,.706.706,0,0,0,0,1.013L3.24,6.232V9.54H.72a.692.692,0,0,0-.506.214.706.706,0,0,0,0,1.012.692.692,0,0,0,.506.214H3.24a6.729,6.729,0,0,0,.652,3.082L1.62,16.616a.749.749,0,0,0,.056,1.024.731.731,0,0,0,.484.18.719.719,0,0,0,.54-.236l2.059-2.329.169.158a3.954,3.954,0,0,0,.489.365q.332.219.742.439a4.6,4.6,0,0,0,.979.371,4.4,4.4,0,0,0,1.142.152V6.66H9.72V16.74a4.234,4.234,0,0,0,1.091-.146,5.182,5.182,0,0,0,.923-.326,7.121,7.121,0,0,0,.731-.411q.36-.231.472-.321a2.172,2.172,0,0,0,.169-.146l2.228,2.216a.707.707,0,0,0,1.013,0,.707.707,0,0,0,0-1.013l-2.34-2.351a6.558,6.558,0,0,0,.754-3.262h2.52a.716.716,0,0,0,.506-1.226Z" fill="#ff6b6b"/><path d="M11.548,1.232A3.47,3.47,0,0,0,9,.18,3.47,3.47,0,0,0,6.452,1.232,3.47,3.47,0,0,0,5.4,3.78h7.2A3.471,3.471,0,0,0,11.548,1.232Z" fill="#ff6b6b"/></g></g></g></svg>