<svg xmlns="http://www.w3.org/2000/svg" xmlns:xlink="http://www.w3.org/1999/xlink" width="24" height="24" viewBox="0 0 24 24"><defs><style>.a,.c{fill:#555;}.a{stroke:#707070;}.b{clip-path:url(#a);}</style><clipPath id="a"><rect class="a" width="24" height="24" transform="translate(329 185)"/></clipPath></defs><g class="b" transform="translate(-329 -185)"><g transform="translate(329 185.111)"><path class="c" d="M10.7,5.562V0C9.049.41,7.473,2.29,6.583,5.562Zm0,0" transform="translate(0.598)"/><path class="c" d="M10.76,10.605V6.387H6.322a25.534,25.534,0,0,0-.415,4.218Zm0,0" transform="translate(0.537 0.581)"/><path class="c" d="M0,10.605H5.038a27.423,27.423,0,0,1,.391-4.218H1.05A11.965,11.965,0,0,0,0,10.605Zm0,0" transform="translate(0 0.581)"/><path class="c" d="M10.76,11.542H5.908A25.463,25.463,0,0,0,6.33,15.76h4.43Zm0,0" transform="translate(0.537 1.049)"/><path class="c" d="M5.039,11.542H0A11.964,11.964,0,0,0,1.05,15.76H5.439A27.47,27.47,0,0,1,5.039,11.542Zm0,0" transform="translate(0 1.049)"/><path class="c" d="M11.644,0V5.562h4.105A12.788,12.788,0,0,0,14.63,2.73,5.163,5.163,0,0,0,11.644,0Zm0,0" transform="translate(1.059 0)"/><path class="c" d="M16.5,10.605a25.465,25.465,0,0,0-.422-4.218h-4.43v4.218Zm0,0" transform="translate(1.059 0.581)"/><path class="c" d="M10.7,22.254V16.7H6.593a12.788,12.788,0,0,0,1.119,2.831A5.162,5.162,0,0,0,10.7,22.254Zm0,0" transform="translate(0.599 1.518)"/><path class="c" d="M5.577,5.517A14.5,14.5,0,0,1,6.923,1.984,9.253,9.253,0,0,1,7.943.494,11.943,11.943,0,0,0,3.365,3.359,12.085,12.085,0,0,0,1.65,5.517Zm0,0" transform="translate(0.15 0.045)"/><path class="c" d="M11.644,16.7V22.26c1.649-.41,3.226-2.29,4.115-5.562Zm0,0" transform="translate(1.059 1.518)"/><path class="c" d="M6.932,20.212A14.553,14.553,0,0,1,5.59,16.7H1.65a12.081,12.081,0,0,0,1.715,2.159,11.94,11.94,0,0,0,4.61,2.875A9.269,9.269,0,0,1,6.932,20.212Zm0,0" transform="translate(0.15 1.518)"/><path class="c" d="M16.947,16.7A14.492,14.492,0,0,1,15.6,20.23a9.253,9.253,0,0,1-1.02,1.49,11.94,11.94,0,0,0,4.578-2.865A12.069,12.069,0,0,0,20.875,16.7Zm0,0" transform="translate(1.326 1.518)"/><path class="c" d="M15.595,2a14.555,14.555,0,0,1,1.342,3.514h3.941a12.081,12.081,0,0,0-1.715-2.159A11.939,11.939,0,0,0,14.552.484,9.281,9.281,0,0,1,15.595,2Zm0,0" transform="translate(1.323 0.044)"/><path class="c" d="M11.644,11.542V15.76h4.438a25.531,25.531,0,0,0,.415-4.218Zm0,0" transform="translate(1.059 1.049)"/><path class="c" d="M22.452,11.542H17.415a27.421,27.421,0,0,1-.391,4.218H21.4A11.969,11.969,0,0,0,22.452,11.542Zm0,0" transform="translate(1.548 1.049)"/><path class="c" d="M17.014,6.387a27.472,27.472,0,0,1,.4,4.218h5.039A11.969,11.969,0,0,0,21.4,6.387Zm0,0" transform="translate(1.547 0.581)"/></g></g></svg>