<svg xmlns="http://www.w3.org/2000/svg" xmlns:xlink="http://www.w3.org/1999/xlink" width="30" height="30" viewBox="0 0 22 22"><defs><style>.a,.c{fill:#ff9879;}.a{stroke:#707070;}.b{clip-path:url(#a);}</style><clipPath id="a"><rect class="a" width="22" height="22" transform="translate(53 241)"/></clipPath></defs><g class="b" transform="translate(-53 -241)"><g transform="translate(53 241.102)"><path class="c" d="M15.143,5.1V0c-1.512.376-2.957,2.1-3.773,5.1Zm0,0" transform="translate(-4.788)"/><path class="c" d="M14.652,14.9V11.033H10.583A23.406,23.406,0,0,0,10.2,14.9Zm0,0" transform="translate(-4.296 -4.645)"/><path class="c" d="M0,14.9H4.618a25.138,25.138,0,0,1,.358-3.866H.963A10.968,10.968,0,0,0,0,14.9Zm0,0" transform="translate(0 -4.645)"/><path class="c" d="M14.652,19.937H10.2a23.341,23.341,0,0,0,.386,3.866h4.061Zm0,0" transform="translate(-4.297 -8.395)"/><path class="c" d="M4.619,19.937H0A10.967,10.967,0,0,0,.963,23.8H4.986A25.18,25.18,0,0,1,4.619,19.937Zm0,0" transform="translate(0 -8.395)"/><path class="c" d="M20.113.008V5.1h3.763a11.722,11.722,0,0,0-1.026-2.6,4.732,4.732,0,0,0-2.737-2.5Zm0,0" transform="translate(-8.469 -0.004)"/><path class="c" d="M24.561,14.9a23.343,23.343,0,0,0-.386-3.866H20.113V14.9Zm0,0" transform="translate(-8.469 -4.645)"/><path class="c" d="M15.15,33.935V28.842H11.387a11.722,11.722,0,0,0,1.026,2.6A4.732,4.732,0,0,0,15.15,33.935Zm0,0" transform="translate(-4.795 -12.144)"/><path class="c" d="M6.45,5.458A13.289,13.289,0,0,1,7.683,2.219,8.482,8.482,0,0,1,8.618.853a10.947,10.947,0,0,0-4.2,2.626A11.078,11.078,0,0,0,2.849,5.458Zm0,0" transform="translate(-1.2 -0.359)"/><path class="c" d="M20.113,28.842v5.1c1.512-.376,2.957-2.1,3.773-5.1Zm0,0" transform="translate(-8.469 -12.144)"/><path class="c" d="M7.692,32.063a13.341,13.341,0,0,1-1.23-3.221H2.849A11.074,11.074,0,0,0,4.422,30.82a10.945,10.945,0,0,0,4.226,2.636A8.5,8.5,0,0,1,7.692,32.063Zm0,0" transform="translate(-1.2 -12.144)"/><path class="c" d="M27.355,28.842a13.284,13.284,0,0,1-1.234,3.238,8.482,8.482,0,0,1-.935,1.366,10.945,10.945,0,0,0,4.2-2.626,11.063,11.063,0,0,0,1.572-1.978Zm0,0" transform="translate(-10.605 -12.144)"/><path class="c" d="M26.091,2.229a13.342,13.342,0,0,1,1.23,3.221h3.612a11.074,11.074,0,0,0-1.572-1.979A10.944,10.944,0,0,0,25.136.836,8.508,8.508,0,0,1,26.091,2.229Zm0,0" transform="translate(-10.584 -0.352)"/><path class="c" d="M20.113,19.937V23.8h4.068a23.4,23.4,0,0,0,.381-3.866Zm0,0" transform="translate(-8.469 -8.395)"/><path class="c" d="M34.381,19.937H29.763A25.136,25.136,0,0,1,29.4,23.8h4.014A10.971,10.971,0,0,0,34.381,19.937Zm0,0" transform="translate(-12.381 -8.395)"/><path class="c" d="M29.388,11.033a25.183,25.183,0,0,1,.367,3.866h4.619a10.971,10.971,0,0,0-.963-3.866Zm0,0" transform="translate(-12.374 -4.645)"/></g></g></svg>