<?xml version="1.0" encoding="UTF-8"?>
<svg xmlns="http://www.w3.org/2000/svg" xmlns:xlink="http://www.w3.org/1999/xlink" width="44pt" height="49pt" viewBox="0 0 44 49" version="1.1">
<g id="surface1">
<path style=" stroke:none;fill-rule:evenodd;fill:rgb(89.803922%,20.784314%,67.058824%);fill-opacity:1;" d="M 26.222656 5.609375 L 36.390625 11.417969 C 36.683594 11.113281 37.019531 10.847656 37.390625 10.636719 C 39.496094 9.4375 42.1875 10.148438 43.410156 12.234375 C 44.625 14.324219 43.902344 16.984375 41.796875 18.195312 C 41.429688 18.40625 41.035156 18.5625 40.621094 18.660156 L 40.621094 30.28125 C 41.027344 30.382812 41.421875 30.535156 41.78125 30.742188 C 43.902344 31.953125 44.625 34.617188 43.398438 36.703125 C 42.1875 38.789062 39.484375 39.503906 37.378906 38.304688 C 36.96875 38.070312 36.601562 37.773438 36.289062 37.425781 L 26.183594 43.199219 C 26.332031 43.644531 26.40625 44.109375 26.40625 44.574219 C 26.40625 46.976562 24.4375 48.9375 22 48.9375 C 19.5625 48.9375 17.59375 46.988281 17.59375 44.574219 C 17.59375 44.148438 17.65625 43.734375 17.773438 43.34375 L 7.609375 37.535156 C 7.320312 37.835938 6.988281 38.09375 6.621094 38.304688 C 4.503906 39.503906 1.8125 38.789062 0.601562 36.703125 C -0.609375 34.617188 0.109375 31.953125 2.21875 30.742188 C 2.578125 30.535156 2.972656 30.378906 3.378906 30.28125 L 3.378906 18.660156 C 2.964844 18.5625 2.570312 18.40625 2.203125 18.195312 C 0.0976562 16.996094 -0.625 14.324219 0.589844 12.234375 C 1.800781 10.148438 4.5 9.4375 6.609375 10.636719 C 6.976562 10.847656 7.3125 11.109375 7.605469 11.414062 L 17.773438 5.605469 C 17.652344 5.199219 17.59375 4.785156 17.59375 4.363281 C 17.59375 1.953125 19.5625 0.00390625 22 0.00390625 C 24.4375 0.00390625 26.40625 1.953125 26.40625 4.363281 C 26.40625 4.796875 26.34375 5.214844 26.222656 5.609375 Z M 25.164062 7.398438 L 35.355469 13.222656 C 35.027344 14.359375 35.179688 15.574219 35.773438 16.597656 C 36.394531 17.664062 37.40625 18.375 38.527344 18.648438 L 38.527344 30.289062 C 38.46875 30.300781 38.410156 30.316406 38.355469 30.332031 L 25.046875 7.515625 C 25.085938 7.480469 25.125 7.441406 25.164062 7.398438 Z M 18.957031 7.519531 L 5.648438 30.335938 C 5.589844 30.316406 5.53125 30.300781 5.472656 30.289062 L 5.472656 18.648438 C 6.59375 18.375 7.605469 17.664062 8.226562 16.597656 C 8.824219 15.574219 8.972656 14.351562 8.644531 13.21875 L 18.832031 7.394531 C 18.871094 7.4375 18.914062 7.480469 18.957031 7.519531 Z M 23.230469 8.554688 L 36.535156 31.363281 C 36.230469 31.652344 35.96875 31.980469 35.761719 32.34375 C 35.550781 32.703125 35.394531 33.089844 35.296875 33.492188 L 8.703125 33.492188 C 8.605469 33.089844 8.449219 32.703125 8.238281 32.34375 C 8.027344 31.984375 7.769531 31.65625 7.464844 31.367188 L 20.773438 8.554688 C 21.171875 8.667969 21.585938 8.726562 22 8.722656 C 22.425781 8.722656 22.839844 8.664062 23.230469 8.554688 Z M 25.257812 41.636719 L 35.382812 35.851562 C 35.351562 35.757812 35.324219 35.664062 35.300781 35.566406 L 8.699219 35.566406 C 8.683594 35.621094 8.667969 35.679688 8.652344 35.734375 L 18.824219 41.546875 C 19.65625 40.695312 20.800781 40.210938 22 40.214844 C 23.242188 40.210938 24.425781 40.730469 25.257812 41.636719 Z M 25.257812 41.636719 "/>
</g>
</svg>
