<svg xmlns="http://www.w3.org/2000/svg" xmlns:xlink="http://www.w3.org/1999/xlink" width="49.002" height="49.002" viewBox="0 0 49.002 49.002">
  <defs>
    <linearGradient id="linear-gradient" x1="1.017" x2="0" y2="1" gradientUnits="objectBoundingBox">
      <stop offset="0" stop-color="#9e2cff"/>
      <stop offset="1" stop-color="#ff539c"/>
    </linearGradient>
  </defs>
  <g id="iterator" transform="translate(-734 -560)">
    <g id="base" transform="translate(734 560)" stroke-linecap="round" fill="url(#linear-gradient)">
      <path d="M 34.002197265625 48.002197265625 L 14.99999904632568 48.002197265625 C 11.26046848297119 48.002197265625 7.744758605957031 46.54594802856445 5.100508689880371 43.90168762207031 C 2.45624852180481 41.25743865966797 0.9999986290931702 37.74172973632812 0.9999986290931702 34.002197265625 L 0.9999986290931702 14.99999904632568 C 0.9999986290931702 11.26046848297119 2.45624852180481 7.744758605957031 5.100508689880371 5.100508689880371 C 7.744758605957031 2.45624852180481 11.26046848297119 0.9999986290931702 14.99999904632568 0.9999986290931702 L 34.002197265625 0.9999986290931702 C 37.74172973632812 0.9999986290931702 41.25743865966797 2.45624852180481 43.90168762207031 5.100508689880371 C 46.54594802856445 7.744758605957031 48.002197265625 11.26046848297119 48.002197265625 14.99999904632568 L 48.002197265625 34.002197265625 C 48.002197265625 37.74172973632812 46.54594802856445 41.25743865966797 43.90168762207031 43.90168762207031 C 41.25743865966797 46.54594802856445 37.74172973632812 48.002197265625 34.002197265625 48.002197265625 Z" stroke="none"/>
      <path d="M 15 2 C 11.52756881713867 2 8.262989044189453 3.352237701416016 5.807609558105469 5.807609558105469 C 3.352237701416016 8.262989044189453 2 11.52756881713867 2 15 L 2 34.002197265625 C 2 37.47462844848633 3.352237701416016 40.73920822143555 5.807609558105469 43.19458770751953 C 8.262989044189453 45.64995956420898 11.52756881713867 47.002197265625 15 47.002197265625 L 34.002197265625 47.002197265625 C 37.47462844848633 47.002197265625 40.73920822143555 45.64995956420898 43.19458770751953 43.19458770751953 C 45.64995956420898 40.73920822143555 47.002197265625 37.47462844848633 47.002197265625 34.002197265625 L 47.002197265625 15 C 47.002197265625 11.52756881713867 45.64995956420898 8.262989044189453 43.19458770751953 5.807609558105469 C 40.73920822143555 3.352237701416016 37.47462844848633 2 34.002197265625 2 L 15 2 M 15 0 L 34.002197265625 0 C 42.28646850585938 0 49.002197265625 6.715728759765625 49.002197265625 15 L 49.002197265625 34.002197265625 C 49.002197265625 42.28646850585938 42.28646850585938 49.002197265625 34.002197265625 49.002197265625 L 15 49.002197265625 C 6.715728759765625 49.002197265625 0 42.28646850585938 0 34.002197265625 L 0 15 C 0 6.715728759765625 6.715728759765625 0 15 0 Z" stroke="none" fill="#f2c7ff"/>
    </g>
    <g id="icon_4_" data-name="icon (4)" transform="translate(748.701 574.701)">
      <path id="Path_210" data-name="Path 210" d="M6.006,2.252,2.45,5.806V2.353H0V9.7H7.35V7.252H4.471L7.738,3.985a5.636,5.636,0,0,1,7.781,0l1.732-1.733A8.145,8.145,0,0,0,6.006,2.252Z" transform="translate(0 0)" fill="#fff"/>
      <path id="Path_211" data-name="Path 211" d="M12.778,12.026v2.45h2.881L12.39,17.747a5.635,5.635,0,0,1-7.78,0L2.877,19.475a7.948,7.948,0,0,0,11.246,0l3.555-3.553v3.453h2.45V12.026Z" transform="translate(-0.527 -2.204)" fill="#fff"/>
    </g>
  </g>
</svg>
