<?xml version="1.0" encoding="utf-8"?>
<svg id="master-artboard" viewBox="0 0 228.867919921875 66.73584747314453" xmlns="http://www.w3.org/2000/svg" width="228.867919921875px" height="66.73584747314453px" version="1.1" style="shape-rendering:geometricPrecision; text-rendering:geometricPrecision; image-rendering:optimizeQuality; fill-rule:evenodd; clip-rule:evenodd"><defs><linearGradient id="linear-gradient" y1="0.5" x2="1" y2="0.5" gradientUnits="objectBoundingBox" gradientTransform="matrix(0.7299190759658801, 0.002695441246032715, -0.0003323537239350942, 0.9999992847442627, 0.00016617686196872104, 3.5762786865234375e-7)">
      <stop offset="0" stop-color="#9f0b0b"/>
      <stop offset="1" stop-color="#34495e"/>
    </linearGradient><radialGradient id="gradient-0" gradientUnits="objectBoundingBox" cx="0.5" cy="0.5" r="0.5">
                <stop offset="0" style="stop-color: #f4e8ff"/>
                <stop offset="1" style="stop-color: #c382ff"/>
              </radialGradient></defs><rect id="ee-background" x="0" y="0" width="228.867919921875" height="66.73584747314453" style="fill: rgb(244, 232, 255); fill-opacity: 0; pointer-events: none;"/>
 
 <metadata id="CorelCorpID_0Corel-Layer"/>
<g transform="matrix(1.0049220872961957, 0, 0, 1.0049220273981716, -2.64154052734375, -2.0566375631206046)"><path d="M 10 0 H 220 A 10 10 0 0 1 230 10 V 59 A 10 10 0 0 1 220 69 H 10 A 10 10 0 0 1 0 59 V 10 A 10 10 0 0 1 10 0 Z" id="base" transform="translate(0 0)" fill="url(#linear-gradient)"/><path id="base-2" data-name="base" d="M10,0H84.4a0,0,0,0,1,0,0V69a0,0,0,0,1,0,0H10A10,10,0,0,1,0,59V10A10,10,0,0,1,10,0Z" transform="translate(0 0)" fill="#fff"/><path id="_" data-name="&gt;" d="M0,0,15.346,34.5,0,69Z" transform="translate(83.945 0)" fill="#fff"/><g id="oracle-2" data-name="kafka" transform="translate(13.51 30.554)">

    <path id="path16199" d="M182.279,99.1a.731.731,0,1,1,.728.734A.725.725,0,0,1,182.279,99.1Zm.728.939a.933.933,0,1,0-.926-.933A.932.932,0,0,0,183.006,100.04Zm-.086-1.488a.671.671,0,0,1,.271.033.291.291,0,0,1,.205.291.264.264,0,0,1-.013.086.268.268,0,0,1-.126.179c-.013.007-.02.013-.046.026l.238.43h-.232l-.212-.4h-.146v.4h-.205V98.551Zm.073.476c.066-.007.132-.007.172-.066a.14.14,0,0,0,.027-.093.148.148,0,0,0-.079-.126.478.478,0,0,0-.192-.02h-.06v.3h.132" transform="translate(-122.555 -98.141)" fill="#f80000"/>
  </g></g><g transform="matrix(1.8601219654083252, 0, 0, 1.9649178981781006, 29.600057351712053, 62.70429611206055)"><path d="M0 7h7.626v23.7l10.998-12.4h9.144L14.5 32.642l13.332 18.18H19.1L7.626 34.583V50.82H0V7m36.628 27.702c0 4.034 2.85 9.898 9.72 9.898 4.25 0 7.048-2.254 8.5-5.207.76-1.434 1.1-2.966 1.227-4.56.053-1.543-.234-3.148-.878-4.573-1.337-3.072-4.304-5.736-8.903-5.736-6.167 0-9.664 5.1-9.664 10.125v.054zm27 16.12h-7.63v-4.68c-2.03 3.784-6.282 5.682-10.766 5.682-10.246 0-16.24-8.12-16.24-17.295 0-10.245 7.275-17.233 16.24-17.233 5.82 0 9.37 3.14 10.766 5.748V18.3h7.63v32.52m8.646-26.535H68.32V18.3h3.952v-1.83c0-9.663 7.22-10.245 12.695-10.3v5.973c-1.925 0-5.065 0-5.065 4.572V18.3h5.065v5.984h-5.065V50.82h-7.63V24.285M90.155 7h7.624v23.7l11-12.38h9.144l-13.277 14.34 13.33 18.18h-8.732L97.78 34.583V50.82h-7.624V7m36.626 27.702c0 4.034 2.85 9.898 9.72 9.898 4.244 0 7.042-2.254 8.495-5.207.762-1.434 1.113-2.966 1.228-4.56.053-1.543-.234-3.148-.88-4.573-1.335-3.072-4.302-5.736-8.9-5.736-6.168 0-9.664 5.1-9.664 10.125v.054zm27 16.12h-7.628v-4.68c-2.037 3.784-6.285 5.682-10.766 5.682-10.246 0-16.235-8.12-16.235-17.295 0-10.245 7.273-17.233 16.235-17.233 5.817 0 9.37 3.14 10.766 5.748V18.3h7.628v32.52" transform="matrix(0.24820549786090848, 0, 0, 0.2519500851631165, -9.218303871625778, -22.095742034441173)"/></g></svg>