<svg xmlns="http://www.w3.org/2000/svg" xmlns:xlink="http://www.w3.org/1999/xlink" width="723.188" height="569.501" viewBox="0 0 723.188 569.501"><defs><linearGradient id="a" x1="0.422" y1="1.009" x2="0.828" y2="0.168" gradientUnits="objectBoundingBox"><stop offset="0" stop-color="#ff2121"/><stop offset="0.355" stop-color="#ff6b6b"/><stop offset="1" stop-color="#ff9879"/></linearGradient><linearGradient id="b" x1="0.923" y1="-0.154" x2="0.201" y2="0.964" gradientUnits="objectBoundingBox"><stop offset="0" stop-color="#e4f2ff"/><stop offset="0.198" stop-color="#dbeafd" stop-opacity="0.784"/><stop offset="0.595" stop-color="#cbdbfb" stop-opacity="0.365"/><stop offset="0.871" stop-color="#c0d1fa" stop-opacity="0.102"/><stop offset="0.999" stop-color="#bdcefa" stop-opacity="0"/></linearGradient><linearGradient id="c" x1="0.356" y1="0.077" x2="0.613" y2="0.832" xlink:href="#b"/><linearGradient id="d" x1="0.522" y1="-0.316" x2="0.494" y2="0.715" xlink:href="#b"/><linearGradient id="e" x1="0.673" y1="-0.424" x2="0.424" y2="0.907" xlink:href="#b"/><linearGradient id="f" x1="1.266" y1="0.082" x2="-0.389" y2="0.986" gradientUnits="objectBoundingBox"><stop offset="0" stop-color="#e4f2ff"/><stop offset="0.056" stop-color="#e1effe"/><stop offset="0.648" stop-color="#c6d7fb"/><stop offset="0.999" stop-color="#bdcefa"/></linearGradient><linearGradient id="g" x1="2.615" y1="-0.364" x2="-0.058" y2="0.728" xlink:href="#f"/><linearGradient id="h" x1="0.999" y1="-0.079" x2="-1.053" y2="2.34" xlink:href="#f"/><linearGradient id="i" x1="1.928" y1="-1.071" x2="0.204" y2="0.827" xlink:href="#f"/><linearGradient id="j" x1="0.949" y1="0.026" x2="-0.975" y2="2.102" xlink:href="#f"/><linearGradient id="k" x1="2.523" y1="-1.053" x2="0.374" y2="0.597" xlink:href="#f"/><linearGradient id="l" x1="1.086" y1="-0.235" x2="-0.069" y2="1.234" xlink:href="#f"/><linearGradient id="m" x1="1.628" y1="0.756" x2="0.947" y2="0.602" xlink:href="#f"/><linearGradient id="n" x1="0.963" y1="0.039" x2="-2.037" y2="3.025" xlink:href="#f"/><linearGradient id="o" x1="1.973" y1="1.077" x2="0.197" y2="0.381" xlink:href="#f"/><linearGradient id="p" x1="1.367" y1="0.439" x2="0.012" y2="0.514" xlink:href="#f"/><linearGradient id="q" x1="1.008" y1="0.892" x2="0.114" y2="0.08" xlink:href="#f"/><linearGradient id="r" x1="0.908" y1="-0.062" x2="-0.09" y2="0.803" xlink:href="#f"/><linearGradient id="s" x1="939.208" y1="-2377.45" x2="-937.986" y2="2377.573" xlink:href="#f"/><linearGradient id="t" x1="1.153" y1="0.291" x2="0.218" y2="0.617" xlink:href="#f"/><linearGradient id="u" y1="0.5" x2="1" y2="0.5" gradientUnits="objectBoundingBox"><stop offset="0" stop-color="#fcfdff" stop-opacity="0"/><stop offset="0.121" stop-color="#fafdd7" stop-opacity="0.157"/><stop offset="0.366" stop-color="#f8fd8b" stop-opacity="0.451"/><stop offset="0.585" stop-color="#f6fe4f" stop-opacity="0.686"/><stop offset="0.77" stop-color="#f5fe24" stop-opacity="0.859"/><stop offset="0.914" stop-color="#f4fe09" stop-opacity="0.961"/><stop offset="0.999" stop-color="#f4ff00"/></linearGradient><linearGradient id="x" x1="-6.078" y1="3.189" x2="3.034" y2="-0.536" gradientUnits="objectBoundingBox"><stop offset="0" stop-color="#fcfdff" stop-opacity="0"/><stop offset="0.121" stop-color="#fcdbe9" stop-opacity="0.157"/><stop offset="0.366" stop-color="#fd9cbf" stop-opacity="0.451"/><stop offset="0.585" stop-color="#fe699e" stop-opacity="0.686"/><stop offset="0.77" stop-color="#fe4586" stop-opacity="0.859"/><stop offset="0.914" stop-color="#fe2f78" stop-opacity="0.961"/><stop offset="0.999" stop-color="#ff2773"/></linearGradient><linearGradient id="y" x1="-6.854" y1="3.506" x2="2.258" y2="-0.219" xlink:href="#x"/><linearGradient id="z" x1="-7.63" y1="3.823" x2="1.482" y2="0.099" xlink:href="#x"/><linearGradient id="aa" x1="-0.093" y1="0.982" x2="1.668" y2="-0.449" xlink:href="#x"/><linearGradient id="ab" x1="-0.243" y1="1.104" x2="1.518" y2="-0.327" xlink:href="#x"/><linearGradient id="ac" x1="-0.393" y1="1.225" x2="1.368" y2="-0.206" xlink:href="#x"/><linearGradient id="ad" x1="7.667" y1="-2.731" x2="-2.64" y2="1.916" xlink:href="#u"/><linearGradient id="ae" x1="8.475" y1="-3.096" x2="-1.832" y2="1.552" xlink:href="#u"/><linearGradient id="af" x1="9.283" y1="-3.46" x2="-1.024" y2="1.187" xlink:href="#u"/><linearGradient id="ag" x1="1.227" y1="-0.152" x2="-0.765" y2="1.634" xlink:href="#u"/><linearGradient id="ah" x1="1.384" y1="-0.292" x2="-0.608" y2="1.494" xlink:href="#u"/><linearGradient id="ai" x1="1.54" y1="-0.432" x2="-0.452" y2="1.354" xlink:href="#u"/><linearGradient id="aj" x1="1.039" y1="-0.125" x2="0.027" y2="1.049" xlink:href="#b"/><linearGradient id="ak" x1="1.231" y1="-1.424" x2="0.382" y2="0.809" xlink:href="#f"/><linearGradient id="al" x1="1.073" y1="-1.204" x2="0.103" y2="1.68" xlink:href="#f"/><linearGradient id="am" x1="0.969" y1="-0.234" x2="0.147" y2="1.052" xlink:href="#b"/><linearGradient id="an" x1="1.25" y1="-0.515" x2="-0.048" y2="1.242" xlink:href="#f"/><linearGradient id="ao" x1="1.174" y1="-0.412" x2="-0.125" y2="1.345" xlink:href="#f"/><linearGradient id="ap" x1="3.552" y1="-1.056" x2="-1.283" y2="1.409" xlink:href="#f"/><linearGradient id="aq" x1="2.461" y1="-0.5" x2="-2.374" y2="1.965" xlink:href="#f"/><linearGradient id="ar" x1="1.37" y1="0.057" x2="-3.465" y2="2.521" xlink:href="#f"/><linearGradient id="as" x1="1.047" y1="-0.019" x2="-0.898" y2="1.827" xlink:href="#f"/><linearGradient id="at" x1="1.81" y1="-0.37" x2="0.049" y2="0.8" xlink:href="#f"/><linearGradient id="au" x1="1.128" y1="0.677" x2="-0.101" y2="0.331" gradientUnits="objectBoundingBox"><stop offset="0" stop-color="#e8e9ff"/><stop offset="1" stop-color="#c0c0f6"/></linearGradient></defs><g transform="translate(0 -199)"><path d="M0,0S4.1,9.989,264.071,160.082c-9.2,36.208-11.111,46.879,0,66.746,30.3,54.172,89.757,93.4,89.757,93.4L439,286.917V569H0Z" transform="translate(0 199)" fill="#fff"/><path d="M5331.6,221a145.954,145.954,0,0,1,15.458-8.232,223.833,223.833,0,0,1,24.764-9.554c8.2-2.663,17.077-5.161,27.154-7.636,18.645-4.581,38.105-8.263,56.925-11.824,23.221-4.394,45.15-8.543,63.38-13.941a142.416,142.416,0,0,0,24.121-9.195,66.608,66.608,0,0,0,9.247-5.617,40.355,40.355,0,0,0,7.021-6.476,20.818,20.818,0,0,0,4.56-8.57,14.873,14.873,0,0,0-.422-8.133c-1.969-5.936-7.615-11.94-16.783-17.842-7.334-4.722-16.926-9.392-28.506-13.879a339.641,339.641,0,0,0-38.813-12.2l68.279-34.2c18.934,16.444,48.188,41.453,80.036,67.211,22.759,18.407,41.376,32.725,51.078,39.281,2.7,1.826,13.1,8.519,33.335,17.923,9.046,4.2,18.743,8.33,28.822,12.265,11.683,4.563,23.964,8.9,36.5,12.889A693.276,693.276,0,0,0,5845.376,221Z" transform="translate(-5127 547)" stroke="rgba(0,0,0,0)" stroke-miterlimit="10" stroke-width="1" fill="url(#a)"/><g transform="translate(-199.858 189.301)"><g transform="translate(364.329 316.835)" opacity="0.15"><path d="M632.27,357.205l-69.209,38.766c-3.066,1.769-8.47,1.546-12.01-.5l-23.021-13.732c-3.54-2.044-3.928-5.164-.862-6.933l68.943-39.545c3.066-1.771,8.47-1.546,12.01.5l23.285,14.512C634.946,352.317,635.334,355.436,632.27,357.205Z" transform="translate(-244.438 -169.871)" fill="#bdcefa"/><path d="M614.583,336.417l-69.207,38.766c-3.066,1.769-8.47,1.544-12.01-.5l-23.022-13.732c-3.538-2.044-3.928-5.164-.862-6.935l68.945-39.545c3.064-1.769,8.47-1.544,12.01.5l23.285,14.512C617.262,331.526,617.649,334.647,614.583,336.417Z" transform="translate(-255.564 -182.949)" fill="#bdcefa"/><path d="M728.4,329.551,519.57,446.043c-9.25,5.342-25.559,4.666-36.239-1.5L361.66,374.3c-10.68-6.168-11.852-15.584-2.6-20.924L567.892,236.88c9.25-5.34,25.557-4.664,36.239,1.5L725.8,308.629C736.482,314.795,737.653,324.211,728.4,329.551Z" transform="translate(-352.819 -233.278)" fill="#bdcefa"/></g><g transform="translate(334.522 100.455)"><path d="M336.99,232.378a2.474,2.474,0,0,1-2.468-2.468V177.7a2.466,2.466,0,0,1,1.232-2.131l62.759-36.236a2.439,2.439,0,0,1,1.227-.336,2.474,2.474,0,0,1,2.468,2.468v52.212a2.468,2.468,0,0,1-1.232,2.132l-62.759,36.234A2.423,2.423,0,0,1,336.99,232.378Z" transform="translate(-334.522 -76.21)" fill="url(#b)"/><path d="M366.859,319.975a5.291,5.291,0,0,1-5.278-5.28V203.022a5.281,5.281,0,0,1,2.633-4.561l134.232-77.5a5.187,5.187,0,0,1,2.623-.718,5.29,5.29,0,0,1,5.278,5.28V237.2a5.279,5.279,0,0,1-2.634,4.561l-134.231,77.5A5.2,5.2,0,0,1,366.859,319.975Z" transform="translate(-317.499 -88.007)" fill="url(#c)"/><path d="M430.566,183.211a2.192,2.192,0,0,1-2.188-2.188V134.754a2.188,2.188,0,0,1,1.091-1.89l55.617-32.111a2.153,2.153,0,0,1,1.087-.3,2.191,2.191,0,0,1,2.186,2.188v46.269a2.184,2.184,0,0,1-1.091,1.89l-55.616,32.113A2.156,2.156,0,0,1,430.566,183.211Z" transform="translate(-275.478 -100.455)" fill="url(#d)"/><path d="M350.935,296.091a2.192,2.192,0,0,1-2.188-2.188V247.634a2.188,2.188,0,0,1,1.091-1.89l55.617-32.111a2.137,2.137,0,0,1,1.087-.3,2.192,2.192,0,0,1,2.188,2.188v46.27a2.188,2.188,0,0,1-1.091,1.89l-55.617,32.111A2.137,2.137,0,0,1,350.935,296.091Z" transform="translate(-325.573 -29.443)" fill="url(#e)"/><g transform="translate(66.687 67.213)"><g transform="translate(106.064 5.849)"><path d="M447.694,156.655a7.8,7.8,0,0,1-3.564,6.09c-1.97,1.137-3.566.254-3.566-1.973a7.8,7.8,0,0,1,3.566-6.09C446.1,153.546,447.694,154.429,447.694,156.655Z" transform="translate(-440.563 -139.715)" fill="#bdcefa"/><path d="M455.387,152.213a7.8,7.8,0,0,1-3.566,6.091c-1.968,1.137-3.564.253-3.564-1.973a7.8,7.8,0,0,1,3.564-6.09C453.79,149.1,455.387,149.988,455.387,152.213Z" transform="translate(-435.723 -142.509)" fill="#bdcefa"/><path d="M463.08,147.772a7.8,7.8,0,0,1-3.566,6.09c-1.97,1.137-3.564.254-3.564-1.973a7.8,7.8,0,0,1,3.564-6.09C461.483,144.663,463.08,145.546,463.08,147.772Z" transform="translate(-430.884 -145.303)" fill="#bdcefa"/></g><g transform="translate(0 50.178)"><path d="M397.264,205.088a31.066,31.066,0,0,1-8.062,6.485c-7.313,4.223-13.745,1.883-13.745-8.088,0-10.377,6.52-23.145,16.477-28.894,7.753-4.477,13.3-1.526,13.3,7.02,0,7.427-3.613,14.193-8.37,16.939-2.072,1.2-3.569.841-3.789-1.728l-.088.051a14.179,14.179,0,0,1-5.684,7.2c-2.864,1.652-4.934.406-4.934-3.765,0-6.207,3.965-14.142,10.309-17.8a11.619,11.619,0,0,1,5.244-1.756L396.6,190.921c-.44,3.255-.132,4.451,1.1,3.789,1.895-1.043,4.275-5.215,4.275-11.065,0-6.612-3.7-9.615-10.53-5.672-6.74,3.892-12.643,13.406-12.643,23.122,0,8.5,4.715,10.607,11.278,6.816a25.312,25.312,0,0,0,6.388-5.316Zm-3.921-18.746a5.871,5.871,0,0,0-1.365.585c-2.908,1.68-5.2,6.308-5.2,10.226,0,1.932.748,2.721,2.2,1.882,1.629-.94,3.348-4.324,3.745-7.5Z" transform="translate(-375.457 -172.514)" fill="#bdcefa"/></g><g transform="translate(40.827)"><path d="M400.561,160.412l15.393,4.267c.474.132,1.209-.29,1.684-.971l15.4-21.994Z" transform="translate(-400.491 -141.713)" fill="#bdcefa"/><path d="M411.521,157.145l-10.713,17.725a1.59,1.59,0,0,1-.29-.964V154.121Z" transform="translate(-400.518 -133.907)" fill="#bdcefa"/><path d="M420.626,153.08l10.786,5.405a4.062,4.062,0,0,1-1.01.846l-28.156,16.255a2.188,2.188,0,0,1-.93.318l10.773-17.84,4.236,1.178Z" transform="translate(-400.016 -134.562)" fill="#bdcefa"/><path d="M424.755,142.561v19.785a3.64,3.64,0,0,1-.267,1.2l-10.651-5.365Z" transform="translate(-392.139 -141.18)" fill="#bdcefa"/></g></g><g transform="translate(36.765 17.563)"><path d="M527.175,188.909a.26.26,0,0,1-.261-.259V112.139L422.744,172.373a.26.26,0,1,1-.261-.45l104.953-60.687V188.65A.26.26,0,0,1,527.175,188.909Z" transform="translate(-316.033 -111.236)" fill="#bdcefa"/><g transform="translate(0 44.722)"><g transform="translate(64.96)"><path d="M491.177,159.524a.5.5,0,0,1-.521-.5v-.052a.52.52,0,0,1,1.041,0A.543.543,0,0,1,491.177,159.524Z" transform="translate(-338.025 -126.251)" fill="#bdcefa"/><path d="M491.177,166.417a.481.481,0,0,1-.521-.471v-.1a.52.52,0,1,1,1.041,0A.564.564,0,0,1,491.177,166.417Zm0-4.034a.481.481,0,0,1-.521-.472v-.1a.52.52,0,1,1,1.041,0A.564.564,0,0,1,491.177,162.384Zm0-4.034a.481.481,0,0,1-.521-.472v-.1a.52.52,0,1,1,1.041,0A.566.566,0,0,1,491.177,158.35Zm0-4.035a.48.48,0,0,1-.521-.471v-.1a.52.52,0,0,1,1.041,0A.564.564,0,0,1,491.177,154.315Zm0-4.034a.481.481,0,0,1-.521-.471v-.1a.52.52,0,0,1,1.041,0A.564.564,0,0,1,491.177,150.281Zm0-4.034a.481.481,0,0,1-.521-.471v-.1a.52.52,0,0,1,1.041,0A.565.565,0,0,1,491.177,146.247Zm0-4.034a.481.481,0,0,1-.521-.472v-.1a.52.52,0,0,1,1.041,0A.565.565,0,0,1,491.177,142.214Z" transform="translate(-338.025 -137.155)" fill="#bdcefa"/><path d="M491.188,139.736a.518.518,0,0,1-.435-.218.438.438,0,0,1-.044-.064.5.5,0,0,1,.179-.694.569.569,0,0,1,.541-.007.519.519,0,0,1,.279.435A.543.543,0,0,1,491.188,139.736Z" transform="translate(-338.036 -138.688)" fill="#bdcefa"/><path d="M399.743,222.061a.52.52,0,0,1-.254-.974l.091-.052a.521.521,0,0,1,.508.909L400,222A.532.532,0,0,1,399.743,222.061Zm3.722-2.077a.521.521,0,0,1-.254-.976l.091-.05a.521.521,0,0,1,.508.909l-.091.051A.529.529,0,0,1,403.466,219.984Zm3.724-2.079a.52.52,0,0,1-.256-.974.567.567,0,0,1,.754.173.481.481,0,0,1-.153.684l-.091.051A.516.516,0,0,1,407.19,217.905Zm3.722-2.079a.52.52,0,0,1-.254-.974l.09-.052a.521.521,0,0,1,.508.909l-.091.051A.51.51,0,0,1,410.912,215.826Zm3.722-2.079a.52.52,0,0,1-.254-.974l.091-.05a.52.52,0,0,1,.507.909l-.091.05A.521.521,0,0,1,414.635,213.748Zm3.722-2.077a.521.521,0,0,1-.256-.976.566.566,0,0,1,.754.174.479.479,0,0,1-.153.684l-.091.051A.511.511,0,0,1,418.357,211.671Zm3.723-2.079a.52.52,0,0,1-.256-.974.567.567,0,0,1,.754.173.479.479,0,0,1-.153.684l-.09.05A.522.522,0,0,1,422.08,209.592Zm3.722-2.079a.52.52,0,0,1-.254-.974l.091-.052a.521.521,0,0,1,.508.909l-.091.052A.532.532,0,0,1,425.8,207.513Zm3.722-2.077a.521.521,0,0,1-.254-.976l.091-.051a.521.521,0,0,1,.508.909l-.091.051A.529.529,0,0,1,429.525,205.436Zm3.724-2.079a.521.521,0,0,1-.254-.976.564.564,0,0,1,.753.178.477.477,0,0,1-.156.683l-.09.051A.53.53,0,0,1,433.249,203.357Zm3.722-2.079a.52.52,0,0,1-.253-.976.568.568,0,0,1,.753.178.48.48,0,0,1-.158.683l-.091.051A.519.519,0,0,1,436.971,201.279Zm3.722-2.079a.52.52,0,0,1-.253-.976.567.567,0,0,1,.753.179.48.48,0,0,1-.158.683l-.091.049A.5.5,0,0,1,440.694,199.2Zm3.722-2.077a.521.521,0,0,1-.254-.976.567.567,0,0,1,.754.178.479.479,0,0,1-.156.683l-.091.05A.52.52,0,0,1,444.416,197.123Zm3.722-2.079a.521.521,0,0,1-.253-.976.565.565,0,0,1,.753.178.479.479,0,0,1-.156.683l-.091.05A.521.521,0,0,1,448.138,195.044Zm3.723-2.079a.52.52,0,0,1-.253-.976.571.571,0,0,1,.754.179.478.478,0,0,1-.158.681l-.091.051A.521.521,0,0,1,451.861,192.965Zm3.722-2.077a.521.521,0,0,1-.254-.976l.091-.05a.521.521,0,1,1,.508.909l-.091.051A.511.511,0,0,1,455.583,190.888Zm3.724-2.079a.52.52,0,0,1-.256-.974.567.567,0,0,1,.754.173.481.481,0,0,1-.153.684l-.091.051A.515.515,0,0,1,459.308,188.81Zm3.722-2.077a.521.521,0,0,1-.254-.976l.09-.051a.521.521,0,0,1,.508.909l-.091.051A.528.528,0,0,1,463.03,186.732Zm3.722-2.079a.521.521,0,0,1-.254-.976l.091-.05a.52.52,0,0,1,.507.909l-.091.05A.505.505,0,0,1,466.752,184.654Zm3.722-2.079a.52.52,0,0,1-.256-.974.566.566,0,0,1,.754.173.479.479,0,0,1-.153.684l-.091.051A.512.512,0,0,1,470.475,182.575ZM474.2,180.5a.52.52,0,0,1-.256-.974.567.567,0,0,1,.754.173.479.479,0,0,1-.153.684l-.09.05A.522.522,0,0,1,474.2,180.5Zm3.723-2.077a.521.521,0,0,1-.254-.976l.091-.051a.52.52,0,1,1,.507.909l-.09.051A.516.516,0,0,1,477.92,178.419Zm3.722-2.079a.521.521,0,0,1-.254-.976l.091-.051a.521.521,0,1,1,.508.909l-.091.051A.512.512,0,0,1,481.642,176.341Zm3.724-2.079a.52.52,0,0,1-.256-.974.568.568,0,0,1,.754.173.481.481,0,0,1-.153.684l-.091.05A.515.515,0,0,1,485.367,174.262Zm3.722-2.077a.521.521,0,0,1-.256-.976.566.566,0,0,1,.754.174.478.478,0,0,1-.153.683l-.091.052A.529.529,0,0,1,489.089,172.185Zm3.722-2.079a.521.521,0,0,1-.254-.976l.091-.051a.52.52,0,0,1,.507.909l-.091.051A.505.505,0,0,1,492.811,170.106Zm3.722-2.079a.52.52,0,0,1-.254-.974l.091-.052a.52.52,0,1,1,.507.909l-.091.052A.52.52,0,0,1,496.534,168.027Zm3.722-2.079a.52.52,0,0,1-.256-.974.567.567,0,0,1,.754.173.479.479,0,0,1-.153.684l-.09.051A.522.522,0,0,1,500.256,165.949Zm3.723-2.077a.521.521,0,0,1-.254-.976.57.57,0,0,1,.754.174.481.481,0,0,1-.155.684l-.09.051A.522.522,0,0,1,503.979,163.871Zm3.722-2.079a.521.521,0,0,1-.253-.976.567.567,0,0,1,.753.178.479.479,0,0,1-.156.683l-.09.051A.532.532,0,0,1,507.7,161.793Zm3.722-2.079a.52.52,0,0,1-.251-.976l.091-.051a.521.521,0,1,1,.5.912l-.091.051A.536.536,0,0,1,511.424,159.714Zm3.724-2.079a.52.52,0,0,1-.254-.974.569.569,0,0,1,.754.176.48.48,0,0,1-.156.683l-.091.05A.5.5,0,0,1,515.148,157.635Zm3.722-2.077a.521.521,0,0,1-.254-.976.569.569,0,0,1,.754.178.479.479,0,0,1-.158.683l-.09.051A.521.521,0,0,1,518.87,155.558Zm3.723-2.079a.521.521,0,0,1-.253-.976.567.567,0,0,1,.753.178.479.479,0,0,1-.156.683l-.091.051A.52.52,0,0,1,522.593,153.479Zm3.722-2.079a.52.52,0,0,1-.252-.974.567.567,0,0,1,.753.176.479.479,0,0,1-.156.683l-.091.051A.5.5,0,0,1,526.315,151.4Zm3.723-2.077a.521.521,0,0,1-.254-.976l.093-.051a.521.521,0,1,1,.505.911l-.091.051A.522.522,0,0,1,530.038,149.324Zm3.723-2.079a.52.52,0,0,1-.254-.974.57.57,0,0,1,.754.173.481.481,0,0,1-.153.684l-.091.051A.522.522,0,0,1,533.76,147.245Zm3.722-2.077a.521.521,0,0,1-.254-.976.569.569,0,0,1,.754.174.481.481,0,0,1-.153.684l-.091.051A.522.522,0,0,1,537.483,145.168Zm3.723-2.079a.521.521,0,0,1-.253-.976l.091-.051a.52.52,0,1,1,.507.909l-.091.052A.531.531,0,0,1,541.205,143.089Zm3.724-2.079a.52.52,0,0,1-.256-.974.569.569,0,0,1,.754.173.48.48,0,0,1-.153.684l-.091.051A.511.511,0,0,1,544.929,141.01Z" transform="translate(-395.545 -137.886)" fill="#bdcefa"/><path d="M397.486,192.047a.5.5,0,0,1-.521-.494.613.613,0,0,1,.266-.507.543.543,0,0,1,.732.186.565.565,0,0,1-.476.815Z" transform="translate(-396.965 -105.793)" fill="#bdcefa"/><path d="M397.486,221.348a.52.52,0,0,1-.521-.52v-.108a.521.521,0,1,1,1.041,0v.108A.52.52,0,0,1,397.486,221.348Zm0-4.423a.52.52,0,0,1-.521-.52V216.3a.521.521,0,0,1,1.041,0v.109A.52.52,0,0,1,397.486,216.925Zm0-4.423a.52.52,0,0,1-.521-.52v-.109a.521.521,0,0,1,1.041,0v.109A.52.52,0,0,1,397.486,212.5Zm0-4.423a.521.521,0,0,1-.521-.521v-.108a.521.521,0,0,1,1.041,0v.108A.52.52,0,0,1,397.486,208.079Zm0-4.423a.521.521,0,0,1-.521-.521v-.108a.521.521,0,1,1,1.041,0v.108A.52.52,0,0,1,397.486,203.656Zm0-4.423a.521.521,0,0,1-.521-.521V198.6a.521.521,0,1,1,1.041,0v.108A.52.52,0,0,1,397.486,199.233Zm0-4.425a.52.52,0,0,1-.521-.52v-.108a.521.521,0,1,1,1.041,0v.108A.52.52,0,0,1,397.486,194.809Z" transform="translate(-396.965 -104.105)" fill="#bdcefa"/><path d="M397.486,213.749a.52.52,0,0,1-.521-.52.544.544,0,0,1,.521-.547.5.5,0,0,1,.52.5v.052A.52.52,0,0,1,397.486,213.749Z" transform="translate(-396.965 -92.139)" fill="#bdcefa"/></g><path d="M357.351,247.161a.26.26,0,0,1-.261-.261V205.288l.138-.073,24.438-12.937a.261.261,0,0,1,.243.461l-24.3,12.862v41.3A.261.261,0,0,1,357.351,247.161Z" transform="translate(-357.09 -104.993)" fill="#bdcefa"/><path d="M368.239,337.787a.477.477,0,0,1-.52-.469v-.1a.521.521,0,1,1,1.041,0A.567.567,0,0,1,368.239,337.787Zm0-4.216a.519.519,0,0,1-.52-.521v-.1a.521.521,0,0,1,1.041,0v.1A.521.521,0,0,1,368.239,333.571Zm0-4.322a.477.477,0,0,1-.52-.468v-.1a.521.521,0,1,1,1.041,0A.566.566,0,0,1,368.239,329.249Zm0-4.216a.519.519,0,0,1-.52-.52v-.106a.521.521,0,0,1,1.041,0v.106A.52.52,0,0,1,368.239,325.033Zm0-4.32a.478.478,0,0,1-.52-.469v-.1a.521.521,0,0,1,1.041,0A.568.568,0,0,1,368.239,320.712Zm0-4.268a.478.478,0,0,1-.52-.469v-.1a.521.521,0,0,1,1.041,0A.568.568,0,0,1,368.239,316.444Zm0-4.218a.519.519,0,0,1-.52-.52V311.6a.521.521,0,0,1,1.041,0v.106A.52.52,0,0,1,368.239,312.226Zm0-4.32a.477.477,0,0,1-.52-.469v-.1a.521.521,0,0,1,1.041,0A.568.568,0,0,1,368.239,307.906Zm0-4.216a.519.519,0,0,1-.52-.521v-.1a.521.521,0,1,1,1.041,0v.1A.521.521,0,0,1,368.239,303.69Zm0-4.322a.477.477,0,0,1-.52-.469v-.1a.521.521,0,1,1,1.041,0A.567.567,0,0,1,368.239,299.368Zm0-4.216a.519.519,0,0,1-.52-.521v-.1a.521.521,0,0,1,1.041,0v.1A.521.521,0,0,1,368.239,295.152Zm0-4.27a.519.519,0,0,1-.52-.52v-.1a.521.521,0,1,1,1.041,0v.1A.52.52,0,0,1,368.239,290.882Zm0-4.32a.477.477,0,0,1-.52-.469v-.1a.521.521,0,1,1,1.041,0A.567.567,0,0,1,368.239,286.562Zm0-4.216a.519.519,0,0,1-.52-.521v-.1a.521.521,0,0,1,1.041,0v.1A.521.521,0,0,1,368.239,282.345Zm0-4.268a.519.519,0,0,1-.52-.521v-.1a.521.521,0,1,1,1.041,0v.1A.521.521,0,0,1,368.239,278.077Zm0-4.27a.519.519,0,0,1-.52-.521v-.1a.521.521,0,1,1,1.041,0v.1A.521.521,0,0,1,368.239,273.807Zm0-4.268a.519.519,0,0,1-.52-.521v-.1a.521.521,0,0,1,1.041,0v.1A.521.521,0,0,1,368.239,269.539Zm0-4.32a.478.478,0,0,1-.52-.469v-.1a.521.521,0,0,1,1.041,0A.568.568,0,0,1,368.239,265.219Zm0-4.218a.519.519,0,0,1-.52-.52v-.1a.521.521,0,1,1,1.041,0v.1A.52.52,0,0,1,368.239,261Zm0-4.268a.519.519,0,0,1-.52-.521v-.1a.521.521,0,0,1,1.041,0v.1A.521.521,0,0,1,368.239,256.733Zm0-4.27a.519.519,0,0,1-.52-.52v-.1a.521.521,0,1,1,1.041,0v.1A.52.52,0,0,1,368.239,252.463Zm0-4.268a.519.519,0,0,1-.52-.52v-.1a.521.521,0,1,1,1.041,0v.1A.52.52,0,0,1,368.239,248.195Zm0-4.32a.477.477,0,0,1-.52-.469v-.1a.521.521,0,0,1,1.041,0A.568.568,0,0,1,368.239,243.874Zm0-4.216a.519.519,0,0,1-.52-.521v-.1a.521.521,0,0,1,1.041,0v.1A.521.521,0,0,1,368.239,239.658Zm0-4.27a.519.519,0,0,1-.52-.52v-.1a.521.521,0,1,1,1.041,0v.1A.52.52,0,0,1,368.239,235.389Zm0-4.268a.519.519,0,0,1-.52-.521v-.1a.521.521,0,0,1,1.041,0v.1A.521.521,0,0,1,368.239,231.12Zm0-4.268a.519.519,0,0,1-.52-.521v-.1a.521.521,0,1,1,1.041,0v.1A.521.521,0,0,1,368.239,226.852Zm0-4.322a.477.477,0,0,1-.52-.468v-.1a.521.521,0,1,1,1.041,0A.567.567,0,0,1,368.239,222.53Zm0-4.216a.519.519,0,0,1-.52-.521v-.1a.521.521,0,1,1,1.041,0v.1A.521.521,0,0,1,368.239,218.314Zm0-4.268a.519.519,0,0,1-.52-.521v-.1a.521.521,0,0,1,1.041,0v.1A.521.521,0,0,1,368.239,214.046Zm0-4.27a.519.519,0,0,1-.52-.52v-.1a.521.521,0,1,1,1.041,0v.1A.52.52,0,0,1,368.239,209.776Zm0-4.268a.519.519,0,0,1-.52-.521v-.1a.521.521,0,0,1,1.041,0v.1A.521.521,0,0,1,368.239,205.508Zm0-4.32a.477.477,0,0,1-.52-.469v-.1a.521.521,0,0,1,1.041,0A.568.568,0,0,1,368.239,201.187Zm0-4.218a.519.519,0,0,1-.52-.52v-.1a.521.521,0,1,1,1.041,0v.1A.52.52,0,0,1,368.239,196.97Zm0-4.268a.519.519,0,0,1-.52-.521v-.1a.521.521,0,1,1,1.041,0v.1A.521.521,0,0,1,368.239,192.7Zm0-4.268a.519.519,0,0,1-.52-.521v-.1a.521.521,0,0,1,1.041,0v.1A.521.521,0,0,1,368.239,188.433Zm0-4.27a.519.519,0,0,1-.52-.52v-.1a.521.521,0,1,1,1.041,0v.1A.52.52,0,0,1,368.239,184.163Zm2.01-3.1a.52.52,0,0,1-.261-.971l.091-.052a.52.52,0,1,1,.518.9l-.091.052A.508.508,0,0,1,370.249,181.062Zm3.762-2.159a.521.521,0,0,1-.461-.244.478.478,0,0,1,.148-.684l.09-.052a.521.521,0,0,1,.516.9A.592.592,0,0,1,374.011,178.9Zm3.708-2.115a.527.527,0,0,1-.463-.246.479.479,0,0,1,.151-.684l.09-.051a.521.521,0,1,1,.513.906A.6.6,0,0,1,377.718,176.788Zm3.654-2.072a.519.519,0,0,1-.259-.971l.09-.052a.52.52,0,1,1,.518.9l-.091.052A.508.508,0,0,1,381.372,174.716Zm3.763-2.159a.524.524,0,0,1-.464-.246.48.48,0,0,1,.151-.684l.091-.051a.521.521,0,0,1,.513.906A.589.589,0,0,1,385.136,172.558Zm3.708-2.115a.524.524,0,0,1-.464-.246.479.479,0,0,1,.151-.684l.091-.051a.521.521,0,0,1,.513.906A.607.607,0,0,1,388.843,170.443Zm3.652-2.071a.521.521,0,0,1-.259-.973l.09-.052a.52.52,0,1,1,.518.9l-.09.052A.516.516,0,0,1,392.5,168.373Zm3.763-2.16a.522.522,0,0,1-.463-.244.479.479,0,0,1,.15-.684l.091-.052a.521.521,0,1,1,.513.906A.589.589,0,0,1,396.259,166.212Zm3.708-2.115a.52.52,0,0,1-.463-.246.479.479,0,0,1,.15-.684l.091-.05a.521.521,0,0,1,.513.906A.607.607,0,0,1,399.967,164.1Zm3.652-2.071a.521.521,0,0,1-.259-.973l.091-.052a.521.521,0,0,1,.516.9l-.09.051A.516.516,0,0,1,403.619,162.027Zm3.763-2.16a.524.524,0,0,1-.463-.244.478.478,0,0,1,.151-.684l.09-.052a.521.521,0,1,1,.513.906A.585.585,0,0,1,407.383,159.867Zm3.708-2.115a.524.524,0,0,1-.463-.244.479.479,0,0,1,.15-.684l.091-.052a.521.521,0,1,1,.513.906A.589.589,0,0,1,411.09,157.753Zm3.654-2.071a.521.521,0,0,1-.261-.973l.091-.05a.52.52,0,0,1,.518.9l-.091.05A.515.515,0,0,1,414.744,155.682Z" transform="translate(-350.403 -128.685)" fill="#bdcefa"/><path d="M414.487,183.407a.525.525,0,0,1-.461-.243.478.478,0,0,1,.147-.684l.091-.052a.521.521,0,0,1,.52.9A.609.609,0,0,1,414.487,183.407Zm-1.707-1.256a.52.52,0,0,1-.52-.52v-.1a.52.52,0,1,1,1.041,0v.1A.52.52,0,0,1,412.78,182.151Zm5.4-.881a.517.517,0,0,1-.459-.243.476.476,0,0,1,.145-.684l.091-.052a.521.521,0,0,1,.52.9A.609.609,0,0,1,418.182,181.27Zm3.7-2.137a.521.521,0,0,1-.461-.243.478.478,0,0,1,.147-.684l.09-.052a.521.521,0,0,1,.52.9A.6.6,0,0,1,421.878,179.133Zm-9.1-1.25a.52.52,0,0,1-.52-.521v-.1a.52.52,0,0,1,1.041,0v.1A.521.521,0,0,1,412.78,177.883ZM425.573,177a.524.524,0,0,1-.461-.241.48.48,0,0,1,.147-.686l.09-.052a.521.521,0,1,1,.52.9A.6.6,0,0,1,425.573,177Zm3.641-2.092a.52.52,0,0,1-.261-.971l.09-.052a.52.52,0,1,1,.521.9l-.09.052A.526.526,0,0,1,429.214,174.9Zm-16.434-1.289a.52.52,0,0,1-.52-.521.566.566,0,0,1,.52-.572.479.479,0,0,1,.521.468v.1A.521.521,0,0,1,412.78,173.615Zm20.183-.894a.521.521,0,0,1-.459-.24.481.481,0,0,1,.143-.686l.091-.052a.52.52,0,0,1,.523.9A.579.579,0,0,1,432.962,172.721Zm3.7-2.137a.518.518,0,0,1-.459-.24.478.478,0,0,1,.143-.686l.09-.052a.521.521,0,0,1,.523.9A.592.592,0,0,1,436.659,170.583Zm-23.879-1.238a.519.519,0,0,1-.52-.52v-.1a.52.52,0,1,1,1.041,0v.1A.519.519,0,0,1,412.78,169.345Zm27.52-.854a.521.521,0,0,1-.262-.971l.091-.052a.52.52,0,1,1,.521.9l-.09.052A.51.51,0,0,1,440.3,168.491Zm3.749-2.181a.525.525,0,0,1-.459-.239.483.483,0,0,1,.143-.687l.09-.052a.521.521,0,0,1,.525.9A.6.6,0,0,1,444.048,166.31Zm-31.269-1.233a.52.52,0,0,1-.52-.521v-.1a.52.52,0,1,1,1.041,0v.1A.521.521,0,0,1,412.78,165.077Zm34.965-.9a.521.521,0,0,1-.461-.243.478.478,0,0,1,.147-.684l.09-.052a.521.521,0,0,1,.52.9A.6.6,0,0,1,447.745,164.173Zm3.641-2.092a.521.521,0,0,1-.261-.973l.091-.052a.52.52,0,1,1,.518.9l-.091.052A.51.51,0,0,1,451.386,162.081Zm3.748-2.183a.523.523,0,0,1-.461-.241.48.48,0,0,1,.147-.686l.09-.052a.521.521,0,1,1,.52.9A.6.6,0,0,1,455.134,159.9Z" transform="translate(-322.383 -126.005)" fill="#bdcefa"/></g></g></g><g transform="translate(633.157 140.232)"><g transform="translate(2.297 27.233)"><path d="M606.7,170.261l-37.788,21.817c-2.755,1.59-7.611,1.39-10.793-.448l-36.238-20.921c-3.18-1.836-3.53-4.641-.774-6.231l37.787-21.817c2.755-1.59,7.613-1.39,10.793.448l36.238,20.921C609.1,165.868,609.452,168.671,606.7,170.261Z" transform="translate(-519.246 -141.588)" fill="#e8f2fe"/><g transform="translate(0.002 26.068)"><path d="M591.261,294.136v-136.3h0a3.431,3.431,0,0,1-1.807,2.2l-37.788,21.817a9.79,9.79,0,0,1-5.011,1.059V320.19a9.79,9.79,0,0,0,5.011-1.059l37.788-21.817A3.036,3.036,0,0,0,591.261,294.136Z" transform="translate(-502.005 -157.435)" fill="url(#f)"/><path d="M558.116,181.564l-36.238-20.921a4.822,4.822,0,0,1-2.58-3.053v136.3c-.28,1.367.6,2.884,2.58,4.027l36.238,20.921a12.448,12.448,0,0,0,5.782,1.507V183.071A12.448,12.448,0,0,1,558.116,181.564Z" transform="translate(-519.247 -157.59)" fill="#ddd"/><path d="M558.116,181.564l-36.238-20.921a4.822,4.822,0,0,1-2.58-3.053v136.3c-.28,1.367.6,2.884,2.58,4.027l36.238,20.921a12.448,12.448,0,0,0,5.782,1.507V183.071A12.448,12.448,0,0,1,558.116,181.564Z" transform="translate(-519.247 -157.59)" fill="url(#g)"/></g></g><path d="M596.189,191.224c0,7.741-4.1,12.011-9.918,11.457a7.382,7.382,0,0,1-4.475-1.157L533.5,173.644a12.784,12.784,0,0,1-1.181-.775c-8.137-5.642-14.487-17.241-14.487-26.882,0-9.39,6.021-13.675,13.846-10.431,1.171-6.669,6.743-9.02,13.44-5.153a24.469,24.469,0,0,1,6.2,5.3c3.556-3.019,8.986-3.128,15.076.388,9.146,5.28,16.809,17.022,18.844,28.042a12.809,12.809,0,0,1,5.014,9.248C593.876,178.882,596.189,185.4,596.189,191.224Z" transform="translate(-517.836 -122.566)" fill="#0080e9"/><g transform="translate(4.996)"><path d="M598.774,169.711a12.815,12.815,0,0,0-5.014-9.248c-2.035-11.018-9.7-22.76-18.844-28.04-5.355-3.092-10.2-3.379-13.709-1.351l-1.476.842a24.354,24.354,0,0,0-6.091-5.179c-3.794-2.189-7.223-2.383-9.7-.93l-8.791,5.027a8.316,8.316,0,0,0-3.905.964L520.9,137.711c2.375-1.243,5.439-1.261,8.849.151,1.171-6.669,6.743-9.02,13.44-5.153a24.47,24.47,0,0,1,6.2,5.3c3.556-3.019,8.986-3.128,15.076.388,9.146,5.28,16.809,17.022,18.844,28.042a12.809,12.809,0,0,1,5.014,9.248c3.618,5.5,5.932,12.024,5.932,17.843,0,5.27-1.9,8.926-4.949,10.552l10.342-5.914c3.11-1.6,5.053-5.282,5.053-10.612C604.705,181.737,602.393,175.213,598.774,169.711Z" transform="translate(-520.903 -124.872)" fill="#52a1f6"/></g><g transform="translate(16.014 38.634)"><path d="M533.637,154.167c0,1.9-1.336,2.675-2.984,1.724a6.6,6.6,0,0,1-2.986-5.172c0-1.9,1.336-2.675,2.986-1.724A6.6,6.6,0,0,1,533.637,154.167Z" transform="translate(-527.666 -148.587)" fill="#fff"/><ellipse cx="2.438" cy="4.223" rx="2.438" ry="4.223" transform="translate(8.084 6.799) rotate(-30.001)" fill="#fff"/><path d="M545.08,160.772c0,1.9-1.336,2.677-2.984,1.725a6.6,6.6,0,0,1-2.986-5.172c0-1.9,1.336-2.675,2.986-1.724A6.6,6.6,0,0,1,545.08,160.772Z" transform="translate(-520.467 -144.431)" fill="#fff"/><path d="M550.8,164.077c0,1.9-1.337,2.675-2.986,1.724a6.6,6.6,0,0,1-2.986-5.171c0-1.9,1.338-2.677,2.986-1.725A6.6,6.6,0,0,1,550.8,164.077Z" transform="translate(-516.868 -142.353)" fill="#fff"/><path d="M556.523,167.379c0,1.9-1.336,2.677-2.984,1.724a6.594,6.594,0,0,1-2.986-5.171c0-1.9,1.336-2.677,2.986-1.724A6.6,6.6,0,0,1,556.523,167.379Z" transform="translate(-513.269 -140.275)" fill="#fff"/></g></g><g transform="translate(616.18 408.376)"><path d="M614.583,312.607l-69.207,38.764c-3.066,1.769-8.47,1.546-12.01-.5l-23.022-13.732c-3.538-2.043-3.928-5.164-.862-6.933l68.945-39.545c3.064-1.771,8.47-1.546,12.01.5l23.285,14.512C617.262,307.717,617.649,310.836,614.583,312.607Z" transform="translate(-507.415 -289.469)" fill="#e8f2fe"/><g transform="translate(0.001 20.683)"><path d="M604.088,308.949v-6.782h0v0a3.822,3.822,0,0,1-2.01,2.455l-69.207,38.764a10.9,10.9,0,0,1-5.578,1.178v7.867a10.9,10.9,0,0,0,5.578-1.178l69.207-38.766C603.681,311.56,604.331,310.265,604.088,308.949Z" transform="translate(-494.911 -302.165)" fill="url(#h)"/><path d="M533.366,333.775l-23.021-13.732a5.361,5.361,0,0,1-2.874-3.4v6.782c-.311,1.522.67,3.209,2.874,4.482l23.021,13.732a13.842,13.842,0,0,0,6.432,1.676v-7.867A13.842,13.842,0,0,1,533.366,333.775Z" transform="translate(-507.415 -293.054)" fill="url(#i)"/></g></g><g transform="translate(644.992 451.021)"><path d="M632.27,338.784l-69.209,38.764c-3.066,1.769-8.47,1.546-12.01-.5l-23.021-13.732c-3.54-2.043-3.928-5.164-.862-6.933l68.943-39.545c3.066-1.771,8.47-1.546,12.01.5l23.285,14.512C634.946,333.894,635.334,337.013,632.27,338.784Z" transform="translate(-525.1 -315.646)" fill="#e8f2fe"/><g transform="translate(0.002 20.683)"><path d="M621.773,335.126v-6.782h0v0a3.823,3.823,0,0,1-2.01,2.455l-69.209,38.764a10.9,10.9,0,0,1-5.576,1.178v7.867a10.9,10.9,0,0,0,5.576-1.178l69.209-38.766C621.367,337.737,622.016,336.442,621.773,335.126Z" transform="translate(-512.597 -328.342)" fill="url(#j)"/><path d="M551.051,359.952,528.03,346.221a5.358,5.358,0,0,1-2.872-3.4v6.782c-.311,1.522.67,3.209,2.872,4.482l23.021,13.732a13.848,13.848,0,0,0,6.433,1.676v-7.867A13.847,13.847,0,0,1,551.051,359.952Z" transform="translate(-525.101 -319.232)" fill="url(#k)"/></g></g><g transform="translate(364.329 267.322)"><g transform="translate(0 0.844)"><path d="M728.4,299.677,523.111,417.94c-9.25,5.34-25.559,4.664-36.239-1.5L361.66,344.42c-10.68-6.166-11.852-15.582-2.6-20.922L567.892,207.007c9.25-5.342,25.557-4.666,36.239,1.5L725.8,278.755C736.482,284.921,737.653,294.336,728.4,299.677Z" transform="translate(-352.819 -203.403)" fill="#e8f2fe"/><g transform="translate(0.005 88.87)"><path d="M675.206,263.611v-5.656c-.568,2.786-2.571,5.386-6.065,7.4L463.85,383.622c-4.446,2.567-10.531,3.708-16.829,3.553V396.1c6.3.155,12.383-.987,16.829-3.555L669.141,274.287C673.978,271.494,675.938,267.586,675.206,263.611Z" transform="translate(-293.561 -257.955)" fill="url(#l)"/><path d="M486.871,365.94,361.659,293.923c-5.094-2.942-8-6.622-8.667-10.249v5.655c-.94,4.589,2.02,9.685,8.667,13.523l125.212,72.016a41.809,41.809,0,0,0,19.411,5.057v-8.929A41.787,41.787,0,0,1,486.871,365.94Z" transform="translate(-352.821 -241.775)" fill="#c9c9c9"/><path d="M486.871,365.94,361.659,293.923c-5.094-2.942-8-6.622-8.667-10.249v5.655c-.94,4.589,2.02,9.685,8.667,13.523l125.212,72.016a41.809,41.809,0,0,0,19.411,5.057v-8.929A41.787,41.787,0,0,1,486.871,365.94Z" transform="translate(-352.821 -241.775)" fill="url(#m)"/></g></g><g transform="translate(30.838 99.237)"><path d="M523.663,326.825,480.8,351.574,371.749,288.549,414.616,263.8Z" transform="translate(-371.749 -263.8)" fill="#fff"/><path d="M481.553,302.487v17.793L438.686,345.03V327.236Z" transform="translate(-329.639 -239.462)" fill="url(#n)"/><path d="M371.749,278.992v17.794L480.8,359.81V342.017Z" transform="translate(-371.749 -254.243)" fill="url(#o)"/><g transform="translate(19.373 4.815)"><path d="M427.171,281.029l-18.809,10.86a6,6,0,0,1-5.373-.223L384.951,281.25c-1.583-.914-1.758-2.31-.386-3.1l18.809-10.859a6,6,0,0,1,5.373.223l18.039,10.413C428.37,278.841,428.543,280.237,427.171,281.029Z" transform="translate(-383.64 -266.755)" fill="#9ce1f0"/><g transform="translate(0.001 12.977)"><path d="M419.487,283.125v-8.282h0a1.708,1.708,0,0,1-.9,1.1L399.778,286.8a4.879,4.879,0,0,1-2.494.526v8.768a4.861,4.861,0,0,0,2.494-.526l18.809-10.86A1.51,1.51,0,0,0,419.487,283.125Z" transform="translate(-375.058 -274.644)" fill="#39bed1"/><path d="M402.988,286.654l-18.037-10.415a2.4,2.4,0,0,1-1.285-1.518V283c-.138.679.3,1.435,1.285,2l18.037,10.415a6.184,6.184,0,0,0,2.879.749V287.4A6.2,6.2,0,0,1,402.988,286.654Z" transform="translate(-383.641 -274.721)" fill="#20a4af"/></g><g transform="translate(33.175 19.218)"><path d="M447.535,292.826l-18.81,10.86a6,6,0,0,1-5.373-.223l-18.037-10.415c-1.583-.914-1.758-2.31-.386-3.1l18.81-10.859a6,6,0,0,1,5.373.223l18.037,10.413C448.732,290.638,448.907,292.033,447.535,292.826Z" transform="translate(-404.004 -278.552)" fill="#ffb200"/><g transform="translate(0 12.977)"><path d="M439.851,294.922V286.64h0a1.713,1.713,0,0,1-.9,1.1l-18.81,10.86a4.882,4.882,0,0,1-2.494.526v8.768a4.881,4.881,0,0,0,2.494-.526l18.81-10.859A1.513,1.513,0,0,0,439.851,294.922Z" transform="translate(-395.421 -286.441)" fill="#d89200"/><path d="M423.353,298.451l-18.037-10.415a2.4,2.4,0,0,1-1.285-1.518V294.8c-.14.679.3,1.435,1.285,2l18.037,10.415a6.183,6.183,0,0,0,2.879.749V299.2A6.2,6.2,0,0,1,423.353,298.451Z" transform="translate(-404.004 -286.518)" fill="#bc7b00"/></g></g><g transform="translate(67.04 38.708)"><path d="M468.323,304.789l-18.809,10.859a5.99,5.99,0,0,1-5.373-.222L426.1,305.012c-1.583-.914-1.758-2.31-.386-3.1l18.81-10.86a5.99,5.99,0,0,1,5.373.223l18.039,10.413C469.522,302.6,469.695,304,468.323,304.789Z" transform="translate(-424.792 -290.516)" fill="#f4ff00"/><g transform="translate(0.001 12.976)"><path d="M460.639,306.887V298.6h0v0a1.7,1.7,0,0,1-.9,1.1L440.93,310.561a4.861,4.861,0,0,1-2.494.528v8.768a4.877,4.877,0,0,0,2.494-.526l18.809-10.861A1.508,1.508,0,0,0,460.639,306.887Z" transform="translate(-416.21 -298.404)" fill="#d2d600"/><path d="M444.14,310.416,426.1,300a2.4,2.4,0,0,1-1.285-1.52v8.284c-.138.679.3,1.435,1.285,2l18.037,10.415a6.2,6.2,0,0,0,2.879.749v-8.768A6.2,6.2,0,0,1,444.14,310.416Z" transform="translate(-424.793 -298.481)" fill="#939200"/></g></g></g></g><g transform="translate(309.492 28.531)"><g transform="translate(0 20.949)"><ellipse cx="29.005" cy="16.746" rx="29.005" ry="16.746" fill="#fff"/><g transform="translate(0.008 16.836)"><path d="M592.309,255.343c-11.327,6.539-29.692,6.539-41.019,0-5.624-3.247-8.448-7.5-8.488-11.751v18c-.041,4.315,2.784,8.637,8.488,11.932,11.327,6.539,29.692,6.539,41.019,0,5.7-3.294,8.527-7.616,8.488-11.932v-18C600.757,247.847,597.932,252.1,592.309,255.343Z" transform="translate(-542.802 -243.592)" fill="url(#p)"/></g></g><g transform="translate(4.006)"><path d="M570.254,241.3l17.711,10.226c-9.716,5.609-25.706,5.609-35.423,0s-9.716-14.843,0-20.452c5.427-3.133,13.056-4.659,20.675-4.135Z" transform="translate(-545.256 -216.349)" fill="#76b3ce"/><g transform="translate(0.003 24.997)"><path d="M552.542,245.916c-4.835-2.791-7.262-6.481-7.284-10.174v10.293c-.023,3.727,2.4,7.46,7.284,10.276,9.718,5.611,25.707,5.611,35.423,0V245.917C578.249,251.526,562.259,251.526,552.542,245.916Z" transform="translate(-545.258 -235.742)" fill="#20a4af"/></g><path d="M570.254,241.3l17.711,10.226c-9.716,5.609-25.706,5.609-35.423,0s-9.716-14.843,0-20.452c5.427-3.133,13.056-4.659,20.675-4.135Z" transform="translate(-545.256 -216.349)" fill="#9ce1f0"/><path d="M560.6,234.757l2.963-14.359a34.76,34.76,0,0,1,14.748,4.133c9.716,5.611,9.716,14.843,0,20.452Z" transform="translate(-535.603 -220.398)" fill="#ffb200"/><path d="M560.6,229.212V239.8l17.711,10.226V239.438Z" transform="translate(-535.602 -214.853)" fill="#bc7b00"/><path d="M578.757,250.05V229.276c-.046,3.677-2.471,7.344-7.284,10.122v20.981C576.377,257.549,578.8,253.8,578.757,250.05Z" transform="translate(-528.763 -214.813)" fill="#d89200"/></g></g><g transform="translate(234.33)"><path d="M541.177,240.348l-41.229-23.8c-4.871-2.813-4.26-7.725,1.365-10.974h0c5.625-3.248,14.136-3.6,19.008-.788l41.227,23.8c4.871,2.813,4.26,7.727-1.365,10.975h0C554.558,242.808,546.048,243.161,541.177,240.348Z" transform="translate(-496.659 -202.885)" fill="#fff"/><g transform="translate(0.007 9.104)"><path d="M560.181,236.045c-5.625,3.247-14.136,3.6-19.008.787l-41.227-23.8c-2.119-1.223-3.2-2.846-3.281-4.557h0v12.153c0,.034,0,.07,0,.106.041,1.748,1.118,3.411,3.281,4.661l41.227,23.8c4.873,2.813,13.383,2.46,19.008-.789,3.177-1.833,4.752-4.2,4.646-6.417V229.733C564.879,231.921,563.307,234.239,560.181,236.045Z" transform="translate(-496.664 -208.473)" fill="url(#q)"/></g><g transform="translate(11.622 4.742)"><path d="M513.033,211.13a8.462,8.462,0,0,1-7.655,0c-2.113-1.22-2.113-3.2,0-4.42a8.462,8.462,0,0,1,7.655,0C515.146,207.931,515.146,209.91,513.033,211.13Z" transform="translate(-503.793 -205.795)" fill="#bdcefa"/><path d="M520.365,215.364a8.459,8.459,0,0,1-7.653,0c-2.113-1.22-2.113-3.2,0-4.42a8.458,8.458,0,0,1,7.653,0C522.48,212.166,522.48,214.144,520.365,215.364Z" transform="translate(-499.179 -203.132)" fill="#bdcefa"/><path d="M527.7,219.6a8.458,8.458,0,0,1-7.653,0c-2.115-1.22-2.115-3.2,0-4.42a8.458,8.458,0,0,1,7.653,0C529.813,216.4,529.813,218.378,527.7,219.6Z" transform="translate(-494.566 -200.468)" fill="#bdcefa"/><path d="M535.034,223.832a8.462,8.462,0,0,1-7.655,0c-2.113-1.22-2.113-3.2,0-4.418a8.452,8.452,0,0,1,7.655,0C537.147,220.634,537.147,222.612,535.034,223.832Z" transform="translate(-489.953 -197.804)" fill="#bdcefa"/></g></g></g><g transform="translate(613.965 243.799)"><g transform="translate(0 19.544)"><path d="M514.223,220.418h0a2.65,2.65,0,0,0,3.066-2.136l2.6-14.734a2.65,2.65,0,0,0-2.136-3.066h0a2.648,2.648,0,0,0-3.064,2.136l-2.6,14.734A2.65,2.65,0,0,0,514.223,220.418Z" transform="translate(-502.286 -200.442)" fill="#f9bb83"/><path d="M506.176,215.68h0a2.651,2.651,0,0,0,3.314,1.727l9.116-2.659a2.648,2.648,0,0,0,2.466-2.805h0a2.649,2.649,0,0,0-2.805-2.466l-10.363,2.89A2.652,2.652,0,0,0,506.176,215.68Z" transform="translate(-506.055 -194.762)" fill="#f9bb83"/></g><g transform="translate(15.796 56.191)"><g transform="translate(0 23.107)"><path d="M527.492,241.964c.036.352-.246.655-.714.951-.134.085.018-1.9-.443-1.566-.133.1-6.5,5.052-10.051,4.136a.754.754,0,0,1-.531-.764v-.8c-.049-.9,1.292-2.276,3.328-4.262,2.243-2.185,3.674-3.55,7.026-1.614.96.554,1.344.968,1.349,1.321Z" transform="translate(-515.751 -237.121)" fill="#010400"/><path d="M519.081,239.662c-2.711,2.642-4.19,4.2-2.8,5.006s4.174-.407,7.026-2.563c2.5-1.89,6.151-2.121,2.8-4.058S521.324,237.478,519.081,239.662Z" transform="translate(-515.751 -237.121)" fill="#484968"/></g><path d="M519.467,247.326l.2-24.389,8.062,2.615-1.383,3.973a29.349,29.349,0,0,1-1.018,10.688s-1.15,2.346-.922,7.811C524.4,248.025,521.443,249.708,519.467,247.326Z" transform="translate(-513.413 -222.937)" fill="#f1bb85"/></g><g transform="translate(8.015 49.798)"><g transform="translate(0 23.107)"><path d="M522.716,238.04c.036.35-.246.655-.714.951-.134.085.018-1.9-.443-1.566-.134.094-6.5,5.052-10.051,4.136a.754.754,0,0,1-.531-.764V240c-.049-.9,1.292-2.276,3.328-4.26,2.243-2.186,3.674-3.55,7.028-1.614.958.554,1.342.968,1.347,1.321Z" transform="translate(-510.975 -233.197)" fill="#010400"/><path d="M514.3,235.739c-2.711,2.641-4.19,4.2-2.8,5.006s4.174-.407,7.028-2.563c2.5-1.89,6.15-2.123,2.8-4.058S516.548,233.552,514.3,235.739Z" transform="translate(-510.975 -233.197)" fill="#484968"/></g><path d="M514.692,243.4l.2-24.388,8.062,2.613L521.57,225.6a29.37,29.37,0,0,1-1.02,10.688s-1.15,2.346-.922,7.81C519.628,244.1,516.668,245.784,514.692,243.4Z" transform="translate(-508.636 -219.013)" fill="#e29d66"/></g><path d="M534.192,222.809v9.006s-10.553,3.563-20.473-9.006v-8.716Z" transform="translate(-501.233 -172.31)" fill="#9ce1f0"/><path d="M529.268,235.84a.741.741,0,0,1-.339.112c-1.769.137-8.128-1.248-14.489-8.418a3.339,3.339,0,0,1-.862-2.062V205.129a3.341,3.341,0,0,1,1.429-3.105l4.783-2.791a3.345,3.345,0,0,1,3.41.311l6.523,3.766a10.626,10.626,0,0,1,4.79,8.3v20.465a1.04,1.04,0,0,1-.461.979Z" transform="translate(-501.322 -181.87)" fill="#54a3f8"/><path d="M524.675,204.854a1.659,1.659,0,0,1-.986,1.4,5.27,5.27,0,0,1-4.77,0,1.656,1.656,0,0,1-.986-1.4v-4.433a1.656,1.656,0,0,1,.986-1.4,5.27,5.27,0,0,1,4.77,0,1.659,1.659,0,0,1,.986,1.4Z" transform="translate(-498.582 -182.15)" fill="#dda26f"/><path d="M521.907,199.776c0,1.108.779,1.556,1.738,1a3.843,3.843,0,0,0,1.737-3.007c0-1.108-.779-1.557-1.737-1A3.841,3.841,0,0,0,521.907,199.776Z" transform="translate(-496.082 -183.358)" fill="#f9bb83"/><path d="M518.389,214.618s-8.981-8.165-3.5-22.692L519.094,207Z" transform="translate(-501.614 -186.255)" fill="#525252"/><circle cx="9.287" cy="9.287" r="9.287" transform="translate(13.482 1.846)" fill="#f1bb85"/><path d="M521.01,216.807s6.909-7.613,2.115-21.711l-8.6,2.962s-2.962-7.331,6.767-9.445c0,0,6.484-1.411,8.74,3.947,0,0,5.216.422,3.242,11.137C533.275,203.7,532.993,213.847,521.01,216.807Z" transform="translate(-500.993 -188.445)" fill="#797979"/><g transform="translate(11.235 25.055)"><path d="M522.833,224.238h0a2.65,2.65,0,0,0,3.253-1.836l4.089-15.227a2.65,2.65,0,0,0-1.836-3.253h0a2.65,2.65,0,0,0-3.253,1.836L521,220.984A2.65,2.65,0,0,0,522.833,224.238Z" transform="translate(-507.95 -203.825)" fill="#f9bb83"/><path d="M513.009,218.9h0a2.649,2.649,0,0,0,3.134,2.033l12.3-2.5a2.65,2.65,0,0,0,2.721-2.561h0a2.65,2.65,0,0,0-2.561-2.721l-13.562,2.61A2.649,2.649,0,0,0,513.009,218.9Z" transform="translate(-512.951 -197.955)" fill="#f9bb83"/></g></g><g transform="translate(454.172 188.785)"><path d="M410.529,316.961V225.8a6.469,6.469,0,0,1,3.234-5.6l109.579-63.266a6.471,6.471,0,0,1,9.706,5.6V253.7a6.467,6.467,0,0,1-3.235,5.6L420.234,322.565A6.469,6.469,0,0,1,410.529,316.961Z" transform="translate(-406.357 -153.809)" fill="#fff"/><path d="M416.172,320.434a4.319,4.319,0,0,1-4.311-4.311V224.961a4.31,4.31,0,0,1,2.149-3.722l109.581-63.266a4.226,4.226,0,0,1,2.139-.586,4.319,4.319,0,0,1,4.311,4.309v91.162a4.311,4.311,0,0,1-2.15,3.724L418.311,319.847A4.226,4.226,0,0,1,416.172,320.434Z" transform="translate(-405.519 -152.971)" fill="#2eb49a"/><path d="M412.14,317.828V226.666a6.469,6.469,0,0,1,3.234-5.6L524.953,157.8a6.377,6.377,0,0,1,5.532-.437l0,0-2.593-1.38a6.431,6.431,0,0,0-7.113-.425L411.2,218.817a6.47,6.47,0,0,0-3.235,5.6v91.162a6.389,6.389,0,0,0,2.665,5.226v.007l.065.036a6.531,6.531,0,0,0,1.388.751l2.895,1.569A6.385,6.385,0,0,1,412.14,317.828Z" transform="translate(-407.968 -154.676)" fill="url(#r)"/><path d="M413.013,258.506l.024.013,0,0Z" transform="translate(-404.794 -89.357)" fill="url(#s)"/><g transform="translate(10.641 104.624)"><path d="M417.735,294.238l78.949,45.58a6.467,6.467,0,0,0,6.471,0l109.579-63.266a6.47,6.47,0,0,0,0-11.207l-78.949-45.582a6.475,6.475,0,0,0-6.471,0L417.735,283.03A6.471,6.471,0,0,0,417.735,294.238Z" transform="translate(-414.5 -218.898)" fill="#fff"/><path d="M612.734,256.568,503.155,319.833a6.467,6.467,0,0,1-6.471,0l-78.949-45.58a6.413,6.413,0,0,1-3.235-5.6v5.919a6.409,6.409,0,0,0,3.235,5.6l78.949,45.582a6.475,6.475,0,0,0,6.471,0l109.579-63.266a6.393,6.393,0,0,0,3.217-5.314l0,0v-.06c0-.152,0-.3,0-.456v-5.464A6.39,6.39,0,0,1,612.734,256.568Zm3.217-5.9,0,.07v-.07Z" transform="translate(-414.5 -198.913)" fill="url(#t)"/><path d="M565.266,253.6,471.172,307.93c-3.67,2.119-10.082,1.854-14.321-.595l-28.325-16.353c-4.239-2.449-4.7-6.15-1.03-8.269l94.095-54.325c3.672-2.119,10.084-1.854,14.323.593l28.325,16.354C568.477,247.782,568.938,251.485,565.266,253.6Z" transform="translate(-407.883 -213.829)" fill="#b8cff6"/><path d="M427.492,284.015l94.095-54.325c3.672-2.119,10.084-1.852,14.323.595l28.325,16.353c2.018,1.166,3.17,2.616,3.436,4.045.376-1.812-.8-3.823-3.436-5.347L535.91,228.981c-4.239-2.447-10.651-2.712-14.323-.593l-94.095,54.325c-1.922,1.109-2.7,2.654-2.408,4.224A4.579,4.579,0,0,1,427.492,284.015Z" transform="translate(-407.879 -213.829)" fill="#99b5e0"/><path d="M497.413,249.416l-4.99-2.88-4.99,2.88,4.99,2.882Zm-9.809,5.664-4.99-2.882-4.99,2.882,4.99,2.88Zm19.618-11.327-4.99-2.88-4.99,2.88,4.99,2.88Zm28.5,3.015,10.39-6-4.99-2.88-10.39,6Zm1.961-10.866-4.99-2.882L527.7,235.9l4.99,2.88Zm-20.649,2.188-4.99-2.882-4.99,2.882,4.99,2.88ZM477.8,260.743l-4.99-2.882-4.99,2.882,4.99,2.88Zm51.225-15.871-85.992,49.648,4.99,2.88,85.992-49.647Zm-61.034,21.533-4.99-2.88-4.99,2.88,4.99,2.882Zm57.1-28.995L434.6,289.653l4.99,2.882,90.486-52.243Zm24.461,5.343-98.089,56.632,4.99,2.882,98.089-56.632Zm-101.18,34.978-4.99-2.882-4.99,2.882,4.99,2.88Zm9.81-5.664-4.99-2.88-4.992,2.88,4.992,2.882Z" transform="translate(-401.855 -210.014)" fill="#99b5e0"/><path d="M497.413,248.883l-4.99-2.88-4.99,2.88,4.99,2.882Zm-9.809,5.664-4.99-2.882-4.99,2.882,4.99,2.88Zm19.618-11.327-4.99-2.88-4.99,2.88,4.99,2.882Zm28.5,3.015,10.39-6-4.99-2.88-10.39,6Zm1.961-10.866-4.99-2.88-4.99,2.88,4.99,2.88Zm-20.649,2.188-4.99-2.882-4.99,2.882,4.99,2.88ZM477.8,260.21l-4.99-2.882-4.99,2.882,4.99,2.88Zm51.225-15.871-85.992,49.648,4.99,2.88,85.992-49.647Zm-61.034,21.533-4.99-2.88-4.99,2.88,4.99,2.882Zm57.1-28.995L434.6,289.12,439.59,292l90.486-52.243Zm24.461,5.343-98.089,56.632,4.99,2.882L554.537,245.1ZM448.367,277.2l-4.99-2.882-4.99,2.882,4.99,2.88Zm9.81-5.664-4.99-2.88-4.992,2.88,4.992,2.882Z" transform="translate(-401.855 -210.348)" fill="#e4f2ff"/><path d="M502.232,240.773l4.614,2.664.376-.217-4.99-2.88-4.99,2.88.376.217Zm9.809-5.663,4.614,2.664.376-.217-4.99-2.882-4.99,2.882.376.217Zm-19.617,11.325,4.614,2.664.376-.217-4.99-2.88-4.99,2.88.376.217Zm38.68-2.864,10.016-5.783,4.614,2.665.376-.218-4.99-2.88-10.39,6ZM482.614,252.1l4.614,2.665.376-.217-4.99-2.882-4.99,2.882.376.217Zm50.075-19.176,4.614,2.664.376-.217-4.99-2.88-4.99,2.88.375.217Zm16.858,9.3-98.089,56.632.376.217,97.713-56.414,4.615,2.664.375-.217ZM529.7,239.976l.376-.218-4.99-2.88L434.6,289.12l.375.218,90.112-52.027Zm-86.322,34.776,4.615,2.664.375-.217-4.99-2.882-4.99,2.882.376.217Zm90.258-27.315.375-.217-4.99-2.882-85.992,49.648.376.217,85.615-49.43ZM453.188,269.09l4.614,2.664.376-.218-4.99-2.88-4.992,2.88.376.218Zm19.618-11.327,4.614,2.664.376-.217-4.99-2.882-4.99,2.882.376.217ZM463,263.425l4.614,2.664.376-.217-4.99-2.88-4.99,2.88.375.217Z" transform="translate(-401.855 -210.348)" fill="#fff"/><path d="M523.618,266.31,494.3,283.238a7.951,7.951,0,0,1-7.129-.295l-6.441-3.719c-2.1-1.214-2.331-3.066-.512-4.117l29.322-16.928a7.955,7.955,0,0,1,7.129.295l6.441,3.719C525.208,263.407,525.438,265.26,523.618,266.31Z" transform="translate(-373.932 -194.632)" fill="#b8cff6"/><path d="M480.207,275.976l29.322-16.928a7.956,7.956,0,0,1,7.129.295l6.441,3.719a3.243,3.243,0,0,1,1.663,1.9c.261-.93-.3-1.984-1.663-2.771l-6.441-3.719a7.956,7.956,0,0,0-7.129-.295l-29.322,16.928a1.971,1.971,0,0,0-1.153,2.214A2.314,2.314,0,0,1,480.207,275.976Z" transform="translate(-373.925 -194.632)" fill="#99b5e0"/></g><g transform="translate(21.864 29.699)"><path d="M508.523,179.52v-3.369c0-2.9-2.035-4.074-4.545-2.624l-78.042,45.057a10.051,10.051,0,0,0-4.547,7.875v3.367Z" transform="translate(-421.389 -172.906)" fill="#fff"/><g transform="translate(4.374 39.24)"><path d="M427.735,202.859a4.05,4.05,0,0,1-1.83,3.17c-1.012.583-1.831.111-1.831-1.057a4.047,4.047,0,0,1,1.831-3.17C426.915,201.218,427.735,201.692,427.735,202.859Z" transform="translate(-424.074 -194.124)" fill="#fff"/><path d="M431.682,200.578a4.045,4.045,0,0,1-1.83,3.17c-1.01.583-1.829.111-1.829-1.056a4.045,4.045,0,0,1,1.829-3.17C430.863,198.939,431.682,199.412,431.682,200.578Z" transform="translate(-421.59 -195.558)" fill="#fff"/><path d="M435.632,198.3a4.042,4.042,0,0,1-1.831,3.169c-1.01.585-1.829.111-1.829-1.056a4.047,4.047,0,0,1,1.829-3.17C434.812,196.659,435.632,197.132,435.632,198.3Z" transform="translate(-419.106 -196.993)" fill="#fff"/></g><path d="M435.189,217.8l-13.8,7.967V213.223l13.8-7.967Z" transform="translate(-421.389 -152.555)" fill="#f4ff00"/><path d="M445.771,211.7l-13.8,7.967V207.113l13.8-7.967Z" transform="translate(-414.732 -156.398)" fill="#ffb200"/><path d="M456.352,205.586l-13.8,7.967V201l13.8-7.967Z" transform="translate(-408.075 -160.242)" fill="#9ce1f0"/><path d="M453.937,207.682l34.111-19.694v-2.639l-34.111,19.694Z" transform="translate(-400.914 -165.078)" fill="url(#u)"/><path d="M453.937,204.64l34.111-19.694v-2.639L453.937,202Z" transform="translate(-400.914 -166.991)" fill="url(#u)"/><path d="M453.937,201.6,488.048,181.9v-2.638L453.937,198.96Z" transform="translate(-400.914 -168.905)" fill="url(#u)"/><path d="M505.53,213.615l-81.147,46.849c-1.645.951-2.994-.068-2.994-2.264V243.133a7.2,7.2,0,0,1,2.994-5.721l81.147-46.848c1.645-.951,2.993.067,2.993,2.263v15.067A7.2,7.2,0,0,1,505.53,213.615Z" transform="translate(-421.389 -162.022)" fill="#fff"/><g transform="translate(25.016 44.848)"><path d="M447.351,224.751l-10.606,6.123V217.786l10.606-6.123Z" transform="translate(-436.745 -193.373)" fill="#f4ff00"/><path d="M455.483,219.259l-10.606,6.123V214.357l10.606-6.123Z" transform="translate(-431.628 -195.53)" fill="#9ce1f0"/><path d="M463.616,216.515l-10.606,6.123v-16.08l10.606-6.123Z" transform="translate(-426.512 -200.435)" fill="#ffb200"/></g><path d="M471.25,204.239l2.849-1.645v-2.639L471.25,201.6Z" transform="translate(-390.022 -155.889)" fill="url(#x)"/><path d="M471.25,201.2l2.849-1.645v-2.639l-2.849,1.645Z" transform="translate(-390.022 -157.803)" fill="url(#y)"/><path d="M471.25,198.155l2.849-1.645v-2.639l-2.849,1.645Z" transform="translate(-390.022 -159.716)" fill="url(#z)"/><path d="M461.358,212.6l14.74-8.51v-2.638l-14.74,8.51Z" transform="translate(-396.245 -154.948)" fill="url(#aa)"/><path d="M461.358,209.559l14.74-8.51v-2.638l-14.74,8.51Z" transform="translate(-396.245 -156.861)" fill="url(#ab)"/><path d="M461.358,206.517l14.74-8.51v-2.638l-14.74,8.51Z" transform="translate(-396.245 -158.775)" fill="url(#ac)"/><path d="M426.174,221.541l-2.849,1.645v2.639l2.849-1.645Z" transform="translate(-420.171 -142.31)" fill="url(#ad)"/><path d="M426.174,224.583l-2.849,1.645v2.638l2.849-1.645Z" transform="translate(-420.171 -140.397)" fill="url(#ae)"/><path d="M426.174,227.624l-2.849,1.645v2.638l2.849-1.645Z" transform="translate(-420.171 -138.483)" fill="url(#af)"/><path d="M440.658,215.829l-14.74,8.51v2.638l14.74-8.51Z" transform="translate(-418.54 -145.903)" fill="url(#ag)"/><path d="M440.658,218.871l-14.74,8.51v2.638l14.74-8.51Z" transform="translate(-418.54 -143.989)" fill="url(#ah)"/><path d="M440.658,221.913l-14.74,8.51v2.638l14.74-8.51Z" transform="translate(-418.54 -142.076)" fill="url(#ai)"/><path d="M501.05,216.445l-74.212,42.847c-1.539.888-2.8-.064-2.8-2.116h0a6.729,6.729,0,0,1,2.8-5.348l74.212-42.845c1.539-.889,2.8.062,2.8,2.115h0A6.727,6.727,0,0,1,501.05,216.445Z" transform="translate(-419.721 -150.421)" fill="#fff"/></g></g><g transform="translate(405.666 174.722)"><g transform="translate(0 87.406)"><path d="M452.563,277.293l-70.408,40.649c-2.18,1.258-3.962-.09-3.962-2.994v-66.56c0-2.906,1.782-6.313,3.962-7.57l70.408-40.651c2.178-1.258,3.962.09,3.962,3v66.56C456.525,272.627,454.741,276.035,452.563,277.293Z" transform="translate(-378.193 -199.696)" fill="url(#aj)"/><g transform="translate(6.129 19.104)"><path d="M448.028,245.05,381.956,283.2v-4.955l66.072-38.147Z" transform="translate(-381.956 -193.385)" fill="url(#ak)"/><ellipse cx="28.893" cy="16.681" rx="28.893" ry="16.681" transform="matrix(0.5, -0.866, 0.866, 0.5, 4.143, 50.043)" fill="url(#al)"/></g></g><g transform="translate(144.567)"><path d="M541.3,209,470.9,249.652c-2.178,1.259-3.962-.09-3.962-2.994V194.735c0-2.906,1.784-6.313,3.962-7.57L541.3,146.514c2.18-1.258,3.962.09,3.962,3v51.922C545.266,204.339,543.483,207.745,541.3,209Z" transform="translate(-466.934 -146.043)" fill="url(#am)"/><g transform="translate(6.13 12.475)"><path d="M536.769,181.223,470.7,219.37v-4.955l66.072-38.147Z" transform="translate(-470.697 -139.503)" fill="url(#an)"/><path d="M536.769,174.992,470.7,213.139v-4.955l66.072-38.147Z" transform="translate(-470.697 -143.423)" fill="url(#ao)"/><g transform="translate(1.338)"><path d="M489.263,190.37l-17.745,10.245v-20.49l17.745-10.245Z" transform="translate(-471.518 -143.522)" fill="url(#ap)"/><path d="M503.275,182.28l-17.745,10.245v-20.49l17.745-10.245Z" transform="translate(-462.703 -148.611)" fill="url(#aq)"/><path d="M517.286,174.19l-17.745,10.245v-20.49L517.286,153.7Z" transform="translate(-453.889 -153.7)" fill="url(#ar)"/></g></g></g></g><g transform="translate(337.748 399.966)"><g transform="translate(1.364 36.222)"><path d="M424.79,335.215,387,357.031c-2.755,1.59-7.613,1.388-10.793-.448l-36.238-20.922c-3.182-1.836-3.53-4.64-.775-6.231l37.787-21.815c2.756-1.592,7.613-1.39,10.794.446l36.238,20.922C427.2,330.819,427.545,333.623,424.79,335.215Z" transform="translate(-337.339 -306.541)" fill="#e8f2fe"/><g transform="translate(0.001 26.069)"><path d="M409.354,391.562V322.788h0a3.43,3.43,0,0,1-1.807,2.206l-37.787,21.817a9.8,9.8,0,0,1-5.013,1.057v69.748a9.78,9.78,0,0,0,5.013-1.057l37.787-21.817A3.036,3.036,0,0,0,409.354,391.562Z" transform="translate(-320.098 -322.389)" fill="url(#as)"/><path d="M376.21,346.517l-36.238-20.922a4.813,4.813,0,0,1-2.582-3.051v68.772c-.28,1.367.6,2.885,2.582,4.029l36.238,20.921a12.426,12.426,0,0,0,5.78,1.505V348.022A12.446,12.446,0,0,1,376.21,346.517Z" transform="translate(-337.34 -322.543)" fill="url(#at)"/></g></g><ellipse cx="20.712" cy="35.874" rx="20.712" ry="35.874" transform="translate(0 20.712) rotate(-30)" fill="#0079c9"/><ellipse cx="18.647" cy="32.297" rx="18.647" ry="32.297" transform="matrix(0.866, -0.5, 0.5, 0.866, 3.577, 22.777)" fill="#0080e9"/><g transform="translate(18.003 1.056)"><path d="M378.612,288.419c-7.038-4.065-13.406-4.429-18-1.737l-13.057,7.538h0c4.586-2.61,10.9-2.214,17.871,1.812,14.009,8.088,25.367,27.76,25.367,43.937,0,8.049-2.813,13.715-7.367,16.382h0l13.057-7.539c4.63-2.634,7.5-8.33,7.5-16.457C403.978,316.177,392.62,296.507,378.612,288.419Z" transform="translate(-347.553 -284.955)" fill="#52a1f6"/></g><g transform="translate(21.221 22.487)"><path d="M354.972,316.1a12.484,12.484,0,0,1,3.375.676c.122.041.233.08.334.116a16.232,16.232,0,0,1,2.129.93v-6.379l-6.841-3.951A43.841,43.841,0,0,0,354.972,316.1Z" transform="translate(-346.734 -292.206)" fill="#fff"/><path d="M363.987,309.147c.138,0,.275,0,.412-.008.09,0,.182-.01.285-.018a7.777,7.777,0,0,0,2.323-.536,32.783,32.783,0,0,0-6.024-7.434,28.478,28.478,0,0,1,1.942,4.408C363.327,306.709,363.682,307.912,363.987,309.147Z" transform="translate(-342.322 -296.197)" fill="#fff"/><path d="M359.055,298.772c-1.261.02-2.424.873-3.38,2.517a12.167,12.167,0,0,0-.889,1.939,29.4,29.4,0,0,0,3.235,3.141c.1.085.205.169.318.259a22.574,22.574,0,0,0,1.96,1.417v-8.672c-.1-.055-.075-.041-.111-.06C359.809,299.116,359.43,298.935,359.055,298.772Z" transform="translate(-346.221 -297.693)" fill="#fff"/><path d="M358.02,314.23a11.511,11.511,0,0,0-3.235-.593c.261,1.018.557,2.01.888,2.965a20.33,20.33,0,0,0,3.384,6.422c.373.271.751.526,1.127.764.037.023.015.011.114.07v-8.672a15.406,15.406,0,0,0-1.961-.847C358.227,314.3,358.121,314.264,358.02,314.23Z" transform="translate(-346.221 -288.342)" fill="#fff"/><path d="M358.346,305.365a31.32,31.32,0,0,1-3.374-3.245,28.641,28.641,0,0,0-1,7.494l6.842,3.951v-6.4a23.245,23.245,0,0,1-2.131-1.531C358.579,305.556,358.469,305.466,358.346,305.365Z" transform="translate(-346.734 -295.587)" fill="#fff"/><path d="M356.937,303.282c-.182-.22-.365-.443-.544-.668-.094-.119-.192-.241-.295-.375a38.958,38.958,0,0,1-2.4-3.483c-2.567,1.549-4.037,4.63-4.167,8.8l6.339,3.659A29.537,29.537,0,0,1,356.937,303.282Z" transform="translate(-349.528 -297.703)" fill="#fff"/><path d="M355.366,313.645c-.125.008-.251.018-.375.031-.094.01-.187.021-.28.034a7.57,7.57,0,0,0-2.159.634,32.694,32.694,0,0,0,5.718,6.9,28.433,28.433,0,0,1-1.943-4.41C355.969,315.808,355.648,314.741,355.366,313.645Z" transform="translate(-347.625 -288.337)" fill="#fff"/><path d="M356.394,317.763c.179-.018.36-.042.542-.05a45.507,45.507,0,0,1-1.069-9.123l-6.339-3.659A30.308,30.308,0,0,0,353.68,318.5a8.035,8.035,0,0,1,2.418-.7C356.2,317.791,356.3,317.773,356.394,317.763Z" transform="translate(-349.527 -293.819)" fill="#fff"/><path d="M354.986,302.217c.124.156.249.311.375.464a12.819,12.819,0,0,1,.961-2.079,6.356,6.356,0,0,1,1.94-2.167,8.672,8.672,0,0,0-5.7.323,36.336,36.336,0,0,0,2.144,3.1C354.8,301.979,354.892,302.1,354.986,302.217Z" transform="translate(-347.619 -298.11)" fill="#fff"/><path d="M363.021,320.667c.191.217.38.461.567.686.107.129.207.249.3.365a37.955,37.955,0,0,1,2.6,3.6c2.287-1.551,3.706-4.425,3.849-8.584l-6.337-3.661A29.928,29.928,0,0,1,363.021,320.667Z" transform="translate(-341.04 -288.699)" fill="#fff"/><path d="M361.2,309.347a12.347,12.347,0,0,0,3.3.784c-.282-1.14-.608-2.25-.977-3.31a20.351,20.351,0,0,0-3.392-6.428c-.375-.27-.762-.533-1.139-.769-.044-.029-.153-.093-.153-.094v8.7a17.671,17.671,0,0,0,2.027.984C360.981,309.257,361.1,309.309,361.2,309.347Z" transform="translate(-343.67 -297.218)" fill="#fff"/><path d="M364.4,318.857c-.137-.165-.275-.326-.414-.486a13.09,13.09,0,0,1-1.062,2.361,6.319,6.319,0,0,1-1.942,2.168,8.536,8.536,0,0,0,6.041-.453,36.128,36.128,0,0,0-2.338-3.244C364.582,319.076,364.489,318.962,364.4,318.857Z" transform="translate(-342.322 -285.364)" fill="#fff"/><path d="M363.888,307.126c-.094.007-.192.013-.3.016-.187.008-.376.01-.567.007a46.458,46.458,0,0,1,.987,8.781l6.339,3.659a30.05,30.05,0,0,0-3.867-13.069A8.306,8.306,0,0,1,363.888,307.126Z" transform="translate(-341.04 -292.819)" fill="#fff"/><path d="M364.807,307.664a13.43,13.43,0,0,1-3.457-.85c-.1-.037-.213-.085-.344-.138a19.616,19.616,0,0,1-2.167-1.056v6.375l6.9,3.985A43.946,43.946,0,0,0,364.807,307.664Z" transform="translate(-343.67 -293.386)" fill="#fff"/><path d="M361.363,318.362a30.033,30.033,0,0,1,3.449,3.125,29.126,29.126,0,0,0,.929-7.2l-6.9-3.985v6.355a25.082,25.082,0,0,1,2.167,1.44C361.137,318.2,361.264,318.285,361.363,318.362Z" transform="translate(-343.67 -290.437)" fill="#fff"/><path d="M364.495,319.588a28.411,28.411,0,0,0-3.3-3.024c-.1-.08-.215-.165-.328-.248a22.936,22.936,0,0,0-2.028-1.359v8.7s.109.059.152.081c.378.2.764.383,1.139.546,1.261-.02,2.434-.867,3.392-2.512A12.412,12.412,0,0,0,364.495,319.588Z" transform="translate(-343.67 -287.511)" fill="#fff"/></g></g><g transform="translate(654.725 358.19)"><g transform="translate(4.499 49.824)"><g transform="translate(0 15.838)"><path d="M534.313,300.278c-.323.142-.446.534-.476,1.085-.008.158,1.637-.943,1.577-.381-.018.163-1.2,8.113,1.336,10.749a.754.754,0,0,0,.924.086l.694-.393c.806-.4,1.341-2.237,2.064-4.975.8-3.019,1.28-4.928-2.043-6.889-.95-.56-1.5-.691-1.8-.521Z" transform="translate(-533.837 -298.968)" fill="#010400"/><path d="M539.583,306.45c-.963,3.646-1.592,5.694-2.972,4.881s-1.693-3.822-1.22-7.354c.414-3.1-1.175-6.376,2.149-4.416S540.381,303.431,539.583,306.45Z" transform="translate(-532.989 -298.969)" fill="#484968"/></g><path d="M560.575,289.247l-6.824,2.5-2.771,3.146a29.269,29.269,0,0,0-8.774,6.124s-1.473,2.147-6.326,4.628c0,0-.01,3.395,3.025,3.941l19.448-11.193a4.911,4.911,0,0,0,2.431-3.729A21.933,21.933,0,0,0,560.575,289.247Z" transform="translate(-532.552 -289.247)" fill="#e29d66"/></g><g transform="translate(16.87 56.34)"><g transform="translate(1.301 23.027)"><path d="M542.232,312.209c-.036.35.246.652.71.948.134.085-.016-1.89.443-1.561.132.1,6.476,5.034,10.016,4.123a.752.752,0,0,0,.529-.762v-.8c.049-.9-1.287-2.268-3.317-4.245-2.235-2.178-3.661-3.538-7-1.608-.956.551-1.339.963-1.344,1.315Z" transform="translate(-542.229 -307.382)" fill="#2b0d60"/><path d="M550.6,309.915c2.7,2.633,4.175,4.188,2.787,4.988s-4.159-.4-7-2.554c-2.491-1.882-6.13-2.113-2.787-4.042S548.364,307.737,550.6,309.915Z" transform="translate(-542.215 -307.382)" fill="#484968"/></g><path d="M548.4,317.551l-.2-24.3-6.591,2.137-.065,4.428a29.267,29.267,0,0,0,1.015,10.651s1.147,2.339.919,7.785C543.481,318.249,546.432,319.925,548.4,317.551Z" transform="translate(-541.431 -293.247)" fill="#f1bb85"/></g><g transform="translate(27.666 18.519)"><path d="M562.207,298.107h0a2.639,2.639,0,0,1-3.485-1.31L548.291,273.75a2.641,2.641,0,0,1,1.31-3.486h0a2.641,2.641,0,0,1,3.485,1.31l10.431,23.048A2.64,2.64,0,0,1,562.207,298.107Z" transform="translate(-548.057 -270.031)" fill="#e29d66"/></g><g transform="translate(26.497 21.372)"><path d="M563.674,294.385l-16.334-9.431V271.782l16.334,9.431Z" transform="translate(-547.34 -271.782)" fill="url(#au)"/><g transform="translate(9.153 7.228)"><path d="M554.9,287.332v-9.993l.35.2v9.993Z" transform="translate(-551.739 -275.515)" fill="#a19afb"/><path d="M554.413,284.092v-7.033l.35.2v7.033Z" transform="translate(-552.044 -275.691)" fill="#a19afb"/><path d="M553.928,286v-9.222l.35.2V286.2Z" transform="translate(-552.349 -275.867)" fill="#a19afb"/><path d="M553.444,286.492V276.5l.35.2v9.993Z" transform="translate(-552.654 -276.043)" fill="#a19afb"/><path d="M552.959,279.881v-3.661l.35.2v3.661Z" transform="translate(-552.959 -276.219)" fill="#a19afb"/></g></g><path d="M538.914,293.119v8.975s10.517,3.551,20.4-8.975v-8.686Z" transform="translate(-526.144 -242.451)" fill="#ffb200"/><path d="M543.858,305.689a.727.727,0,0,0,.337.112c1.763.135,8.1-1.245,14.439-8.388a3.319,3.319,0,0,0,.86-2.056V275.083a3.338,3.338,0,0,0-1.424-3.1l-4.768-2.781a3.333,3.333,0,0,0-3.4.311l-6.5,3.753a10.591,10.591,0,0,0-4.772,8.268v20.393a1.032,1.032,0,0,0,.459.976Z" transform="translate(-526.321 -252.24)" fill="#fdffeb"/><path d="M542.972,274.81a1.658,1.658,0,0,0,.984,1.394,5.256,5.256,0,0,0,4.754,0,1.655,1.655,0,0,0,.982-1.394v-4.418A1.655,1.655,0,0,0,548.71,269a5.256,5.256,0,0,0-4.754,0,1.658,1.658,0,0,0-.984,1.394Z" transform="translate(-523.591 -252.519)" fill="#dda26f"/><g transform="translate(0 23.604)"><path d="M532.518,300.848h0a2.642,2.642,0,0,1-1.162-3.538L542.819,274.6a2.64,2.64,0,0,1,3.537-1.162h0a2.64,2.64,0,0,1,1.162,3.537l-11.461,22.716A2.643,2.643,0,0,1,532.518,300.848Z" transform="translate(-531.075 -273.152)" fill="#f9bb83"/></g><g transform="translate(10.725)"><path d="M553.1,265.346l3.323,12.9a1.5,1.5,0,0,1-2.035,1.766l-7.649-3.182a1.5,1.5,0,0,1-.9-1.681l2.505-12.686a1.5,1.5,0,0,1,2.76-.5l1.818,2.971A1.5,1.5,0,0,1,553.1,265.346Z" transform="translate(-532.53 -257.039)" fill="#903bbb"/><path d="M544.477,269.749c0,1.1-.775,1.551-1.73,1a3.827,3.827,0,0,1-1.732-3c0-1.1.775-1.552,1.732-1A3.83,3.83,0,0,1,544.477,269.749Z" transform="translate(-535.547 -253.724)" fill="#f9bb83"/><circle cx="9.255" cy="9.255" r="9.255" transform="translate(2.72 1.504)" fill="#f9bb83"/><path d="M539.58,270.658s7.821,4.289,11.633-6.868c0,0,2.038,4.713,7.126,3.672,0,0,0-7.337-7.572-8.761C550.767,258.7,537.38,257.365,539.58,270.658Z" transform="translate(-536.603 -258.663)" fill="#903bbb"/><path d="M544.945,267.835l3.323,12.9a1.5,1.5,0,0,1-2.035,1.764l-7.647-3.182a1.506,1.506,0,0,1-.9-1.681l2.505-12.686a1.5,1.5,0,0,1,2.76-.494l1.82,2.97A1.446,1.446,0,0,1,544.945,267.835Z" transform="translate(-537.659 -255.473)" fill="#903bbb"/></g></g><g transform="translate(593.389 327.698)"><g transform="translate(5.457 78.598)"><path d="M496.777,292.033c-.062,1.08,1.566,2.594,4.045,4.026,3.3,1.9,4.467,4.317,8.543,1.963,1.166-.674,1.655-1.21,1.683-1.676v-2.535c.116-1.179-2.712-1.913-5.083-3.281-3.3-1.9-6.85-2.941-8.543-1.963a1.112,1.112,0,0,0-.645.933Z" transform="translate(-496.774 -288.192)"/><path d="M500.822,293.5c-3.3-1.9-5.093-3.954-3.4-4.931s5.244.059,8.543,1.963,7.476,2.579,3.4,4.931S504.121,295.4,500.822,293.5Z" transform="translate(-496.774 -288.192)" fill="#2b0d60"/></g><g transform="translate(14.624 72.284)"><path d="M502.4,288.157c-.064,1.078,1.566,2.593,4.045,4.025,3.3,1.9,4.467,4.315,8.543,1.963,1.166-.674,1.655-1.21,1.683-1.676v-2.535c.114-1.18-2.712-1.913-5.083-3.281-3.3-1.9-6.85-2.941-8.543-1.963a1.109,1.109,0,0,0-.645.933Z" transform="translate(-502.401 -284.316)"/><path d="M506.449,289.622c-3.3-1.9-5.093-3.955-3.4-4.931s5.244.059,8.543,1.963,7.476,2.579,3.4,4.931S509.746,291.526,506.449,289.622Z" transform="translate(-502.401 -284.316)" fill="#2b0d60"/></g><g transform="translate(9.738)"><path d="M500.665,240.358h0a2.716,2.716,0,0,1,3.732.85l11.252,17.9a2.716,2.716,0,0,1-.85,3.732h0a2.716,2.716,0,0,1-3.732-.85l-11.252-17.9A2.716,2.716,0,0,1,500.665,240.358Z" transform="translate(-499.402 -239.946)" fill="#fcbdb7"/><path d="M504.7,254.032l3.63,5.775a4.2,4.2,0,0,0,5.772,1.315h0a4.2,4.2,0,0,0,1.316-5.772l-3.631-5.773S507.242,247.864,504.7,254.032Z" transform="translate(-496.066 -234.025)" fill="#293677"/></g><g transform="translate(11.608 50.707)"><path d="M508.557,303.426a1.767,1.767,0,0,0,.189-.821V274.324c0-1.789-1.844-3.252-4.1-3.252h0c-2.253,0-4.1,1.463-4.1,3.252v30.752a1.03,1.03,0,0,0,.728.989C502.85,306.541,506.578,307.22,508.557,303.426Z" transform="translate(-500.55 -271.072)" fill="#55cdff"/></g><g transform="translate(20.162 44.169)"><path d="M514.444,299.32a1.75,1.75,0,0,0,.171-.824L514,270.222c-.039-1.789-1.914-3.211-4.169-3.162h0c-2.253.051-4.065,1.554-4.026,3.341l.674,30.746a1.03,1.03,0,0,0,.749.973C508.807,302.559,512.549,303.159,514.444,299.32Z" transform="translate(-505.801 -267.058)" fill="#55cdff"/></g><path d="M503.454,290.8a.749.749,0,0,0,.347.114c1.812.14,8.326-1.279,14.843-8.623a3.4,3.4,0,0,0,.883-2.113V259.342a3.427,3.427,0,0,0-1.463-3.182l-4.9-2.859a3.427,3.427,0,0,0-3.493.319l-6.683,3.859a10.883,10.883,0,0,0-4.907,8.5v20.963a1.062,1.062,0,0,0,.472,1Z" transform="translate(-490.495 -231.761)" fill="#5258a6"/><path d="M502.543,259.059a1.7,1.7,0,0,0,1.01,1.434,5.4,5.4,0,0,0,4.887,0,1.7,1.7,0,0,0,1.01-1.434v-4.54a1.7,1.7,0,0,0-1.01-1.434,5.4,5.4,0,0,0-4.887,0,1.7,1.7,0,0,0-1.01,1.434Z" transform="translate(-487.688 -232.047)" fill="#f1bb85"/><path d="M517.851,252.967a9.514,9.514,0,1,1-9.514-9.514A9.513,9.513,0,0,1,517.851,252.967Z" transform="translate(-490.028 -237.739)" fill="#fcbdb7"/><g transform="translate(0 27.906)"><path d="M495.257,284.624h0a2.714,2.714,0,0,1-1.688-3.436l7.155-19.345a2.714,2.714,0,0,1,3.436-1.688h0a2.714,2.714,0,0,1,1.688,3.436l-7.157,19.345A2.713,2.713,0,0,1,495.257,284.624Z" transform="translate(-493.424 -255.23)" fill="#fcbdb7"/><path d="M504.308,269.068l2.2-6.456a4.2,4.2,0,0,0-2.61-5.312h0a4.2,4.2,0,0,0-5.314,2.61l-2.2,6.456S497.919,270.979,504.308,269.068Z" transform="translate(-491.561 -257.076)" fill="#293677"/></g><path d="M513.711,262.692c-3,1.748-5.295.42-6.109-.845-2.053-3.183-2.393-1.061-3.617-2.559-1.6-2.634-1.245-6.225-3.468-7.883-3.19-2.383-2.317-7.124,6.006-9.247,11.184-2.851,15.59,11.241,8.61,19.385A4.413,4.413,0,0,1,513.711,262.692Z" transform="translate(-490.039 -238.79)" fill="#e5a600" fill-rule="evenodd"/><path d="M503.426,254.487a1.084,1.084,0,0,1-1.984-.531,3.936,3.936,0,0,1,.92-3.437,1.084,1.084,0,0,1,1.984.531A3.926,3.926,0,0,1,503.426,254.487Z" transform="translate(-488.44 -233.594)" fill="#fcbdb7"/></g><g transform="translate(526.841 419.62)"><g transform="translate(15.372 17.724)"><path d="M478.5,329.269h0a2.406,2.406,0,0,1-3.343-.575l-10.811-15.309a2.407,2.407,0,0,1,.575-3.343h0a2.407,2.407,0,0,1,3.344.575l10.811,15.307A2.407,2.407,0,0,1,478.5,329.269Z" transform="translate(-460.816 -305.769)" fill="#fcbdb7"/><path d="M472.237,313.756l-3.488-4.939a3.722,3.722,0,0,0-5.171-.891h0a3.721,3.721,0,0,0-.891,5.172l3.488,4.938S470.285,319.336,472.237,313.756Z" transform="translate(-462.011 -307.251)" fill="#bdcefa"/></g><g transform="translate(12.574 36.832)"><path d="M461.14,325.987a1.585,1.585,0,0,0,.546.508l12.625,7.222c1.375.79,3.314.016,4.309-1.715h0c.994-1.733.683-3.8-.692-4.586L463.4,319.1a.912.912,0,0,0-1.082.124C461.262,320.225,459.1,322.791,461.14,325.987Z" transform="translate(-460.293 -318.98)" fill="#5258a6"/></g><g transform="translate(4.213 41.113)"><path d="M456.008,328.615a1.546,1.546,0,0,0,.547.508l12.624,7.223c1.375.789,3.314.016,4.309-1.717h0c.994-1.733.683-3.8-.692-4.586l-14.525-8.313a.915.915,0,0,0-1.082.124C456.13,322.853,453.963,325.42,456.008,328.615Z" transform="translate(-455.161 -321.608)" fill="#5258a6"/></g><g transform="translate(24.439 44.81)"><g transform="translate(0.365 19.823)"><path d="M467.8,341.264c-.1,1.047,2.4,1.7,4.506,2.911,2.924,1.689,6.073,2.607,7.574,1.742a.988.988,0,0,0,.572-.824v-1.717c.054-.971-1.391-2.452-3.586-4.591-2.418-2.356-3.96-3.827-7.574-1.74-1.033.6-1.447,1.043-1.452,1.424Z" transform="translate(-467.801 -336.045)" fill="#010400"/><path d="M476.854,338.785c2.921,2.846,4.514,4.529,3.014,5.394s-4.5-.438-7.574-2.761c-2.693-2.035-6.627-2.286-3.014-4.372S474.436,336.429,476.854,338.785Z" transform="translate(-467.785 -336.045)" fill="#1c1c38"/></g><path d="M474.675,344.376a1.578,1.578,0,0,0,.166-.727v-16.89c0-1.585-1.634-2.882-3.633-2.882h0c-2,0-3.631,1.3-3.631,2.882v19.08a.911.911,0,0,0,.645.876C469.615,347.137,472.92,347.74,474.675,344.376Z" transform="translate(-467.577 -323.877)" fill="#5258a6"/></g><path d="M458.291,339.771a.684.684,0,0,0,.306.1c1.606.124,7.381-1.134,13.158-7.644a3.025,3.025,0,0,0,.784-1.873V311.879a3.04,3.04,0,0,0-1.3-2.82l-4.343-2.533a3.03,3.03,0,0,0-3.1.284l-5.925,3.419a9.653,9.653,0,0,0-4.35,7.535v18.583a.942.942,0,0,0,.419.889Z" transform="translate(-451.976 -290.175)" fill="#fcfdff"/><g transform="translate(15.781 48.637)"><g transform="translate(0.367 19.824)"><path d="M462.49,343.615c-.1,1.046,2.4,1.7,4.506,2.911,2.924,1.688,6.073,2.607,7.574,1.74a.988.988,0,0,0,.572-.824v-1.715c.054-.973-1.391-2.453-3.586-4.592-2.418-2.356-3.96-3.825-7.574-1.74-1.033.6-1.447,1.043-1.452,1.424Z" transform="translate(-462.487 -338.395)" fill="#010400"/><path d="M471.54,341.134c2.919,2.848,4.514,4.529,3.014,5.4s-4.5-.438-7.574-2.763c-2.693-2.035-6.627-2.286-3.014-4.372S469.122,338.778,471.54,341.134Z" transform="translate(-462.471 -338.395)" fill="#1c1c38"/></g><path d="M469.362,346.725a1.579,1.579,0,0,0,.166-.727V329.109c0-1.587-1.634-2.883-3.633-2.883h0c-2,0-3.633,1.3-3.633,2.883v19.08a.912.912,0,0,0,.647.875C464.3,349.486,467.605,350.089,469.362,346.725Z" transform="translate(-462.262 -326.226)" fill="#5258a6"/></g><path d="M456.855,311.63a1.506,1.506,0,0,0,.9,1.271,4.787,4.787,0,0,0,4.332,0,1.507,1.507,0,0,0,.894-1.271V307.6a1.507,1.507,0,0,0-.894-1.271,4.787,4.787,0,0,0-4.332,0,1.506,1.506,0,0,0-.9,1.271Z" transform="translate(-449.883 -290.429)" fill="#f1bb85"/><path d="M470.425,306.23a8.434,8.434,0,1,1-8.434-8.435A8.434,8.434,0,0,1,470.425,306.23Z" transform="translate(-451.958 -295.475)" fill="#fcbdb7"/><path d="M458.081,313.736a6.725,6.725,0,0,0,1.738-2.81.734.734,0,0,0,.028-.205v-4.037a4.321,4.321,0,0,1,.617-2.286,1.857,1.857,0,0,1,1.644-1.048s6.769,2.95,9.3-2.561a.739.739,0,0,0-.482-1.033c-.484-.116-1.124-.533-1.831-1.683a.742.742,0,0,0-.8-.347,2.977,2.977,0,0,1-3.037-1.119.719.719,0,0,0-.557-.236c-1.289.024-5.743.239-8.167,1.992l-.052.039c-.52.427-8.895,7.565.6,15.374A.745.745,0,0,0,458.081,313.736Z" transform="translate(-452.575 -296.371)" fill="#037fff"/><path d="M458.224,307.019c0,1.005-.707,1.414-1.579.911a3.491,3.491,0,0,1-1.577-2.732c0-1.005.707-1.414,1.577-.911A3.488,3.488,0,0,1,458.224,307.019Z" transform="translate(-451.007 -291.526)" fill="#fcbdb7"/><g transform="translate(4.586 29.252)"><path d="M481.955,326.067l-15.033,8.65L455.39,328.43l15.386-8.8Z" transform="translate(-455.39 -310.993)" fill="#babeb5"/><path d="M477.5,329.4l2.365-15.074-16.689,9.623-.709,14.1Z" transform="translate(-450.938 -314.327)" fill="#eaeef1"/></g><g transform="translate(0.063 23.52)"><path d="M469.283,332.733h0a2.406,2.406,0,0,1-3.346-.562l-10.874-15.261a2.407,2.407,0,0,1,.562-3.346h0a2.406,2.406,0,0,1,3.346.562l10.874,15.261A2.406,2.406,0,0,1,469.283,332.733Z" transform="translate(-451.351 -309.354)" fill="#fcbdb7"/><path d="M462.563,317.889l-3.03-5.233a3.724,3.724,0,0,0-5.071-1.352h0a3.724,3.724,0,0,0-1.352,5.071l3.03,5.233S460.116,323.272,462.563,317.889Z" transform="translate(-452.614 -310.809)" fill="#bdcefa"/></g></g><g transform="translate(747.926 373.332)"><g transform="translate(0.161 20.28)"><path d="M596.232,298.614h0a2.544,2.544,0,0,0,2.944-2.053l1.849-10.341a2.545,2.545,0,0,0-2.051-2.945h0a2.547,2.547,0,0,0-2.945,2.053l-1.849,10.341A2.547,2.547,0,0,0,596.232,298.614Z" transform="translate(-584.764 -278.627)" fill="#f9bb83"/><path d="M594.124,289.938l1.126-6.3a3.936,3.936,0,0,1,4.555-3.173h0a3.935,3.935,0,0,1,3.172,4.555l-1.126,6.3S598.5,294.408,594.124,289.938Z" transform="translate(-584.774 -280.406)" fill="#d1398f"/><path d="M588.5,295.533h0a2.547,2.547,0,0,0,3.183,1.658l8.758-2.553a2.545,2.545,0,0,0,2.369-2.7h0a2.544,2.544,0,0,0-2.695-2.369l-9.955,2.776A2.547,2.547,0,0,0,588.5,295.533Z" transform="translate(-588.385 -274.643)" fill="#f9bb83"/></g><g transform="translate(14.173 46.33)"><g transform="translate(0 29.625)"><path d="M610.37,320.1c.111,1.108-2.541,1.8-4.767,3.081-3.092,1.785-6.424,2.756-8.01,1.841a1.048,1.048,0,0,1-.606-.872v-1.816c-.055-1.028,1.473-2.594,3.794-4.856,2.558-2.492,4.188-4.047,8.01-1.841,1.093.63,1.531,1.1,1.536,1.505Z" transform="translate(-596.985 -314.582)" fill="#010400"/><path d="M600.781,317.48c-3.09,3.011-4.775,4.79-3.188,5.707s4.757-.464,8.01-2.923c2.849-2.152,7.012-2.418,3.188-4.625S603.338,314.988,600.781,317.48Z" transform="translate(-596.985 -314.582)" fill="#1c1c38"/></g><path d="M600.9,326.737a1.656,1.656,0,0,1-.177-.769V299.447c0-1.676,1.73-3.05,3.843-3.05h0c2.115,0,3.843,1.373,3.843,3.05v28.838a.967.967,0,0,1-.683.927C606.252,329.658,602.756,330.3,600.9,326.737Z" transform="translate(-594.634 -296.397)" fill="#46466c"/></g><g transform="translate(5.855 40.197)"><g transform="translate(0 29.625)"><path d="M605.263,316.34c.111,1.106-2.541,1.794-4.767,3.079-3.092,1.785-6.423,2.756-8.01,1.841a1.048,1.048,0,0,1-.606-.872l0-1.816c-.057-1.028,1.471-2.594,3.792-4.856,2.558-2.493,4.188-4.047,8.012-1.841,1.091.63,1.53,1.1,1.535,1.505Z" transform="translate(-591.879 -310.817)" fill="#010400"/><path d="M595.674,313.715c-3.089,3.011-4.775,4.79-3.188,5.707s4.757-.464,8.01-2.923c2.849-2.152,7.012-2.418,3.19-4.625S598.232,311.223,595.674,313.715Z" transform="translate(-591.88 -310.817)" fill="#1c1c38"/></g><path d="M595.795,322.971a1.666,1.666,0,0,1-.178-.769v-26.52c0-1.676,1.73-3.05,3.843-3.05h0c2.115,0,3.843,1.373,3.843,3.05V324.52a.967.967,0,0,1-.683.927C601.146,325.893,597.652,326.53,595.795,322.971Z" transform="translate(-589.528 -292.632)" fill="#2d2d4f"/></g><path d="M610.483,314.9a.709.709,0,0,1-.324.107c-1.7.13-7.808-1.2-13.919-8.087a3.2,3.2,0,0,1-.828-1.981V285.4a3.215,3.215,0,0,1,1.372-2.983l4.6-2.68a3.208,3.208,0,0,1,3.274.3l6.267,3.618a10.206,10.206,0,0,1,4.6,7.97V311.28a.994.994,0,0,1-.443.94Z" transform="translate(-583.802 -260.753)" fill="#ed54a6"/><path d="M606.073,285.133a1.6,1.6,0,0,1-.948,1.346,5.069,5.069,0,0,1-4.583,0,1.6,1.6,0,0,1-.947-1.346v-4.257a1.6,1.6,0,0,1,.947-1.346,5.069,5.069,0,0,1,4.583,0,1.6,1.6,0,0,1,.948,1.346Z" transform="translate(-581.17 -261.022)" fill="#e5a19c"/><circle cx="8.922" cy="8.922" r="8.922" transform="translate(12.743 4.139)" fill="#fcbdb7"/><path d="M612.914,270.469c7.623,2.616,3.832,13.753-1.714,17.768-2.711-1.481.586-4.133-3.113-2.287-.736-3.587.919-2.494-.085-7-3.877,2.022-11.423-.428-12.594-4.166,1.35-.6,2.765-4.434,5.923-5.842C605.4,267.129,610.6,267.929,612.914,270.469Z" transform="translate(-583.805 -267.958)" fill="#52a1f6" fill-rule="evenodd"/><path d="M603.413,280.255c0,1.065.748,1.5,1.67.964a3.692,3.692,0,0,0,1.668-2.89c0-1.064-.748-1.5-1.668-.963A3.684,3.684,0,0,0,603.413,280.255Z" transform="translate(-578.769 -262.182)" fill="#fcbdb7"/><path d="M616.222,298.724l-13.968,8.065-13.968-8.064v-6.141l13.968-8.065,13.968,8.064Z" transform="translate(-588.285 -257.539)" fill="#babeb5" fill-rule="evenodd"/><path d="M602.254,284.519l13.968,8.064-13.968,7.9-13.968-7.9Z" transform="translate(-588.285 -257.539)" fill="#eaeef1" fill-rule="evenodd"/><g transform="translate(13.312 26.398)"><path d="M606.016,302.453h0a2.545,2.545,0,0,0,2.87-2.154l1.486-10.4a2.544,2.544,0,0,0-2.152-2.872h0a2.547,2.547,0,0,0-2.872,2.154l-1.486,10.4A2.547,2.547,0,0,0,606.016,302.453Z" transform="translate(-591.814 -282.375)" fill="#f9bb83"/><path d="M603.65,293.863l.9-6.332A3.937,3.937,0,0,1,609,284.2h0a3.937,3.937,0,0,1,3.331,4.441l-.906,6.332S608.177,298.177,603.65,293.863Z" transform="translate(-591.931 -284.162)" fill="#d1398f"/><path d="M596.6,300.793h0a2.547,2.547,0,0,0,3.239,1.548l11.409-3.907a2.545,2.545,0,0,0,2.273-2.778h0a2.544,2.544,0,0,0-2.776-2.273l-12.6,4.17A2.547,2.547,0,0,0,596.6,300.793Z" transform="translate(-596.457 -278.368)" fill="#f9bb83"/></g></g></g></g></svg>