<svg xmlns="http://www.w3.org/2000/svg" xmlns:xlink="http://www.w3.org/1999/xlink" width="150" height="150" viewBox="0 0 150 150"><defs><linearGradient id="a" x1="0.902" y1="0.229" x2="0.115" y2="1.705" gradientUnits="objectBoundingBox"><stop offset="0" stop-color="#1039a6"/><stop offset="1" stop-color="#8327d3"/></linearGradient><filter id="b" x="1" y="1" width="148" height="148" filterUnits="userSpaceOnUse"><feOffset input="SourceAlpha"/><feGaussianBlur stdDeviation="3" result="c"/><feFlood flood-opacity="0.161"/><feComposite operator="in" in2="c"/><feComposite in="SourceGraphic"/></filter><clipPath id="d"><rect width="72" height="72" transform="translate(4360.54 301.54)" stroke="#707070" stroke-width="1" fill="url(#a)"/></clipPath></defs><g transform="translate(-4326 -267)"><circle cx="75" cy="75" r="75" transform="translate(4326 267)" fill="#eee"/><g transform="matrix(1, 0, 0, 1, 4326, 267)" filter="url(#b)"><circle cx="65" cy="65" r="65" transform="translate(10 10)" fill="#f4f4f4"/></g><g transform="translate(4.46 4.46)" clip-path="url(#d)"><g transform="translate(4361 310.922)"><path d="M32.108,36.295a7.005,7.005,0,0,0,6.969,0h0L70.713,15.2a7.67,7.67,0,0,0-7.239-5.163H7.711A7.671,7.671,0,0,0,.472,15.2l31.635,21.09Z" transform="translate(-0.053 -10.042)" fill="url(#a)"/><path d="M41.336,41h0a11.146,11.146,0,0,1-11.589,0h0L0,21.171V56.86a7.667,7.667,0,0,0,7.659,7.658H63.421A7.667,7.667,0,0,0,71.08,56.86V21.171Z" transform="translate(0 -11.283)" fill="url(#a)"/></g></g></g></svg>