<svg xmlns="http://www.w3.org/2000/svg" xmlns:xlink="http://www.w3.org/1999/xlink" width="18" height="18" viewBox="0 0 18 18"><defs><style>.a,.c{fill:#555;}.a{stroke:#707070;}.b{clip-path:url(#a);}</style><clipPath id="a"><rect class="a" width="18" height="18" transform="translate(77 274)"/></clipPath></defs><g class="b" transform="translate(-77 -274)"><g transform="translate(77 274)"><path class="c" d="M5.5,6.812v6.375A1.314,1.314,0,0,0,6.812,14.5h6.375A1.314,1.314,0,0,0,14.5,13.188V6.812A1.314,1.314,0,0,0,13.188,5.5H6.812A1.314,1.314,0,0,0,5.5,6.812Zm0,0" transform="translate(-1 -1)"/><path class="c" d="M.75,6a.75.75,0,0,0,.75-.75v-3a.751.751,0,0,1,.75-.75h3a.75.75,0,1,0,0-1.5h-3A2.253,2.253,0,0,0,0,2.25v3A.75.75,0,0,0,.75,6Zm0,0"/><path class="c" d="M5.25,19.167h-3a.751.751,0,0,1-.75-.75v-3a.75.75,0,1,0-1.5,0v3a2.253,2.253,0,0,0,2.25,2.25h3a.75.75,0,1,0,0-1.5Zm0,0" transform="translate(0 -2.667)"/><path class="c" d="M18.417,0h-3a.75.75,0,1,0,0,1.5h3a.751.751,0,0,1,.75.75v3a.75.75,0,1,0,1.5,0v-3A2.253,2.253,0,0,0,18.417,0Zm0,0" transform="translate(-2.667)"/><path class="c" d="M19.917,14.667a.75.75,0,0,0-.75.75v3a.751.751,0,0,1-.75.75h-3a.75.75,0,1,0,0,1.5h3a2.253,2.253,0,0,0,2.25-2.25v-3A.75.75,0,0,0,19.917,14.667Zm0,0" transform="translate(-2.667 -2.667)"/></g></g></svg>