<svg id="SvgjsSvg1001" width="288" height="288" xmlns="http://www.w3.org/2000/svg" version="1.1" xmlns:xlink="http://www.w3.org/1999/xlink" xmlns:svgjs="http://svgjs.com/svgjs"><defs id="SvgjsDefs1002"></defs><g id="SvgjsG1008" transform="matrix(0.9167,0,0,0.9167,11.995200000000011,11.994253221321117)"><svg xmlns="http://www.w3.org/2000/svg" width="288" height="288" version="1.0" viewBox="0 0 1280 1280"><path d="M4202 11749 c-171 -22 -300 -87 -428 -214 -75 -74 -99 -106 -136-182 -26 -50 -55 -127 -65 -170 -17 -75 -18 -257 -18 -4788 0 -4487 1 -4713
18 -4780 10 -38 38 -113 64 -165 39 -80 59 -108 137 -185 76 -76 106 -99 186
-138 183 -90 -52 -82 2440 -82 2492 0 2257 -8 2440 82 80 39 110 62 186 138
78 77 98 105 137 185 26 52 54 127 64 165 17 67 18 293 18 4785 0 4492 -1
4718 -18 4785 -10 39 -38 113 -64 165 -39 80 -59 108 -137 185 -103 103 -199
160 -333 198 l-78 22 -2175 1 c-1196 1 -2203 -2 -2238 -7z m2686 -701 c18 -18
15 -94 -4 -112 -14 -14 -71 -16 -484 -16 -413 0 -470 2 -484 16 -19 18 -22 94
-4 112 17 17 959 17 976 0z m1852 -4648 l0 -3810 -2340 0 -2340 0 0 3810 0
3810 2340 0 2340 0 0 -3810z m-2270 -4141 c196 -31 349 -185 382 -383 37 -225
-113 -452 -337 -511 -260 -67 -520 103 -566 371 -41 239 132 483 371 523 76
12 77 12 150 0z" transform="matrix(.1 0 0 -.1 0 1280)" fill="#ffcbe0" class="color000 svgShape"></path></svg></g></svg>