<svg xmlns="http://www.w3.org/2000/svg" xmlns:xlink="http://www.w3.org/1999/xlink" width="230" height="69" viewBox="0 0 230 69">
  <defs>
    <linearGradient id="linear-gradient" x1="0.408" y1="0.5" x2="1" y2="0.5" gradientUnits="objectBoundingBox">
      <stop offset="0" stop-color="#257c37"/>
      <stop offset="1" stop-color="#6ca458"/>
    </linearGradient>
  </defs>
  <g id="Group_1" data-name="Group 1" transform="translate(295 -242)">
    <rect id="Rectangle_1" data-name="Rectangle 1" width="230" height="69" rx="10" transform="translate(-295 242)" fill="url(#linear-gradient)"/>
    <path id="Path_2" data-name="Path 2" d="M0,0,15.346,34.5,0,69Z" transform="translate(-211.055 242)" fill="#fff"/>
    <path id="Path_1" data-name="Path 1" d="M10,0H84.4V69H10A10,10,0,0,1,0,59V10A10,10,0,0,1,10,0Z" transform="translate(-295 242)" fill="#fff"/>
    <g id="mongodb" transform="translate(-283 265.714)">
      <path id="Path_3" data-name="Path 3" d="M67.115,8.512c-.065.013-.13.156-.13.234-.013.52-.026,1.9-.026,2.832a.1.1,0,0,0,.078.078c.195.013.663.026,1.065.026a2.781,2.781,0,0,0,1.065-.156,1.38,1.38,0,0,0,.688-1.3c0-1.26-.883-1.741-2.2-1.741a2.084,2.084,0,0,0-.546.026Zm3.352,5.807c0-1.286-.948-2-2.663-2a7.537,7.537,0,0,0-.754.013c-.039.013-.091.039-.091.078,0,.922-.013,2.391.026,2.962a.98.98,0,0,0,.429.7,2.974,2.974,0,0,0,1.13.156,1.774,1.774,0,0,0,1.923-1.91Zm-6-6.522c.13,0,.52.039,1.52.039.948,0,1.7-.026,2.624-.026,1.13,0,2.689.4,2.689,2.092a2.037,2.037,0,0,1-1.351,1.819c-.039.013-.039.039,0,.052A2.338,2.338,0,0,1,72,13.995a2.728,2.728,0,0,1-1.91,2.534,6.214,6.214,0,0,1-2.416.4c-.663,0-2.443-.078-3.43-.052-.1-.039.091-.507.182-.585a2.425,2.425,0,0,0,.663-.1c.351-.091.39-.195.442-.727.026-.455.026-2.066.026-3.209,0-1.572.013-2.637,0-3.157-.013-.4-.156-.533-.442-.611-.221-.039-.585-.091-.884-.13-.065-.065.156-.507.234-.559Zm-7.5,8.081a2.619,2.619,0,0,0,1.468.351,2.879,2.879,0,0,0,2.079-.741,3.949,3.949,0,0,0,1.169-3.118A3.722,3.722,0,0,0,59.983,9a4.6,4.6,0,0,0-2.443-.572,1.947,1.947,0,0,0-.727.091.382.382,0,0,0-.13.208c-.026.26-.026,2.261-.026,3.43,0,1.208,0,2.9.026,3.092a.806.806,0,0,0,.286.624ZM54.019,7.8c.247,0,1.2.039,1.65.039.819,0,1.4-.039,2.949-.039a4.806,4.806,0,0,1,3.17,1.013,4.213,4.213,0,0,1,1.442,3.326,4.354,4.354,0,0,1-1.793,3.742,6.008,6.008,0,0,1-3.729,1.052c-.883,0-2.4-.026-3.664-.039h-.013c-.065-.117.1-.572.208-.585a2.071,2.071,0,0,0,.6-.117c.273-.1.325-.247.364-.728.039-.9.026-1.975.026-3.2,0-.87.013-2.572-.013-3.118-.039-.455-.234-.572-.624-.65-.195-.039-.455-.091-.818-.13-.052-.091.182-.494.247-.572Z" fill="#8e714e" fill-rule="evenodd"/>
      <path id="Path_4" data-name="Path 4" d="M38.3,16.385a2.613,2.613,0,0,1-.844-.221.4.4,0,0,1-.1-.208c-.026-.455-.026-1.754-.026-2.624a3.063,3.063,0,0,0-.416-1.741,1.774,1.774,0,0,0-1.507-.78,3.475,3.475,0,0,0-1.975.935c-.013.013-.117.1-.1-.039s.026-.429.039-.624a.337.337,0,0,0-.091-.273,8.671,8.671,0,0,1-2.014.52c-.312.065-.39.364-.065.468h.013a2.883,2.883,0,0,1,.766.338.4.4,0,0,1,.117.364c.013.974.013,2.468-.026,3.287-.013.325-.1.442-.338.494l.026-.013a5.13,5.13,0,0,1-.546.1.76.76,0,0,0,0,.585c.143,0,.9-.039,1.52-.039.857,0,1.3.039,1.52.039a.846.846,0,0,0,.065-.585,2.4,2.4,0,0,1-.6-.091c-.234-.052-.3-.169-.312-.442-.026-.689-.026-2.144-.026-3.131a.626.626,0,0,1,.156-.481,1.966,1.966,0,0,1,1.208-.442,1.343,1.343,0,0,1,.9.3,1.278,1.278,0,0,1,.416.818c.065.559.039,1.663.039,2.624,0,.52-.039.65-.234.714a2.473,2.473,0,0,1-.6.117.761.761,0,0,0,0,.585c.377,0,.819-.039,1.468-.039.805,0,1.325.039,1.533.039a.906.906,0,0,0,.039-.559Zm3.6-4.963c-.688,0-1.117.533-1.117,1.364s.377,1.819,1.442,1.819a1.007,1.007,0,0,0,.675-.26,1.72,1.72,0,0,0,.416-1.2c0-1.078-.533-1.728-1.416-1.728Zm-.091,5.742a1.117,1.117,0,0,0-.559.143c-.546.351-.792.688-.792,1.091a1.149,1.149,0,0,0,.455.935,2.308,2.308,0,0,0,1.559.481c1.325,0,1.91-.715,1.91-1.416a.993.993,0,0,0-.753-1,5.248,5.248,0,0,0-1.819-.234Zm.091,3.378A2.875,2.875,0,0,1,40.04,20a1.712,1.712,0,0,1-.689-1.286,1,1,0,0,1,.26-.65,6.89,6.89,0,0,1,1.2-.961c.026-.013.039-.026.039-.052a.086.086,0,0,0-.052-.065,1.237,1.237,0,0,1-.845-.819v-.026c-.013-.078-.039-.156.078-.234.091-.065.221-.143.364-.234a5.337,5.337,0,0,0,.6-.39.1.1,0,0,0,.026-.078.086.086,0,0,0-.052-.065A1.9,1.9,0,0,1,39.6,13.15a1.973,1.973,0,0,1,.831-1.637,3.82,3.82,0,0,1,1.871-.637h.039a3.984,3.984,0,0,1,1.429.312,2.4,2.4,0,0,0,.845.13,1.124,1.124,0,0,0,.909-.338.7.7,0,0,1,.052.26.981.981,0,0,1-.169.6.738.738,0,0,1-.572.247H44.77a2.9,2.9,0,0,1-.338-.052l-.052.026c-.013.026,0,.052.013.091l.013.026a4.8,4.8,0,0,1,.078.559,2.1,2.1,0,0,1-.883,1.884,2.992,2.992,0,0,1-1.52.585,1.636,1.636,0,0,0-.182.013c-.065,0-.156.013-.169.013h-.013c-.1.026-.364.156-.364.377,0,.195.117.429.675.468.117.013.234.013.364.026a11.39,11.39,0,0,1,2.092.26,1.456,1.456,0,0,1,.974,1.39,2.852,2.852,0,0,1-1.832,2.416,4.179,4.179,0,0,1-1.728.377Zm7.4-9.054a1.207,1.207,0,0,0-.7.195,2.009,2.009,0,0,0-.766,1.845c0,1.7.857,2.9,2.079,2.9a1.322,1.322,0,0,0,.9-.312,2.309,2.309,0,0,0,.572-1.806c0-1.689-.845-2.819-2.079-2.819Zm.234,5.561a2.867,2.867,0,0,1-3-3.144,2.813,2.813,0,0,1,1.286-2.469,3.911,3.911,0,0,1,1.988-.585A2.784,2.784,0,0,1,52.681,13.8a3.017,3.017,0,0,1-1.364,2.689,3.6,3.6,0,0,1-1.78.559h0ZM26.385,11.487a1.207,1.207,0,0,0-.7.2,2.009,2.009,0,0,0-.766,1.845c0,1.7.857,2.9,2.079,2.9a1.323,1.323,0,0,0,.9-.312,2.309,2.309,0,0,0,.572-1.806c0-1.689-.831-2.819-2.079-2.819Zm.234,5.561a2.867,2.867,0,0,1-3-3.144A2.813,2.813,0,0,1,24.9,11.436a3.911,3.911,0,0,1,1.988-.585A2.783,2.783,0,0,1,29.763,13.8,3.017,3.017,0,0,1,28.4,16.489a3.519,3.519,0,0,1-1.78.559Zm-14.85-.13a.555.555,0,0,1-.039-.3.439.439,0,0,1,.039-.2,4.792,4.792,0,0,0,.572-.117c.26-.065.364-.208.377-.533.039-.78.039-2.261.026-3.287V12.46a.394.394,0,0,0-.144-.36,2.935,2.935,0,0,0-.78-.338c-.117-.039-.2-.1-.182-.182s.078-.169.247-.195a9.505,9.505,0,0,0,1.988-.507.321.321,0,0,1,.065.208l-.013.143c-.013.143-.026.312-.026.481a.1.1,0,0,0,.1.091.183.183,0,0,0,.078-.026,3.664,3.664,0,0,1,1.975-.883,1.682,1.682,0,0,1,1.507.922.1.1,0,0,0,.091.052.093.093,0,0,0,.078-.039,3.949,3.949,0,0,1,2.04-.936c1.208,0,1.923.9,1.923,2.417,0,.429,0,.987-.013,1.494,0,.455-.013.87-.013,1.169a.409.409,0,0,0,.234.312,2.774,2.774,0,0,0,.754.182h.013a1.042,1.042,0,0,1-.078.494,3.192,3.192,0,0,1-.325-.013q-.493-.026-.987-.026c-.805,0-1.221.013-1.624.039a1.268,1.268,0,0,1,0-.494,4.034,4.034,0,0,0,.494-.117c.26-.078.325-.2.338-.533,0-.247.052-2.352-.026-2.858a1.281,1.281,0,0,0-1.325-1.13,2.3,2.3,0,0,0-1.325.507.232.232,0,0,0-.052.13v.013a5.983,5.983,0,0,1,.052,1.065v.844c0,.585-.013,1.13,0,1.546a.381.381,0,0,0,.312.4c.078.013.13.026.195.039l.416.091a.7.7,0,0,1-.013.364.249.249,0,0,1-.052.13c-.442-.013-.9-.026-1.559-.026-.195,0-.533.013-.819.013-.234,0-.455.013-.585.013a.685.685,0,0,1-.039-.26.4.4,0,0,1,.052-.234.878.878,0,0,1,.182-.026c.156-.026.286-.052.416-.078.221-.065.3-.182.312-.468a22.549,22.549,0,0,0-.013-2.975,1.224,1.224,0,0,0-1.273-1.13,2.384,2.384,0,0,0-1.325.507.42.42,0,0,0-.117.3v.767c0,.935,0,2.1.013,2.611a.4.4,0,0,0,.364.4,2.721,2.721,0,0,0,.3.052l.234.039a1.09,1.09,0,0,1-.039.494c-.13,0-.286-.013-.468-.013-.273-.013-.624-.026-1.013-.026-.455,0-.78.013-1.039.026a3.139,3.139,0,0,0-.481-.026Z" fill="#442d22" fill-rule="evenodd"/>
      <path id="Path_5" data-name="Path 5" d="M4.935,20.036,4.4,19.854s.065-2.715-.909-2.91c-.649-.754.1-31.96,2.443-.1a1.9,1.9,0,0,0-.948,1.091,10.021,10.021,0,0,0-.052,2.1Z" fill="#fff" fill-rule="evenodd"/>
      <path id="Path_6" data-name="Path 6" d="M4.935,20.036,4.4,19.854s.065-2.715-.909-2.91c-.649-.754.1-31.96,2.443-.1a1.9,1.9,0,0,0-.948,1.091,10.021,10.021,0,0,0-.052,2.1Z" fill="#a6a385" fill-rule="evenodd"/>
      <path id="Path_7" data-name="Path 7" d="M5.221,17.412A9.439,9.439,0,0,0,8.794,7.967C7.741,3.329,5.26,1.809,4.987,1.224A6.559,6.559,0,0,1,4.4.081l.195,12.9c0,.013-.4,3.95.624,4.431" fill="#fff" fill-rule="evenodd"/>
      <path id="Path_8" data-name="Path 8" d="M5.221,17.412A9.439,9.439,0,0,0,8.794,7.967C7.741,3.329,5.26,1.809,4.987,1.224A6.559,6.559,0,0,1,4.4.081l.195,12.9c0,.013-.4,3.95.624,4.431" fill="#499d4a" fill-rule="evenodd"/>
      <path id="Path_9" data-name="Path 9" d="M4.13,17.581S-.249,14.593.011,9.331A11.082,11.082,0,0,1,3.948,1.016,1.21,1.21,0,0,0,4.376.029c.273.585.221,8.744.26,9.7a31.313,31.313,0,0,1-.506,7.852Z" fill="#fff" fill-rule="evenodd"/>
      <path id="Path_10" data-name="Path 10" d="M4.13,17.581S-.249,14.593.011,9.331A11.082,11.082,0,0,1,3.948,1.016,1.21,1.21,0,0,0,4.376.029c.273.585.221,8.744.26,9.7a31.313,31.313,0,0,1-.506,7.852Z" fill="#58aa50" fill-rule="evenodd"/>
    </g>
  </g>
</svg>
