<?xml version="1.0" standalone="no"?>
<!DOCTYPE svg PUBLIC "-//W3C//DTD SVG 20010904//EN"
 "http://www.w3.org/TR/2001/REC-SVG-20010904/DTD/svg10.dtd">
<svg version="1.0" xmlns="http://www.w3.org/2000/svg"
 width="1280.000000pt" height="975.000000pt" viewBox="0 0 1280.000000 975.000000"
 preserveAspectRatio="xMidYMid meet">
<metadata>
Created by potrace 1.15, written by Peter Selinger 2001-2017
</metadata>
<g transform="translate(0.000000,975.000000) scale(0.100000,-0.100000)"
fill="#ffcbe0" stroke="none">
<path d="M205 9741 c-73 -18 -139 -72 -178 -145 l-22 -41 0 -3795 0 -3795 30
-54 c31 -56 88 -106 148 -128 24 -9 736 -12 2920 -12 l2887 -1 0 -52 c0 -86
-19 -334 -36 -463 -44 -349 -116 -653 -201 -852 l-35 -83 -792 0 c-538 0 -804
-4 -831 -11 -96 -26 -625 -280 -625 -300 0 -5 1310 -9 2930 -9 1620 0 2930 4
2930 9 0 20 -529 274 -625 300 -27 7 -293 11 -831 11 l-792 0 -35 83 c-85 199
-157 503 -201 852 -17 129 -36 377 -36 463 l0 52 2888 1 c2183 0 2895 3 2919
12 60 22 117 72 148 128 l30 54 0 3795 0 3795 -22 41 c-28 53 -74 99 -127 127
l-41 22 -6185 1 c-3402 1 -6198 -1 -6215 -5z"/>
</g>
</svg>
