<svg xmlns="http://www.w3.org/2000/svg" xmlns:xlink="http://www.w3.org/1999/xlink" width="230" height="69" viewBox="0 0 230 69"><defs><linearGradient id="a" y1="0.5" x2="1" y2="0.5" gradientUnits="objectBoundingBox"><stop offset="0" stop-color="#004a5c"/><stop offset="1" stop-color="#00c4e8"/></linearGradient></defs><g transform="translate(0 0)"><rect width="230" height="69" rx="10" transform="translate(0 0)" fill="url(#a)"/><path d="M10,0H84.4a0,0,0,0,1,0,0V69a0,0,0,0,1,0,0H10A10,10,0,0,1,0,59V10A10,10,0,0,1,10,0Z" transform="translate(0 0)" fill="#fff"/><path d="M0,0,15.346,34.5,0,69Z" transform="translate(83.945 0)" fill="#fff"/><g transform="translate(17.199 20.236)"><path d="M1.809,35.453H3.581V28.3L6.35,34.537a1.509,1.509,0,0,0,1.636,1.027,1.5,1.5,0,0,0,1.623-1.027L12.363,28.3v7.148H14.15V28.3A1.091,1.091,0,0,0,13.3,27.1c-1.35-.416-2.25-.055-2.659.875L7.932,34.135,5.314,27.971c-.4-.93-1.309-1.291-2.673-.875A1.093,1.093,0,0,0,1.809,28.3v7.148h0Zm13.813-5.816h1.786v3.928c-.013.222.068.722,1.036.735.5.014,3.845,0,3.872,0V29.609H24.1v6.427c0,1.582-1.923,1.929-2.823,1.943H15.663V36.772h5.632c1.145-.125,1.009-.708,1.009-.9V35.4H18.526c-1.759-.014-2.891-.805-2.9-1.707,0-.083.041-4.026,0-4.053Zm38.316-4.553a6.209,6.209,0,0,0-2.645.389c-.2.084-.532.084-.559.347.109.11.122.291.218.444a3.234,3.234,0,0,0,.709.847c.287.222.573.444.873.639.532.333,1.132.527,1.65.861.3.194.6.444.9.653.15.111.245.292.436.361v-.042c-.1-.124-.123-.3-.218-.444-.137-.138-.273-.264-.41-.4a6.5,6.5,0,0,0-1.418-1.4c-.436-.306-1.391-.722-1.568-1.235l-.027-.028a5.483,5.483,0,0,0,.941-.222c.464-.124.886-.1,1.363-.222.219-.056.436-.125.655-.194v-.125c-.245-.25-.423-.583-.682-.819a18.2,18.2,0,0,0-2.25-1.707c-.423-.278-.968-.458-1.418-.694-.164-.083-.436-.125-.532-.264a5.6,5.6,0,0,1-.559-1.069c-.4-.763-.777-1.61-1.118-2.415a15.03,15.03,0,0,0-.7-1.582,13.858,13.858,0,0,0-5.277-5.192A6.456,6.456,0,0,0,40.562,11c-.341-.014-.682-.042-1.023-.056a5.393,5.393,0,0,1-.627-.486c-.777-.5-2.782-1.582-3.355-.153-.368.9.546,1.79.859,2.249a6.562,6.562,0,0,1,.7,1.041c.1.236.122.486.218.736a16.8,16.8,0,0,0,.709,1.86,6.7,6.7,0,0,0,.5.861c.109.153.3.222.341.472a4.02,4.02,0,0,0-.313,1.041,6.213,6.213,0,0,0,.4,4.664c.219.347.737,1.11,1.432.819.614-.25.477-1.041.654-1.735.041-.166.014-.278.1-.389v.028c.191.389.382.763.559,1.152a7.862,7.862,0,0,0,1.773,1.86c.327.25.586.68,1,.833v-.042h-.027a1.535,1.535,0,0,0-.314-.278,6.728,6.728,0,0,1-.709-.833A17.95,17.95,0,0,1,41.9,22.114c-.219-.43-.41-.9-.586-1.333-.083-.167-.083-.417-.219-.5a5.253,5.253,0,0,0-.655.944,7.938,7.938,0,0,0-.381,2.1c-.055.014-.028,0-.055.028-.436-.111-.586-.569-.75-.958a6.108,6.108,0,0,1-.123-3.706c.1-.292.5-1.208.341-1.485-.083-.264-.355-.416-.5-.625a5.636,5.636,0,0,1-.491-.888c-.327-.777-.491-1.638-.845-2.415a7.428,7.428,0,0,0-.682-1.069,6.893,6.893,0,0,1-.75-1.083c-.068-.153-.164-.4-.054-.569a.218.218,0,0,1,.19-.18c.177-.153.682.042.859.125a6.922,6.922,0,0,1,1.35.694c.191.139.4.4.641.472h.287c.436.1.927.028,1.336.152a8.664,8.664,0,0,1,1.964.958,12.236,12.236,0,0,1,4.254,4.747c.164.319.232.611.382.944.287.68.641,1.374.927,2.041a9.206,9.206,0,0,0,.968,1.86c.2.292,1.023.444,1.391.6a9.647,9.647,0,0,1,.941.389c.463.292.927.625,1.363.944.218.166.9.513.941.791Z" transform="translate(-1.809 -9.589)" fill="#0090b1" fill-rule="evenodd"/><path d="M28.581,11.936a2.159,2.159,0,0,0-.56.068v.027h.027a4.388,4.388,0,0,0,.438.56c.109.219.205.438.315.656l.027-.027a.771.771,0,0,0,.287-.684,3.044,3.044,0,0,1-.164-.287c-.082-.137-.26-.205-.37-.314Z" transform="translate(9.639 -8.555)" fill="#00678c" fill-rule="evenodd"/><path d="M18.275,29.79h5.141a3.9,3.9,0,0,0,1.641-.342c.779-.355,1.149-.834,1.149-1.463V26.673c0-.506-.424-.985-1.271-1.313a4.476,4.476,0,0,0-1.518-.26h-2.16c-.725,0-1.066-.219-1.162-.7a.674.674,0,0,1-.013-.164v-.807a.618.618,0,0,1,.013-.15c.1-.369.287-.465.916-.533h5.264v-1.19h-5a4.624,4.624,0,0,0-1.449.151c-1.053.328-1.518.848-1.518,1.763v1.04c0,.806.9,1.49,2.434,1.654.164.014.342.014.519.014H23.1a.829.829,0,0,1,.191.014c.561.055.807.15.971.355a.416.416,0,0,1,.137.329v1.039a.608.608,0,0,1-.246.424,1.277,1.277,0,0,1-.766.246c-.068,0-.109.014-.178.014H18.275V29.79Zm19.06-2.064c0,1.217.916,1.9,2.749,2.037.178.014.342.027.519.027h4.649V28.6h-4.69c-1.04,0-1.436-.26-1.436-.889V21.559H37.334v6.167h0Zm-9.995.054V23.542c0-1.08.766-1.737,2.256-1.942.164-.014.328-.028.478-.028h3.391c.178,0,.329.014.506.028,1.49.2,2.242.861,2.242,1.942V27.78a1.56,1.56,0,0,1-1.053,1.655l1.75,1.586H34.846l-1.422-1.285-1.436.082H30.074a4.185,4.185,0,0,1-1.039-.136c-1.134-.315-1.695-.917-1.695-1.9Zm1.928-.095a1.088,1.088,0,0,0,.041.178c.1.492.56.766,1.271.766h1.614l-1.476-1.34h2.064l1.3,1.176a.855.855,0,0,0,.451-.575.77.77,0,0,0,.014-.178V23.651a.662.662,0,0,0-.014-.164c-.1-.465-.56-.724-1.258-.724H30.58c-.793,0-1.313.342-1.313.888v4.034Zm16.8,2.119h.26v-1h.342V28.6h-.957v.205h.355Zm1.982,0H48.3V28.6h-.369l-.3.821L47.3,28.6h-.355v1.2h.232v-.916h.014l.342.916h.178l.342-.916V29.8h0Z" transform="translate(5.302 -3.888)" fill="#f29111" fill-rule="evenodd"/></g></g></svg>