<svg id="oracle" xmlns="http://www.w3.org/2000/svg" xmlns:xlink="http://www.w3.org/1999/xlink" width="230" height="69" viewBox="0 0 230 69">
  <defs>
    <linearGradient id="linear-gradient" y1="0.5" x2="1" y2="0.5" gradientUnits="objectBoundingBox">
      <stop offset="0" stop-color="#9f0b0b"/>
      <stop offset="1" stop-color="#ff6b6b"/>
    </linearGradient>
  </defs>
  <rect id="base" width="230" height="69" rx="10" transform="translate(0 0)" fill="url(#linear-gradient)"/>
  <path id="base-2" data-name="base" d="M10,0H84.4a0,0,0,0,1,0,0V69a0,0,0,0,1,0,0H10A10,10,0,0,1,0,59V10A10,10,0,0,1,10,0Z" transform="translate(0 0)" fill="#fff"/>
  <path id="_" data-name="&gt;" d="M0,0,15.346,34.5,0,69Z" transform="translate(83.945 0)" fill="#fff"/>
  <g id="oracle-2" data-name="oracle" transform="translate(13.51 30.554)">
    <path id="path16197" d="M122.972,103.123h3.9l-2.061-3.318-3.783,6H119.3l4.6-7.206a1.087,1.087,0,0,1,.9-.467,1.067,1.067,0,0,1,.885.455l4.62,7.218h-1.722l-.812-1.34h-3.947Zm17.885,1.341V98.2H139.4v6.872a.717.717,0,0,0,.212.51.746.746,0,0,0,.534.218H146.8l.861-1.34Zm-24.172-1.122a2.569,2.569,0,1,0,0-5.138h-6.392v7.6h1.461v-6.26h4.834a1.231,1.231,0,0,1,0,2.463L112.469,102l4.362,3.8h2.122l-2.934-2.463ZM101.3,105.8a3.8,3.8,0,0,1,0-7.6h4.415a3.8,3.8,0,0,1,0,7.6Zm4.317-1.34a2.46,2.46,0,0,0,0-4.919H101.4a2.46,2.46,0,0,0,0,4.919Zm27.744,1.34a3.8,3.8,0,1,1,0-7.6h5.244l-.855,1.34h-4.292a2.46,2.46,0,1,0,0,4.919h5.269l-.861,1.34Zm17.867-1.34a2.455,2.455,0,0,1-2.365-1.789h6.245l.861-1.341h-7.106a2.463,2.463,0,0,1,2.365-1.789h4.286l.867-1.34h-5.25a3.8,3.8,0,1,0,0,7.6h4.5l.861-1.34H151.23" transform="translate(-97.503 -98.131)" fill="#f80000"/>
    <path id="path16199" d="M182.279,99.1a.731.731,0,1,1,.728.734A.725.725,0,0,1,182.279,99.1Zm.728.939a.933.933,0,1,0-.926-.933A.932.932,0,0,0,183.006,100.04Zm-.086-1.488a.671.671,0,0,1,.271.033.291.291,0,0,1,.205.291.264.264,0,0,1-.013.086.268.268,0,0,1-.126.179c-.013.007-.02.013-.046.026l.238.43h-.232l-.212-.4h-.146v.4h-.205V98.551Zm.073.476c.066-.007.132-.007.172-.066a.14.14,0,0,0,.027-.093.148.148,0,0,0-.079-.126.478.478,0,0,0-.192-.02h-.06v.3h.132" transform="translate(-122.555 -98.141)" fill="#f80000"/>
  </g>
</svg>
