<svg xmlns="http://www.w3.org/2000/svg" xmlns:xlink="http://www.w3.org/1999/xlink" width="230" height="69" viewBox="0 0 230 69">
  <defs>
    <linearGradient id="linear-gradient" x1="0.408" y1="0.5" x2="1" y2="0.5" gradientUnits="objectBoundingBox">
      <stop offset="0" stop-color="#6c2c2c"/>
      <stop offset="1" stop-color="#9d2e2f"/>
    </linearGradient>
    <linearGradient id="linear-gradient-2" x1="-4.183" y1="0.143" x2="-3.174" y2="0.794" gradientUnits="objectBoundingBox">
      <stop offset="0" stop-color="#909ca9"/>
      <stop offset="1" stop-color="#ededee"/>
    </linearGradient>
    <linearGradient id="linear-gradient-3" x1="-8.133" y1="37.388" x2="-6.64" y2="37.388" gradientUnits="objectBoundingBox">
      <stop offset="0" stop-color="#939fab"/>
      <stop offset="1" stop-color="#dcdee1"/>
    </linearGradient>
    <radialGradient id="radial-gradient" cx="0.443" cy="0.439" r="0.128" gradientTransform="matrix(-0.691, -0.149, -0.208, 1.978, -19.227, -9.973)" gradientUnits="objectBoundingBox">
      <stop offset="0" stop-color="#ee352c"/>
      <stop offset="1" stop-color="#a91d22"/>
    </radialGradient>
  </defs>
  <g id="Group_1" data-name="Group 1" transform="translate(178 -94)">
    <rect id="Rectangle_1" data-name="Rectangle 1" width="230" height="69" rx="10" transform="translate(-178 94)" fill="url(#linear-gradient)"/>
    <path id="Path_2" data-name="Path 2" d="M0,0,15.346,34.5,0,69Z" transform="translate(-94.25 94)" fill="#fff"/>
    <path id="Path_1" data-name="Path 1" d="M9.946,0h74V69h-74A9.973,9.973,0,0,1,0,59V10A9.973,9.973,0,0,1,9.946,0Z" transform="translate(-178 94)" fill="#fff"/>
    <g id="Group_1-2" data-name="Group 1" transform="translate(-139.616 102.728)">
    <path fill="#fff" id="Path_11" data-name="Path 11"  d="M44.083,29.79c-0.183-0.829-0.935-1.796-2.452-1.796c-0.31,0-0.649,0.039-1.035,0.119c-0.708,0.146-1.311,0.217-1.842,0.241c4.133-7.04,6.816-16.819,4.159-20.214c-3.501-4.473-8.214-5.141-10.711-5.141L31.967,3c-0.929,0.015-1.893,0.129-2.863,0.339l-3.583,0.774C25.033,4.052,24.536,4.009,24.018,4l-0.03,0l-0.016,0l-0.152-0.001c-1.593,0-3.046,0.338-4.341,0.973l-1.251-0.493c-1.72-0.678-4.308-1.485-6.868-1.485c-0.144,0-0.287,0.003-0.431,0.008C8.407,3.093,6.241,4.05,4.664,5.769C2.696,7.915,1.8,11.054,2.003,15.1C2.013,15.309,4.461,36,11.4,36h0.025l0.064-0.001c0.901-0.022,1.76-0.384,2.563-1.077c0.613,0.46,1.406,0.732,2.145,0.84c0.488,0.115,1.366,0.278,2.418,0.278c1.284,0,2.442-0.263,3.44-0.738c-0.001,0.88-0.006,1.994-0.016,3.418l-0.001,0.075l0.005,0.075c0.097,1.419,0.342,2.698,0.711,3.701c1.051,2.859,2.866,4.434,5.111,4.434c0.093,0,0.188-0.003,0.284-0.009c1.846-0.114,3.717-1.151,5.004-2.772c1.393-1.755,1.715-3.607,1.839-5.026L35,39.111v-0.088v-4.079l0.103,0.01l0.436,0.038l0.042,0.004l0.042,0.002c0.124,0.006,0.252,0.008,0.381,0.008c1.507,0,3.362-0.391,4.616-0.974C41.819,33.476,44.559,31.948,44.083,29.79z"/><path fill="#0277bd" d="M33,34c0-0.205,0.012-0.376,0.018-0.565C33.008,33.184,33,33,33,33s0.012-0.009,0.032-0.022c0.149-2.673,0.886-3.703,1.675-4.29c-0.11-0.153-0.237-0.318-0.356-0.475c-0.333-0.437-0.748-0.979-1.192-1.674l-0.082-0.158c-0.067-0.164-0.229-0.447-0.435-0.819c-1.183-2.14-3.645-6.592-1.96-9.404c0.738-1.232,2.122-1.942,4.121-2.117C33.986,11.718,30.925,6.115,23.985,6c-0.002,0-0.004,0-0.006,0c-6.041-0.098-8.026,5.392-8.672,8.672c0.89-0.377,1.906-0.606,2.836-0.606c0.014,0,0.029,0,0.043,0c2.29,0.017,3.865,1.239,4.323,3.354c0.335,1.552,0.496,2.91,0.492,4.153c-0.01,2.719-0.558,4.149-1.042,5.411l-0.154,0.408c-0.124,0.334-0.255,0.645-0.379,0.937c-0.126,0.298-0.237,0.563-0.318,0.802c0.484,0.11,0.864,0.265,1.125,0.38l0.151,0.066c0.047,0.02,0.094,0.043,0.137,0.069c0.848,0.516,1.376,1.309,1.489,2.233c0.061,0.498,0.051,3.893,0.03,6.855c0.087,1.285,0.305,2.364,0.593,3.146c0.409,1.114,1.431,3.241,3.394,3.119c1.37-0.085,2.687-0.919,3.561-2.019c0.938-1.181,1.284-2.487,1.414-3.958V34z"/><path fill="#0277bd" d="M15.114 28.917c-1.613-1.683-2.399-3.947-2.104-6.056.285-2.035.124-4.027.037-5.098-.029-.357-.048-.623-.047-.77 0-.008.002-.015.003-.023 0-.004-.002-.007-.002-.011.121-3.021 1.286-7.787 4.493-10.62C15.932 5.724 13.388 4.913 11 5 7.258 5.136 3.636 7.724 4 15c.137 2.73 3.222 19.103 7.44 19 .603-.015 1.229-.402 1.872-1.176 1.017-1.223 2.005-2.332 2.708-3.104C15.705 29.481 15.401 29.217 15.114 28.917zM37.023 14.731c.015.154.002.286-.022.408.031.92-.068 1.813-.169 2.677-.074.636-.15 1.293-.171 1.952-.021.645.07 1.282.166 1.956.225 1.578.459 3.359-.765 5.437.225.296.423.571.581.837 4.61-7.475 6.468-16.361 4.695-18.626C38.655 5.944 34.941 4.952 31.999 5c-.921.015-1.758.139-2.473.294C34.602 7.754 36.863 13.026 37.023 14.731zM41 30.071c-2.665.55-3.947.257-4.569-.126-.1.072-.2.133-.293.19-.372.225-.961.583-1.105 2.782.083.016.156.025.246.044L35.714 33c1.32.06 3.049-.31 4.063-.781C41.962 31.205 43.153 29.627 41 30.071zM22.023 32.119c-.037-.298-.198-.539-.492-.732l-.108-.047C21.062 31.181 20.653 31 20 31h-.004c-.127.01-.253.019-.38.019-.052 0-.103-.007-.155-.009-.474.365-1.148.647-2.816.99-2.98.759-1.221 1.655-.078 1.794 1.106.277 3.735.614 5.481-.809C22.043 32.537 22.035 32.229 22.023 32.119z"/><path fill="#0277bd" d="M20.681 18.501c-.292.302-.753.566-1.262.484-.828-.134-1.463-1.133-1.417-1.508h0c.044-.374.751-.569 1.578-.435.287.047.548.128.768.228-.32-.688-.899-1.085-1.782-1.182-1.565-.174-3.226.644-3.56 1.097.007.11.02.251.033.417.093 1.147.265 3.284-.05 5.537-.208 1.485.393 3.169 1.567 4.395.757.79 1.641 1.29 2.513 1.438.111-.478.309-.944.513-1.425.113-.265.233-.547.346-.852l.162-.427c.443-1.155.9-2.35.909-4.703C21.003 20.66 20.892 19.627 20.681 18.501zM34.847 22.007c-.104-.729-.211-1.484-.185-2.303.023-.742.105-1.442.184-2.119.062-.533.11-1.045.138-1.55-1.289.107-2.145.479-2.551 1.108.168-.057.358-.102.568-.129.892-.116 1.543.141 1.618.637.055.363-.253.705-.388.836-.277.269-.626.442-.981.488-.064.008-.129.012-.192.012-.353 0-.69-.121-.949-.3.112 1.973 1.567 4.612 2.283 5.907.153.277.271.498.369.688C35.154 24.163 35.009 23.143 34.847 22.007z"/>
      <!-- <path id="Path_11" data-name="Path 11" d="M37.916,26.451,31.344,28.77,25.626,31.5l-1.6.456c-.407.419-.835.843-1.3,1.272-.507.472-.979.9-1.341,1.213a10.437,10.437,0,0,0-1.3,1.4,6.461,6.461,0,0,0-.964,1.76,3.153,3.153,0,0,0,.387,2.657A8.822,8.822,0,0,0,23.1,43.164a21.668,21.668,0,0,0,3.159,1.143A38.923,38.923,0,0,0,33,45.343a7.153,7.153,0,0,0,.869,0,13.159,13.159,0,0,0,.641-1.315,34.955,34.955,0,0,0,2.33-6.66,33.948,33.948,0,0,0,.6-4.615c.035-.521.05-2.265.02-2.855a21.605,21.605,0,0,0-.248-2.517.626.626,0,0,1-.015-.22,8.124,8.124,0,0,1,.889-.29l-.164-.419h0Zm-1.5.95a18.725,18.725,0,0,1,.258,2.689,1.553,1.553,0,0,1,0,.365c-.04,0-.84-.51-1.411-.9-.5-.338-1.441-1.014-1.59-1.143-.05-.038-.045-.043.363-.193.685-.249,2.325-.819,2.379-.819Zm-3.348,1.191a1.607,1.607,0,0,1,.432.252,30.2,30.2,0,0,0,3.01,1.809c.184.086.2.054-.219.365A21.191,21.191,0,0,1,32.878,33c-.243.118-.447.209-.452.209a1.491,1.491,0,0,1,.06-.3,17.007,17.007,0,0,0,.532-3.773c0-.537,0-.537.05-.553-.01,0-.005,0,0,0Zm-.69.284a12.5,12.5,0,0,1-.03,1.562,14.619,14.619,0,0,1-.457,2.335,3.786,3.786,0,0,1-.114.376,9.086,9.086,0,0,1-.924-.971,7.313,7.313,0,0,1-.914-1.438,4.738,4.738,0,0,1-.278-.73c.079-.059,2.7-1.154,2.717-1.132Zm-3.249,1.379a.018.018,0,0,1,.015.005,1.048,1.048,0,0,1,.075.193,7.438,7.438,0,0,0,.825,1.594,8.851,8.851,0,0,0,1.147,1.336c.119.107.228.209.243.225.03.032.04.027-.77.36-.939.386-1.962.773-3.135,1.181l-.839.3c-.045.016-.03-.011.1-.231a31.219,31.219,0,0,0,1.962-4.272c.084-.236.169-.472.184-.526a.19.19,0,0,1,.109-.14.451.451,0,0,1,.084-.021Zm-.993.445c.015.011-.238.585-.487,1.111-.482,1.014-1.008,2.013-1.714,3.226-.119.209-.233.4-.248.424s-.035.027-.114-.14a5.2,5.2,0,0,1-.383-1.245,5.408,5.408,0,0,1,.025-1.6c.065-.333.06-.327.209-.408.636-.349,2.692-1.39,2.712-1.369Zm8.569.376V31.3a31.5,31.5,0,0,1-.293,4.036c-.03.209-.055.381-.06.386s-.144-.043-.313-.1a12.332,12.332,0,0,1-2.285-1.057A10.033,10.033,0,0,1,32.59,33.8c0-.005.214-.123.457-.263a28.855,28.855,0,0,0,2.717-1.723c.3-.22.76-.574.859-.671l.079-.064Zm-12.32,1.588c.02,0,.015.043-.015.236-.02.14-.045.4-.055.574a4.238,4.238,0,0,0,.437,2.158,4.111,4.111,0,0,1,.174.408c-.035.032-3.323,1.073-4.357,1.379l-.6.177c-.035.011-.04.005-.025-.086a5.766,5.766,0,0,1,1.446-2.689,6.511,6.511,0,0,1,1.634-1.352c.507-.311,1.287-.778,1.346-.8,0-.005,0-.005.01-.005Zm7.749,1.5a1.958,1.958,0,0,1,.268.156,14.32,14.32,0,0,0,3.805,1.6l.114.027-.159.1a52.89,52.89,0,0,1-5.052,2.27c-.323.129-.641.258-.7.284a.338.338,0,0,1-.114.038c0-.005.089-.193.2-.424a27.623,27.623,0,0,0,1.565-3.848c.04-.1.065-.193.07-.2Zm-.79.279a1.627,1.627,0,0,1-.084.247,35.174,35.174,0,0,1-1.724,3.751c-.184.354-.338.639-.343.639s-.154-.1-.333-.215a10.478,10.478,0,0,1-2.6-2.388l-.089-.118.452-.134A30.837,30.837,0,0,0,30.986,34.6c.194-.087.353-.157.358-.157ZM36.252,36.3h0c0,.123-.248,1.229-.457,2.029-.174.671-.323,1.2-.6,2.125-.119.408-.223.746-.229.746a.308.308,0,0,1-.065-.016,19.582,19.582,0,0,1-4.039-1.229c-.348-.15-.844-.392-.874-.419a5.62,5.62,0,0,1,.666-.338c2.26-1.068,4.6-2.281,5.41-2.8a.627.627,0,0,1,.184-.1Zm-11.331.419c.01.011-.621.993-1.5,2.329-.308.467-.666,1.014-.8,1.218s-.338.526-.452.719l-.209.349-.224-.2a8.662,8.662,0,0,1-.924-1.02,4.543,4.543,0,0,1-.83-1.733c-.055-.258-.055-.387,0-.4.074-.021,1.4-.36,2.643-.671.69-.172,1.49-.376,1.778-.451s.523-.141.528-.141Zm.636.263.159.193a9.517,9.517,0,0,0,2.33,2.061,1.3,1.3,0,0,1,.268.188c-.035.027-3.07,1.191-4.476,1.717-.79.3-1.441.542-1.445.542a.849.849,0,0,1-.1-.07l-.089-.07.144-.225c.467-.73,1.053-1.53,2.33-3.193l.879-1.143Zm3.964,3.064c0-.005.223.08.492.188a15.043,15.043,0,0,0,1.843.617,19.022,19.022,0,0,0,2.787.521c.109.011.169.021.149.038s-.765.284-1.3.467c-.854.29-3.462,1.122-5.588,1.782-.392.123-.73.225-.75.231a.372.372,0,0,1-.214-.059,3.861,3.861,0,0,1,.263-.36,31.818,31.818,0,0,0,2.017-2.93c.164-.268.3-.488.3-.494Zm-.874.027c0,.005-.348.617-.964,1.669-.263.445-.556.95-.661,1.127s-.248.44-.333.59l-.144.274-.074-.021c-.179-.054-1.436-.531-1.768-.676a11.889,11.889,0,0,1-1.157-.574,4.816,4.816,0,0,1-.854-.585c.01-.005.69-.2,1.51-.445,2.176-.639,3.383-1.009,4.173-1.277a1.872,1.872,0,0,1,.273-.08Zm6.185,1.567h0c.02.054-.785,2.469-1.078,3.231-.064.172-.089.215-.124.209-.084-.005-1.252-.182-1.962-.3-1.237-.2-3.313-.6-3.835-.725l-.119-.027.74-.183c1.59-.386,2.355-.6,3.13-.853a21.144,21.144,0,0,0,2.926-1.218,2.3,2.3,0,0,1,.318-.14Z" transform="translate(-18.985 -9.9)" fill="url(#linear-gradient-2)"/> -->
      <!-- <path id="Path_12" data-name="Path 12" d="M33.223,4.724a30.054,30.054,0,0,0-3.01,1.17,18.308,18.308,0,0,0-3.462,1.878,2.747,2.747,0,0,0-.671.725.538.538,0,0,0-.03.182l.666.682,1.585.547,3.77.73,4.312.8.045-.4c-.015,0-.025-.005-.04-.005l-.566-.1-.114-.22c-.586-1.116-1.232-2.5-1.609-3.435a18.7,18.7,0,0,1-.725-2.163c-.084-.365-.094-.386-.149-.392h0ZM33.144,5h.005c0,.005.025.156.045.333a11.979,11.979,0,0,0,.482,2.259c.184.59.184.558-.03.488-.507-.15-2.777-.574-4.421-.821-.263-.038-.487-.075-.487-.08-.02-.021,1.187-.7,1.719-.971C31.137,5.867,33,5.025,33.144,5ZM28.355,7.4l.194.07A27.661,27.661,0,0,0,33.71,8.535c.164.016.3.032.308.032a2.247,2.247,0,0,1-.313.177c-.705.381-1.48.848-2.017,1.208a2.016,2.016,0,0,1-.323.193c-.02,0-.124-.021-.233-.038l-.2-.032-.5-.526c-.874-.918-1.56-1.626-1.823-1.894Zm-.2.166.7.945c.382.521.77,1.03.854,1.143a1.756,1.756,0,0,1,.149.209c-.02.016-1.013-.193-1.54-.322s-.765-.2-1.1-.311l-.273-.1V9.061c0-.36.427-.9,1.143-1.444l.065-.048Zm5.951,1.288c.02,0,.045.048.1.193.169.4.7,1.487.825,1.7.04.07.109.075-.591-.048-1.684-.3-2.225-.392-2.225-.4a.515.515,0,0,1,.114-.081,9.715,9.715,0,0,0,1.515-1.132c.114-.1.219-.2.238-.215s.015-.016.02-.011Z" transform="translate(-21.069 -4.724)" fill="url(#linear-gradient-3)"/>
      <path id="Path_13" data-name="Path 13" d="M25.047,9.578a.573.573,0,0,0,0,.467,2.091,2.091,0,0,0,.467.6s2.211,2.329,2.479,2.662a7.81,7.81,0,0,1,1.8,5.1,8.816,8.816,0,0,1-.785,3.859c-1.033,2.437-3.214,5.125-6.577,8.109l.492-.177a15.608,15.608,0,0,1,1.763-1.132,60.66,60.66,0,0,1,8.2-3.966,96.284,96.284,0,0,1,16.646-4.819l.452-.075-.07-.118a16.6,16.6,0,0,0-1-1.519A12.206,12.206,0,0,0,45.387,15.4a24.864,24.864,0,0,0-7.655-2.775c-.6-.129-1.922-.376-3-.553-2.275-.381-3.746-.644-5.365-.945-.581-.107-1.451-.268-2.027-.4a12.114,12.114,0,0,1-1.316-.381c-.358-.15-.874-.3-.984-.757Zm1.282,1.342a1.31,1.31,0,0,1,.189.064c.189.07.432.15.72.236q.327.1.656.188c.3.08.546.156.551.156.035.038.537,1.771.7,2.436.064.252.114.467.109.467a1.1,1.1,0,0,1-.124-.209,10.95,10.95,0,0,0-2.563-3.129,2.159,2.159,0,0,1-.243-.209Zm2.444.73a1.818,1.818,0,0,1,.268.048c.844.2,2.36.515,3.328.692a1.142,1.142,0,0,1,.293.07.5.5,0,0,1-.134.091c-.164.091-.825.515-1.043.676a9.688,9.688,0,0,0-1.406,1.213c-.144.156-.268.284-.268.284s-.03-.091-.055-.2a18.314,18.314,0,0,0-.889-2.63,2.406,2.406,0,0,1-.1-.247c0,.008,0,0,0,0Zm4.3.886a2.177,2.177,0,0,1,.179.6,9.464,9.464,0,0,1,.238,2.458c-.01.225-.02.435-.03.462l-.015.054-.258-.091c-.532-.182-1.4-.456-2.136-.682a8.02,8.02,0,0,1-.765-.247,12.271,12.271,0,0,1,.879-.95,23.363,23.363,0,0,1,1.907-1.6Zm.343.054c.015-.016,2.057.365,2.986.558.691.145,1.694.37,1.754.4.03.011-.075.075-.407.236A21.12,21.12,0,0,0,34.5,15.691c-.253.182-.467.333-.472.333a3.161,3.161,0,0,1-.01-.343,8.021,8.021,0,0,0-.537-2.92.856.856,0,0,1-.064-.172Zm5.28,1.127a4.337,4.337,0,0,1-.109.708,14.044,14.044,0,0,1-1.252,3.1,3.592,3.592,0,0,1-.209.365,2.068,2.068,0,0,1-.3-.172,15.708,15.708,0,0,0-1.947-1.03c-.2-.091-.373-.166-.378-.177a29.567,29.567,0,0,1,2.409-1.723c.675-.438,1.768-1.093,1.79-1.072Zm.378.064c.045,0,.949.268,1.421.419a27.941,27.941,0,0,1,3.383,1.336l.363.177-.253.064a35.042,35.042,0,0,0-5.728,1.916c-.144.064-.273.118-.283.118a1.45,1.45,0,0,1,.1-.274,11.54,11.54,0,0,0,.959-3.574c.005-.1.02-.182.035-.182Zm-9,2.233a10.488,10.488,0,0,1,1.078.274,18.263,18.263,0,0,1,1.768.639s-.134.129-.293.279c-.651.585-1.277,1.2-2.027,1.986-.224.231-.412.419-.422.419s-.015-.032-.01-.075A13.063,13.063,0,0,0,30.1,16.3c-.016-.153-.031-.281-.026-.287Zm14.51.016a10.2,10.2,0,0,1-.527.885c-.3.462-.735,1.073-1.724,2.415-.521.708-1.108,1.508-1.3,1.776s-.363.494-.368.494a1.857,1.857,0,0,1-.139-.215,10.839,10.839,0,0,0-2.012-2.4c-.149-.134-.313-.279-.368-.322a.569.569,0,0,1-.1-.091c0-.016.844-.408,1.485-.687,1.123-.494,2.653-1.084,3.8-1.465.6-.2,1.242-.4,1.252-.392Zm.382.107a1.109,1.109,0,0,1,.283.15,17.03,17.03,0,0,1,3.323,2.694c.263.279.914,1.009.9,1.014s-.229.021-.5.043a45.633,45.633,0,0,0-7.342,1.32c-.174.043-.328.08-.338.08s.184-.209.427-.461a13.7,13.7,0,0,0,3.015-4.336c.114-.263.214-.488.224-.5h0ZM33.9,17.36c.07.016.715.344,1.2.606.447.241,1.118.628,1.152.66,0,0-.234.14-.527.3-.934.5-1.734.982-2.568,1.53-.238.156-.437.285-.442.285s-.015-.022.119-.285A11.79,11.79,0,0,0,33.842,17.5c.02-.08.04-.134.055-.134Zm-.646.129c.015.016-.154.676-.258,1.036a13.787,13.787,0,0,1-.879,2.179c-.08.15-.2.37-.263.494l-.124.215-.278-.29a3.679,3.679,0,0,0-.924-.735,1.318,1.318,0,0,1-.238-.15c0-.043.849-.875,1.5-1.476.467-.435,1.451-1.288,1.465-1.272ZM37.2,19.244l.243.172a19.055,19.055,0,0,1,1.714,1.369c.283.252.829.784.939.912l.06.07-.4.123c-2.275.682-4.034,1.288-6.085,2.1-.228.091-.422.166-.437.166s-.055.027.457-.483a23.14,23.14,0,0,0,3.338-4.143l.174-.29Zm-1.038.279c.01.011-.671,1.046-1.078,1.631-.487.7-1.351,1.868-1.947,2.63-.248.317-.462.58-.472.585s-.02-.075-.02-.2a4.8,4.8,0,0,0-.422-1.932c-.114-.247-.134-.306-.109-.333.094-.091,1.54-.982,2.454-1.513.62-.353,1.583-.879,1.6-.868ZM29.89,21.187a2.131,2.131,0,0,1,.258.14A5.453,5.453,0,0,1,31,21.95a1.52,1.52,0,0,1-.288.258c-.472.365-1.187.95-1.6,1.31-.437.376-.452.386-.4.306a10.119,10.119,0,0,0,.666-1.24,10.471,10.471,0,0,0,.417-1.122.951.951,0,0,1,.1-.274ZM31.564,22.6c.025,0,.055.043.189.258a4.063,4.063,0,0,1,.556,1.562l.01.107-.68.284c-1.217.51-2.34,1.014-3.1,1.39-.214.107-.586.3-.829.429s-.442.236-.442.231.154-.129.343-.279a20.725,20.725,0,0,0,3.736-3.719c.1-.134.2-.258.209-.263h.01Zm-.77.2a11.131,11.131,0,0,1-.934,1.138,16.785,16.785,0,0,1-3.085,2.689l-.3.2c-.035.021.01-.032.527-.639a13.776,13.776,0,0,0,.859-1.1,1.744,1.744,0,0,1,.5-.51c.729-.557,2.413-1.792,2.433-1.77Z" transform="translate(-20.001 -5.88)" fill="url(#radial-gradient)"/>
      <path id="Path_14" data-name="Path 14" d="M10.173,49.886c-.087,0-.174.009-.261.009a3.915,3.915,0,0,0-3.64,2.7,8.041,8.041,0,0,0,.007,5.15,4,4,0,0,0,3.308,2.639c.355.066.594.288,1.282,1.2l.847,1.127h1.536l-1.021-1.17A11.97,11.97,0,0,1,11.208,60.3c0-.049.216-.157.477-.247a3.726,3.726,0,0,0,2.078-2.212,5.153,5.153,0,0,0,.521-2.377c.152-3.447-1.448-5.6-4.112-5.578h0ZM11.52,58.9a3.215,3.215,0,0,1-2.54.2,3.569,3.569,0,0,1-1.76-2.148,6.885,6.885,0,0,1,.1-3.931,2.929,2.929,0,0,1,2.773-2.066c1.868,0,2.93,1.3,3.069,3.743.11,2.039-.491,3.569-1.642,4.2Zm26.53-6.07a1.6,1.6,0,0,0-1.469.88l-.261.462v-1.2H35.205v7.206h1.114v-2.3c0-2.106.023-2.352.282-2.929.357-.79.971-1.185,1.565-1l.4.132V52.832H38.05Zm-6.55-.066a2.843,2.843,0,0,0-.681.091,3.626,3.626,0,0,0-2.281,3.735,3.921,3.921,0,0,0,.833,2.83,3.134,3.134,0,0,0,3.8.616c.253-.123.529-.264.529-.264V58.638l-.529.311c-1.2.594-2.106.594-2.831-.106a3.462,3.462,0,0,1-.76-1.908h4.5v-.972c0-1.981-1.049-3.231-2.577-3.2h0Zm-1.818,3.16a3.132,3.132,0,0,1,.782-1.72,1.547,1.547,0,0,1,.97-.353,1.434,1.434,0,0,1,.941.361,3.027,3.027,0,0,1,.659,1.7H29.682v.009h0ZM2.8,54.624c-1.209-.832-1.745-1.432-1.679-2.139.188-1.957,2.316-1.686,3.495-.946l.008-1.317a4.086,4.086,0,0,0-1.586-.338,2.626,2.626,0,0,0-2.793,1.6c-.638,1.6-.073,2.813,1.968,4.161,1.146.757,1.652,1.415,1.652,2.132,0,1.481-1.571,2-3.193,1.069C.342,58.654.06,58.5.045,58.5a12.917,12.917,0,0,0-.029,1.42,6.321,6.321,0,0,0,1.245.4c1.853.42,3.539-.568,3.7-2.171.139-1.505-.34-2.3-2.156-3.528h0Zm45.113-1.877a2.99,2.99,0,0,0-.689.091,3.615,3.615,0,0,0-2.272,3.735,3.9,3.9,0,0,0,.832,2.82,3.141,3.141,0,0,0,3.808.617c.252-.123.527-.262.527-.262V58.613l-.528.313c-1.2.592-2.109.592-2.831-.107A3.417,3.417,0,0,1,46,56.911h4.488v-.972c0-1.971-1.049-3.223-2.577-3.19h0ZM46.1,55.907a3.183,3.183,0,0,1,.783-1.728,1.539,1.539,0,0,1,.969-.354,1.434,1.434,0,0,1,.942.362,3.047,3.047,0,0,1,.659,1.711H46.1v.009ZM25.664,54.64c-1.209-.83-1.743-1.432-1.679-2.139.188-1.958,2.316-1.686,3.5-.946l.008-1.317A4.066,4.066,0,0,0,25.9,49.9a2.628,2.628,0,0,0-2.794,1.6c-.637,1.6-.065,2.813,1.969,4.161,1.144.757,1.65,1.4,1.65,2.122,0,1.481-1.571,2.006-3.192,1.069-.332-.189-.614-.344-.631-.344a12.918,12.918,0,0,0-.028,1.424,6.919,6.919,0,0,0,1.237.4c1.855.421,3.541-.566,3.7-2.169.138-1.5-.34-2.287-2.15-3.521h0Zm28.8-1.827A1.6,1.6,0,0,0,53,53.694l-.261.46v-1.2H51.623v7.2h1.114v-2.3c0-2.1.022-2.352.282-2.928.357-.789.971-1.185,1.565-1l.4.132V52.813h-.515ZM16.8,54.6V50.01H15.674V60.175H20.4v-1.2H16.8Zm25.992,1.43-.926,2.739-.891-2.754-.9-3.052H38.919c.746,2.4,1.556,4.844,2.374,7.213.354.009.71,0,1.064,0l1.251-3.569,1.274-3.643h-1.1s-.486,1.447-.992,3.067h0Zm-23.4-8.791a.579.579,0,0,0,.457-.207.737.737,0,0,0,.188-.509.724.724,0,0,0-.188-.509.586.586,0,0,0-.448-.2.579.579,0,0,0-.457.206.737.737,0,0,0-.181.509.713.713,0,0,0,.181.509.573.573,0,0,0,.448.2h0Zm-.4-1.17a.542.542,0,0,1,.805,0,.66.66,0,0,1,.166.453.68.68,0,0,1-.166.46.51.51,0,0,1-.4.181.5.5,0,0,1-.4-.181.68.68,0,0,1-.166-.46.655.655,0,0,1,.159-.453Zm.268.519h.073c.052,0,.1.057.145.164l.087.223H19.7l-.108-.247c-.044-.1-.087-.157-.138-.173a.256.256,0,0,0,.151-.091.246.246,0,0,0,.05-.165.225.225,0,0,0-.065-.174.333.333,0,0,0-.233-.073h-.231v.922h.116v-.387h.014Zm0-.428h.1a.236.236,0,0,1,.153.041.14.14,0,0,1,.035.115c0,.107-.058.157-.166.157h-.124V46.16h0ZM.69,46.506c0-.321-.008-.559-.015-.7H.682a2.325,2.325,0,0,0,.094.372l1.079,2.739h.181l1.079-2.764a2.746,2.746,0,0,0,.094-.346h.008c-.022.274-.029.511-.029.7v2.417h.369V45.332H3.094l-.992,2.5c-.037.1-.087.247-.152.443H1.935a3.133,3.133,0,0,0-.144-.426l-.97-2.525H.329v3.594H.684v-2.41H.69Zm3.677.007h.319v2.238H4.367Zm.159-.821a.212.212,0,0,0,.166-.075.279.279,0,0,0,.073-.189.253.253,0,0,0-.072-.189.219.219,0,0,0-.168-.076.214.214,0,0,0-.166.076.283.283,0,0,0-.073.189.242.242,0,0,0,.073.189.225.225,0,0,0,.166.075ZM6.959,48.8v-.394a.85.85,0,0,1-.556.222.682.682,0,0,1-.559-.264,1.112,1.112,0,0,1-.21-.707,1.156,1.156,0,0,1,.224-.747.691.691,0,0,1,.565-.272.853.853,0,0,1,.536.2v-.42a1,1,0,0,0-.521-.132,1.052,1.052,0,0,0-.855.387,1.568,1.568,0,0,0-.317,1.019,1.417,1.417,0,0,0,.289.922.971.971,0,0,0,.782.37A1.159,1.159,0,0,0,6.96,48.8Zm.912-1.193a1.28,1.28,0,0,1,.166-.7.441.441,0,0,1,.369-.223.388.388,0,0,1,.274.083v-.428a.562.562,0,0,0-.564.109.885.885,0,0,0-.245.434H7.863v-.525H7.5v2.566h.362V47.607Zm2.078,1.368a1.007,1.007,0,0,0,.818-.372,1.5,1.5,0,0,0,.3-.987,1.524,1.524,0,0,0-.282-.979A.941.941,0,0,0,10,46.283a1.058,1.058,0,0,0-.818.338,1.513,1.513,0,0,0-.332,1.036,1.452,1.452,0,0,0,.289.946.992.992,0,0,0,.81.371h0Zm-.515-2.09a.673.673,0,0,1,.543-.247.638.638,0,0,1,.536.247,1.535,1.535,0,0,1,.014,1.472.627.627,0,0,1-.543.264.669.669,0,0,1-.55-.264,1.135,1.135,0,0,1-.2-.724,1.1,1.1,0,0,1,.2-.749Zm3.221,1.867a.716.716,0,0,0,.211-.526.69.69,0,0,0-.166-.469,1.26,1.26,0,0,0-.421-.279,1.284,1.284,0,0,1-.34-.214A.378.378,0,0,1,11.845,47a.328.328,0,0,1,.108-.255.41.41,0,0,1,.291-.1.785.785,0,0,1,.515.182v-.411a.957.957,0,0,0-.486-.123.8.8,0,0,0-.573.213.7.7,0,0,0-.224.534.709.709,0,0,0,.144.46,1.164,1.164,0,0,0,.4.288,1.49,1.49,0,0,1,.369.239.335.335,0,0,1,.094.245c0,.239-.144.363-.427.363a.834.834,0,0,1-.587-.245v.443a.968.968,0,0,0,.556.157.911.911,0,0,0,.623-.239h0Zm1.723-2.467a1.058,1.058,0,0,0-.818.338,1.521,1.521,0,0,0-.332,1.036,1.457,1.457,0,0,0,.289.946,1.079,1.079,0,0,0,1.629,0,1.5,1.5,0,0,0,.3-.987,1.533,1.533,0,0,0-.282-.979.961.961,0,0,0-.789-.354h0Zm.7,1.349a1.213,1.213,0,0,1-.181.724.628.628,0,0,1-.543.264.669.669,0,0,1-.55-.264,1.135,1.135,0,0,1-.2-.724,1.149,1.149,0,0,1,.218-.757.673.673,0,0,1,.543-.247.649.649,0,0,1,.535.247,1.378,1.378,0,0,1,.181.757Zm.978,1.284h.361V46.695h.529V46.35H16.42v-.4c0-.36.123-.541.377-.541a.453.453,0,0,1,.237.066V45.1a.59.59,0,0,0-.261-.041.63.63,0,0,0-.485.206.929.929,0,0,0-.232.666v.421h-.382V46.7h.382v2.213Zm1.483-.7c0,.5.2.757.594.757a.59.59,0,0,0,.34-.085v-.353a.348.348,0,0,1-.232.083.289.289,0,0,1-.26-.108.665.665,0,0,1-.081-.37V46.694h.573v-.345H17.9v-.756c-.125.049-.247.091-.362.132v.624h-.39v.345h.39v1.521Zm38.852,4.729a.583.583,0,0,0-.448-.2.575.575,0,0,0-.457.208.743.743,0,0,0-.181.509.722.722,0,0,0,.18.509.6.6,0,0,0,.457.2.585.585,0,0,0,.457-.206.745.745,0,0,0,.187-.509.761.761,0,0,0-.2-.511Zm-.058.972a.533.533,0,0,1-.8,0,.687.687,0,0,1-.166-.462A.654.654,0,0,1,55.532,53a.54.54,0,0,1,.8,0,.667.667,0,0,1,.166.453.635.635,0,0,1-.162.464Zm-.325-.42a.3.3,0,0,0,.152-.091.247.247,0,0,0,.05-.166.224.224,0,0,0-.065-.173.334.334,0,0,0-.23-.069h-.231v.921H55.8v-.387h.072c.05,0,.1.057.144.164l.086.222h.138l-.108-.247c-.037-.108-.081-.157-.124-.173h0Zm-.08-.083H55.8V53.1h.1a.231.231,0,0,1,.152.041c.029.024.036.057.036.115,0,.107-.058.156-.166.156Zm-20.2-7.171h.1v-.922H36.1v-.115h-.637v.115h.268v.922Zm.614-.692a1.885,1.885,0,0,0-.006-.2.63.63,0,0,0,.028.107l.311.79h.05l.312-.8c.008-.024.015-.057.029-.1-.007.082-.007.148-.007.2v.7h.108V45.206h-.13l-.282.715c-.007.026-.029.075-.043.132h0a.817.817,0,0,0-.042-.123l-.282-.724H36.24v1.038h.1v-.692h.006Z" transform="translate(-26.494 -11.572)" fill="#231f1f"/> -->
    </g>
  </g>
</svg>
