<svg xmlns="http://www.w3.org/2000/svg" xmlns:xlink="http://www.w3.org/1999/xlink" width="230" height="69" viewBox="0 0 230 69"><defs><linearGradient id="a" y1="0.5" x2="1" y2="0.5" gradientUnits="objectBoundingBox"><stop offset="0" stop-color="#af6500"/><stop offset="1" stop-color="#f98914"/></linearGradient></defs><g transform="translate(0 0)"><rect width="230" height="69" rx="10" transform="translate(0 0)" fill="url(#a)"/><path d="M10,0H84.4a0,0,0,0,1,0,0V69a0,0,0,0,1,0,0H10A10,10,0,0,1,0,59V10A10,10,0,0,1,10,0Z" transform="translate(0 0)" fill="#fff"/><path d="M0,0,15.346,34.5,0,69Z" transform="translate(83.945 0)" fill="#fff"/><g transform="translate(14.277 29.846)"><path d="M8.2,3.728H5.5A.433.433,0,0,1,5.125,3.3V.523A.431.431,0,0,0,4.69.1H3.748a.431.431,0,0,0-.435.427v2.8a.44.44,0,0,1-.4.4H2.2a.436.436,0,0,1-.381-.4V.523A.431.431,0,0,0,1.388.1H.446A.431.431,0,0,0,.011.523v8.1a.431.431,0,0,0,.435.427H8.2a.431.431,0,0,0,.435-.427V4.155A.433.433,0,0,0,8.2,3.728ZM6.957,6.789a.431.431,0,0,1-.435.427H5.579a.431.431,0,0,1-.435-.427V5.916a.431.431,0,0,1,.435-.427h.943a.431.431,0,0,1,.435.427Z" transform="translate(-0.011 0.006)" fill="#f60"/><g transform="translate(10.516 0)"><path d="M4.383,9.048,3.932,6.984a7.556,7.556,0,0,0-.213-.819,1.777,1.777,0,0,0-.322-.6,1.3,1.3,0,0,0-.541-.371,2.552,2.552,0,0,0-.877-.126H1.031V9.048H0V.107H2.257A5.15,5.15,0,0,1,3.343.222,2.762,2.762,0,0,1,4.272.6a1.98,1.98,0,0,1,.648.7,2.132,2.132,0,0,1,.245,1.067,2.882,2.882,0,0,1-.117.857,1.776,1.776,0,0,1-.348.638,1.992,1.992,0,0,1-.577.452,3.487,3.487,0,0,1-.808.3v.025a2.485,2.485,0,0,1,.721.287,1.486,1.486,0,0,1,.433.415,1.975,1.975,0,0,1,.249.553c.059.208.115.446.17.712l.526,2.45Zm-.251-6.58a1.583,1.583,0,0,0-.2-.863A1.206,1.206,0,0,0,3.4,1.153,2.216,2.216,0,0,0,2.658.978C2.379.959,2.093.949,1.8.949H1.033V4.228H1.6a6.3,6.3,0,0,0,.919-.066,2.5,2.5,0,0,0,.812-.256,1.527,1.527,0,0,0,.581-.535A1.681,1.681,0,0,0,4.132,2.468Z" transform="translate(0 0.011)" fill="#f60"/><path d="M8.177,8.4V7.567H8.151A1.421,1.421,0,0,1,7.8,8a2.178,2.178,0,0,1-.48.306,2.659,2.659,0,0,1-1.1.245A1.909,1.909,0,0,1,5.5,8.421a1.4,1.4,0,0,1-.528-.354,1.536,1.536,0,0,1-.326-.555,2.208,2.208,0,0,1-.113-.725,1.417,1.417,0,0,1,.142-.644,1.7,1.7,0,0,1,.377-.5A2.367,2.367,0,0,1,5.6,5.271a3.635,3.635,0,0,1,.642-.251,4.422,4.422,0,0,1,.668-.142,4.788,4.788,0,0,1,.624-.045c.107,0,.211,0,.31,0a1.758,1.758,0,0,0,.31-.036V4.658c0-.231,0-.462-.01-.694a1.847,1.847,0,0,0-.117-.623A.959.959,0,0,0,7.683,2.9a1.239,1.239,0,0,0-.711-.17,2.261,2.261,0,0,0-.5.051,1.041,1.041,0,0,0-.383.166.869.869,0,0,0-.261.308,1.446,1.446,0,0,0-.138.474h-1a1.586,1.586,0,0,1,.2-.808A1.657,1.657,0,0,1,5.4,2.375a2.241,2.241,0,0,1,.719-.306,3.464,3.464,0,0,1,.822-.1,2.264,2.264,0,0,1,1.589.484,2.009,2.009,0,0,1,.52,1.534V8.4ZM7.622,5.55a3.525,3.525,0,0,0-.66.067,2.531,2.531,0,0,0-.668.223,1.588,1.588,0,0,0-.52.409.954.954,0,0,0-.209.628.928.928,0,0,0,.241.658.84.84,0,0,0,.642.257,1.377,1.377,0,0,0,.458-.075,1.648,1.648,0,0,0,.409-.2,1.763,1.763,0,0,0,.346-.31,1.62,1.62,0,0,0,.251-.393c.051-.117.093-.223.126-.318A1.9,1.9,0,0,0,8.114,6.2a2.088,2.088,0,0,0,.032-.3c0-.1.006-.221.006-.354h-.53Z" transform="translate(1.988 0.66)" fill="#f60"/><path d="M13.886,6.032a5.382,5.382,0,0,1-.126,1.178,2.959,2.959,0,0,1-.423,1.013,2.2,2.2,0,0,1-.777.708,2.451,2.451,0,0,1-1.2.266,2.735,2.735,0,0,1-1.114-.2,1.835,1.835,0,0,1-.725-.563,2.282,2.282,0,0,1-.393-.852,4.534,4.534,0,0,1-.119-1.067V.107h.9V3.9h.032a1.5,1.5,0,0,1,.251-.493,1.7,1.7,0,0,1,.393-.365,1.824,1.824,0,0,1,.5-.227,2,2,0,0,1,.561-.08,2.043,2.043,0,0,1,.792.142,1.8,1.8,0,0,1,.589.39,2.22,2.22,0,0,1,.415.572,3.405,3.405,0,0,1,.265.693,4.987,4.987,0,0,1,.138.751A6.019,6.019,0,0,1,13.886,6.032Zm-1.031-.023c0-.144-.008-.3-.022-.483s-.041-.363-.077-.549a3.48,3.48,0,0,0-.152-.549,1.9,1.9,0,0,0-.251-.477,1.229,1.229,0,0,0-.373-.338.975.975,0,0,0-.51-.13,1.061,1.061,0,0,0-.547.14,1.444,1.444,0,0,0-.413.367,2.134,2.134,0,0,0-.29.518,3.969,3.969,0,0,0-.184.594,5.009,5.009,0,0,0-.1.594,5.174,5.174,0,0,0-.03.518,5.83,5.83,0,0,0,.051.745,2.545,2.545,0,0,0,.2.728,1.435,1.435,0,0,0,.433.553,1.18,1.18,0,0,0,.745.217,1.249,1.249,0,0,0,.545-.114,1.27,1.27,0,0,0,.4-.307,1.679,1.679,0,0,0,.277-.446,3.2,3.2,0,0,0,.174-.524,4,4,0,0,0,.091-.543Q12.854,6.25,12.854,6.008Z" transform="translate(3.965 0.011)" fill="#f60"/><path d="M18.3,6.032a5.382,5.382,0,0,1-.126,1.178,2.959,2.959,0,0,1-.423,1.013,2.2,2.2,0,0,1-.777.708,2.451,2.451,0,0,1-1.2.266,2.735,2.735,0,0,1-1.114-.2,1.835,1.835,0,0,1-.725-.563,2.282,2.282,0,0,1-.393-.852,4.533,4.533,0,0,1-.119-1.067V.107h.9V3.9h.032a1.5,1.5,0,0,1,.251-.493A1.7,1.7,0,0,1,15,3.047a1.824,1.824,0,0,1,.5-.227,2,2,0,0,1,.561-.08,2.043,2.043,0,0,1,.792.142,1.8,1.8,0,0,1,.589.39,2.22,2.22,0,0,1,.415.572,3.405,3.405,0,0,1,.265.693,4.987,4.987,0,0,1,.138.751A6.019,6.019,0,0,1,18.3,6.032Zm-1.031-.023c0-.144-.008-.3-.022-.483s-.041-.363-.077-.549a3.48,3.48,0,0,0-.152-.549,1.9,1.9,0,0,0-.251-.477,1.229,1.229,0,0,0-.373-.338.975.975,0,0,0-.51-.13,1.061,1.061,0,0,0-.547.14,1.444,1.444,0,0,0-.413.367,2.134,2.134,0,0,0-.29.518,3.969,3.969,0,0,0-.184.594,5.009,5.009,0,0,0-.1.594,5.175,5.175,0,0,0-.03.518,5.83,5.83,0,0,0,.051.745,2.545,2.545,0,0,0,.2.728,1.435,1.435,0,0,0,.433.553,1.18,1.18,0,0,0,.745.217,1.249,1.249,0,0,0,.545-.114,1.27,1.27,0,0,0,.4-.307,1.679,1.679,0,0,0,.277-.446,3.2,3.2,0,0,0,.174-.524,4,4,0,0,0,.091-.543Q17.269,6.25,17.269,6.008Z" transform="translate(5.907 0.011)" fill="#f60"/><path d="M17.918,1.271V.107H19.1V1.271Zm.142,7.777V2.879h.9V9.048Z" transform="translate(7.881 0.011)" fill="#f60"/><path d="M21.687,3.388V7.179a1.1,1.1,0,0,0,.245.765,1,1,0,0,0,.783.271,1.46,1.46,0,0,0,.316-.029,2.507,2.507,0,0,0,.3-.091v.79c-.132.021-.265.039-.4.05a3.84,3.84,0,0,1-.4.019,3.212,3.212,0,0,1-.771-.081,1.3,1.3,0,0,1-.545-.269,1.1,1.1,0,0,1-.326-.49,2.293,2.293,0,0,1-.107-.752V3.388H19.761v-.74h1.026V1.214l.9-.556V2.648h1.7v.74Z" transform="translate(8.693 0.253)" fill="#f60"/><path d="M30.633,9.065V1.2h-.026L27.925,9.064H26.908L24.232,1.2H24.2V9.064H23.28V.124h1.547l2.585,7.606h.026L30.028.124h1.527V9.065Z" transform="translate(10.245 0.019)" fill="#b8b8b8"/><path d="M33.571,9.112a3.163,3.163,0,0,1-1.128-.186,2.76,2.76,0,0,1-.858-.512,3.043,3.043,0,0,1-.618-.763,4.552,4.552,0,0,1-.405-.933,6.073,6.073,0,0,1-.223-1.032,8.381,8.381,0,0,1-.067-1.06,9.924,9.924,0,0,1,.061-1.11,6.672,6.672,0,0,1,.206-1.067,4.575,4.575,0,0,1,.389-.957,2.845,2.845,0,0,1,.618-.768,2.786,2.786,0,0,1,.885-.512,3.5,3.5,0,0,1,1.2-.186A3.237,3.237,0,0,1,34.79.217a2.659,2.659,0,0,1,.858.526,2.832,2.832,0,0,1,.593.782,4.678,4.678,0,0,1,.371.959,6.528,6.528,0,0,1,.19,1.06c.036.367.055.728.055,1.083,0,.173-.006.371-.02.592s-.036.452-.067.693-.077.483-.134.728a4.3,4.3,0,0,1-.223.691,3.026,3.026,0,0,1-.326.588,1.509,1.509,0,0,1-.441.417l.026.025,1.875-.114v.867Zm2.166-4.5c0-.233-.008-.487-.022-.763a6.957,6.957,0,0,0-.1-.829,4.966,4.966,0,0,0-.215-.8,2.519,2.519,0,0,0-.377-.691,1.805,1.805,0,0,0-.577-.481,1.735,1.735,0,0,0-.82-.18,1.95,1.95,0,0,0-.862.175,1.837,1.837,0,0,0-.607.468,2.443,2.443,0,0,0-.4.677,4.64,4.64,0,0,0-.233.8,6.753,6.753,0,0,0-.107.838c-.018.281-.026.543-.026.788s.01.483.032.753a6.414,6.414,0,0,0,.117.811,4.609,4.609,0,0,0,.235.784,2.514,2.514,0,0,0,.391.671,1.821,1.821,0,0,0,.581.466,1.753,1.753,0,0,0,.806.175,2.137,2.137,0,0,0,.887-.165,1.77,1.77,0,0,0,.607-.442,2.125,2.125,0,0,0,.381-.642,4,4,0,0,0,.207-.772,6.4,6.4,0,0,0,.083-.829C35.731,5.138,35.737,4.868,35.737,4.612Z" transform="translate(13.321 -0.025)" fill="#b8b8b8"/></g></g></g></svg>