<svg xmlns="http://www.w3.org/2000/svg" xmlns:xlink="http://www.w3.org/1999/xlink" width="230" height="69" viewBox="0 0 230 69"><defs><linearGradient id="a" x1="0.408" y1="0.5" x2="1" y2="0.5" gradientUnits="objectBoundingBox"><stop offset="0" stop-color="#833c3e"/><stop offset="1" stop-color="#ff6b6b"/></linearGradient></defs><g transform="translate(0 0)"><rect width="230" height="69" rx="10" transform="translate(0 0)" fill="url(#a)"/><path d="M10,0H84.4a0,0,0,0,1,0,0V69a0,0,0,0,1,0,0H10A10,10,0,0,1,0,59V10A10,10,0,0,1,10,0Z" transform="translate(0 0)" fill="#fff"/><path d="M0,0,15.346,34.5,0,69Z" transform="translate(83.945 0)" fill="#fff"/><g transform="translate(13.218 24.412)"><path d="M54.6,35.293a.925.925,0,0,1-.919.919,1.657,1.657,0,0,0-1.04.33,2.614,2.614,0,0,0-.8.832,5.328,5.328,0,0,0-.711,1.456v3.294a.944.944,0,0,1-.953.919.926.926,0,0,1-.919-.919V35.293a.91.91,0,0,1,.919-.9.93.93,0,0,1,.953.9v.121a2.229,2.229,0,0,1,.364-.347,3.8,3.8,0,0,1,2.184-.676A.9.9,0,0,1,54.6,35.293Zm-.51,3.416a4.292,4.292,0,0,1,4.23-4.334A4.148,4.148,0,0,1,62.5,38.4v.087a.477.477,0,0,1-.017.156.837.837,0,0,1-.9.694H56.066a2.273,2.273,0,0,0,.59,1.144,2.682,2.682,0,0,0,1.664.78,2.836,2.836,0,0,0,1.8-.433.983.983,0,0,1,1.3-.054.792.792,0,0,1,0,1.127,4.383,4.383,0,0,1-3.1,1.144,4.3,4.3,0,0,1-4.23-4.334Zm1.89-.85h4.906a2.834,2.834,0,0,0-2.566-1.838,2.424,2.424,0,0,0-2.34,1.838Zm15.353,4.248a.944.944,0,0,1-.936.936.933.933,0,0,1-.919-.746,4.226,4.226,0,0,1-2.358.746,4.336,4.336,0,0,1,0-8.669,4.1,4.1,0,0,1,2.323.728V31.843a.945.945,0,0,1,1.89,0V42.107Zm-4.213-5.843a2.244,2.244,0,0,0-1.63.711,2.513,2.513,0,0,0,0,3.467,2.244,2.244,0,0,0,1.63.711,2.215,2.215,0,0,0,1.63-.711,2.513,2.513,0,0,0,0-3.467A2.216,2.216,0,0,0,67.118,36.264Zm7.512-4.057a.936.936,0,0,1-.936.953.947.947,0,0,1-.936-.953v-.364a.932.932,0,0,1,.936-.936.922.922,0,0,1,.936.936Zm0,3.139v6.762a.922.922,0,0,1-.936.936.932.932,0,0,1-.936-.936V35.346a.926.926,0,0,1,.936-.954.916.916,0,0,1,.936.954Zm1.191,5.216a.9.9,0,0,1,1.3-.139,3.182,3.182,0,0,0,1.907.763,2.309,2.309,0,0,0,1.179-.329.713.713,0,0,0,.312-.52.26.26,0,0,0-.052-.173c-.017-.052-.087-.121-.225-.208a4.008,4.008,0,0,0-1.387-.486h-.017a6.586,6.586,0,0,1-1.508-.451,2.88,2.88,0,0,1-1.2-1.005,2.1,2.1,0,0,1-.295-1.092,2.435,2.435,0,0,1,1.023-1.907,3.731,3.731,0,0,1,2.133-.641,4.459,4.459,0,0,1,2.6.953.958.958,0,0,1,.277,1.283.916.916,0,0,1-1.283.241,2.971,2.971,0,0,0-1.6-.642,1.766,1.766,0,0,0-1.04.312.528.528,0,0,0-.277.4.187.187,0,0,0,.035.139.468.468,0,0,0,.191.173,3.537,3.537,0,0,0,1.266.416l.017.017H79.2a6.234,6.234,0,0,1,1.612.5,2.686,2.686,0,0,1,1.231,1.023,2.246,2.246,0,0,1,.329,1.144,2.509,2.509,0,0,1-1.092,2.012,3.945,3.945,0,0,1-2.254.694,5.036,5.036,0,0,1-3.086-1.2.925.925,0,0,1-.122-1.283Z" transform="translate(-20.99 -28.468)" fill="#636466"/><path d="M44.03,44.016c-1.218.635-7.527,3.229-8.87,3.929a3,3,0,0,1-3.151.186c-1.061-.507-7.775-3.219-8.985-3.8-.6-.289-.922-.533-.922-.763V41.264s8.741-1.9,10.152-2.409a3.584,3.584,0,0,1,3.1-.085c1.2.439,8.382,1.736,9.568,2.17v2.274c0,.228-.274.478-.894.8Z" transform="translate(-22.101 -28.544)" fill="#a41e11"/><path d="M44.03,41.78c-1.218.635-7.527,3.229-8.87,3.929a3,3,0,0,1-3.151.186c-1.061-.507-7.775-3.22-8.985-3.8s-1.235-.976-.047-1.441l9.277-3.591a3.584,3.584,0,0,1,3.1-.085c1.2.439,7.473,2.936,8.659,3.371s1.233.793.013,1.428Z" transform="translate(-22.101 -28.615)" fill="#d82c20"/><path d="M44.03,40.4c-1.218.635-7.527,3.229-8.87,3.93a3,3,0,0,1-3.151.186c-1.061-.507-7.775-3.219-8.985-3.8-.6-.289-.922-.533-.922-.763V37.647s8.741-1.9,10.152-2.409a3.584,3.584,0,0,1,3.1-.085c1.2.439,8.382,1.735,9.568,2.17V39.6c0,.228-.274.478-.894.8Z" transform="translate(-22.101 -28.842)" fill="#a41e11"/><path d="M44.03,38.163c-1.218.635-7.527,3.229-8.87,3.93a3,3,0,0,1-3.151.186c-1.061-.507-7.775-3.219-8.985-3.8s-1.235-.976-.047-1.441l9.277-3.591a3.584,3.584,0,0,1,3.1-.085c1.2.439,7.473,2.936,8.659,3.371s1.233.793.013,1.428Z" transform="translate(-22.101 -28.997)" fill="#d82c20"/><path d="M44.03,36.647c-1.218.635-7.527,3.229-8.87,3.931a3,3,0,0,1-3.151.186c-1.061-.507-7.775-3.219-8.985-3.8-.6-.289-.922-.533-.922-.763V33.9s8.741-1.9,10.152-2.409a3.584,3.584,0,0,1,3.1-.085c1.2.439,8.382,1.735,9.568,2.17v2.274c0,.228-.274.478-.894.8Z" transform="translate(-22.101 -29.228)" fill="#a41e11"/><path d="M44.03,34.411c-1.218.635-7.527,3.229-8.87,3.93a3,3,0,0,1-3.151.186c-1.061-.507-7.775-3.219-8.985-3.8s-1.235-.976-.047-1.441L32.254,29.7a3.584,3.584,0,0,1,3.1-.085c1.2.439,7.473,2.936,8.659,3.371s1.233.793.013,1.428Z" transform="translate(-22.101 -29.299)" fill="#d82c20"/><g transform="translate(3.92 1.209)"><path d="M33.054,32.225l-2.283-.205,1.7-.614-.51-.943,1.6.624,1.5-.492-.407.975,1.533.574-1.978.205-.443,1.065ZM29.96,35.78l5.289-.812-1.6,2.342Z" transform="translate(-25.707 -30.462)" fill="#fff"/><ellipse cx="2.827" cy="1.096" rx="2.827" ry="1.096" transform="translate(0 2.273)" fill="#fff"/></g><path d="M41.327,33.6,38.2,34.83V32.357Z" transform="translate(-21.45 -29.105)" fill="#7a0c00"/><path d="M38.331,32.358v2.473l-.339.134-3.126-1.234Z" transform="translate(-21.585 -29.104)" fill="#ad2115"/></g></g></svg>