<svg xmlns="http://www.w3.org/2000/svg" xmlns:xlink="http://www.w3.org/1999/xlink" width="1546.362" height="1143.519" viewBox="0 0 1546.362 1143.519"><defs><linearGradient id="a" x1="1.221" y1="0.5" x2="0.221" y2="0.5" gradientUnits="objectBoundingBox"><stop offset="0" stop-color="#42e8e0"/><stop offset="0.102" stop-color="#3cc9cd"/><stop offset="0.344" stop-color="#2f87a5"/><stop offset="0.564" stop-color="#255285"/><stop offset="0.753" stop-color="#1e2c6e"/><stop offset="0.905" stop-color="#191560"/><stop offset="1" stop-color="#180d5b"/></linearGradient><linearGradient id="b" x1="1" y1="0.5" x2="0" y2="0.5" gradientUnits="objectBoundingBox"><stop offset="0" stop-color="#2b237c"/><stop offset="1" stop-color="#180d5b"/></linearGradient><linearGradient id="c" x1="1" y1="0.5" x2="0" y2="0.5" xlink:href="#a"/><linearGradient id="e" x1="0.864" y1="0.839" x2="0.027" y2="-0.924" xlink:href="#a"/><linearGradient id="k" x1="-0.221" y1="0.5" x2="0.779" y2="0.5" xlink:href="#a"/><linearGradient id="l" x1="0" y1="0.5" x2="1" y2="0.5" xlink:href="#b"/><linearGradient id="m" x1="0" y1="0.5" x2="1" y2="0.5" xlink:href="#a"/><linearGradient id="o" x1="0.136" y1="0.839" x2="0.973" y2="-0.924" xlink:href="#a"/></defs><g transform="translate(-397.79 -781.05)"><g transform="translate(713.379 781.05)" opacity="0.101"><g transform="translate(0 0)"><path d="M302.4,241.242A19.592,19.592,0,0,0,312,239.035l112.2-64.781c2.51-1.449,3.893-3.462,3.893-5.669,0-2.653-1.992-5.324-5.464-7.329L313.579,98.292c-6.525-3.768-16.436-4.174-22.093-.907l-112.2,64.781c-2.51,1.449-3.893,3.462-3.893,5.669,0,2.653,1.992,5.325,5.464,7.329l109.056,62.964A25.678,25.678,0,0,0,302.4,241.242Zm-1.3-145.65a25.222,25.222,0,0,1,12.276,3.064L422.425,161.62c3.338,1.927,5.253,4.466,5.253,6.965,0,2.051-1.307,3.935-3.681,5.305l-112.2,64.781c-5.545,3.2-15.266,2.792-21.675-.907L181.064,174.8c-3.338-1.928-5.253-4.466-5.253-6.965,0-2.051,1.308-3.935,3.682-5.306l112.2-64.78A19.173,19.173,0,0,1,301.093,95.592Z" transform="translate(-175.39 -95.177)" fill="#6ee8fc"/><g transform="translate(151.715 10.114)"><path d="M277.606,108.343a2.414,2.414,0,1,0,2.414-2.415A2.414,2.414,0,0,0,277.606,108.343Z" transform="translate(-277.606 -105.928)" fill="#6ee8fc"/></g><g transform="translate(237.102 59.512)"><ellipse cx="2.414" cy="2.414" rx="2.414" ry="2.414" transform="translate(0)" fill="#6ee8fc"/></g></g><g transform="translate(0 129.405)"><path d="M302.4,378.787A19.591,19.591,0,0,0,312,376.581l112.2-64.781c2.51-1.449,3.893-3.463,3.893-5.669,0-2.653-1.992-5.324-5.464-7.329L313.579,235.838c-6.525-3.767-16.436-4.174-22.093-.907l-112.2,64.78c-2.51,1.45-3.892,3.462-3.893,5.669,0,2.653,1.991,5.325,5.464,7.33l109.056,62.963A25.658,25.658,0,0,0,302.4,378.787Zm-1.3-145.649a25.222,25.222,0,0,1,12.276,3.064l109.056,62.963c3.338,1.928,5.253,4.466,5.253,6.966,0,2.051-1.307,3.934-3.681,5.305l-112.2,64.781c-5.545,3.2-15.265,2.793-21.675-.908L181.064,312.346c-3.338-1.928-5.253-4.467-5.253-6.966,0-2.051,1.308-3.934,3.682-5.305l112.2-64.78A19.173,19.173,0,0,1,301.093,233.138Z" transform="translate(-175.39 -232.724)" fill="#6ee8fc"/><g transform="translate(237.102 59.51)"><path d="M186.846,298.393a2.415,2.415,0,1,0,2.415-2.415A2.415,2.415,0,0,0,186.846,298.393Z" transform="translate(-186.846 -295.978)" fill="#6ee8fc"/></g><g transform="translate(51.762 105.453)"><ellipse cx="2.414" cy="2.414" rx="2.414" ry="2.414" transform="translate(0)" fill="#6ee8fc"/></g><g transform="translate(36.063 96.202)"><path d="M400.533,337.392a2.414,2.414,0,1,0,2.414-2.414A2.414,2.414,0,0,0,400.533,337.392Z" transform="translate(-400.533 -334.978)" fill="#6ee8fc"/></g><g transform="translate(20.365 87.091)"><path d="M417.219,327.708a2.414,2.414,0,1,0,2.414-2.414A2.414,2.414,0,0,0,417.219,327.708Z" transform="translate(-417.219 -325.294)" fill="#6ee8fc"/></g></g><g transform="translate(20.743 13.883)"><g transform="translate(0 63.653)"><path d="M315.047,359.068,395.015,312.9c6.076-3.508,5.314-9.637-1.7-13.688l-76.562-44.2c-7.017-4.051-17.63-4.49-23.707-.983L213.077,300.2c-6.077,3.508-5.315,9.636,1.7,13.687l76.562,44.2C298.357,362.136,308.97,362.576,315.047,359.068Z" transform="translate(-198.747 -181.975)" fill="rgba(0,0,0,0.2)"/><path d="M198.123,256.746V240.212h42.652L291.2,211.1c6.731-3.886,18.486-3.4,26.257,1.089L366,240.212h42.684v17.471h-.035c.192,2.63-1.275,5.167-4.508,7.034l-88.571,51.136c-6.731,3.886-18.486,3.4-26.257-1.089l-84.8-48.957C200.034,263.22,197.871,259.867,198.123,256.746Z" transform="translate(-198.088 -179.419)" fill="#312a91"/><path d="M198.123,256.746V240.212h42.652L291.2,211.1c6.731-3.886,18.486-3.4,26.257,1.089L366,240.212h42.684v17.471h-.035c.192,2.63-1.275,5.167-4.508,7.034l-88.571,51.136c-6.731,3.886-18.486,3.4-26.257-1.089l-84.8-48.957C200.034,263.22,197.871,259.867,198.123,256.746Z" transform="translate(-198.088 -179.419)" opacity="0.5" fill="url(#a)"/><path d="M403.117,211.1a23.774,23.774,0,0,1,12.192-2.6V318.458a30.281,30.281,0,0,1-14.08-3.692l-84.8-48.957c-4.483-2.588-6.646-5.941-6.394-9.062V240.213h42.652Z" transform="translate(-310.003 -179.419)" fill="url(#b)"/><path d="M315.586,296.556l88.571-51.136c6.73-3.886,5.886-10.674-1.885-15.16l-84.8-48.957c-7.771-4.487-19.527-4.974-26.257-1.089L202.646,231.35c-6.73,3.886-5.886,10.673,1.885,15.159l84.8,48.958C297.1,299.954,308.856,300.441,315.586,296.556Z" transform="translate(-198.103 -177.591)" fill="#312a91"/><path d="M315.586,296.556l88.571-51.136c6.73-3.886,5.886-10.674-1.885-15.16l-84.8-48.957c-7.771-4.487-19.527-4.974-26.257-1.089L202.646,231.35c-6.73,3.886-5.886,10.673,1.885,15.159l84.8,48.958C297.1,299.954,308.856,300.441,315.586,296.556Z" transform="translate(-198.103 -177.591)" opacity="0.5" fill="url(#c)"/><path d="M209.5,296.557l88.571-51.136c6.73-3.887,8.338-9.593-1.885-15.16l-84.8-48.957a30.033,30.033,0,0,0-13.284-3.668,30.82,30.82,0,0,1,16.258,3.668l84.8,48.957c7.771,4.487,8.615,11.274,1.885,15.16l-88.571,51.136c-3.421,1.975-8.139,2.814-12.973,2.579A22.3,22.3,0,0,0,209.5,296.557Z" transform="translate(-94.99 -177.592)" opacity="0.5" fill="url(#c)"/><path d="M204.517,258.125l84.8,48.958c7.771,4.486,19.527,4.973,26.257,1.088l88.571-51.136c3.234-1.868,4.7-4.4,4.508-7.034h.035v3.62h-.035c.192,2.63-1.275,5.167-4.508,7.034l-88.571,51.136c-6.731,3.887-18.486,3.4-26.257-1.088l-84.8-48.958c-4.483-2.588-6.646-5.94-6.394-9.061v-3.62C197.871,252.184,200.034,255.537,204.517,258.125Z" transform="translate(-198.088 -181.821)" opacity="0.5" fill="url(#e)"/><g transform="translate(10.179 64.769)"><path d="M395,253.543a1.067,1.067,0,0,0,0,2.022,3.87,3.87,0,0,0,3.5,0,1.067,1.067,0,0,0,0-2.022A3.87,3.87,0,0,0,395,253.543Z" transform="translate(-383.377 -246.83)" fill="#fccc6b"/><path d="M400.8,250.2a1.067,1.067,0,0,0,0,2.021,3.868,3.868,0,0,0,3.5,0,1.066,1.066,0,0,0,0-2.021A3.868,3.868,0,0,0,400.8,250.2Z" transform="translate(-394.622 -246.632)" fill="#fccc6b"/><path d="M406.593,246.853a1.066,1.066,0,0,0,0,2.021,3.868,3.868,0,0,0,3.5,0,1.066,1.066,0,0,0,0-2.021A3.868,3.868,0,0,0,406.593,246.853Z" transform="translate(-405.868 -246.434)" fill="#fccc6b"/></g></g><path d="M314.506,286l71.363-41.2c5.422-3.131,4.743-8.6-1.519-12.215l-68.321-39.445c-6.262-3.615-15.733-4.007-21.156-.877l-71.362,41.2c-5.423,3.131-4.743,8.6,1.518,12.215L293.35,285.12C299.612,288.735,309.084,289.127,314.506,286Z" transform="translate(-199.391 -114.681)" fill="#fff"/><path d="M313.54,276.69l55.978-32.319c4.253-2.456,3.72-6.745-1.191-9.58l-53.592-30.942c-4.912-2.836-12.342-3.143-16.6-.688L242.162,235.48c-4.254,2.455-3.72,6.746,1.191,9.581L296.945,276C301.857,278.838,309.287,279.146,313.54,276.69Z" transform="translate(-200.541 -115.354)" fill="#0b0244" opacity="0.5"/><path d="M198.121,238.384a5.972,5.972,0,0,1,0-.936V191.267l73.371.326L291.2,180.214c6.731-3.886,18.486-3.4,26.257,1.089l18.319,10.576,72.907.325v46.182h-.035c.192,2.63-1.275,5.168-4.508,7.035L315.57,296.556c-6.731,3.886-18.486,3.4-26.257-1.089l-84.8-48.958c-4.037-2.33-6.187-5.281-6.394-8.125Z" transform="translate(-198.087 -113.938)" fill="#5cfff3" opacity="0.5"/><path d="M198.123,189.09V172.556h42.652L291.2,143.442c6.731-3.886,18.486-3.4,26.257,1.089L366,172.556h42.684v17.47h-.035c.192,2.63-1.275,5.167-4.508,7.034L315.571,248.2c-6.731,3.887-18.486,3.4-26.257-1.088l-84.8-48.958C200.034,195.563,197.871,192.211,198.123,189.09Z" transform="translate(-198.088 -111.762)" fill="#312a91"/><path d="M198.123,189.09V172.556h42.652L291.2,143.442c6.731-3.886,18.486-3.4,26.257,1.089L366,172.556h42.684v17.47h-.035c.192,2.63-1.275,5.167-4.508,7.034L315.571,248.2c-6.731,3.887-18.486,3.4-26.257-1.088l-84.8-48.958C200.034,195.563,197.871,192.211,198.123,189.09Z" transform="translate(-198.088 -111.762)" opacity="0.5" fill="url(#a)"/><path d="M403.117,143.443a23.765,23.765,0,0,1,12.192-2.6V250.8a30.291,30.291,0,0,1-14.08-3.691l-84.8-48.958c-4.483-2.588-6.646-5.94-6.394-9.061V172.557h42.652Z" transform="translate(-310.003 -111.762)" fill="url(#b)"/><path d="M315.586,228.9l88.571-51.136c6.73-3.886,5.886-10.673-1.885-15.159l-84.8-48.958c-7.771-4.487-19.527-4.974-26.257-1.089l-88.571,51.137c-6.73,3.886-5.886,10.673,1.885,15.159l84.8,48.957C297.1,232.3,308.856,232.784,315.586,228.9Z" transform="translate(-198.103 -109.934)" fill="#312a91"/><path d="M315.586,228.9l88.571-51.136c6.73-3.886,5.886-10.673-1.885-15.159l-84.8-48.958c-7.771-4.487-19.527-4.974-26.257-1.089l-88.571,51.137c-6.73,3.886-5.886,10.673,1.885,15.159l84.8,48.957C297.1,232.3,308.856,232.784,315.586,228.9Z" transform="translate(-198.103 -109.934)" opacity="0.5" fill="url(#c)"/><path d="M209.5,228.9l88.571-51.136c6.73-3.886,8.338-9.593-1.885-15.159l-84.8-48.958a30.032,30.032,0,0,0-13.284-3.667,30.811,30.811,0,0,1,16.258,3.667l84.8,48.958c7.771,4.487,8.615,11.274,1.885,15.159L212.473,228.9c-3.421,1.975-8.139,2.815-12.973,2.58A22.3,22.3,0,0,0,209.5,228.9Z" transform="translate(-94.99 -109.935)" opacity="0.5" fill="url(#c)"/><path d="M204.517,190.468l84.8,48.958c7.771,4.487,19.527,4.974,26.257,1.089l88.571-51.137c3.234-1.867,4.7-4.4,4.508-7.034h.035v3.62h-.035c.192,2.63-1.275,5.168-4.508,7.034l-88.571,51.137c-6.731,3.886-18.486,3.4-26.257-1.089l-84.8-48.958c-4.483-2.588-6.646-5.94-6.394-9.061v-3.62C197.871,184.528,200.034,187.88,204.517,190.468Z" transform="translate(-198.088 -114.164)" opacity="0.5" fill="url(#e)"/><g transform="translate(90.215 51.721)"><path d="M295.373,178.437c-1.839,1.062-1.839,2.784,0,3.845a7.36,7.36,0,0,0,6.661,0c1.839-1.061,1.839-2.783,0-3.845A7.36,7.36,0,0,0,295.373,178.437Z" transform="translate(-273.247 -165.662)" fill="#5cfff3" opacity="0.2"/><path d="M306.4,172.071c-1.839,1.062-1.839,2.784,0,3.846a7.366,7.366,0,0,0,6.661,0c1.839-1.062,1.839-2.784,0-3.846A7.36,7.36,0,0,0,306.4,172.071Z" transform="translate(-294.646 -165.285)" fill="#5cfff3" opacity="0.6"/><path d="M317.425,165.7c-1.839,1.062-1.839,2.784,0,3.846a7.366,7.366,0,0,0,6.661,0c1.839-1.062,1.839-2.784,0-3.846A7.36,7.36,0,0,0,317.425,165.7Z" transform="translate(-316.046 -164.908)" fill="#5cfff3"/></g><path d="M305.665,217.289a17.871,17.871,0,0,0,8.763-2.015l65.49-37.809c2.382-1.376,3.695-3.312,3.694-5.448,0-2.53-1.855-5.052-5.088-6.919l-62.7-36.2c-5.921-3.416-14.931-3.778-20.082-.805L230.254,165.9c-2.382,1.375-3.694,3.309-3.694,5.447,0,2.53,1.854,5.052,5.087,6.919l62.7,36.2A23.265,23.265,0,0,0,305.665,217.289Zm8.1-3.172c-4.784,2.763-13.194,2.4-18.748-.8l-62.7-36.2c-2.807-1.622-4.419-3.722-4.418-5.762,0-1.64,1.074-3.163,3.025-4.29l65.489-37.81c4.784-2.763,13.194-2.4,18.748.8l62.7,36.2c2.808,1.621,4.419,3.72,4.419,5.761,0,1.64-1.074,3.164-3.026,4.291Z" transform="translate(-199.787 -110.889)" fill="#0b0244" opacity="0.5"/></g></g><g transform="translate(1199.989 685.873)" opacity="0.101"><g transform="translate(175.39 95.177)"><path d="M301.092,241.242a19.592,19.592,0,0,1-9.607-2.207l-112.2-64.781c-2.51-1.449-3.893-3.462-3.893-5.669,0-2.653,1.992-5.324,5.464-7.329L289.91,98.292c6.525-3.768,16.436-4.174,22.093-.907l112.2,64.781c2.51,1.449,3.893,3.462,3.893,5.669,0,2.653-1.992,5.325-5.464,7.329L313.579,238.128A25.678,25.678,0,0,1,301.092,241.242Zm1.3-145.65a25.222,25.222,0,0,0-12.276,3.064L181.064,161.62c-3.338,1.927-5.253,4.466-5.253,6.965,0,2.051,1.307,3.935,3.681,5.305l112.2,64.781c5.545,3.2,15.266,2.792,21.675-.907L422.425,174.8c3.338-1.928,5.253-4.466,5.253-6.965,0-2.051-1.308-3.935-3.682-5.306l-112.2-64.78A19.173,19.173,0,0,0,302.4,95.592Z" transform="translate(-175.39 -95.177)" fill="#6ee8fc"/><g transform="translate(96.166 10.114)"><path d="M282.434,108.343a2.414,2.414,0,1,1-2.414-2.415A2.414,2.414,0,0,1,282.434,108.343Z" transform="translate(-277.606 -105.928)" fill="#6ee8fc"/></g><g transform="translate(10.778 59.512)"><circle cx="2.414" cy="2.414" r="2.414" fill="#6ee8fc"/></g></g><g transform="translate(175.39 224.583)"><path d="M301.091,378.787a19.591,19.591,0,0,1-9.606-2.206L179.283,311.8c-2.51-1.449-3.893-3.463-3.893-5.669,0-2.653,1.992-5.324,5.464-7.329L289.91,235.838c6.525-3.767,16.436-4.174,22.093-.907l112.2,64.78c2.51,1.45,3.892,3.462,3.893,5.669,0,2.653-1.991,5.325-5.464,7.33L313.579,375.673A25.658,25.658,0,0,1,301.091,378.787Zm1.3-145.649A25.222,25.222,0,0,0,290.12,236.2L181.064,299.165c-3.338,1.928-5.253,4.466-5.253,6.966,0,2.051,1.307,3.934,3.681,5.305l112.2,64.781c5.545,3.2,15.265,2.793,21.675-.908l109.055-62.963c3.338-1.928,5.253-4.467,5.253-6.966,0-2.051-1.308-3.934-3.682-5.305l-112.2-64.78A19.173,19.173,0,0,0,302.4,233.138Z" transform="translate(-175.39 -232.724)" fill="#6ee8fc"/><g transform="translate(10.778 59.51)"><path d="M191.675,298.393a2.415,2.415,0,1,1-2.415-2.415A2.415,2.415,0,0,1,191.675,298.393Z" transform="translate(-186.846 -295.978)" fill="#6ee8fc"/></g><g transform="translate(196.118 105.453)"><circle cx="2.414" cy="2.414" r="2.414" fill="#6ee8fc"/></g><g transform="translate(211.818 96.202)"><path d="M405.361,337.392a2.414,2.414,0,1,1-2.414-2.414A2.414,2.414,0,0,1,405.361,337.392Z" transform="translate(-400.533 -334.978)" fill="#6ee8fc"/></g><g transform="translate(227.516 87.091)"><path d="M422.047,327.708a2.414,2.414,0,1,1-2.414-2.414A2.414,2.414,0,0,1,422.047,327.708Z" transform="translate(-417.219 -325.294)" fill="#6ee8fc"/></g></g><g transform="translate(196.759 109.06)"><g transform="translate(0 63.653)"><path d="M293.044,359.068,213.076,312.9c-6.076-3.508-5.314-9.637,1.7-13.688l76.562-44.2c7.017-4.051,17.63-4.49,23.707-.983l79.968,46.17c6.077,3.508,5.315,9.636-1.7,13.687l-76.562,44.2C309.734,362.136,299.121,362.576,293.044,359.068Z" transform="translate(-198.746 -181.975)" fill="rgba(0,0,0,0.2)"/><path d="M408.665,256.746V240.212H366.014L315.586,211.1c-6.731-3.886-18.486-3.4-26.257,1.089l-48.542,28.026H198.1v17.471h.035c-.192,2.63,1.275,5.167,4.508,7.034l88.571,51.136c6.731,3.886,18.486,3.4,26.257-1.089l84.8-48.957C406.755,263.22,408.918,259.867,408.665,256.746Z" transform="translate(-198.103 -179.419)" fill="#312a91"/><path d="M408.665,256.746V240.212H366.014L315.586,211.1c-6.731-3.886-18.486-3.4-26.257,1.089l-48.542,28.026H198.1v17.471h.035c-.192,2.63,1.275,5.167,4.508,7.034l88.571,51.136c6.731,3.886,18.486,3.4,26.257-1.089l84.8-48.957C406.755,263.22,408.918,259.867,408.665,256.746Z" transform="translate(-198.103 -179.419)" opacity="0.5" fill="url(#k)"/><path d="M322.21,211.1a23.774,23.774,0,0,0-12.192-2.6V318.458a30.281,30.281,0,0,0,14.08-3.692l84.8-48.957c4.483-2.588,6.646-5.941,6.394-9.062V240.213H372.638Z" transform="translate(-204.727 -179.419)" fill="url(#l)"/><path d="M291.217,296.556,202.646,245.42c-6.73-3.886-5.886-10.674,1.885-15.16l84.8-48.957c7.771-4.487,19.527-4.974,26.257-1.089l88.571,51.136c6.73,3.886,5.886,10.673-1.885,15.159l-84.8,48.958C309.7,299.954,297.948,300.441,291.217,296.556Z" transform="translate(-198.103 -177.591)" fill="#312a91"/><path d="M291.217,296.556,202.646,245.42c-6.73-3.886-5.886-10.674,1.885-15.16l84.8-48.957c7.771-4.487,19.527-4.974,26.257-1.089l88.571,51.136c6.73,3.886,5.886,10.673-1.885,15.159l-84.8,48.958C309.7,299.954,297.948,300.441,291.217,296.556Z" transform="translate(-198.103 -177.591)" opacity="0.5" fill="url(#m)"/><path d="M294.191,296.557,205.62,245.421c-6.73-3.887-8.338-9.593,1.885-15.16L292.3,181.3a30.033,30.033,0,0,1,13.284-3.668,30.82,30.82,0,0,0-16.258,3.668l-84.8,48.957c-7.771,4.487-8.615,11.274-1.885,15.16l88.571,51.136c3.421,1.975,8.139,2.814,12.973,2.579A22.3,22.3,0,0,1,294.191,296.557Z" transform="translate(-198.103 -177.592)" opacity="0.5" fill="url(#m)"/><path d="M402.272,258.125l-84.8,48.958c-7.771,4.486-19.527,4.973-26.257,1.088l-88.571-51.136c-3.234-1.868-4.7-4.4-4.508-7.034H198.1v3.62h.035c-.192,2.63,1.275,5.167,4.508,7.034l88.571,51.136c6.731,3.887,18.486,3.4,26.257-1.088l84.8-48.958c4.483-2.588,6.646-5.94,6.394-9.061v-3.62C408.918,252.184,406.755,255.537,402.272,258.125Z" transform="translate(-198.103 -181.821)" opacity="0.5" fill="url(#o)"/><g transform="translate(184.566 64.769)"><path d="M398.505,253.543a1.067,1.067,0,0,1,0,2.022,3.87,3.87,0,0,1-3.5,0,1.067,1.067,0,0,1,0-2.022A3.87,3.87,0,0,1,398.505,253.543Z" transform="translate(-394.28 -246.83)" fill="#fccc6b"/><path d="M404.3,250.2a1.067,1.067,0,0,1,0,2.021,3.868,3.868,0,0,1-3.5,0,1.066,1.066,0,0,1,0-2.021A3.868,3.868,0,0,1,404.3,250.2Z" transform="translate(-394.623 -246.632)" fill="#fccc6b"/><path d="M410.093,246.853a1.066,1.066,0,0,1,0,2.021,3.868,3.868,0,0,1-3.5,0,1.066,1.066,0,0,1,0-2.021A3.868,3.868,0,0,1,410.093,246.853Z" transform="translate(-394.966 -246.434)" fill="#fccc6b"/></g></g><path d="M294.872,286,223.51,244.8c-5.422-3.131-4.743-8.6,1.519-12.215l68.321-39.445c6.262-3.615,15.733-4.007,21.156-.877l71.362,41.2c5.423,3.131,4.743,8.6-1.518,12.215L316.027,285.12C309.766,288.735,300.294,289.127,294.872,286Z" transform="translate(-199.39 -114.681)" fill="#fff"/><path d="M298.139,276.69l-55.977-32.319c-4.253-2.456-3.72-6.745,1.191-9.58l53.592-30.942c4.912-2.836,12.342-3.143,16.6-.688l55.977,32.319c4.254,2.456,3.72,6.746-1.191,9.581L314.734,276C309.822,278.838,302.392,279.146,298.139,276.69Z" transform="translate(-200.541 -115.353)" fill="#0b0244" opacity="0.5"/><path d="M408.665,238.384a5.973,5.973,0,0,0,0-.936V191.267l-73.371.326-19.708-11.378c-6.731-3.886-18.486-3.4-26.257,1.089L271.01,191.878,198.1,192.2v46.182h.035c-.192,2.63,1.275,5.168,4.508,7.035l88.571,51.136c6.731,3.886,18.486,3.4,26.257-1.089l84.8-48.958c4.037-2.33,6.187-5.281,6.394-8.125Z" transform="translate(-198.103 -113.938)" fill="#5cfff3" opacity="0.5"/><path d="M408.665,189.09V172.556H366.014l-50.428-29.114c-6.731-3.886-18.486-3.4-26.257,1.089l-48.542,28.026H198.1v17.47h.035c-.192,2.63,1.275,5.167,4.508,7.034L291.217,248.2c6.731,3.887,18.486,3.4,26.257-1.088l84.8-48.958C406.755,195.563,408.918,192.211,408.665,189.09Z" transform="translate(-198.103 -111.762)" fill="#312a91"/><path d="M408.665,189.09V172.556H366.014l-50.428-29.114c-6.731-3.886-18.486-3.4-26.257,1.089l-48.542,28.026H198.1v17.47h.035c-.192,2.63,1.275,5.167,4.508,7.034L291.217,248.2c6.731,3.887,18.486,3.4,26.257-1.088l84.8-48.958C406.755,195.563,408.918,192.211,408.665,189.09Z" transform="translate(-198.103 -111.762)" opacity="0.5" fill="url(#k)"/><path d="M322.21,143.443a23.765,23.765,0,0,0-12.192-2.6V250.8a30.291,30.291,0,0,0,14.08-3.691l84.8-48.958c4.483-2.588,6.646-5.94,6.394-9.061V172.557H372.638Z" transform="translate(-204.727 -111.762)" fill="url(#l)"/><path d="M291.217,228.9l-88.571-51.136c-6.73-3.886-5.886-10.673,1.885-15.159l84.8-48.958c7.771-4.487,19.527-4.974,26.257-1.089l88.571,51.137c6.73,3.886,5.886,10.673-1.885,15.159l-84.8,48.957C309.7,232.3,297.948,232.784,291.217,228.9Z" transform="translate(-198.103 -109.934)" fill="#312a91"/><path d="M291.217,228.9l-88.571-51.136c-6.73-3.886-5.886-10.673,1.885-15.159l84.8-48.958c7.771-4.487,19.527-4.974,26.257-1.089l88.571,51.137c6.73,3.886,5.886,10.673-1.885,15.159l-84.8,48.957C309.7,232.3,297.948,232.784,291.217,228.9Z" transform="translate(-198.103 -109.934)" opacity="0.5" fill="url(#m)"/><path d="M294.191,228.9,205.62,177.764c-6.73-3.886-8.338-9.593,1.885-15.159l84.8-48.958a30.032,30.032,0,0,1,13.284-3.667,30.811,30.811,0,0,0-16.258,3.667l-84.8,48.958c-7.771,4.487-8.615,11.274-1.885,15.159L291.217,228.9c3.421,1.975,8.139,2.815,12.973,2.58A22.3,22.3,0,0,1,294.191,228.9Z" transform="translate(-198.103 -109.935)" opacity="0.5" fill="url(#m)"/><path d="M402.272,190.468l-84.8,48.958c-7.771,4.487-19.527,4.974-26.257,1.089l-88.571-51.137c-3.234-1.867-4.7-4.4-4.508-7.034H198.1v3.62h.035c-.192,2.63,1.275,5.168,4.508,7.034l88.571,51.137c6.731,3.886,18.486,3.4,26.257-1.089l84.8-48.958c4.483-2.588,6.646-5.94,6.394-9.061v-3.62C408.918,184.528,406.755,187.88,402.272,190.468Z" transform="translate(-198.103 -114.164)" opacity="0.5" fill="url(#o)"/><g transform="translate(90.215 51.721)"><path d="M302.034,178.437c1.839,1.062,1.839,2.784,0,3.845a7.36,7.36,0,0,1-6.661,0c-1.839-1.061-1.839-2.783,0-3.845A7.36,7.36,0,0,1,302.034,178.437Z" transform="translate(-293.994 -165.662)" fill="#5cfff3" opacity="0.2"/><path d="M313.06,172.071c1.839,1.062,1.839,2.784,0,3.846a7.366,7.366,0,0,1-6.661,0c-1.839-1.062-1.839-2.784,0-3.846A7.36,7.36,0,0,1,313.06,172.071Z" transform="translate(-294.646 -165.285)" fill="#5cfff3" opacity="0.6"/><path d="M324.086,165.7c1.839,1.062,1.839,2.784,0,3.846a7.366,7.366,0,0,1-6.661,0c-1.839-1.062-1.839-2.784,0-3.846A7.36,7.36,0,0,1,324.086,165.7Z" transform="translate(-295.299 -164.908)" fill="#5cfff3"/></g><path d="M304.506,217.289a17.871,17.871,0,0,1-8.763-2.015l-65.49-37.809c-2.382-1.376-3.695-3.312-3.694-5.448,0-2.53,1.855-5.052,5.088-6.919l62.7-36.2c5.921-3.416,14.931-3.778,20.082-.805L379.918,165.9c2.382,1.375,3.694,3.309,3.694,5.447,0,2.53-1.854,5.052-5.087,6.919l-62.7,36.2A23.265,23.265,0,0,1,304.506,217.289Zm-8.1-3.172c4.784,2.763,13.194,2.4,18.748-.8l62.7-36.2c2.807-1.622,4.419-3.722,4.418-5.762,0-1.64-1.074-3.163-3.025-4.29l-65.489-37.81c-4.784-2.763-13.194-2.4-18.748.8l-62.7,36.2c-2.808,1.621-4.419,3.72-4.419,5.761,0,1.64,1.074,3.164,3.026,4.291Z" transform="translate(-199.787 -110.889)" fill="#0b0244" opacity="0.5"/></g></g><g transform="translate(790.785 759.625)" opacity="0.25"><g transform="translate(175.39 95.177)"><path d="M378.892,331.645c-5.832,0-11.4-1.176-15.552-3.573L181.693,223.2c-4.064-2.346-6.3-5.605-6.3-9.178,0-4.3,3.224-8.619,8.846-11.865L360.79,100.22c10.563-6.1,26.609-6.758,35.767-1.468L578.2,203.627c4.064,2.346,6.3,5.605,6.3,9.178,0,4.3-3.224,8.621-8.846,11.865L399.107,326.6A41.571,41.571,0,0,1,378.892,331.645ZM381,95.848a40.832,40.832,0,0,0-19.874,4.961L184.576,202.743c-5.4,3.119-8.5,7.23-8.5,11.276,0,3.32,2.116,6.37,5.96,8.589L363.678,327.483c8.977,5.182,24.714,4.521,35.091-1.468L575.322,224.081c5.4-3.121,8.505-7.23,8.505-11.276,0-3.32-2.117-6.371-5.961-8.59L396.219,99.341C392.159,97,386.711,95.848,381,95.848Z" transform="translate(-175.39 -95.177)" fill="#6ee8fc"/><g transform="translate(155.686 16.374)"><path d="M285.423,109.838a3.908,3.908,0,1,1-3.908-3.91A3.909,3.909,0,0,1,285.423,109.838Z" transform="translate(-277.606 -105.928)" fill="#6ee8fc"/></g><g transform="translate(17.449 96.345)"><circle cx="3.909" cy="3.909" r="3.909" fill="#6ee8fc"/></g></g><g transform="translate(175.39 304.675)"><path d="M378.891,469.19c-5.83,0-11.4-1.174-15.551-3.572L181.693,360.743c-4.064-2.346-6.3-5.607-6.3-9.178,0-4.3,3.224-8.619,8.846-11.865L360.79,237.766c10.563-6.1,26.609-6.758,35.767-1.468L578.2,341.171c4.064,2.347,6.3,5.605,6.3,9.178,0,4.3-3.223,8.621-8.846,11.867L399.107,464.148A41.538,41.538,0,0,1,378.891,469.19ZM381,233.394a40.832,40.832,0,0,0-19.874,4.961L184.576,340.288c-5.4,3.121-8.5,7.23-8.5,11.277,0,3.32,2.116,6.37,5.96,8.589L363.678,465.029c8.977,5.182,24.712,4.522,35.091-1.47L575.322,361.626c5.4-3.121,8.505-7.232,8.505-11.277,0-3.32-2.117-6.37-5.961-8.589L396.219,236.887C392.159,234.543,386.711,233.394,381,233.394Z" transform="translate(-175.39 -232.724)" fill="#6ee8fc"/><g transform="translate(17.449 96.343)"><path d="M194.664,299.888a3.909,3.909,0,1,1-3.91-3.91A3.909,3.909,0,0,1,194.664,299.888Z" transform="translate(-186.846 -295.978)" fill="#6ee8fc"/></g><g transform="translate(317.502 170.721)"><circle cx="3.909" cy="3.909" r="3.909" fill="#6ee8fc"/></g><g transform="translate(342.917 155.744)"><path d="M408.35,338.886a3.908,3.908,0,1,1-3.908-3.908A3.909,3.909,0,0,1,408.35,338.886Z" transform="translate(-400.533 -334.978)" fill="#6ee8fc"/></g><g transform="translate(368.332 140.995)"><path d="M425.036,329.2a3.908,3.908,0,1,1-3.908-3.908A3.908,3.908,0,0,1,425.036,329.2Z" transform="translate(-417.219 -325.294)" fill="#6ee8fc"/></g></g><g transform="translate(209.984 117.653)"><g transform="translate(0 103.049)"><path d="M345.077,425.547,215.615,350.8c-9.836-5.68-8.6-15.6,2.755-22.16l123.947-71.56c11.359-6.558,28.542-7.27,38.379-1.592l129.463,74.747c9.838,5.68,8.6,15.6-2.755,22.158l-123.948,71.56C372.1,430.514,354.915,431.227,345.077,425.547Z" transform="translate(-192.416 -138.846)" fill="rgba(0,0,0,0.2)"/><path d="M538.988,286.623V259.856h-69.05L388.3,212.721c-10.9-6.29-29.928-5.5-42.508,1.762L267.2,259.856H198.1V288.14h.056c-.311,4.257,2.064,8.365,7.3,11.388l143.39,82.785c10.9,6.29,29.928,5.5,42.508-1.762l137.281-79.258C535.895,297.1,539.4,291.675,538.988,286.623Z" transform="translate(-198.103 -161.435)" fill="#312a91"/><path d="M538.988,286.623V259.856h-69.05L388.3,212.721c-10.9-6.29-29.928-5.5-42.508,1.762L267.2,259.856H198.1V288.14h.056c-.311,4.257,2.064,8.365,7.3,11.388l143.39,82.785c10.9,6.29,29.928,5.5,42.508-1.762l137.281-79.258C535.895,297.1,539.4,291.675,538.988,286.623Z" transform="translate(-198.103 -161.435)" opacity="0.5" fill="url(#k)"/><path d="M329.756,212.715c-5.238-3.023-12.36-4.394-19.738-4.213V386.522a49.022,49.022,0,0,0,22.795-5.977l137.281-79.258c7.258-4.19,10.759-9.618,10.351-14.671V259.849h-69.05Z" transform="translate(-139.559 -161.429)" fill="url(#l)"/><path d="M348.848,370.187,205.458,287.4c-10.895-6.29-9.529-17.28,3.052-24.543L345.791,183.6c12.581-7.264,31.612-8.053,42.508-1.762l143.39,82.785c10.895,6.29,9.529,17.278-3.052,24.542L391.356,368.424C378.776,375.688,359.744,376.477,348.848,370.187Z" transform="translate(-198.103 -177.591)" fill="#312a91"/><path d="M348.848,370.187,205.458,287.4c-10.895-6.29-9.529-17.28,3.052-24.543L345.791,183.6c12.581-7.264,31.612-8.053,42.508-1.762l143.39,82.785c10.895,6.29,9.529,17.278-3.052,24.542L391.356,368.424C378.776,375.688,359.744,376.477,348.848,370.187Z" transform="translate(-198.103 -177.591)" opacity="0.5" fill="url(#m)"/><path d="M353.663,370.18l-143.39-82.786c-10.895-6.292-13.5-15.53,3.052-24.543l137.281-79.258a48.622,48.622,0,0,1,21.506-5.939c-9.006-.407-18.809,1.6-26.321,5.939L208.51,262.851c-12.581,7.264-13.947,18.251-3.052,24.543l143.39,82.786c5.538,3.2,13.176,4.556,21,4.175C363.771,374.081,358.054,372.715,353.663,370.18Z" transform="translate(-198.103 -177.584)" opacity="0.5" fill="url(#m)"/><path d="M528.637,263.733,391.356,342.993c-12.581,7.262-31.612,8.051-42.508,1.761l-143.39-82.785c-5.235-3.023-7.609-7.131-7.3-11.388H198.1v5.861h.056c-.311,4.257,2.064,8.365,7.3,11.388l143.39,82.785c10.9,6.292,29.928,5.5,42.508-1.761l137.281-79.259c7.258-4.19,10.759-9.617,10.351-14.669v-5.861C539.4,254.115,535.895,259.543,528.637,263.733Z" transform="translate(-198.103 -140.203)" opacity="0.5" fill="url(#o)"/><g transform="translate(298.798 104.856)"><path d="M401.12,253.8c1.564.9,1.564,2.368,0,3.273a6.266,6.266,0,0,1-5.668,0c-1.564-.9-1.564-2.368,0-3.273A6.266,6.266,0,0,1,401.12,253.8Z" transform="translate(-394.28 -242.935)" fill="#fccc6b"/><path d="M406.914,250.457c1.564.9,1.564,2.368,0,3.272a6.263,6.263,0,0,1-5.666,0c-1.566-.9-1.566-2.368,0-3.272A6.263,6.263,0,0,1,406.914,250.457Z" transform="translate(-391.249 -244.684)" fill="#fccc6b"/><path d="M412.708,247.112c1.566.9,1.566,2.368,0,3.272a6.263,6.263,0,0,1-5.666,0c-1.566-.9-1.566-2.368,0-3.272A6.262,6.262,0,0,1,412.708,247.112Z" transform="translate(-388.218 -246.434)" fill="#fccc6b"/></g></g><path d="M341.306,345.322l-115.531-66.7c-8.778-5.069-7.678-13.921,2.46-19.774l110.607-63.859c10.138-5.852,25.471-6.487,34.25-1.42l115.529,66.7c8.779,5.069,7.678,13.921-2.458,19.775L375.555,343.9C365.418,349.754,350.084,350.389,341.306,345.322Z" transform="translate(-186.727 -67.974)" fill="#fff"/><path d="M334.562,323.225,243.939,270.9c-6.886-3.975-6.022-10.919,1.928-15.51L332.629,205.3c7.952-4.591,19.98-5.089,26.866-1.113l90.623,52.322c6.888,3.975,6.022,10.921-1.928,15.511l-86.762,50.092C353.476,326.7,341.448,327.2,334.562,323.225Z" transform="translate(-176.558 -62.033)" fill="#0b0244" opacity="0.5"/><path d="M538.988,276.011a9.671,9.671,0,0,0,0-1.515V199.731l-118.783.527L388.3,181.837c-10.9-6.29-29.928-5.5-42.508,1.762l-29.656,17.121-118.032.525v74.765h.056c-.311,4.257,2.064,8.366,7.3,11.39l143.39,82.785c10.9,6.29,29.928,5.5,42.508-1.762l137.281-79.259c6.536-3.773,10.016-8.549,10.351-13.154Z" transform="translate(-198.103 -74.542)" fill="#5cfff3" opacity="0.5"/><path d="M538.988,218.967V192.2h-69.05L388.3,145.065c-10.9-6.29-29.928-5.5-42.508,1.762L267.2,192.2H198.1v28.283h.056c-.311,4.257,2.064,8.365,7.3,11.388l143.39,82.785c10.9,6.292,29.928,5.5,42.508-1.761l137.281-79.26C535.895,229.446,539.4,224.019,538.988,218.967Z" transform="translate(-198.103 -93.778)" fill="#312a91"/><path d="M538.988,218.967V192.2h-69.05L388.3,145.065c-10.9-6.29-29.928-5.5-42.508,1.762L267.2,192.2H198.1v28.283h.056c-.311,4.257,2.064,8.365,7.3,11.388l143.39,82.785c10.9,6.292,29.928,5.5,42.508-1.761l137.281-79.26C535.895,229.446,539.4,224.019,538.988,218.967Z" transform="translate(-198.103 -93.778)" opacity="0.5" fill="url(#k)"/><path d="M329.756,145.06c-5.238-3.025-12.36-4.4-19.738-4.214V318.865a49.039,49.039,0,0,0,22.795-5.975l137.281-79.26c7.258-4.19,10.759-9.617,10.351-14.669V192.194h-69.05Z" transform="translate(-139.559 -93.772)" fill="url(#l)"/><path d="M348.848,302.53l-143.39-82.786c-10.895-6.29-9.529-17.278,3.052-24.542l137.281-79.26c12.581-7.264,31.612-8.053,42.508-1.762l143.39,82.787c10.895,6.29,9.529,17.278-3.052,24.542L391.356,300.767C378.776,308.031,359.744,308.82,348.848,302.53Z" transform="translate(-198.103 -109.934)" fill="#312a91"/><path d="M348.848,302.53l-143.39-82.786c-10.895-6.29-9.529-17.278,3.052-24.542l137.281-79.26c12.581-7.264,31.612-8.053,42.508-1.762l143.39,82.787c10.895,6.29,9.529,17.278-3.052,24.542L391.356,300.767C378.776,308.031,359.744,308.82,348.848,302.53Z" transform="translate(-198.103 -109.934)" opacity="0.5" fill="url(#m)"/><path d="M353.663,302.523l-143.39-82.785c-10.895-6.29-13.5-15.53,3.052-24.542l137.281-79.259A48.619,48.619,0,0,1,372.112,110c-9.006-.408-18.809,1.6-26.321,5.937L208.51,195.2c-12.581,7.264-13.947,18.251-3.052,24.542l143.39,82.785c5.538,3.2,13.176,4.557,21,4.176C363.771,306.423,358.054,305.059,353.663,302.523Z" transform="translate(-198.103 -109.927)" opacity="0.5" fill="url(#m)"/><path d="M528.637,196.076l-137.281,79.26c-12.581,7.264-31.612,8.053-42.508,1.762l-143.39-82.787c-5.235-3.022-7.609-7.131-7.3-11.388H198.1v5.861h.056c-.311,4.257,2.064,8.366,7.3,11.388l143.39,82.787c10.9,6.29,29.928,5.5,42.508-1.762l137.281-79.259c7.258-4.19,10.759-9.617,10.351-14.669v-5.861C539.4,186.459,535.895,191.886,528.637,196.076Z" transform="translate(-198.103 -72.546)" opacity="0.5" fill="url(#o)"/><g transform="translate(146.052 83.732)"><path d="M307.011,178.93c2.978,1.72,2.978,4.507,0,6.225a11.916,11.916,0,0,1-10.784,0c-2.978-1.718-2.978-4.505,0-6.225A11.916,11.916,0,0,1,307.011,178.93Z" transform="translate(-293.994 -158.248)" fill="#5cfff3" opacity="0.2"/><path d="M318.037,172.564c2.978,1.72,2.978,4.507,0,6.226a11.925,11.925,0,0,1-10.784,0c-2.978-1.72-2.978-4.507,0-6.226A11.916,11.916,0,0,1,318.037,172.564Z" transform="translate(-288.226 -161.578)" fill="#5cfff3" opacity="0.6"/><path d="M329.063,166.2c2.978,1.72,2.978,4.507,0,6.226a11.925,11.925,0,0,1-10.784,0c-2.978-1.72-2.978-4.507,0-6.226A11.916,11.916,0,0,1,329.063,166.2Z" transform="translate(-282.458 -164.908)" fill="#5cfff3"/></g><path d="M352.749,273.741c-5.316,0-10.4-1.074-14.186-3.263L232.54,209.268c-3.857-2.228-5.981-5.361-5.98-8.82,0-4.1,3-8.179,8.237-11.2l101.506-58.6c9.585-5.53,24.172-6.117,32.511-1.3l106.022,61.214c3.856,2.227,5.98,5.357,5.98,8.819,0,4.1-3,8.179-8.236,11.2l-101.508,58.6A37.664,37.664,0,0,1,352.749,273.741Zm-13.108-5.136c7.745,4.473,21.36,3.888,30.351-1.3L471.5,208.7c4.545-2.626,7.154-6.025,7.152-9.328,0-2.655-1.739-5.121-4.9-6.945L367.734,131.213c-7.745-4.473-21.36-3.887-30.351,1.3L235.877,191.122c-4.546,2.624-7.154,6.022-7.154,9.326,0,2.655,1.739,5.122,4.9,6.947Z" transform="translate(-183.217 -101.488)" fill="#0b0244" opacity="0.5"/></g></g><g transform="translate(397.79 964)" opacity="0.5"><g transform="translate(0)"><path d="M449.982,410.972c7.788,0,15.225-1.57,20.77-4.772L713.335,266.143c5.427-3.132,8.417-7.485,8.417-12.257,0-5.736-4.306-11.511-11.814-15.845L474.156,101.911c-14.106-8.146-35.535-9.025-47.766-1.961L183.807,240.008c-5.427,3.132-8.417,7.485-8.417,12.257,0,5.736,4.306,11.513,11.814,15.845L422.985,404.239C430.695,408.69,440.594,410.97,449.982,410.972Zm-2.819-314.9c9.222,0,18.955,2.244,26.54,6.625L709.484,238.828c7.217,4.166,11.356,9.656,11.356,15.058,0,4.434-2.825,8.506-7.959,11.47L470.3,405.413c-11.989,6.92-33,6.037-46.863-1.961L187.657,267.323c-7.217-4.168-11.358-9.656-11.358-15.058,0-4.434,2.827-8.508,7.961-11.472L426.842,100.738C432.265,97.607,439.541,96.074,447.162,96.074Z" transform="translate(-175.39 -95.177)" fill="#6ee8fc"/><g transform="translate(328.01 21.867)"><path d="M277.606,111.149a5.219,5.219,0,1,0,5.219-5.221A5.22,5.22,0,0,0,277.606,111.149Z" transform="translate(-277.606 -105.928)" fill="#6ee8fc"/></g><g transform="translate(512.619 128.665)"><ellipse cx="5.22" cy="5.22" rx="5.22" ry="5.22" transform="translate(0)" fill="#6ee8fc"/></g></g><g transform="translate(0 279.777)"><path d="M449.984,548.516c7.786,0,15.223-1.568,20.768-4.77L713.335,403.689c5.427-3.132,8.417-7.487,8.417-12.257,0-5.736-4.306-11.511-11.814-15.845L474.156,239.457c-14.106-8.144-35.535-9.025-47.766-1.961L183.807,377.551c-5.427,3.134-8.415,7.485-8.417,12.257,0,5.736,4.3,11.513,11.814,15.847L422.985,541.783C430.695,546.235,440.594,548.516,449.984,548.516Zm-2.821-314.9c9.222,0,18.955,2.244,26.54,6.625L709.484,376.371c7.217,4.168,11.356,9.656,11.356,15.06,0,4.434-2.825,8.506-7.959,11.47L470.3,542.958c-11.989,6.92-33,6.039-46.863-1.963L187.657,404.869c-7.217-4.168-11.358-9.658-11.358-15.06,0-4.434,2.827-8.506,7.961-11.47L426.842,238.283C432.265,235.153,439.541,233.619,447.162,233.619Z" transform="translate(-175.39 -232.724)" fill="#6ee8fc"/><g transform="translate(512.619 128.663)"><path d="M186.846,301.2a5.22,5.22,0,1,0,5.221-5.221A5.22,5.22,0,0,0,186.846,301.2Z" transform="translate(-186.846 -295.978)" fill="#6ee8fc"/></g><g transform="translate(111.91 227.992)"><ellipse cx="5.22" cy="5.22" rx="5.22" ry="5.22" transform="translate(0)" fill="#6ee8fc"/></g><g transform="translate(77.969 207.991)"><path d="M400.533,340.2a5.219,5.219,0,1,0,5.219-5.219A5.22,5.22,0,0,0,400.533,340.2Z" transform="translate(-400.533 -334.978)" fill="#6ee8fc"/></g><g transform="translate(44.029 188.293)"><path d="M417.219,330.513a5.219,5.219,0,1,0,5.219-5.219A5.219,5.219,0,0,0,417.219,330.513Z" transform="translate(-417.219 -325.294)" fill="#6ee8fc"/></g></g><g transform="translate(44.847 30.016)"><g transform="translate(0 137.618)"><path d="M438.3,483.881,611.2,384.062c13.136-7.585,11.488-20.835-3.68-29.594L441.991,258.9c-15.17-8.759-38.116-9.709-51.254-2.126L217.844,356.6c-13.138,7.585-11.49,20.833,3.68,29.591l165.527,95.566C402.221,490.514,425.167,491.466,438.3,483.881Z" transform="translate(-186.863 -101.002)" fill="rgba(0,0,0,0.2)"/><path d="M198.146,312.838V277.092H290.36l109.025-62.946c14.552-8.4,39.967-7.347,56.768,2.353L561.1,277.092h92.283v37.772h-.075c.415,5.685-2.756,11.171-9.747,15.209L452.071,440.63c-14.552,8.4-39.967,7.347-56.768-2.353L211.969,332.43C202.277,326.835,197.6,319.585,198.146,312.838Z" transform="translate(-198.071 -145.655)" fill="#312a91"/><path d="M198.146,312.838V277.092H290.36l109.025-62.946c14.552-8.4,39.967-7.347,56.768,2.353L561.1,277.092h92.283v37.772h-.075c.415,5.685-2.756,11.171-9.747,15.209L452.071,440.63c-14.552,8.4-39.967,7.347-56.768-2.353L211.969,332.43C202.277,326.835,197.6,319.585,198.146,312.838Z" transform="translate(-198.071 -145.655)" opacity="0.5" fill="url(#a)"/><path d="M511.3,214.134c7-4.038,16.506-5.868,26.359-5.626V446.246c-10.652-.256-21.709-2.939-30.442-7.982L323.884,332.418c-9.692-5.6-14.369-12.845-13.823-19.592V277.08h92.214Z" transform="translate(-309.985 -145.643)" fill="url(#b)"/><path d="M452.1,434.8,643.6,324.238c14.55-8.4,12.725-23.076-4.076-32.777L456.186,185.615c-16.8-9.7-42.217-10.754-56.768-2.353L207.925,293.819c-14.55,8.4-12.725,23.074,4.076,32.775L395.335,432.442C412.137,442.142,437.552,443.2,452.1,434.8Z" transform="translate(-198.103 -177.591)" fill="#312a91"/><path d="M452.1,434.8,643.6,324.238c14.55-8.4,12.725-23.076-4.076-32.777L456.186,185.615c-16.8-9.7-42.217-10.754-56.768-2.353L207.925,293.819c-14.55,8.4-12.725,23.074,4.076,32.775L395.335,432.442C412.137,442.142,437.552,443.2,452.1,434.8Z" transform="translate(-198.103 -177.591)" opacity="0.5" fill="url(#c)"/><path d="M222.741,434.783,414.234,324.226c14.55-8.4,18.028-20.739-4.076-32.777L226.824,185.6c-8.262-4.772-18.608-7.439-28.721-7.931,12.027-.543,25.119,2.14,35.151,7.931L416.587,291.449c16.8,9.7,18.626,24.374,4.076,32.777L229.171,434.783c-7.4,4.269-17.6,6.084-28.048,5.575C209.241,439.992,216.877,438.167,222.741,434.783Z" transform="translate(24.83 -177.578)" opacity="0.5" fill="url(#c)"/><path d="M211.969,268.654,395.3,374.5c16.8,9.7,42.217,10.752,56.768,2.351L643.563,266.3c6.991-4.038,10.162-9.523,9.747-15.209h.075v7.827h-.075c.415,5.685-2.756,11.171-9.747,15.209L452.071,384.681c-14.552,8.4-39.967,7.349-56.768-2.351L211.969,276.481c-9.692-5.6-14.369-12.843-13.823-19.59v-7.827C197.6,255.809,202.277,263.058,211.969,268.654Z" transform="translate(-198.071 -103.684)" opacity="0.5" fill="url(#e)"/><g transform="translate(22.007 140.031)"><path d="M395.846,254.029c-2.089,1.208-2.089,3.163,0,4.371a8.368,8.368,0,0,0,7.569,0c2.089-1.208,2.089-3.163,0-4.371A8.368,8.368,0,0,0,395.846,254.029Z" transform="translate(-370.708 -239.516)" fill="#fccc6b"/><path d="M401.641,250.684c-2.089,1.206-2.089,3.163,0,4.369a8.364,8.364,0,0,0,7.567,0c2.091-1.206,2.091-3.163,0-4.369A8.364,8.364,0,0,0,401.641,250.684Z" transform="translate(-388.287 -242.975)" fill="#fccc6b"/><path d="M407.436,247.339c-2.091,1.206-2.091,3.163,0,4.369a8.363,8.363,0,0,0,7.567,0c2.091-1.206,2.091-3.163,0-4.369A8.363,8.363,0,0,0,407.436,247.339Z" transform="translate(-405.868 -246.434)" fill="#fccc6b"/></g></g><path d="M424.5,397.378,578.786,308.3c11.722-6.769,10.254-18.591-3.285-26.408L427.789,196.61c-13.539-7.815-34.016-8.663-45.74-1.9L227.764,283.792c-11.724,6.769-10.254,18.591,3.283,26.408L378.76,395.482C392.3,403.3,412.776,404.145,424.5,397.378Z" transform="translate(-175.617 -26.99)" fill="#fff"/><path d="M399.821,364.059l121.024-69.874c9.2-5.309,8.043-14.582-2.575-20.713L402.4,206.574c-10.62-6.131-26.683-6.8-35.879-1.487L245.5,274.961c-9.2,5.309-8.043,14.584,2.575,20.715l115.868,66.9C374.562,368.7,390.625,369.37,399.821,364.059Z" transform="translate(-155.514 -15.246)" fill="#0b0244" opacity="0.5"/><path d="M198.143,309.028a12.92,12.92,0,0,1,0-2.024V207.158l158.63.7,42.609-24.6c14.552-8.4,39.967-7.347,56.768,2.353l39.605,22.865,157.627.7v99.846h-.075c.415,5.685-2.756,11.173-9.747,15.211L452.068,434.8c-14.552,8.4-39.967,7.347-56.768-2.353L211.966,326.594c-8.728-5.038-13.376-11.417-13.823-17.566Z" transform="translate(-198.067 -39.973)" fill="#5cfff3" opacity="0.5"/><path d="M198.146,245.182V209.436H290.36L399.385,146.49c14.552-8.4,39.967-7.347,56.768,2.353L561.1,209.436h92.283v37.77h-.075c.415,5.685-2.756,11.171-9.747,15.209L452.071,372.972c-14.552,8.4-39.967,7.349-56.768-2.351L211.969,264.772C202.277,259.177,197.6,251.929,198.146,245.182Z" transform="translate(-198.071 -77.997)" fill="#312a91"/><path d="M198.146,245.182V209.436H290.36L399.385,146.49c14.552-8.4,39.967-7.347,56.768,2.353L561.1,209.436h92.283v37.77h-.075c.415,5.685-2.756,11.171-9.747,15.209L452.071,372.972c-14.552,8.4-39.967,7.349-56.768-2.351L211.969,264.772C202.277,259.177,197.6,251.929,198.146,245.182Z" transform="translate(-198.071 -77.997)" opacity="0.5" fill="url(#a)"/><path d="M511.3,146.479c7-4.04,16.506-5.87,26.359-5.628V378.589c-10.652-.256-21.709-2.939-30.442-7.98L323.884,264.761c-9.692-5.6-14.369-12.843-13.823-19.59V209.425h92.214Z" transform="translate(-309.985 -77.986)" fill="url(#b)"/><path d="M452.1,367.138,643.6,256.581c14.55-8.4,12.725-23.074-4.076-32.775L456.186,117.958c-16.8-9.7-42.217-10.754-56.768-2.353L207.925,226.164c-14.55,8.4-12.725,23.074,4.076,32.775L395.335,364.785C412.137,374.485,437.552,375.539,452.1,367.138Z" transform="translate(-198.103 -109.934)" fill="#312a91"/><path d="M452.1,367.138,643.6,256.581c14.55-8.4,12.725-23.074-4.076-32.775L456.186,117.958c-16.8-9.7-42.217-10.754-56.768-2.353L207.925,226.164c-14.55,8.4-12.725,23.074,4.076,32.775L395.335,364.785C412.137,374.485,437.552,375.539,452.1,367.138Z" transform="translate(-198.103 -109.934)" opacity="0.5" fill="url(#c)"/><path d="M222.741,367.125,414.234,256.568c14.55-8.4,18.028-20.739-4.076-32.775L226.824,117.945c-8.262-4.77-18.608-7.439-28.721-7.929,12.027-.545,25.119,2.138,35.151,7.929L416.587,223.793c16.8,9.7,18.626,24.374,4.076,32.775L229.171,367.125c-7.4,4.269-17.6,6.086-28.048,5.577C209.241,372.334,216.877,370.512,222.741,367.125Z" transform="translate(24.83 -109.92)" opacity="0.5" fill="url(#c)"/><path d="M211.969,201,395.3,306.845c16.8,9.7,42.217,10.754,56.768,2.353L643.563,198.639c6.991-4.036,10.162-9.523,9.747-15.209h.075v7.827h-.075c.415,5.685-2.756,11.173-9.747,15.209L452.071,317.026c-14.552,8.4-39.967,7.347-56.768-2.353L211.969,208.824c-9.692-5.6-14.369-12.843-13.823-19.59v-7.827C197.6,188.154,202.277,195.4,211.969,201Z" transform="translate(-198.071 -36.027)" opacity="0.5" fill="url(#e)"/><g transform="translate(195.047 111.821)"><path d="M296.976,179.363c-3.977,2.3-3.977,6.019,0,8.313a15.913,15.913,0,0,0,14.4,0c3.977-2.294,3.977-6.017,0-8.313A15.913,15.913,0,0,0,296.976,179.363Z" transform="translate(-249.139 -151.743)" fill="#5cfff3" opacity="0.2"/><path d="M308,173c-3.977,2.3-3.977,6.019,0,8.315a15.925,15.925,0,0,0,14.4,0c3.977-2.3,3.977-6.019,0-8.315A15.913,15.913,0,0,0,308,173Z" transform="translate(-282.592 -158.325)" fill="#5cfff3" opacity="0.6"/><path d="M319.028,166.631c-3.977,2.3-3.977,6.019,0,8.315a15.926,15.926,0,0,0,14.4,0c3.977-2.3,3.977-6.019,0-8.315A15.913,15.913,0,0,0,319.028,166.631Z" transform="translate(-316.046 -164.908)" fill="#5cfff3"/></g><path d="M397.588,323.276c7.1,0,13.882-1.434,18.945-4.357l141.591-81.745c5.15-2.976,7.988-7.16,7.986-11.779,0-5.47-4.011-10.923-11-14.958L419.551,132.173c-12.8-7.386-32.28-8.169-43.417-1.741L234.546,212.18c-5.15,2.974-7.986,7.154-7.986,11.777,0,5.47,4.009,10.923,11,14.958l135.56,78.264C380.1,321.21,389.069,323.276,397.588,323.276Zm17.505-6.859c-10.343,5.974-28.526,5.193-40.533-1.739L239,236.414c-6.07-3.507-9.554-8.047-9.552-12.457,0-3.545,2.323-6.838,6.539-9.275l141.589-81.747c10.343-5.974,28.526-5.191,40.533,1.739l135.558,78.266c6.072,3.5,9.554,8.043,9.554,12.454,0,3.545-2.323,6.841-6.542,9.277Z" transform="translate(-168.677 -93.239)" fill="#0b0244" opacity="0.5"/></g></g><g transform="translate(1222.4 868.823)" opacity="0.5"><g transform="translate(175.39 95.177)"><path d="M447.16,410.972c-7.788,0-15.225-1.57-20.77-4.772L183.807,266.143c-5.427-3.132-8.417-7.485-8.417-12.257,0-5.736,4.306-11.511,11.814-15.845L422.985,101.911c14.106-8.146,35.535-9.025,47.766-1.961L713.335,240.008c5.427,3.132,8.417,7.485,8.417,12.257,0,5.736-4.306,11.513-11.814,15.845L474.156,404.239C466.447,408.69,456.547,410.97,447.16,410.972Zm2.819-314.9c-9.222,0-18.955,2.244-26.54,6.625L187.657,238.828c-7.217,4.166-11.356,9.656-11.356,15.058,0,4.434,2.825,8.506,7.959,11.47L426.842,405.413c11.989,6.92,33,6.037,46.863-1.961l235.78-136.129c7.217-4.168,11.358-9.656,11.358-15.058,0-4.434-2.827-8.508-7.961-11.472L470.3,100.738C464.877,97.607,457.6,96.074,449.979,96.074Z" transform="translate(-175.39 -95.177)" fill="#6ee8fc"/><g transform="translate(207.913 21.867)"><path d="M288.045,111.149a5.219,5.219,0,1,1-5.219-5.221A5.22,5.22,0,0,1,288.045,111.149Z" transform="translate(-277.606 -105.928)" fill="#6ee8fc"/></g><g transform="translate(23.303 128.665)"><circle cx="5.22" cy="5.22" r="5.22" fill="#6ee8fc"/></g></g><g transform="translate(175.39 374.954)"><path d="M447.158,548.516c-7.786,0-15.223-1.568-20.768-4.77L183.807,403.689c-5.427-3.132-8.417-7.487-8.417-12.257,0-5.736,4.306-11.511,11.814-15.845L422.985,239.457c14.106-8.144,35.535-9.025,47.766-1.961L713.335,377.551c5.427,3.134,8.415,7.485,8.417,12.257,0,5.736-4.3,11.513-11.814,15.847L474.156,541.783C466.447,546.235,456.547,548.516,447.158,548.516Zm2.821-314.9c-9.222,0-18.955,2.244-26.54,6.625L187.657,376.371c-7.217,4.168-11.356,9.656-11.356,15.06,0,4.434,2.825,8.506,7.959,11.47L426.842,542.958c11.989,6.92,33,6.039,46.863-1.963l235.78-136.127c7.217-4.168,11.358-9.658,11.358-15.06,0-4.434-2.827-8.506-7.961-11.47L470.3,238.283C464.877,235.153,457.6,233.619,449.979,233.619Z" transform="translate(-175.39 -232.724)" fill="#6ee8fc"/><g transform="translate(23.302 128.663)"><path d="M197.287,301.2a5.22,5.22,0,1,1-5.221-5.221A5.22,5.22,0,0,1,197.287,301.2Z" transform="translate(-186.846 -295.978)" fill="#6ee8fc"/></g><g transform="translate(424.012 227.992)"><circle cx="5.22" cy="5.22" r="5.22" fill="#6ee8fc"/></g><g transform="translate(457.953 207.991)"><path d="M410.972,340.2a5.219,5.219,0,1,1-5.219-5.219A5.22,5.22,0,0,1,410.972,340.2Z" transform="translate(-400.533 -334.978)" fill="#6ee8fc"/></g><g transform="translate(491.894 188.293)"><path d="M427.658,330.513a5.219,5.219,0,1,1-5.219-5.219A5.219,5.219,0,0,1,427.658,330.513Z" transform="translate(-417.219 -325.294)" fill="#6ee8fc"/></g></g><g transform="translate(221.59 125.193)"><g transform="translate(0 137.618)"><path d="M390.735,483.881,217.842,384.062c-13.136-7.585-11.488-20.835,3.68-29.594L387.049,258.9c15.17-8.759,38.116-9.709,51.254-2.126L611.2,356.6c13.138,7.585,11.49,20.833-3.68,29.591L441.989,481.755C426.819,490.514,403.873,491.466,390.735,483.881Z" transform="translate(-186.862 -101.002)" fill="rgba(0,0,0,0.2)"/><path d="M653.343,312.838V277.092H561.129L452.1,214.146c-14.552-8.4-39.967-7.347-56.768,2.353L290.386,277.092H198.1v37.772h.075c-.415,5.685,2.756,11.171,9.747,15.209L399.418,440.63c14.552,8.4,39.967,7.347,56.768-2.353L639.519,332.43C649.212,326.835,653.888,319.585,653.343,312.838Z" transform="translate(-198.103 -145.655)" fill="#312a91"/><path d="M653.343,312.838V277.092H561.129L452.1,214.146c-14.552-8.4-39.967-7.347-56.768,2.353L290.386,277.092H198.1v37.772h.075c-.415,5.685,2.756,11.171,9.747,15.209L399.418,440.63c14.552,8.4,39.967,7.347,56.768-2.353L639.519,332.43C649.212,326.835,653.888,319.585,653.343,312.838Z" transform="translate(-198.103 -145.655)" opacity="0.5" fill="url(#k)"/><path d="M336.377,214.134c-7-4.038-16.506-5.868-26.359-5.626V446.246c10.652-.256,21.709-2.939,30.442-7.982L523.793,332.418c9.692-5.6,14.369-12.845,13.823-19.592V277.08H445.4Z" transform="translate(-82.377 -145.643)" fill="url(#l)"/><path d="M399.418,434.8,207.925,324.238c-14.55-8.4-12.725-23.076,4.076-32.777L395.335,185.615c16.8-9.7,42.217-10.754,56.768-2.353L643.6,293.819c14.55,8.4,12.725,23.074-4.076,32.775L456.186,432.442C439.385,442.142,413.969,443.2,399.418,434.8Z" transform="translate(-198.103 -177.591)" fill="#312a91"/><path d="M399.418,434.8,207.925,324.238c-14.55-8.4-12.725-23.076,4.076-32.777L395.335,185.615c16.8-9.7,42.217-10.754,56.768-2.353L643.6,293.819c14.55,8.4,12.725,23.074-4.076,32.775L456.186,432.442C439.385,442.142,413.969,443.2,399.418,434.8Z" transform="translate(-198.103 -177.591)" opacity="0.5" fill="url(#m)"/><path d="M405.847,434.783,214.355,324.226c-14.55-8.4-18.028-20.739,4.076-32.777L401.765,185.6c8.262-4.772,18.608-7.439,28.721-7.931-12.027-.543-25.118,2.14-35.15,7.931L212,291.449c-16.8,9.7-18.626,24.374-4.076,32.777L399.418,434.783c7.4,4.269,17.6,6.084,28.048,5.575C419.347,439.992,411.711,438.167,405.847,434.783Z" transform="translate(-198.103 -177.578)" opacity="0.5" fill="url(#m)"/><path d="M639.519,268.654,456.186,374.5c-16.8,9.7-42.217,10.752-56.768,2.351L207.925,266.3c-6.991-4.038-10.162-9.523-9.747-15.209H198.1v7.827h.075c-.415,5.685,2.756,11.171,9.747,15.209L399.418,384.681c14.552,8.4,39.967,7.349,56.768-2.351L639.519,276.481c9.692-5.6,14.369-12.843,13.823-19.59v-7.827C653.888,255.809,649.212,263.058,639.519,268.654Z" transform="translate(-198.103 -103.684)" opacity="0.5" fill="url(#o)"/><g transform="translate(399.034 140.031)"><path d="M403.415,254.029c2.089,1.208,2.089,3.163,0,4.371a8.368,8.368,0,0,1-7.569,0c-2.089-1.208-2.089-3.163,0-4.371A8.368,8.368,0,0,1,403.415,254.029Z" transform="translate(-394.28 -239.516)" fill="#fccc6b"/><path d="M409.209,250.684c2.089,1.206,2.089,3.163,0,4.369a8.364,8.364,0,0,1-7.567,0c-2.091-1.206-2.091-3.163,0-4.369A8.364,8.364,0,0,1,409.209,250.684Z" transform="translate(-388.288 -242.975)" fill="#fccc6b"/><path d="M415,247.339c2.091,1.206,2.091,3.163,0,4.369a8.363,8.363,0,0,1-7.567,0c-2.091-1.206-2.091-3.163,0-4.369A8.363,8.363,0,0,1,415,247.339Z" transform="translate(-382.297 -246.434)" fill="#fccc6b"/></g></g><path d="M382.05,397.378,227.763,308.3c-11.722-6.769-10.254-18.591,3.285-26.408L378.759,196.61c13.539-7.815,34.016-8.663,45.74-1.9l154.285,89.077c11.724,6.769,10.254,18.591-3.283,26.408L427.788,395.482C414.252,403.3,393.773,404.145,382.05,397.378Z" transform="translate(-175.616 -26.99)" fill="#fff"/><path d="M366.522,364.059,245.5,294.185c-9.2-5.309-8.043-14.582,2.575-20.713l115.868-66.9c10.62-6.131,26.683-6.8,35.879-1.487l121.024,69.874c9.2,5.309,8.043,14.584-2.575,20.715L402.4,362.572C391.781,368.7,375.718,369.37,366.522,364.059Z" transform="translate(-155.514 -15.246)" fill="#0b0244" opacity="0.5"/><path d="M653.343,309.028a12.92,12.92,0,0,0,0-2.024V207.158l-158.63.7-42.609-24.6c-14.552-8.4-39.967-7.347-56.768,2.353L355.73,208.48l-157.627.7v99.846h.075c-.415,5.685,2.756,11.173,9.747,15.211L399.418,434.8c14.552,8.4,39.967,7.347,56.768-2.353L639.519,326.594c8.728-5.038,13.376-11.417,13.823-17.566Z" transform="translate(-198.103 -39.973)" fill="#5cfff3" opacity="0.5"/><path d="M653.343,245.182V209.436H561.129L452.1,146.49c-14.552-8.4-39.967-7.347-56.768,2.353L290.386,209.436H198.1v37.77h.075c-.415,5.685,2.756,11.171,9.747,15.209L399.418,372.972c14.552,8.4,39.967,7.349,56.768-2.351L639.519,264.772C649.212,259.177,653.888,251.929,653.343,245.182Z" transform="translate(-198.103 -77.997)" fill="#312a91"/><path d="M653.343,245.182V209.436H561.129L452.1,146.49c-14.552-8.4-39.967-7.347-56.768,2.353L290.386,209.436H198.1v37.77h.075c-.415,5.685,2.756,11.171,9.747,15.209L399.418,372.972c14.552,8.4,39.967,7.349,56.768-2.351L639.519,264.772C649.212,259.177,653.888,251.929,653.343,245.182Z" transform="translate(-198.103 -77.997)" opacity="0.5" fill="url(#k)"/><path d="M336.377,146.479c-7-4.04-16.506-5.87-26.359-5.628V378.589c10.652-.256,21.709-2.939,30.442-7.98L523.793,264.761c9.692-5.6,14.369-12.843,13.823-19.59V209.425H445.4Z" transform="translate(-82.377 -77.986)" fill="url(#l)"/><path d="M399.418,367.138,207.925,256.581c-14.55-8.4-12.725-23.074,4.076-32.775L395.335,117.958c16.8-9.7,42.217-10.754,56.768-2.353L643.6,226.164c14.55,8.4,12.725,23.074-4.076,32.775L456.186,364.785C439.385,374.485,413.969,375.539,399.418,367.138Z" transform="translate(-198.103 -109.934)" fill="#312a91"/><path d="M399.418,367.138,207.925,256.581c-14.55-8.4-12.725-23.074,4.076-32.775L395.335,117.958c16.8-9.7,42.217-10.754,56.768-2.353L643.6,226.164c14.55,8.4,12.725,23.074-4.076,32.775L456.186,364.785C439.385,374.485,413.969,375.539,399.418,367.138Z" transform="translate(-198.103 -109.934)" opacity="0.5" fill="url(#m)"/><path d="M405.847,367.125,214.355,256.568c-14.55-8.4-18.028-20.739,4.076-32.775L401.765,117.945c8.262-4.77,18.608-7.439,28.721-7.929-12.027-.545-25.118,2.138-35.15,7.929L212,223.793c-16.8,9.7-18.626,24.374-4.076,32.775L399.418,367.125c7.4,4.269,17.6,6.086,28.048,5.577C419.347,372.334,411.711,370.512,405.847,367.125Z" transform="translate(-198.103 -109.92)" opacity="0.5" fill="url(#m)"/><path d="M639.519,201,456.186,306.845c-16.8,9.7-42.217,10.754-56.768,2.353L207.925,198.639c-6.991-4.036-10.162-9.523-9.747-15.209H198.1v7.827h.075c-.415,5.685,2.756,11.173,9.747,15.209L399.418,317.026c14.552,8.4,39.967,7.347,56.768-2.353L639.519,208.824c9.692-5.6,14.369-12.843,13.823-19.59v-7.827C653.888,188.154,649.212,195.4,639.519,201Z" transform="translate(-198.103 -36.027)" opacity="0.5" fill="url(#o)"/><g transform="translate(195.047 111.821)"><path d="M311.377,179.363c3.977,2.3,3.977,6.019,0,8.313a15.913,15.913,0,0,1-14.4,0c-3.977-2.294-3.977-6.017,0-8.313A15.913,15.913,0,0,1,311.377,179.363Z" transform="translate(-293.994 -151.743)" fill="#5cfff3" opacity="0.2"/><path d="M322.4,173c3.977,2.3,3.977,6.019,0,8.315a15.925,15.925,0,0,1-14.4,0c-3.977-2.3-3.977-6.019,0-8.315A15.913,15.913,0,0,1,322.4,173Z" transform="translate(-282.592 -158.325)" fill="#5cfff3" opacity="0.6"/><path d="M333.429,166.631c3.977,2.3,3.977,6.019,0,8.315a15.926,15.926,0,0,1-14.4,0c-3.977-2.3-3.977-6.019,0-8.315A15.913,15.913,0,0,1,333.429,166.631Z" transform="translate(-271.191 -164.908)" fill="#5cfff3"/></g><path d="M395.081,323.276c-7.1,0-13.882-1.434-18.945-4.357L234.546,237.175c-5.15-2.976-7.988-7.16-7.986-11.779,0-5.47,4.011-10.923,11-14.958l135.558-78.264c12.8-7.386,32.28-8.169,43.417-1.741L558.123,212.18c5.15,2.974,7.986,7.154,7.986,11.777,0,5.47-4.009,10.923-11,14.958L419.551,317.18C412.57,321.21,403.6,323.276,395.081,323.276Zm-17.505-6.859c10.343,5.974,28.526,5.193,40.533-1.739l135.56-78.264c6.07-3.507,9.554-8.047,9.552-12.457,0-3.545-2.323-6.838-6.539-9.275L415.093,132.936c-10.343-5.974-28.526-5.191-40.533,1.739L239,212.941c-6.072,3.5-9.554,8.043-9.554,12.454,0,3.545,2.323,6.841,6.542,9.277Z" transform="translate(-168.677 -93.239)" fill="#0b0244" opacity="0.5"/></g></g><g transform="translate(597.4 961.823)"><g transform="translate(175.39 95.177)"><path d="M571.279,555.2c-11.345,0-22.178-2.287-30.255-6.951L187.651,344.224c-7.905-4.563-12.261-10.9-12.261-17.855,0-8.356,6.273-16.768,17.209-23.082l343.465-198.3c20.549-11.867,51.764-13.147,69.581-2.856L959.017,306.152c7.905,4.563,12.261,10.9,12.261,17.855,0,8.356-6.273,16.771-17.209,23.082L610.6,545.39C599.375,551.873,584.954,555.194,571.279,555.2Zm4.107-458.714c-13.434,0-27.612,3.268-38.661,9.651L193.26,304.434c-10.513,6.068-16.543,14.065-16.543,21.935,0,6.459,4.116,12.391,11.594,16.708L541.682,547.1c17.464,10.08,48.078,8.794,68.265-2.856l343.462-198.3c10.513-6.071,16.546-14.065,16.546-21.935,0-6.459-4.119-12.394-11.6-16.711L604.987,103.277C597.087,98.717,586.488,96.483,575.386,96.483Z" transform="translate(-175.39 -95.177)" fill="#6ee8fc"/><g transform="translate(302.868 31.854)"><path d="M292.812,113.534a7.6,7.6,0,1,1-7.6-7.606A7.6,7.6,0,0,1,292.812,113.534Z" transform="translate(-277.606 -105.928)" fill="#6ee8fc"/></g><g transform="translate(33.945 187.427)"><circle cx="7.604" cy="7.604" r="7.604" fill="#6ee8fc"/></g></g><g transform="translate(175.39 502.73)"><path d="M571.276,692.74c-11.342,0-22.175-2.285-30.252-6.948L187.651,481.77c-7.905-4.563-12.261-10.907-12.261-17.855,0-8.356,6.273-16.768,17.209-23.082l343.465-198.3c20.549-11.864,51.764-13.147,69.581-2.856L959.017,443.695c7.905,4.566,12.258,10.9,12.261,17.855,0,8.356-6.27,16.771-17.209,23.085L610.6,682.932C599.375,689.418,584.954,692.74,571.276,692.74Zm4.11-458.711c-13.434,0-27.612,3.268-38.661,9.651L193.26,441.976c-10.513,6.071-16.543,14.065-16.543,21.938,0,6.459,4.116,12.391,11.594,16.708l353.37,204.022c17.464,10.08,48.075,8.8,68.265-2.859l343.462-198.3c10.513-6.071,16.546-14.068,16.546-21.938,0-6.459-4.119-12.391-11.6-16.708L604.987,240.823C597.087,236.262,586.488,234.028,575.386,234.028Z" transform="translate(-175.39 -232.724)" fill="#6ee8fc"/><g transform="translate(33.944 187.424)"><path d="M202.055,303.584a7.6,7.6,0,1,1-7.606-7.606A7.6,7.6,0,0,1,202.055,303.584Z" transform="translate(-186.846 -295.978)" fill="#6ee8fc"/></g><g transform="translate(617.661 332.117)"><circle cx="7.604" cy="7.604" r="7.604" fill="#6ee8fc"/></g><g transform="translate(667.103 302.982)"><path d="M415.739,342.581a7.6,7.6,0,1,1-7.6-7.6A7.6,7.6,0,0,1,415.739,342.581Z" transform="translate(-400.533 -334.978)" fill="#6ee8fc"/></g><g transform="translate(716.544 274.288)"><path d="M432.425,332.9a7.6,7.6,0,1,1-7.6-7.6A7.6,7.6,0,0,1,432.425,332.9Z" transform="translate(-417.219 -325.294)" fill="#6ee8fc"/></g></g><g transform="translate(242.689 138.901)"><g transform="translate(0 200.469)"><path d="M473.746,589.939,221.892,444.532c-19.135-11.049-16.735-30.35,5.36-43.109L468.377,262.211c22.1-12.759,55.524-14.142,74.662-3.1l251.854,145.41c19.138,11.049,16.738,30.347-5.36,43.106L548.408,586.843C526.31,599.6,492.884,600.988,473.746,589.939Z" transform="translate(-176.763 -32.197)" fill="rgba(0,0,0,0.2)"/><path d="M861.254,360.5V308.43H726.925L568.107,216.736c-21.2-12.237-58.22-10.7-82.695,3.428L332.532,308.43H198.1v55.023h.11c-.6,8.282,4.015,16.273,14.2,22.155L491.359,546.657c21.2,12.237,58.22,10.7,82.695-3.428L841.117,389.042C855.236,380.89,862.048,370.33,861.254,360.5Z" transform="translate(-198.103 -116.965)" fill="#312a91"/><path d="M861.254,360.5V308.43H726.925L568.107,216.736c-21.2-12.237-58.22-10.7-82.695,3.428L332.532,308.43H198.1v55.023h.11c-.6,8.282,4.015,16.273,14.2,22.155L491.359,546.657c21.2,12.237,58.22,10.7,82.695-3.428L841.117,389.042C855.236,380.89,862.048,370.33,861.254,360.5Z" transform="translate(-198.103 -116.965)" opacity="0.5" fill="url(#k)"/><path d="M348.416,216.713c-10.19-5.882-24.045-8.548-38.4-8.2V554.832c15.517-.373,31.624-4.282,44.345-11.627L621.426,389.019c14.119-8.151,20.931-18.711,20.137-28.54V308.407H507.234Z" transform="translate(21.589 -116.942)" fill="url(#l)"/><path d="M491.359,552.262,212.411,391.213c-21.195-12.237-18.537-33.616,5.938-47.746L485.412,189.28c24.475-14.131,61.5-15.666,82.695-3.428L847.055,346.9c21.194,12.237,18.537,33.613-5.938,47.743L574.054,548.834C549.579,562.965,512.557,564.5,491.359,552.262Z" transform="translate(-198.103 -177.591)" fill="#312a91"/><path d="M491.359,552.262,212.411,391.213c-21.195-12.237-18.537-33.616,5.938-47.746L485.412,189.28c24.475-14.131,61.5-15.666,82.695-3.428L847.055,346.9c21.194,12.237,18.537,33.613-5.938,47.743L574.054,548.834C549.579,562.965,512.557,564.5,491.359,552.262Z" transform="translate(-198.103 -177.591)" opacity="0.5" fill="url(#m)"/><path d="M500.725,552.238,221.777,391.189c-21.194-12.24-26.261-30.211,5.938-47.746L494.778,189.256c12.036-6.951,27.106-10.836,41.838-11.553-17.52-.791-36.59,3.117-51.2,11.553L218.349,343.443c-24.475,14.131-27.132,35.506-5.938,47.746L491.359,552.238c10.774,6.219,25.633,8.862,40.857,8.122C520.391,559.826,509.268,557.168,500.725,552.238Z" transform="translate(-198.103 -177.567)" opacity="0.5" fill="url(#m)"/><path d="M841.117,277.6,574.054,431.791c-24.475,14.128-61.5,15.663-82.695,3.425L212.411,274.167c-10.184-5.882-14.8-13.873-14.2-22.155h-.11v11.4h.11c-.6,8.282,4.015,16.273,14.2,22.155L491.359,446.617c21.2,12.24,58.22,10.705,82.695-3.425L841.117,289c14.119-8.151,20.931-18.709,20.137-28.537v-11.4C862.048,258.889,855.236,269.45,841.117,277.6Z" transform="translate(-198.103 -37.288)" opacity="0.5" fill="url(#o)"/><g transform="translate(581.276 203.984)"><path d="M407.587,254.442c3.043,1.76,3.043,4.607,0,6.368a12.189,12.189,0,0,1-11.025,0c-3.043-1.76-3.043-4.607,0-6.368A12.19,12.19,0,0,1,407.587,254.442Z" transform="translate(-394.28 -233.302)" fill="#fccc6b"/><path d="M413.381,251.1c3.043,1.757,3.043,4.608,0,6.365a12.183,12.183,0,0,1-11.023,0c-3.046-1.757-3.046-4.607,0-6.365A12.183,12.183,0,0,1,413.381,251.1Z" transform="translate(-382.906 -239.868)" fill="#fccc6b"/><path d="M419.175,247.752c3.046,1.757,3.046,4.607,0,6.365a12.183,12.183,0,0,1-11.022,0c-3.046-1.757-3.046-4.607,0-6.365A12.183,12.183,0,0,1,419.175,247.752Z" transform="translate(-371.532 -246.434)" fill="#fccc6b"/></g></g><path d="M456.129,492.022,231.378,362.262c-17.076-9.861-14.937-27.082,4.785-38.469L451.335,199.563c19.722-11.384,49.551-12.62,66.63-2.762l224.748,129.76c17.079,9.861,14.936,27.082-4.782,38.469L522.755,489.26C503.036,500.644,473.2,501.88,456.129,492.022Z" transform="translate(-155.415 47.524)" fill="#fff"/><path d="M424.63,438.3l-176.3-101.786c-13.4-7.733-11.716-21.242,3.751-30.172L420.87,208.89c15.47-8.931,38.869-9.9,52.265-2.166l176.3,101.786c13.4,7.734,11.716,21.245-3.751,30.175L476.895,436.133C461.425,445.064,438.026,446.036,424.63,438.3Z" transform="translate(-117.252 69.818)" fill="#0b0244" opacity="0.5"/><path d="M861.254,369.056a18.806,18.806,0,0,0,0-2.948V220.662l-231.077,1.025-62.069-35.835c-21.2-12.237-58.22-10.7-82.695,3.428l-57.693,33.307L198.1,223.61V369.056h.11c-.6,8.282,4.015,16.276,14.2,22.157L491.359,552.262c21.2,12.237,58.22,10.7,82.695-3.428l267.063-154.19c12.714-7.339,19.485-16.632,20.137-25.589Z" transform="translate(-198.103 22.878)" fill="#5cfff3" opacity="0.5"/><path d="M861.254,292.846V240.774H726.925L568.107,149.08c-21.2-12.237-58.22-10.7-82.695,3.428l-152.88,88.265H198.1v55.02h.11c-.6,8.282,4.015,16.273,14.2,22.155L491.359,479c21.2,12.24,58.22,10.705,82.695-3.425l267.063-154.19C855.236,313.232,862.048,302.674,861.254,292.846Z" transform="translate(-198.103 -49.306)" fill="#312a91"/><path d="M861.254,292.846V240.774H726.925L568.107,149.08c-21.2-12.237-58.22-10.7-82.695,3.428l-152.88,88.265H198.1v55.02h.11c-.6,8.282,4.015,16.273,14.2,22.155L491.359,479c21.2,12.24,58.22,10.705,82.695-3.425l267.063-154.19C855.236,313.232,862.048,302.674,861.254,292.846Z" transform="translate(-198.103 -49.306)" opacity="0.5" fill="url(#k)"/><path d="M348.416,149.059c-10.19-5.885-24.045-8.551-38.4-8.2V487.175c15.517-.373,31.624-4.282,44.345-11.624l267.063-154.19c14.119-8.151,20.931-18.709,20.137-28.537V240.753H507.234Z" transform="translate(21.589 -49.285)" fill="url(#l)"/><path d="M491.359,484.605,212.411,323.556c-21.195-12.237-18.537-33.612,5.938-47.743l267.063-154.19c24.475-14.131,61.5-15.665,82.695-3.428L847.055,279.247c21.194,12.237,18.537,33.612-5.938,47.743L574.054,481.177C549.579,495.308,512.557,496.843,491.359,484.605Z" transform="translate(-198.103 -109.934)" fill="#312a91"/><path d="M491.359,484.605,212.411,323.556c-21.195-12.237-18.537-33.612,5.938-47.743l267.063-154.19c24.475-14.131,61.5-15.665,82.695-3.428L847.055,279.247c21.194,12.237,18.537,33.612-5.938,47.743L574.054,481.177C549.579,495.308,512.557,496.843,491.359,484.605Z" transform="translate(-198.103 -109.934)" opacity="0.5" fill="url(#m)"/><path d="M500.725,484.579,221.777,323.53c-21.194-12.237-26.261-30.211,5.938-47.743L494.778,121.6c12.036-6.948,27.106-10.836,41.838-11.55-17.52-.794-36.59,3.114-51.2,11.55L218.349,275.787c-24.475,14.131-27.132,35.506-5.938,47.743L491.359,484.579c10.774,6.219,25.633,8.865,40.857,8.125C520.391,492.168,509.268,489.513,500.725,484.579Z" transform="translate(-198.103 -109.908)" opacity="0.5" fill="url(#m)"/><path d="M841.117,209.944,574.054,364.134c-24.475,14.131-61.5,15.665-82.695,3.428L212.411,206.51c-10.184-5.879-14.8-13.873-14.2-22.155h-.11v11.4h.11c-.6,8.282,4.015,16.276,14.2,22.155L491.359,378.963c21.2,12.237,58.22,10.7,82.695-3.428l267.063-154.19c14.119-8.151,20.931-18.709,20.137-28.537v-11.4C862.048,191.235,855.236,201.793,841.117,209.944Z" transform="translate(-198.103 30.369)" opacity="0.5" fill="url(#o)"/><g transform="translate(284.126 162.89)"><path d="M319.317,180.149c5.793,3.345,5.793,8.768,0,12.11s-15.185,3.345-20.978,0-5.793-8.765,0-12.11S313.524,176.8,319.317,180.149Z" transform="translate(-293.994 -139.915)" fill="#5cfff3" opacity="0.2"/><path d="M330.342,173.783c5.793,3.345,5.793,8.768,0,12.113s-15.185,3.342-20.978,0-5.793-8.768,0-12.113S324.55,170.438,330.342,173.783Z" transform="translate(-272.349 -152.412)" fill="#5cfff3" opacity="0.6"/><path d="M341.368,167.417c5.793,3.345,5.793,8.768,0,12.113s-15.186,3.342-20.978,0-5.793-8.768,0-12.113S335.576,164.072,341.368,167.417Z" transform="translate(-250.705 -164.908)" fill="#5cfff3"/></g><path d="M472.046,413.338c-10.341,0-20.223-2.089-27.6-6.347L238.193,287.913c-7.5-4.335-11.636-10.43-11.633-17.159,0-7.968,5.843-15.911,16.024-21.79L440.052,134.956c18.646-10.759,47.023-11.9,63.246-2.536L709.55,251.5c7.5,4.332,11.633,10.421,11.633,17.156,0,7.968-5.84,15.911-16.021,21.79L507.691,404.458C497.522,410.327,484.455,413.338,472.046,413.338Zm-25.5-9.991c15.067,8.7,41.553,7.565,59.044-2.533L703.061,286.8c8.842-5.108,13.917-11.722,13.914-18.146,0-5.165-3.384-9.962-9.526-13.511L501.2,136.067c-15.067-8.7-41.553-7.562-59.044,2.533L244.685,252.612c-8.845,5.105-13.917,11.716-13.917,18.143,0,5.165,3.384,9.965,9.529,13.514Z" transform="translate(-142.241 -78.24)" fill="#0b0244" opacity="0.5"/></g></g></g></svg>