<svg xmlns="http://www.w3.org/2000/svg" xmlns:xlink="http://www.w3.org/1999/xlink" width="34" height="34" viewBox="0 0 34 34"><defs><clipPath id="a"><rect width="18" height="18" transform="translate(3217 542)" fill="#ffff79" stroke="#707070" stroke-width="1"/></clipPath></defs><g transform="translate(-3209 -534)"><circle cx="17" cy="17" r="17" transform="translate(3209 534)" fill="rgba(0,0,0,0.25)"/><g clip-path="url(#a)"><path d="M9,0a9,9,0,1,0,9,9A9.01,9.01,0,0,0,9,0Zm4.28,13.655a.749.749,0,0,1-1.06,0L8.47,9.905a.747.747,0,0,1-.22-.53V4.5a.75.75,0,0,1,1.5,0V9.065l3.53,3.53A.749.749,0,0,1,13.28,13.655Zm0,0" transform="translate(3217 542)" fill="#ffff79"/></g></g></svg>