<svg xmlns="http://www.w3.org/2000/svg" xmlns:xlink="http://www.w3.org/1999/xlink" width="150" height="150" viewBox="0 0 150 150"><defs><linearGradient id="a" x1="1" x2="0.038" y2="0.969" gradientUnits="objectBoundingBox"><stop offset="0" stop-color="#1039a6"/><stop offset="1" stop-color="#872cd6"/></linearGradient><filter id="b" x="1" y="1" width="148" height="148" filterUnits="userSpaceOnUse"><feOffset input="SourceAlpha"/><feGaussianBlur stdDeviation="3" result="c"/><feFlood flood-opacity="0.161"/><feComposite operator="in" in2="c"/><feComposite in="SourceGraphic"/></filter><clipPath id="d"><rect width="80" height="80" transform="translate(4374 280.795)" stroke="#707070" stroke-width="1" fill="url(#a)"/></clipPath></defs><g transform="translate(-4326 -267)"><circle cx="75" cy="75" r="75" transform="translate(4326 267)" fill="#eee"/><g transform="matrix(1, 0, 0, 1, 4326, 267)" filter="url(#b)"><circle cx="65" cy="65" r="65" transform="translate(10 10)" fill="#f4f4f4"/></g><g transform="translate(-13 21.205)" clip-path="url(#d)"><path d="M86.007,8.175,80.083,2.6,77.529.183l-2.38,2.589L71.24,7.011h-13.9a.22.22,0,0,0-.1.017.157.157,0,0,0-.087-.017H19.137A8.69,8.69,0,0,0,10.451,15.7V71.292a8.69,8.69,0,0,0,8.687,8.687H74.732a8.69,8.69,0,0,0,8.687-8.687V16.079l2.78-3.023,2.311-2.536Zm-57.4,61.38c-6.463,0-10.893-3.44-11.206-8.687h4.43c.469,2.849,3.145,4.552,7.106,4.552,3.631,0,6.306-1.894,6.306-4.6,0-2.38-1.581-3.648-5.525-4.6l-3.787-.938c-5.212-1.268-7.748-3.978-7.748-8.252,0-5.247,4.274-8.739,10.754-8.739,5.994,0,10.424,3.492,10.58,8.565h-4.43c-.469-2.693-2.832-4.43-6.306-4.43-3.648,0-6.011,1.737-6.011,4.43,0,2.224,1.581,3.336,5.368,4.291l3.318.8c6.011,1.425,8.53,3.961,8.53,8.409C39.985,66.062,35.555,69.554,28.606,69.554ZM66.045,59.13h-16.3v.226c.174,3.683,2.606,6.515,6.2,6.515,2.606,0,4.552-.921,5.368-2.606h4.4c-.973,3.978-4.726,6.289-9.937,6.289-6.515,0-10.58-4.309-10.58-11.223s4.065-11.362,10.58-11.362c6.359,0,10.268,4.152,10.268,10.91ZM55.152,41.757,36.511,24.036l5.612-5.907,12.7,11.814L77.7,5.117l5.924,5.577Zm.625,8.773a5.564,5.564,0,0,0-5.8,5.125H61.424A5.309,5.309,0,0,0,55.778,50.531Z" transform="translate(4364.418 280.817)" fill="url(#a)"/></g></g></svg>