<svg xmlns="http://www.w3.org/2000/svg" xmlns:xlink="http://www.w3.org/1999/xlink" width="202.871" height="92.254" viewBox="0 0 202.871 92.254"><defs><style>.a,.b{fill:url(#a);}.b,.k{opacity:0.3;}.c,.d,.f,.n{fill:#e8975b;}.d,.m{opacity:0.6;}.e,.o{fill:#e82b88;}.f{opacity:0.4;}.g{fill:url(#h);}.h{fill:url(#i);}.i,.n,.o{opacity:0.5;}.i{fill:url(#j);}.j{fill:url(#k);}.k{fill:url(#l);}.l{fill:url(#m);}.m{fill:#020230;}</style><linearGradient id="a" y1="0.5" x2="1" y2="0.5" gradientUnits="objectBoundingBox"><stop offset="0" stop-color="#e39a65"/><stop offset="1" stop-color="#e95f8d"/></linearGradient><radialGradient id="h" cx="-52.063" cy="-48.335" r="237.032" gradientTransform="translate(-161.016 -159.958) scale(0.37 0.37)" gradientUnits="userSpaceOnUse"><stop offset="0.004" stop-color="#4c02f1"/><stop offset="0.008" stop-color="#4b02ef"/><stop offset="0.126" stop-color="#3802c3"/><stop offset="0.249" stop-color="#29029e"/><stop offset="0.377" stop-color="#1c037f"/><stop offset="0.51" stop-color="#120367"/><stop offset="0.651" stop-color="#0b0357"/><stop offset="0.806" stop-color="#07034d"/><stop offset="1" stop-color="#06044a"/></radialGradient><radialGradient id="i" cx="20.419" cy="-3.324" r="226.54" gradientTransform="translate(-116.272 -98.47) scale(0.374 0.374)" xlink:href="#h"/><radialGradient id="j" cx="8.586" cy="-10.2" r="159.155" gradientTransform="translate(3.629 -4.311) scale(0.577 0.577)" gradientUnits="userSpaceOnUse"><stop offset="0" stop-color="#e39a65"/><stop offset="0.474" stop-color="#a92ffb"/><stop offset="0.588" stop-color="#881bfa"/><stop offset="0.726" stop-color="#6507fa"/><stop offset="1" stop-color="#3919bb"/></radialGradient><radialGradient id="k" cx="42.223" cy="12.465" r="173.034" gradientTransform="translate(-69.178 -59.082) scale(0.577 0.577)" xlink:href="#j"/><radialGradient id="l" cx="21.58" cy="-0.18" r="167.816" gradientTransform="translate(-90.448 -78.244) scale(0.528 0.528)" xlink:href="#j"/><radialGradient id="m" cx="142.419" cy="92.407" r="132.692" gradientTransform="translate(-80.844 -60.317) scale(0.615 0.615)" xlink:href="#j"/></defs><g transform="translate(-66.727 -126.264)"><path class="a" d="M481.067,247.481a3.176,3.176,0,0,1-1.59-.424h0l-5.36-3.095a.992.992,0,0,1,0-1.719l5.359-3.094a3.187,3.187,0,0,1,3.179,0l5.36,3.094a.992.992,0,0,1,0,1.719l-5.359,3.095A3.176,3.176,0,0,1,481.067,247.481Zm-1.165-1.16a2.336,2.336,0,0,0,2.33,0l5.36-3.094a.143.143,0,0,0,0-.247l-5.36-3.095a2.337,2.337,0,0,0-2.33,0l-5.36,3.095a.143.143,0,0,0,0,.247Z" transform="translate(-221.079 -61.104)"/><path class="a" d="M288.868,311.076a5.158,5.158,0,0,1-2.582-.69l-9.224-5.325a1.4,1.4,0,0,1,0-2.428l9.224-5.325a5.176,5.176,0,0,1,5.165,0l9.224,5.326a1.4,1.4,0,0,1,0,2.428l-9.224,5.325A5.162,5.162,0,0,1,288.868,311.076Zm0-13.609a4.317,4.317,0,0,0-2.158.576l-9.224,5.325a.552.552,0,0,0,0,.957l9.224,5.325h0a4.328,4.328,0,0,0,4.315,0l9.225-5.325a.553.553,0,0,0,0-.956l-9.224-5.326A4.317,4.317,0,0,0,288.867,297.467Z" transform="translate(-113.901 -92.559)"/><path class="b" d="M287,310.522l-9.224-5.326a.977.977,0,0,1,0-1.692L287,298.179a4.739,4.739,0,0,1,4.741,0l9.224,5.325a.977.977,0,0,1,0,1.692l-9.223,5.325A4.742,4.742,0,0,1,287,310.522Z" transform="translate(-114.406 -93.062)"/><path class="a" d="M88.274,237.458a8.771,8.771,0,0,1-4.389-1.173l-16.043-9.262a2.232,2.232,0,0,1,0-3.866L83.885,213.9a8.8,8.8,0,0,1,8.778,0l16.043,9.262a2.232,2.232,0,0,1,0,3.865l-16.043,9.262A8.772,8.772,0,0,1,88.274,237.458Zm0-23.67a7.71,7.71,0,0,0-3.856,1.03L68.375,224.08a1.167,1.167,0,0,0,0,2.021l16.043,9.263h0a7.734,7.734,0,0,0,7.712,0l16.043-9.263a1.166,1.166,0,0,0,0-2.02L92.13,214.818A7.711,7.711,0,0,0,88.273,213.788Z" transform="translate(0 -46.976)"/><path class="a" d="M156.969,158.568a7.136,7.136,0,0,1-3.568-.953h0l-13.058-7.54a1.808,1.808,0,0,1,0-3.131L153.4,139.4a7.154,7.154,0,0,1,7.136,0l13.059,7.54a1.807,1.807,0,0,1,0,3.131l-13.058,7.54A7.137,7.137,0,0,1,156.969,158.568Zm-3.143-1.689a6.3,6.3,0,0,0,6.286,0l13.058-7.54a.958.958,0,0,0,0-1.66l-13.058-7.54a6.306,6.306,0,0,0-6.286,0l-13.058,7.539a.959.959,0,0,0,0,1.66Z" transform="translate(-39.506 -6.622)"/><path class="b" d="M154.119,157.749l-13.058-7.54a1.383,1.383,0,0,1,0-2.4l13.058-7.539a6.709,6.709,0,0,1,6.711,0l13.059,7.539a1.383,1.383,0,0,1,0,2.4l-13.058,7.539A6.712,6.712,0,0,1,154.119,157.749Z" transform="translate(-40.012 -7.124)"/><path class="a" d="M428.141,190.01a9.866,9.866,0,0,1-4.937-1.319h0l-18.386-10.615a2.372,2.372,0,0,1,0-4.109L423.2,163.353a9.9,9.9,0,0,1,9.874,0l18.386,10.616a2.372,2.372,0,0,1,0,4.109l-18.386,10.615A9.867,9.867,0,0,1,428.141,190.01Zm-4.512-2.055a9.052,9.052,0,0,0,9.024,0l18.386-10.615a1.523,1.523,0,0,0,0-2.637l-18.386-10.616a9.052,9.052,0,0,0-9.025,0L405.243,174.7a1.523,1.523,0,0,0,0,2.637Z" transform="translate(-183.052 -19.435)"/><g transform="translate(152.234 152.193)"><path class="c" d="M288.27,184.754l11.75,6.784a2.715,2.715,0,0,0,2.456,0,.748.748,0,0,0,0-1.417l-11.75-6.784a2.713,2.713,0,0,0-2.455,0A.748.748,0,0,0,288.27,184.754Z" transform="translate(-272.33 -183.043)"/><path class="d" d="M277.006,189.84a.748.748,0,0,0,0,1.417l18.074,10.435a2.714,2.714,0,0,0,2.455,0,.748.748,0,0,0,0-1.417l-18.074-10.435A2.715,2.715,0,0,0,277.006,189.84Z" transform="translate(-266.21 -186.577)"/><path class="c" d="M265.742,197.761l3.624,2.092a2.714,2.714,0,0,0,2.455,0,.748.748,0,0,0,0-1.417l-3.624-2.092a2.714,2.714,0,0,0-2.455,0A.748.748,0,0,0,265.742,197.761Z" transform="translate(-260.089 -190.11)"/><path class="e" d="M254.477,204.264l10.23,5.907a2.714,2.714,0,0,0,2.455,0,.748.748,0,0,0,0-1.417l-10.23-5.907a2.715,2.715,0,0,0-2.456,0A.748.748,0,0,0,254.477,204.264Z" transform="translate(-253.969 -193.644)"/><path class="c" d="M296.164,213.908a.748.748,0,0,0,0-1.418l-10.23-5.907a2.716,2.716,0,0,0-2.455,0,.748.748,0,0,0,0,1.418l10.23,5.907A2.714,2.714,0,0,0,296.164,213.908Z" transform="translate(-269.726 -195.674)"/><path class="d" d="M321.7,227.233l-.6-.347-2.906-1.678a2.713,2.713,0,0,0-2.455,0,.748.748,0,0,0,0,1.418l2.906,1.678.6.347,2.907,1.678a2.714,2.714,0,0,0,2.455,0,.748.748,0,0,0,0-1.418Z" transform="translate(-287.253 -205.793)"/></g><g transform="translate(193.893 126.264)"><g transform="translate(15.207)"><path class="c" d="M448.652,127.587a2.409,2.409,0,0,1,2.18,0l1.073.625a.664.664,0,0,1,0,1.259,2.409,2.409,0,0,1-2.18,0l-1.073-.625A.664.664,0,0,1,448.652,127.587Z" transform="translate(-416.367 -126.841)"/><path class="c" d="M426.335,126.524a2.41,2.41,0,0,1,2.18,0l6.594,3.807a.664.664,0,0,1,0,1.258,2.407,2.407,0,0,1-2.18,0l-6.594-3.807A.664.664,0,0,1,426.335,126.524Z" transform="translate(-404.242 -126.264)"/><path class="c" d="M381.833,159.885a2.409,2.409,0,0,1,2.18,0l3.562,2.056a.664.664,0,0,1,0,1.259,2.41,2.41,0,0,1-2.18,0l-3.562-2.056A.664.664,0,0,1,381.833,159.885Z" transform="translate(-380.062 -144.39)"/><path class="f" d="M393.036,154.542a2.409,2.409,0,0,1,2.18,0l3.117,1.8a.664.664,0,0,1,0,1.259,2.409,2.409,0,0,1-2.18,0l-3.117-1.8A.664.664,0,0,1,393.036,154.542Z" transform="translate(-386.149 -141.487)"/><path class="f" d="M378.944,134.566a2.409,2.409,0,0,1,2.18,0l14.222,8.225a.664.664,0,0,1,0,1.259,2.409,2.409,0,0,1-2.18,0l-14.223-8.225A.664.664,0,0,1,378.944,134.566Z" transform="translate(-378.493 -130.633)"/><path class="c" d="M408.938,140.1a2.41,2.41,0,0,1,2.18,0l5.2,3a.664.664,0,0,1,0,1.259,2.407,2.407,0,0,1-2.18,0l-5.2-3A.664.664,0,0,1,408.938,140.1Z" transform="translate(-394.789 -133.641)"/><path class="c" d="M423.721,136.826a2.41,2.41,0,0,1,2.18,0l3.116,1.8a.664.664,0,0,1,0,1.259,2.409,2.409,0,0,1-2.18,0l-3.117-1.8A.664.664,0,0,1,423.721,136.826Z" transform="translate(-402.822 -131.861)"/></g><g transform="translate(0 11.759)"><path class="c" d="M387.281,163.012a2.409,2.409,0,0,1,2.18,0l1.073.625a.664.664,0,0,1,0,1.259,2.409,2.409,0,0,1-2.18,0l-1.073-.625A.664.664,0,0,1,387.281,163.012Z" transform="translate(-367.816 -157.848)"/><path class="f" d="M348.259,152.275a2.407,2.407,0,0,1,2.18,0l14.223,8.225a.664.664,0,0,1,0,1.259,2.41,2.41,0,0,1-2.18,0l-14.223-8.225A.664.664,0,0,1,348.259,152.275Z" transform="translate(-346.613 -152.014)"/><path class="c" d="M345.644,162.576a2.41,2.41,0,0,1,2.18,0l10.745,6.218a.664.664,0,0,1,0,1.259,2.409,2.409,0,0,1-2.18,0l-10.746-6.218A.664.664,0,0,1,345.644,162.576Z" transform="translate(-345.193 -157.611)"/></g></g><g transform="translate(131.096 138.133)"><path class="g" d="M291.267,207.179c-.2-.517-.439-1.031-.7-1.542a16.888,16.888,0,0,1-1.767,5.326,13.1,13.1,0,0,1-.041,3.477l-2.05.732-5.622,5.513-7.5,3.857-8.637,3.015-10.1,1.792h-8.636l-10.185-1.874L224.3,224.542l-9.37-6.518-3.656-3.243a13.216,13.216,0,0,1-.184-2.137,36.281,36.281,0,0,1-2.121-6.08q-.172.4-.321.8l-.966-1.67V213l.018-.016c.192,6.1,4.312,12.167,12.375,16.822,16.524,9.54,43.313,9.54,59.836,0,8.3-4.791,12.42-11.077,12.381-17.356l.006.006v-6.768Z" transform="translate(-207.682 -181.26)"/><path class="h" d="M224,168.63c15.2-8.774,39.838-8.774,55.036,0,6.908,3.988,10.665,9.1,11.292,14.318a16.888,16.888,0,0,0,1.767-5.326,18.741,18.741,0,0,0-1.5-2.471l1.223-.107L285.8,164.507l-17.654-8.473-15.915-1.955-13.607,1.711-8.637,1.63-7.007,3.259-7.251,5.3-3.585,7.088-.452,3.213a17.541,17.541,0,0,0-1.191,2.275,36.281,36.281,0,0,0,2.121,6.08C212.571,178.842,216.357,173.046,224,168.63Z" transform="translate(-209.213 -153.246)"/><ellipse class="i" cx="38.917" cy="22.468" rx="38.917" ry="22.468" transform="translate(3.394 4.598)"/><path class="j" d="M279.91,159.411c-16.524-9.54-43.313-9.54-59.836,0s-16.523,25.007,0,34.546,43.313,9.54,59.836,0S296.433,168.951,279.91,159.411Zm-2.4,33.161c-15.2,8.774-39.838,8.774-55.036,0s-15.2-23,0-31.775,39.838-8.774,55.036,0S292.709,183.8,277.511,192.572Z" transform="translate(-207.682 -152.256)"/><path class="k" d="M226.7,172c-6.706,3.872-10.448,8.8-11.236,13.862.788,5.058,4.531,9.991,11.237,13.863,15.2,8.774,39.839,8.775,55.036,0,6.706-3.872,10.448-8.8,11.236-13.862-.788-5.058-4.531-9.991-11.237-13.863C266.543,163.224,241.9,163.223,226.7,172Z" transform="translate(-211.913 -159.407)"/><g transform="translate(67.924 44.288)"><path class="l" d="M411.779,284.91a2.59,2.59,0,0,1-1.3-.35L357.725,254.1a2.607,2.607,0,1,1,2.608-4.516l52.752,30.457a2.608,2.608,0,0,1-1.306,4.866Z" transform="translate(-356.421 -249.237)"/></g><path class="m" d="M360.332,249.588a2.607,2.607,0,1,0-2.608,4.516l3.8,2.2h0s-1.383-3.5,2.716-4.453h0Z" transform="translate(-288.497 -204.949)"/></g><g transform="translate(102.492 179.445)"><g transform="translate(0 0)"><g transform="translate(1.263)"><path class="c" d="M192.6,242.98a2.4,2.4,0,0,1,2.172,0l14.172,8.2a.662.662,0,0,1,0,1.254,2.4,2.4,0,0,1-2.172,0l-14.172-8.2A.662.662,0,0,1,192.6,242.98Z" transform="translate(-171.904 -242.72)"/><path class="c" d="M148.261,276.221a2.4,2.4,0,0,1,2.172,0l11.151,6.451a.662.662,0,0,1,0,1.254,2.4,2.4,0,0,1-2.172,0l-11.15-6.451A.662.662,0,0,1,148.261,276.221Z" transform="translate(-147.81 -260.781)"/><path class="n" d="M176.07,280.538a2.4,2.4,0,0,1,2.172,0l3.106,1.793a.662.662,0,0,1,0,1.254,2.4,2.4,0,0,1-2.172,0l-3.105-1.793A.662.662,0,0,1,176.07,280.538Z" transform="translate(-162.92 -263.127)"/><path class="c" d="M178.675,270.273a2.4,2.4,0,0,1,2.172,0l6.57,3.794a.662.662,0,0,1,0,1.254,2.4,2.4,0,0,1-2.172,0l-6.57-3.794A.662.662,0,0,1,178.675,270.273Z" transform="translate(-164.335 -257.55)"/><path class="c" d="M191.915,266.149a2.4,2.4,0,0,1,2.172,0l5.178,2.989a.662.662,0,0,1,0,1.254,2.4,2.4,0,0,1-2.172,0l-5.178-2.989A.662.662,0,0,1,191.915,266.149Z" transform="translate(-171.53 -255.309)"/><path class="o" d="M190,253.244a2.4,2.4,0,0,1,2.172,0l10.707,6.2a.662.662,0,0,1,0,1.254,2.4,2.4,0,0,1-2.172,0L190,254.5A.662.662,0,0,1,190,253.244Z" transform="translate(-170.489 -248.297)"/></g><g transform="translate(0 16.843)"><path class="c" d="M154.185,279.623c.6-.346,9.174,4.056,9.774,4.4l1.07.622a.662.662,0,0,1,0,1.254,2.4,2.4,0,0,1-2.172,0l-1.069-.622C161.187,284.933,153.585,279.97,154.185,279.623Z" transform="translate(-149.992 -279.604)"/><path class="c" d="M148.1,287.919a2.4,2.4,0,0,1,2.172,0l6.57,3.793a.662.662,0,0,1,0,1.254,2.4,2.4,0,0,1-2.172,0l-6.57-3.793A.662.662,0,0,1,148.1,287.919Z" transform="translate(-146.459 -283.98)"/><path class="c" d="M145.494,298.183a2.4,2.4,0,0,1,2.172,0l3.106,1.793a.662.662,0,0,1,0,1.254,2.4,2.4,0,0,1-2.172,0l-3.105-1.793A.662.662,0,0,1,145.494,298.183Z" transform="translate(-145.044 -289.557)"/></g></g></g><g transform="translate(232.034 148.978)"><path class="c" d="M456.555,177.392l9.537,5.506a2.2,2.2,0,0,0,1.993,0,.608.608,0,0,0,0-1.151l-9.537-5.506a2.2,2.2,0,0,0-1.992,0A.607.607,0,0,0,456.555,177.392Z" transform="translate(-443.616 -176.003)"/><path class="d" d="M447.412,181.52a.607.607,0,0,0,0,1.15l8.142,4.722a2.2,2.2,0,0,0,1.993,0,.607.607,0,0,0,0-1.15L449.4,181.52A2.2,2.2,0,0,0,447.412,181.52Z" transform="translate(-438.649 -178.871)"/><path class="c" d="M438.269,187.949l2.942,1.7a2.2,2.2,0,0,0,1.992,0,.607.607,0,0,0,0-1.151l-2.941-1.7a2.2,2.2,0,0,0-1.993,0A.607.607,0,0,0,438.269,187.949Z" transform="translate(-433.681 -181.739)"/><path class="e" d="M429.126,193.228l8.3,4.794a2.2,2.2,0,0,0,1.992,0,.607.607,0,0,0,0-1.151l-8.3-4.794a2.2,2.2,0,0,0-1.993,0A.607.607,0,0,0,429.126,193.228Z" transform="translate(-428.714 -184.607)"/><path class="c" d="M460.049,199.362a.607.607,0,0,0,0-1.151l-5.391-3.1a2.2,2.2,0,0,0-1.993,0,.607.607,0,0,0,0,1.15l5.391,3.1A2.2,2.2,0,0,0,460.049,199.362Z" transform="translate(-441.503 -186.255)"/></g><path class="c" d="M106.388,231.729l9.537,5.506a2.2,2.2,0,0,0,1.993,0,.607.607,0,0,0,0-1.15l-9.537-5.506a2.2,2.2,0,0,0-1.993,0A.607.607,0,0,0,106.388,231.729Z" transform="translate(-21.325 -56.548)"/><path class="d" d="M97.245,235.857a.607.607,0,0,0,0,1.15l8.142,4.722a2.2,2.2,0,0,0,1.992,0,.607.607,0,0,0,0-1.15l-8.142-4.722A2.2,2.2,0,0,0,97.245,235.857Z" transform="translate(-16.357 -59.416)"/></g></svg>