<svg xmlns="http://www.w3.org/2000/svg" xmlns:xlink="http://www.w3.org/1999/xlink" width="84" height="84" viewBox="0 0 84 84"><defs><style>.a,.e{fill:#333;}.a{stroke:#707070;}.b{fill:rgba(255,255,255,0.5);}.c{fill:#fff;}.d{clip-path:url(#a);}</style><clipPath id="a"><rect class="a" width="38.012" height="38.012"/></clipPath></defs><g transform="translate(-837 -106)"><circle class="b" cx="42" cy="42" r="42" transform="translate(837 106)"/><circle class="c" cx="36.061" cy="36.061" r="36.061" transform="translate(842.939 111.939)"/><g class="d" transform="translate(859.994 128.994)"><g transform="translate(0 7.196)"><g transform="translate(0 0)"><path class="e" d="M37.864,21.861a1.228,1.228,0,0,0,0-1.171,21.453,21.453,0,0,0-37.715,0,1.228,1.228,0,0,0,0,1.171,21.452,21.452,0,0,0,37.715,0ZM19.006,30.335a9.059,9.059,0,1,1,9.059-9.059A9.059,9.059,0,0,1,19.006,30.335Z" transform="translate(0 -9.465)"/><path class="e" d="M23.544,18.927a4.628,4.628,0,0,0-1.105.134,2.395,2.395,0,0,1-3.378,3.378,4.617,4.617,0,1,0,4.483-3.511Z" transform="translate(-4.538 -11.734)"/></g></g></g></g></svg>