<svg id="Capa_1" enable-background="new 0 0 429.834 429.834" height="512" viewBox="0 0 429.834 429.834" width="512" xmlns="http://www.w3.org/2000/svg"><g><g id="Page-1_10_"><g transform="translate(1 1)"><g id="Icons_10_"><g id="Shape_10_"><path d="m416.441 174.372c-1.237-1.765-2.68-3.376-4.298-4.8l-80.164-71.854-.072-.072h-235.979l-.072.072-80.164 71.854c-6.027 5.467-9.484 13.212-9.528 21.348v202.094c.028 15.815 12.841 28.628 28.656 28.656h358.195c15.815-.028 28.628-12.841 28.656-28.656v-202.093c.004-5.923-1.823-11.703-5.23-16.549z" fill="#f0c419"/></g><g><path d="m416.441 174.372-167.922 121.93-18.196 13.182c-9.839 7.128-23.106 7.272-33.097.358l-18.769-12.967-169.929-117.273c1.598-3.842 4.048-7.272 7.164-10.029l80.164-71.854.072-.072h235.979l.072.072 80.164 71.854c1.618 1.423 3.061 3.035 4.298 4.799z" fill="#ffeb3a"/></g><g><path d="m178.456 296.875-162.477 117.703c-6.245-5.424-9.826-13.292-9.815-21.563v-202.094c-.019-3.897.787-7.755 2.364-11.319z" fill="#ffdc00"/></g><g><path d="m411.856 414.578c-5.211 4.574-11.908 7.095-18.841 7.092h-358.195c-6.933.002-13.63-2.519-18.841-7.092l162.477-117.703 18.769 12.967c9.991 6.914 23.258 6.77 33.097-.358l18.196-13.182z" fill="#ff9801"/></g><g><path d="m421.671 190.921v202.094c.012 8.271-3.57 16.14-9.815 21.563l-14.041-10.173-149.296-108.103 151.302-109.823 16.62-12.107c3.407 4.846 5.234 10.626 5.23 16.549z" fill="#fec108"/></g><g><path d="m400.179 190.921v202.094c-.001 3.919-.806 7.795-2.364 11.391l-149.296-108.104 151.302-109.823c.228 1.47.348 2.955.358 4.442z" fill="#ffdc00"/></g><g><path d="m335.704 127.95c.003 32.301-12.827 63.279-35.667 86.119s-53.819 35.67-86.119 35.667c-3.588.015-7.175-.152-10.746-.501-62.845-5.555-111.038-58.195-111.038-121.285s48.192-115.73 111.037-121.285c3.571-.349 7.158-.516 10.746-.501 32.301-.003 63.279 12.827 86.119 35.667s35.67 53.819 35.668 86.119z" fill="#bb193b"/></g><g id="Oval_10_"><ellipse cx="203.171" cy="127.95" fill="#ef314c" rx="111.041" ry="121.285"/></g><g><path d="m301.317 112.476-22.495-4.513c-2.392-.514-4.376-2.176-5.301-4.442-.015-.152-.064-.299-.143-.43-1.004-2.263-.788-4.881.573-6.949l12.68-19.056c1.896-2.83 1.537-6.605-.86-9.027l-6.018-5.946-5.946-6.018c-2.422-2.396-6.196-2.756-9.027-.86l-19.056 12.68c-2.068 1.361-4.686 1.577-6.949.573-.131-.079-.278-.128-.43-.143-2.265-.925-3.927-2.909-4.442-5.301l-4.513-22.495c-.675-3.339-3.614-5.738-7.021-5.731h-16.907c-3.407-.007-6.345 2.392-7.021 5.731l-4.513 22.495c-.514 2.392-2.176 4.376-4.442 5.301-.152.015-.299.064-.43.143-2.263 1.004-4.881.788-6.949-.573l-19.056-12.68c-2.83-1.896-6.605-1.537-9.027.86l-5.946 6.018-6.018 5.946c-2.396 2.422-2.756 6.196-.86 9.027l12.68 19.056c1.361 2.068 1.577 4.686.573 6.949-.079.131-.128.278-.143.43-.925 2.265-2.909 3.927-5.301 4.442l-22.495 4.513c-3.339.675-5.738 3.614-5.731 7.021v16.907c-.007 3.407 2.392 6.345 5.731 7.021l22.495 4.513c2.392.514 4.376 2.176 5.301 4.442.015.152.064.299.143.43 1.004 2.263.788 4.881-.573 6.949l-12.68 19.056c-1.896 2.83-1.537 6.605.86 9.027l6.018 5.946 5.946 6.018c2.422 2.396 6.196 2.756 9.027.86l19.056-12.68c2.068-1.361 4.686-1.577 6.949-.573.131.079.278.128.43.143 2.265.925 3.927 2.909 4.442 5.301l4.513 22.495c.675 3.339 3.614 5.738 7.021 5.731h16.907c3.407.007 6.345-2.392 7.021-5.731l4.513-22.495c.514-2.392 2.176-4.376 4.442-5.301.152-.015.299-.064.43-.143 2.263-1.004 4.881-.788 6.949.573l19.056 12.68c2.83 1.896 6.605 1.537 9.027-.86l5.946-6.018 6.018-5.946c2.397-2.422 2.756-6.196.86-9.027l-12.68-19.056c-1.361-2.068-1.577-4.686-.573-6.949.079-.131.128-.278.143-.43.925-2.265 2.909-3.927 5.301-4.442l22.495-4.513c3.339-.675 5.738-3.614 5.731-7.021v-16.907c.007-3.407-2.392-6.345-5.731-7.021zm-87.4 36.966c-11.87 0-21.492-9.622-21.492-21.492s9.622-21.492 21.492-21.492 21.492 9.622 21.492 21.492c.008 5.702-2.254 11.173-6.286 15.205-4.033 4.033-9.503 6.295-15.206 6.287z" fill="#02a9f4"/></g></g><g id="Layer_10_10_"><g><path d="m393.015 428.834h-358.195c-9.571 0-18.567-3.722-25.329-10.487-6.769-6.772-10.494-15.769-10.491-25.332v-202.094c-.017-10.172 4.327-19.907 11.918-26.69l80.157-71.849c2.882-2.589 7.349-2.445 10.018.374 2.669 2.816 2.644 7.213-.101 9.955l-.07.07-80.447 72.125c-4.554 4.072-7.157 9.899-7.146 16v202.107c-.003 5.744 2.232 11.138 6.296 15.202 4.054 4.058 9.452 6.289 15.195 6.289h358.195c5.744 0 11.145-2.232 15.202-6.296 4.058-4.051 6.289-9.452 6.289-15.195v-202.092c.007-6.118-2.589-11.946-7.136-16.003l-80.174-71.866 9.529-10.704 80.202 71.891c7.577 6.772 11.921 16.504 11.907 26.697v202.079c0 9.564-3.722 18.56-10.48 25.333-6.779 6.764-15.776 10.486-25.339 10.486z"/></g><g><path d="m213.497 322.075c-7.115 0-14.23-2.106-20.344-6.324l-188.693-130.255c-3.257-2.246-4.075-6.709-1.826-9.962s6.713-4.075 9.962-1.826l188.693 130.248c7.496 5.17 17.466 5.065 24.843-.294l186.094-135.086c3.211-2.333 7.682-1.609 10.011 1.588 2.323 3.201 1.609 7.682-1.588 10.004l-186.101 135.093c-6.261 4.541-13.656 6.814-21.051 6.814z"/></g><g><path d="m411.848 421.74c-1.455 0-2.924-.441-4.198-1.364l-163.335-118.274c-3.204-2.316-3.918-6.8-1.595-10.004 2.316-3.204 6.793-3.932 10.004-1.595l163.336 118.274c3.204 2.316 3.918 6.8 1.595 10.004-1.399 1.931-3.589 2.959-5.807 2.959z"/></g><g><path d="m15.986 421.74c-2.221 0-4.407-1.028-5.81-2.959-2.319-3.204-1.602-7.682 1.602-10.004l162.475-117.701c3.211-2.337 7.682-1.602 10.004 1.595 2.319 3.204 1.602 7.682-1.602 10.004l-162.475 117.701c-1.269.924-2.738 1.364-4.194 1.364z"/></g><g><path d="m213.917 256.901c-71.104 0-128.95-57.846-128.95-128.95s57.846-128.951 128.95-128.951c71.1 0 128.95 57.846 128.95 128.95s-57.849 128.951-128.95 128.951zm0-243.573c-63.202 0-114.622 51.421-114.622 114.622s51.421 114.622 114.622 114.622 114.623-51.42 114.623-114.622-51.421-114.622-114.623-114.622z"/></g><g><path d="m222.389 228.238h-16.93c-6.797 0-12.701-4.834-14.048-11.498l-4.512-22.482c-.045-.017-.7-.28-.745-.301l-19.078 12.68c-5.684 3.795-13.306 3.033-18.127-1.819l-11.897-11.897c-4.855-4.82-5.618-12.446-1.812-18.13l12.705-19.012c-.021-.052-.294-.686-.315-.738l-22.492-4.582c-6.667-1.34-11.508-7.244-11.508-14.044v-16.923c0-6.797 4.838-12.701 11.501-14.048l22.482-4.512c.01-.028.287-.71.301-.735l-12.677-19.089c-3.806-5.677-3.047-13.306 1.812-18.13l11.897-11.897c4.817-4.855 12.435-5.621 18.123-1.819l19.019 12.708c.035-.014.7-.294.738-.311l4.582-22.496c1.34-6.667 7.244-11.505 14.044-11.505h16.92c6.797 0 12.708 4.838 14.044 11.505l4.512 22.478c.049.021.707.28.756.301l19.071-12.68c5.688-3.795 13.313-3.036 18.134 1.819l11.9 11.893c4.848 4.81 5.618 12.432 1.819 18.123l-12.719 19.019c.028.056.294.672.315.728l22.499 4.593c6.653 1.336 11.494 7.237 11.508 14.03v16.934c-.014 6.807-4.855 12.708-11.508 14.044l-22.471 4.512c-.028.056-.056.185-.084.238l-.182.43 12.635 19.169c3.806 5.67 3.05 13.299-1.805 18.123l-11.893 11.9c-4.834 4.845-12.446 5.614-18.134 1.819l-19.015-12.712c-.028.01-.707.301-.735.315l-4.589 22.492c-1.336 6.673-7.241 11.507-14.041 11.507zm-36.274-48.619c1.966 0 3.935.402 5.796 1.221 4.701 1.861 8.003 5.761 9.018 10.511l4.53 22.562h16.93l4.505-22.475c1.032-4.834 4.338-8.738 8.85-10.525 4.68-2.043 9.801-1.627 13.901 1.053l19.085 12.757 11.963-11.967-12.705-19.015c-2.721-4.156-3.148-9.28-1.182-13.772l6.744 2.438-6.667-2.62c1.784-4.53 5.681-7.839 10.431-8.86l22.562-4.53.007-16.916-22.478-4.509c-4.827-1.032-8.731-4.331-10.522-8.846-2.043-4.68-1.623-9.805 1.049-13.901l12.761-19.085-11.97-11.96-19.022 12.705c-4.177 2.714-9.298 3.138-13.782 1.175-4.701-1.861-8.007-5.765-9.021-10.511l-4.53-22.566-16.916.003-4.509 22.475c-1.032 4.838-4.334 8.738-8.85 10.525-4.666 2.036-9.798 1.62-13.901-1.06l-19.082-12.75-11.967 11.967 12.715 19.019c2.714 4.173 3.138 9.294 1.179 13.772-1.864 4.712-5.768 8.014-10.518 9.028l-22.562 4.53v16.923l22.475 4.509c4.838 1.032 8.738 4.334 10.525 8.85 2.039 4.673 1.616 9.794-1.053 13.894l-12.754 19.089 11.963 11.967 19.015-12.712c2.443-1.588 5.213-2.393 7.987-2.393z"/></g><g><path d="m213.917 156.606c-15.8 0-28.656-12.855-28.656-28.656s12.855-28.656 28.656-28.656c15.804 0 28.656 12.855 28.656 28.656s-12.852 28.656-28.656 28.656zm0-42.983c-7.902 0-14.328 6.426-14.328 14.328s6.426 14.328 14.328 14.328 14.328-6.426 14.328-14.328-6.426-14.328-14.328-14.328z"/></g></g></g></g></g></svg>