<svg xmlns="http://www.w3.org/2000/svg" width="155.837" height="128" viewBox="0 0 155.837 128"><defs><style>.a,.b{fill:#fff;}.a{opacity:0.05;}.b{opacity:0.098;}.c{fill:#457784;}.d{fill:#5893a0;}.e{fill:#7badbf;}.f{fill:#659aa8;}.g{fill:#b8e9f4;}.h{fill:#9fd4e2;}.i{fill:#e6fbff;}.j{fill:#b74b51;}.k{fill:#99333d;}.l{fill:#e26672;}.m{fill:#e86774;}.n{fill:#ff889f;}.o{fill:#d35365;}.p{fill:#963841;}.q{fill:#f2c288;}.r{fill:#ffebcc;}.s{fill:#75574c;}.t{fill:#ffc5cd;}.u,.w{fill:#fff8d9;}.u,.v{opacity:0.7;}</style></defs><g transform="translate(-907.163 -220)"><path class="a" d="M2226.949-624.364c-24.676-7.052-46.156-22.333-59.738-44.938-15.255-25.389-17.673-55.241-9.255-83.062H2299a10,10,0,0,1,10,10v108a9.959,9.959,0,0,1-1.217,4.785,131.41,131.41,0,0,1-15.359,5.215Z" transform="translate(-1246 972.364)"/><path class="b" d="M2189.5-716.656c-12.772-21.257-13.888-46.59-5.328-69.672H2299a10,10,0,0,1,10,10v85.7a102.021,102.021,0,0,1-47.938,12.215C2231.746-678.407,2204.428-691.807,2189.5-716.656Z" transform="translate(-1246 1006.327)"/><g transform="matrix(0.961, 0.276, -0.276, 0.961, 463.416, 88.791)"><path class="c" d="M627.761,40.507a8.066,8.066,0,0,0-7.815,8.411,8.246,8.246,0,0,0,8.538,7.832,8.068,8.068,0,0,0,7.815-8.412A8.246,8.246,0,0,0,627.761,40.507Zm6.5,7.9a6.057,6.057,0,0,1-5.866,6.315,6.191,6.191,0,0,1-6.41-5.879,6.056,6.056,0,0,1,5.866-6.314A6.19,6.19,0,0,1,634.26,48.411Z" transform="translate(-19.43 -18.341)"/><path class="d" d="M634.257,63.016a6.055,6.055,0,0,1-5.863,5.859A6.191,6.191,0,0,1,621.985,63c0-.094,0-.184,0-.277a7.116,7.116,0,0,1-1.621-2.574,7.98,7.98,0,0,0-.419,2.923,8.246,8.246,0,0,0,8.538,7.832,8.025,8.025,0,0,0,7.616-9.839A9.683,9.683,0,0,1,634.257,63.016Z" transform="translate(-19.43 -32.491)"/><path class="e" d="M616.558,25.33a12.277,12.277,0,0,0-11.895,12.805,12.556,12.556,0,0,0,13,11.923,12.279,12.279,0,0,0,11.895-12.806A12.555,12.555,0,0,0,616.558,25.33Zm7.709,12.11a7.062,7.062,0,0,1-6.839,7.364,7.219,7.219,0,0,1-7.474-6.856,7.061,7.061,0,0,1,6.839-7.363A7.219,7.219,0,0,1,624.268,37.44Z" transform="translate(-8.418 -7.407)"/><path class="e" d="M648.934,16.064l-3.486-1.024-4.612,5.782,8.846,2.6Z" transform="translate(-34.484 0)"/><path class="e" d="M624.153,102.366l3.487,1.025,4.611-5.782-8.845-2.6Z" transform="translate(-21.928 -57.604)"/><path class="e" d="M680.291,71.011l1.025-3.486-5.782-4.611-2.6,8.845Z" transform="translate(-57.604 -34.485)"/><path class="e" d="M593.989,46.227l-1.024,3.486,5.782,4.612,2.6-8.845Z" transform="translate(0 -21.927)"/><path class="e" d="M654,98.331l3.189-1.74-.828-7.35-8.093,4.416Z" transform="translate(-39.834 -53.449)"/><path class="e" d="M618.895,18.275l-3.19,1.74.828,7.35,8.093-4.417Z" transform="translate(-16.38 -2.331)"/><path class="e" d="M596.2,76.071l1.741,3.19,7.349-.828-4.417-8.094Z" transform="translate(-2.331 -39.834)"/><path class="e" d="M676.259,40.968l-1.742-3.19-7.349.828,4.416,8.093Z" transform="translate(-53.451 -16.38)"/><path class="f" d="M621.14,55.031c-.016-.364-.052-.724-.1-1.08a20.015,20.015,0,0,1-2.977,1.989,20.345,20.345,0,0,1-2.375,1.1,7.073,7.073,0,0,1-6.677,5.542,7.23,7.23,0,0,1-7.3-5.611A16.037,16.037,0,0,1,593.838,50l-.873,2.969,3.274,2.612c0,.11,0,.219.006.33a12.332,12.332,0,0,0,.3,2.221l-2.681,3.288,1.741,3.19,4.261-.481a12.623,12.623,0,0,0,1.924,1.582l.43,4.234,3.487,1.025,2.508-3.144c.339.015.68.021,1.025.009a12.757,12.757,0,0,0,1.918-.216l3,2.446,3.189-1.74-.4-3.526a12.345,12.345,0,0,0,2.344-2.746l3.388-.344,1.025-3.486-2.576-2.054C621.154,55.794,621.157,55.415,621.14,55.031Z" transform="translate(0 -25.185)"/><path class="g" d="M622.871,33.884a9.907,9.907,0,0,0-9.6,10.329A10.127,10.127,0,0,0,623.76,53.83a9.907,9.907,0,0,0,9.6-10.329A10.127,10.127,0,0,0,622.871,33.884Zm7.982,9.7a7.437,7.437,0,0,1-7.2,7.755,7.6,7.6,0,0,1-7.87-7.219,7.435,7.435,0,0,1,7.2-7.754A7.6,7.6,0,0,1,630.853,43.588Z" transform="translate(-14.623 -13.569)"/><path class="h" d="M630.783,59.129a7.443,7.443,0,0,1-7.133,6.388,7.6,7.6,0,0,1-7.871-7.219,7.473,7.473,0,0,1,.009-.809,8.5,8.5,0,0,1-1.492-3.934,9.838,9.838,0,0,0-1.02,4.832A10.127,10.127,0,0,0,623.76,68a9.907,9.907,0,0,0,9.6-10.329c-.014-.311-.046-.616-.088-.919A11.888,11.888,0,0,1,630.783,59.129Z" transform="translate(-14.624 -27.743)"/><g transform="translate(599.158 20.308)"><path class="i" d="M622.095,61.262a7.376,7.376,0,0,0-.542,3.119,7.6,7.6,0,0,0,7.871,7.219,7.455,7.455,0,0,0,6.852-5.167,7.459,7.459,0,0,1-6.662,4.636,7.6,7.6,0,0,1-7.871-7.219A7.391,7.391,0,0,1,622.095,61.262Z" transform="translate(-619.746 -53.603)"/><path class="i" d="M624.2,33.884a9.925,9.925,0,0,0-9.09,6.767,9.932,9.932,0,0,1,8.9-6.236,10.126,10.126,0,0,1,10.484,9.617,9.845,9.845,0,0,1-.5,3.562,9.821,9.821,0,0,0,.694-4.092A10.127,10.127,0,0,0,624.2,33.884Z" transform="translate(-615.109 -33.877)"/></g><g transform="translate(593.813 15.04)"><path class="g" d="M618.665,16.55l2.915,2.377a12.506,12.506,0,0,1,2.711-.4c.178-.005.353-.006.53-.005l2.3-2.878,3.486,1.024.355,3.5a12.646,12.646,0,0,1,2.856,2.22l3.4-.384,1.635,3,.336-.411-1.742-3.19-3.4.384a12.634,12.634,0,0,0-2.856-2.22l-.356-3.5-3.486-1.024-2.3,2.878c-.176,0-.352,0-.529.006a12.511,12.511,0,0,0-2.712.4l-2.914-2.377-3.19,1.74.051.452Z" transform="translate(-610.194 -15.04)"/><path class="g" d="M623.349,61.523a7,7,0,0,0-.578,3.105,7.22,7.22,0,0,0,7.475,6.857,7.08,7.08,0,0,0,6.492-4.862,7.086,7.086,0,0,1-6.263,4.257A7.219,7.219,0,0,1,623,64.024,6.992,6.992,0,0,1,623.349,61.523Z" transform="translate(-615.279 -48.523)"/><path class="g" d="M599.927,42.1a12.317,12.317,0,0,1,1.793-2.309l-.035-.32a12.325,12.325,0,0,0-1.528,2.025l-3.982.4-.176.6Z" transform="translate(-595.998 -32.635)"/><path class="g" d="M690.734,59.6a12.406,12.406,0,0,1,.423,2.694,12.219,12.219,0,0,1-.672,4.586,12.194,12.194,0,0,0,.538-7.635Z" transform="translate(-664.06 -46.881)"/></g></g><g transform="matrix(0.995, -0.105, 0.105, 0.995, 384.305, 157.002)"><g transform="translate(589.857 133.199)"><path class="j" d="M731.87,175.01l-3.461-5.728L714.954,171.4l8.781,14.534Z" transform="translate(-677.222 -158.399)"/><path class="j" d="M597.652,241.805l3.46,5.727,13.456-2.118-8.781-14.533Z" transform="translate(-595.301 -201.418)"/><path class="j" d="M698.463,275.212l5.727-3.46L702.072,258.3l-14.534,8.781Z" transform="translate(-658.075 -220.564)"/><path class="j" d="M631.667,140.991l-5.728,3.461,2.119,13.455,14.533-8.782Z" transform="translate(-615.056 -138.641)"/><path class="j" d="M646.344,285.655l6.5,1.6,8.016-11.013-16.486-4.067Z" transform="translate(-627.928 -230.258)"/><path class="j" d="M684.173,134.8l-6.5-1.6-8.016,11.012,16.484,4.068Z" transform="translate(-645.59 -133.199)"/><path class="j" d="M591.46,189.687l-1.6,6.5L600.87,204.2l4.067-16.485Z" transform="translate(-589.857 -171.271)"/><path class="j" d="M742.311,227.514l1.6-6.5L732.9,213l-4.068,16.486Z" transform="translate(-686.915 -188.93)"/><path class="j" d="M610.373,170.138A22.532,22.532,0,0,0,627.646,197.3a23.342,23.342,0,0,0,27.267-17.985,22.533,22.533,0,0,0-17.272-27.165A23.341,23.341,0,0,0,610.373,170.138Z" transform="translate(-603.795 -146.11)"/><path class="k" d="M645.253,205.411l.274-1.11a39.434,39.434,0,0,1-18.306-.213c-12.91-3.186-22.631-12.141-26.275-22.737a23.634,23.634,0,0,0-1.894,2.781l-7.592,1.111-1.6,6.5,6.027,4.388a22.913,22.913,0,0,0,.658,5.267l-4.334,5.82,3.46,5.727,6.727-1.059a22.111,22.111,0,0,0,4.913,3.756l.964,6.584,6.5,1.6,3.895-5.35a22.661,22.661,0,0,0,6.23-.985l5.35,3.984,5.727-3.46-1.054-6.694a23.531,23.531,0,0,0,3.65-4.932Z" transform="translate(-589.857 -166.828)"/><g transform="translate(15.819 0)"><path class="l" d="M653.69,144.735l.317-.436a22.777,22.777,0,0,0-5.129,1l-5.783-4.306-.793.479,5.784,4.307A22.722,22.722,0,0,1,653.69,144.735Z" transform="translate(-642.302 -138.641)"/><path class="l" d="M700.976,135.281l.943,6.441a22.057,22.057,0,0,1,5.333,3.836l6.328-1,3.461,5.727-3.864,5.189a22.916,22.916,0,0,1,.888,6.407l5.327,3.879-1.51,6.12.7-.1,1.6-6.5-5.328-3.878a22.853,22.853,0,0,0-.887-6.407l3.865-5.19-3.461-5.728-6.328,1a22.085,22.085,0,0,0-5.333-3.837l-.943-6.44-6.5-1.6-.416.571Z" transform="translate(-679.005 -133.199)"/><path class="l" d="M730.067,265.757a23.638,23.638,0,0,1-8.059,8.524,23.649,23.649,0,0,0,8.622-8.607Z" transform="translate(-697.967 -225.717)"/></g></g><path class="m" d="M613.247,173.761a21.368,21.368,0,0,0,16.5,25.623c11.822,2.628,23.6-4.58,26.309-16.1a21.37,21.37,0,0,0-16.5-25.621C627.733,155.031,615.955,162.24,613.247,173.761Z" transform="translate(-15.944 -16.705)"/><path class="n" d="M643.634,157.66a22.124,22.124,0,0,0-25.1,12.5,22.385,22.385,0,0,1,14.966-1.857,21.37,21.37,0,0,1,16.5,25.621,21.054,21.054,0,0,1-1.2,3.6,21.219,21.219,0,0,0-5.157-39.867Z" transform="translate(-20.024 -16.705)"/><path class="m" d="M615.508,175.462a20.7,20.7,0,0,0,15.981,24.82c11.452,2.545,22.86-4.437,25.485-15.6a20.7,20.7,0,0,0-15.982-24.821C629.542,157.319,618.131,164.3,615.508,175.462Z" transform="translate(-17.535 -18.257)"/><path class="o" d="M640.735,195.065a20.7,20.7,0,0,1-16-24.743,20.537,20.537,0,0,0,6.749,37.629c11.452,2.544,22.86-4.437,25.485-15.6.006-.027.009-.052.016-.078A21.677,21.677,0,0,1,640.735,195.065Z" transform="translate(-17.535 -25.926)"/><path class="p" d="M626.954,184.066a17.315,17.315,0,0,0,13.367,20.763,17.828,17.828,0,0,0,21.318-13.047,17.315,17.315,0,0,0-13.369-20.761A17.826,17.826,0,0,0,626.954,184.066Z" transform="translate(-25.591 -26.108)"/><path class="n" d="M645.748,210.264A16.821,16.821,0,0,1,632.764,190.1a16.519,16.519,0,0,1,.98-2.91,16.666,16.666,0,0,0,7.771,28.861,17.416,17.416,0,0,0,19.726-9.762A17.6,17.6,0,0,1,645.748,210.264Z" transform="translate(-26.701 -37.703)"/><path class="q" d="M631.118,187.2a16.085,16.085,0,0,0,12.417,19.286,16.562,16.562,0,0,0,19.8-12.12,16.086,16.086,0,0,0-12.418-19.286A16.561,16.561,0,0,0,631.118,187.2Z" transform="translate(-28.521 -28.962)"/><path class="r" d="M634.667,189.864a15.035,15.035,0,0,0,11.606,18.028,15.481,15.481,0,0,0,18.51-11.33,15.035,15.035,0,0,0-11.608-18.026A15.479,15.479,0,0,0,634.667,189.864Z" transform="translate(-31.019 -31.396)"/><path class="q" d="M680.889,197.038l1.024-10.293,2.675-3.818.643,4.42L681.6,197.07Z" transform="translate(-63.574 -34.729)"/><path class="q" d="M683.187,230.915l6.567,2.52,1.528,3-3.247-.107-5.153-4.778Z" transform="translate(-64.967 -68.242)"/><path class="q" d="M654.662,178.544a16.088,16.088,0,0,1,12.419,19.287,15.891,15.891,0,0,1-2.714,5.843,15.948,15.948,0,0,0-6.191-28.6,16.767,16.767,0,0,0-17.089,6.276A16.838,16.838,0,0,1,654.662,178.544Z" transform="translate(-35.778 -28.962)"/><path class="q" d="M676.1,226.115a1.852,1.852,0,1,0,2.242-1.357A1.852,1.852,0,0,0,676.1,226.115Z" transform="translate(-60.189 -63.905)"/><path class="p" d="M681.2,224.736a1.308,1.308,0,1,0,1.583-.957A1.308,1.308,0,0,0,681.2,224.736Z" transform="translate(-63.768 -63.232)"/><g transform="translate(603.64 146.862)"><path class="s" d="M644.492,249.88l-.27-.425-2.122,1.387.272.424Z" transform="translate(-640.126 -228.052)"/><path class="s" d="M721.8,199.227l-.27-.425-2.2,1.436.271.425Z" transform="translate(-694.062 -192.677)"/><path class="s" d="M656.641,186.37l.454-.3-1.537-2.407-.455.3Z" transform="translate(-649.207 -182.106)"/><path class="s" d="M707.388,265.848l.454-.3-1.536-2.407-.456.3Z" transform="translate(-684.647 -237.611)"/><path class="s" d="M638.089,217.221l.116-.476-2.536-.545-.117.476Z" transform="translate(-635.553 -204.828)"/><path class="s" d="M730.527,237.07l.115-.475-2.627-.563-.115.476Z" transform="translate(-700.046 -218.677)"/><path class="s" d="M693.819,181.19l.544.117.655-2.694-.544-.117Z" transform="translate(-676.245 -178.497)"/><path class="s" d="M672.167,270.142l.544.115.657-2.694-.545-.116Z" transform="translate(-661.123 -240.617)"/></g><path class="o" d="M684.826,193.7l1.023-10.293,2.676-3.818.642,4.42-3.627,9.723Z" transform="translate(-66.324 -32.396)"/><path class="o" d="M687.125,227.576l6.567,2.52,1.528,3-3.247-.107-5.153-4.778Z" transform="translate(-67.717 -65.91)"/><path class="t" d="M748.32,197.211c-.589-1.475-1.243-2.6-1.46-2.514s.088,1.352.678,2.827,1.242,2.6,1.458,2.513S748.909,198.686,748.32,197.211Z" transform="translate(-109.599 -42.946)"/><path class="t" d="M736.492,179.651c-.671-.832-1.362-1.388-1.543-1.242s.218.939.888,1.771,1.362,1.388,1.543,1.242S737.163,180.483,736.492,179.651Z" transform="translate(-101.299 -31.557)"/><path class="p" d="M686.184,187.206c.651-2.64,1.238-5.473,1.771-7.335l-2.616,3.732L684.1,194.2l.935-.275.12-.32A33.9,33.9,0,0,1,686.184,187.206Z" transform="translate(-65.814 -32.595)"/><path class="p" d="M690.545,231.752a24.987,24.987,0,0,1-4.366-3.4l-.553.473,5.513,4.71,2.836.094A29.359,29.359,0,0,1,690.545,231.752Z" transform="translate(-66.883 -66.453)"/><path class="u" d="M649.036,223.106a14.731,14.731,0,0,1-7.959-19.061,14.271,14.271,0,0,0-1.242,2.418,13.4,13.4,0,0,0,7.15,17.542,12.827,12.827,0,0,0,9.784-.135A13.98,13.98,0,0,1,649.036,223.106Z" transform="translate(-34.199 -49.477)"/><g class="v" transform="translate(614.072 147.753)"><path class="w" d="M681.417,182.932q-.581-.3-1.2-.551a13.22,13.22,0,0,0-10.08.14,14.438,14.438,0,0,1,10.6,2.164Z" transform="translate(-670.138 -181.45)"/><path class="w" d="M726.052,225.569l-1.506-.583a15.838,15.838,0,0,1-.81,8.364,14.632,14.632,0,0,0,2.315-7.781Z" transform="translate(-707.57 -211.855)"/></g><path class="q" d="M683.477,226.5a.616.616,0,1,0,.745-.452A.614.614,0,0,0,683.477,226.5Z" transform="translate(-65.369 -64.833)"/></g></g></svg>