<svg xmlns="http://www.w3.org/2000/svg" xmlns:xlink="http://www.w3.org/1999/xlink" width="34" height="34" viewBox="0 0 34 34"><defs><clipPath id="a"><rect width="18" height="18" transform="translate(3217 542)" fill="#ff9879" stroke="#707070" stroke-width="1"/></clipPath></defs><g transform="translate(-3209 -534)"><circle cx="17" cy="17" r="17" transform="translate(3209 534)" fill="rgba(0,0,0,0.25)"/><g clip-path="url(#a)"><g transform="translate(3217 542)"><path d="M9,0a9,9,0,1,0,9,9A9.026,9.026,0,0,0,9,0ZM9,1.8a1.609,1.609,0,0,1,1.62,1.8L9.9,10.8H8.1L7.38,3.6A1.609,1.609,0,0,1,9,1.8ZM9,16.2a1.8,1.8,0,1,1,1.8-1.8A1.805,1.805,0,0,1,9,16.2Z" fill="#ff9879"/></g></g></g></svg>