<svg xmlns="http://www.w3.org/2000/svg" width="60" height="60" viewBox="0 0 60 60"><g transform="translate(-3057 -532)"><rect width="60" height="60" transform="translate(3057 532)" opacity="0.302"/><g transform="translate(3074 542.355)"><g transform="translate(0 20.906)"><g transform="translate(0 0)"><path d="M13,23.221A12.847,12.847,0,0,0,0,35.879,1.1,1.1,0,0,0,1.11,36.96H24.89A1.1,1.1,0,0,0,26,35.879,12.847,12.847,0,0,0,13,23.221Z" transform="translate(0 -23.221)" fill="#fff"/></g></g><g transform="translate(6.131 4.644)"><path d="M12.675,4.644a6.869,6.869,0,1,0,6.869,6.869A6.877,6.877,0,0,0,12.675,4.644Z" transform="translate(-5.805 -4.644)" fill="#fff"/></g></g></g></svg>