<svg xmlns="http://www.w3.org/2000/svg" xmlns:xlink="http://www.w3.org/1999/xlink" width="48.998" height="48.998" viewBox="0 0 48.998 48.998">
  <defs>
    <linearGradient id="linear-gradient" x1="1.017" x2="0" y2="1" gradientUnits="objectBoundingBox">
      <stop offset="0" stop-color="#36c488"/>
      <stop offset="0" stop-color="#24fff7"/>
      <stop offset="1" stop-color="#1a6872"/>
    </linearGradient>
    <clipPath id="clip-path">
      <rect id="Rectangle_1" data-name="Rectangle 1" width="38" height="26" transform="translate(3122.615 2389.034)" fill="#fff"/>
    </clipPath>
  </defs>
  <g id="Group_2" data-name="Group 2" transform="translate(-525 -400.002)">
    <g id="iterator" transform="translate(-2590.615 -1977.034)">
      <g id="Group_1" data-name="Group 1">
        <g id="base" transform="translate(3115.615 2377.036)">
          <path id="Path_1" data-name="Path 1" d="M37.244,51.242h-19a14,14,0,0,1-14-14v-19a14,14,0,0,1,14-14h19a14,14,0,0,1,14,14v19a14,14,0,0,1-14,14Z" transform="translate(-3.245 -3.245)" fill="url(#linear-gradient)"/>
          <path id="Path_2" data-name="Path 2" d="M15,2A13,13,0,0,0,2,15V34A13,13,0,0,0,15,47H34A13,13,0,0,0,47,34V15A13,13,0,0,0,34,2H15m0-2H34A15,15,0,0,1,49,15V34A15,15,0,0,1,34,49H15A15,15,0,0,1,0,34V15A15,15,0,0,1,15,0Z" fill="#c3fffd"/>
        </g>
      </g>
      <g id="Mask_Group_1" data-name="Mask Group 1" transform="translate(-2 -2)" clip-path="url(#clip-path)">
        <g id="info" transform="translate(3135.821 2389.034)">
          <path id="Path_3" data-name="Path 3" d="M16.279,22.957l-.349,1.47q-1.569.639-2.5.973a6.423,6.423,0,0,1-2.172.335A4.25,4.25,0,0,1,8.3,24.779a3.135,3.135,0,0,1-1.054-2.427,8.848,8.848,0,0,1,.079-1.168q.08-.6.255-1.348l1.307-4.772q.174-.685.294-1.3A5.815,5.815,0,0,0,9.3,12.647a1.765,1.765,0,0,0-.366-1.275,2.021,2.021,0,0,0-1.4-.36,3.563,3.563,0,0,0-1.039.164c-.356.108-.66.213-.915.31l.35-1.471q1.285-.539,2.458-.923a7.151,7.151,0,0,1,2.223-.384,4.146,4.146,0,0,1,2.91.94,3.166,3.166,0,0,1,1.022,2.443c0,.207-.022.573-.07,1.095a7.527,7.527,0,0,1-.262,1.439l-1.3,4.752a12.959,12.959,0,0,0-.286,1.309A6.939,6.939,0,0,0,12.5,21.8a1.63,1.63,0,0,0,.41,1.291,2.261,2.261,0,0,0,1.424.343,4,4,0,0,0,1.077-.172A5.9,5.9,0,0,0,16.279,22.957Zm.33-19.952A2.82,2.82,0,0,1,15.7,5.122,3.05,3.05,0,0,1,13.506,6a3.083,3.083,0,0,1-2.2-.876,2.814,2.814,0,0,1-.919-2.117A2.842,2.842,0,0,1,11.3.882a3.182,3.182,0,0,1,4.4,0A2.848,2.848,0,0,1,16.609,3.005Z" transform="translate(-5.582)" fill="#fff"/>
        </g>
      </g>
    </g>
  </g>
</svg>
